<svg xmlns="http://www.w3.org/2000/svg" width="76" height="76" viewBox="0 0 76 76"><defs><style>.a{fill:none;}.b{fill:rgba(173,199,255,0.5);}.c{fill:rgba(17,19,23,0.75);}</style></defs><g transform="translate(-1032 -372)"><rect class="a" width="76" height="76" transform="translate(1032 372)"/><circle class="b" cx="18.5" cy="18.5" r="18.5" transform="translate(1053 383)"/><g transform="translate(1037.499 379.399)"><path class="c" d="M63.886,107.313H61.72v-37.9A5.42,5.42,0,0,0,56.306,64H51.975v2.166h4.331a3.249,3.249,0,0,1,3.248,3.248v37.9H5.414v-37.9a3.249,3.249,0,0,1,3.248-3.248h4.331V64H8.663a5.42,5.42,0,0,0-5.414,5.414v37.9H1.083A1.083,1.083,0,0,0,0,108.4v4.331a3.249,3.249,0,0,0,3.248,3.248H61.72a3.249,3.249,0,0,0,3.248-3.248V108.4A1.083,1.083,0,0,0,63.886,107.313ZM36.4,109.478l-.362,1.083h-7.1l-.362-1.083ZM62.8,112.727a1.083,1.083,0,0,1-1.083,1.083H3.248a1.083,1.083,0,0,1-1.083-1.083v-3.248H26.289l.836,2.508a1.083,1.083,0,0,0,1.028.741h8.663a1.083,1.083,0,0,0,1.028-.741l.836-2.508H62.8Zm0,0" transform="translate(0 -55.337)"/><path class="c" d="M72,344h45.478v2.166H72Zm0,0" transform="translate(-62.255 -297.439)"/><path class="c" d="M115.491,38.981A19.491,19.491,0,1,0,96,19.491,19.491,19.491,0,0,0,115.491,38.981Zm0-36.816A17.325,17.325,0,1,1,98.166,19.491,17.325,17.325,0,0,1,115.491,2.166Zm0,0" transform="translate(-83.006)"/><path class="c" d="M184.663,78.077a3.241,3.241,0,0,0,1.083-6.3V64H183.58v7.779a3.245,3.245,0,0,0-1.966,1.966H176v2.166h5.613A3.249,3.249,0,0,0,184.663,78.077Zm0-4.331a1.083,1.083,0,1,1-1.083,1.083A1.083,1.083,0,0,1,184.663,73.745Zm0,0" transform="translate(-152.178 -55.337)"/><path class="c" d="M128,136h2.166v2.166H128Zm0,0" transform="translate(-110.675 -117.592)"/><path class="c" d="M232,240h2.166v2.166H232Zm0,0" transform="translate(-200.598 -207.516)"/><path class="c" d="M336,136h2.166v2.166H336Zm0,0" transform="translate(-290.522 -117.592)"/><path class="c" d="M232,32h2.166v2.166H232Zm0,0" transform="translate(-200.598 -27.669)"/></g></g></svg>