<svg xmlns="http://www.w3.org/2000/svg" xmlns:xlink="http://www.w3.org/1999/xlink" width="366.458" height="225.041" viewBox="0 0 366.458 225.041"><defs><style>.a,.b{fill:#adc7ff;}.a,.c{opacity:0.2;}.d,.r{fill:#fff;}.e{fill:#0f44b8;}.f{fill:#333;opacity:0.25;}.g{fill:#5288b6;}.h{fill:#5287b5;}.i{fill:#93be8c;}.j{fill:#3a3e47;}.k{fill:#4277eb;}.l{fill:#ffdf78;}.m,.o{fill:#e6b43e;}.m{stroke:#ffdf78;stroke-miterlimit:10;stroke-width:1.5px;}.n{opacity:0.4;fill:url(#a);}.p,.q,.r{opacity:0.6;}.q{fill:url(#b);}</style><linearGradient id="a" x1="1.309" y1="0.582" x2="-0.423" y2="0.399" gradientUnits="objectBoundingBox"><stop offset="0" stop-color="#ffdf78"/><stop offset="1" stop-color="#e6b43e"/></linearGradient><linearGradient id="b" x1="0" y1="0.5" x2="1" y2="0.5" xlink:href="#a"/></defs><g transform="translate(-728.248 -27.517)"><path class="a" d="M1017.978,72.445c-17.187-1.037-26.579,1.114-50.956-20.156s-39.87-26.239-55.485-24.43c-25.674,2.976-43.917,17.932-48.172,47.866-3.213,22.6-.731,25.406-21.016,65.817s24.627,63.264,24.627,63.264,22.357,16.729,61.846,16.023c28.575-.511,47.762-20.688,75.75-25.95,47.2-8.873,60.534-55.773,60.534-55.773C1079.206,81.5,1035.164,73.483,1017.978,72.445Z" transform="translate(-35.517 0)"/><path class="b" d="M995.207,260.123h-4.765a.789.789,0,0,1,0-1.578h4.733a.8.8,0,0,1,.805.789A.775.775,0,0,1,995.207,260.123Zm-9.5,0h-4.732a.789.789,0,0,1,0-1.578h4.732a.789.789,0,1,1,0,1.578Zm-9.466,0H971.51a.789.789,0,0,1,0-1.578h4.733a.789.789,0,0,1,0,1.578Zm-9.466,0h-4.732a.789.789,0,1,1,0-1.578h4.732a.789.789,0,1,1,0,1.578Zm-9.466,0h-4.733a.789.789,0,1,1,0-1.578h4.733a.789.789,0,1,1,0,1.578Zm-9.466,0h-4.733a.789.789,0,0,1,0-1.578h4.733a.789.789,0,0,1,0,1.578Zm-9.466,0h-4.733a.789.789,0,1,1,0-1.578h4.733a.789.789,0,0,1,0,1.578Zm-9.466,0h-4.733a.789.789,0,0,1,0-1.578h4.733a.789.789,0,0,1,0,1.578Zm-9.465,0h-4.733a.789.789,0,0,1,0-1.578h4.733a.789.789,0,1,1,0,1.578Zm-9.466,0h0a3.557,3.557,0,0,1-3.552-3.553v-.387a.789.789,0,0,1,1.578,0v.387a1.977,1.977,0,0,0,1.974,1.975.789.789,0,1,1,0,1.578Zm87.956-3.185a.789.789,0,0,1-.789-.789v-4.733a.789.789,0,0,1,1.578,0v4.733A.788.788,0,0,1,997.938,256.938Zm-90.722-4.7a.789.789,0,0,1-.789-.789v-4.733a.789.789,0,0,1,1.578,0v4.733A.789.789,0,0,1,907.217,252.239Zm90.722-4.766a.789.789,0,0,1-.789-.789v-4.733a.789.789,0,0,1,1.578,0v4.733A.788.788,0,0,1,997.938,247.472Zm-90.722-4.7a.789.789,0,0,1-.789-.789v-4.733a.789.789,0,0,1,1.578,0v4.733A.789.789,0,0,1,907.217,242.773Zm90.722-4.766a.789.789,0,0,1-.789-.789v-4.733a.789.789,0,0,1,1.578,0v4.733A.788.788,0,0,1,997.938,238.007Zm-90.722-4.7a.789.789,0,0,1-.789-.789v-4.733a.789.789,0,0,1,1.578,0v4.733A.789.789,0,0,1,907.217,233.307Zm90.722-4.766a.789.789,0,0,1-.789-.789v-4.733a.789.789,0,0,1,1.578,0v4.733A.788.788,0,0,1,997.938,228.541Zm-90.722-4.7a.789.789,0,0,1-.789-.789V218.32a.789.789,0,0,1,1.578,0v4.733A.789.789,0,0,1,907.217,223.841Zm90.722-4.766a.789.789,0,0,1-.789-.789v-4.733a.789.789,0,1,1,1.578,0v4.733A.788.788,0,0,1,997.938,219.075Zm-90.722-4.7a.789.789,0,0,1-.789-.789v-4.733a.789.789,0,0,1,1.578,0v4.733A.789.789,0,0,1,907.217,214.376Zm90.722-4.767a.789.789,0,0,1-.789-.789v-4.733a.789.789,0,1,1,1.578,0v4.733A.788.788,0,0,1,997.938,209.609Zm-90.722-4.7a.789.789,0,0,1-.789-.789v-4.733a.789.789,0,0,1,1.578,0v4.733A.789.789,0,0,1,907.217,204.91Zm90.722-4.767a.789.789,0,0,1-.789-.789v-4.733a.789.789,0,0,1,1.578,0v4.733A.788.788,0,0,1,997.938,200.143Zm-90.722-4.7a.789.789,0,0,1-.789-.789v-4.733a.789.789,0,0,1,1.578,0v4.733A.789.789,0,0,1,907.217,195.444Zm90.722-4.767a.789.789,0,0,1-.789-.789v-4.733a.789.789,0,0,1,1.578,0v4.733A.788.788,0,0,1,997.938,190.677Zm-90.722-4.7a.789.789,0,0,1-.789-.789v-4.733a.789.789,0,0,1,1.578,0v4.733A.789.789,0,0,1,907.217,185.978Zm90.722-4.766a.789.789,0,0,1-.789-.789V175.69a.789.789,0,0,1,1.578,0v4.733A.788.788,0,0,1,997.938,181.212Zm-90.722-4.7a.789.789,0,0,1-.789-.789V170.99a.789.789,0,0,1,1.578,0v4.733A.789.789,0,0,1,907.217,176.512Zm90.722-4.766a.789.789,0,0,1-.789-.789v-4.733a.789.789,0,0,1,1.578,0v4.733A.788.788,0,0,1,997.938,171.746Zm-90.722-4.7a.789.789,0,0,1-.789-.789v-4.733a.789.789,0,0,1,1.578,0v4.733A.789.789,0,0,1,907.217,167.047Zm90.722-4.766a.789.789,0,0,1-.789-.789v-4.733a.789.789,0,0,1,1.578,0v4.733A.788.788,0,0,1,997.938,162.28Zm-90.722-4.7a.789.789,0,0,1-.789-.789v-4.733a.789.789,0,0,1,1.578,0v4.733A.789.789,0,0,1,907.217,157.581Zm90.722-4.766a.789.789,0,0,1-.789-.789v-4.733a.789.789,0,0,1,1.578,0v4.733A.788.788,0,0,1,997.938,152.815Zm-90.722-4.7a.789.789,0,0,1-.789-.789v-4.733a.789.789,0,0,1,1.578,0v4.733A.789.789,0,0,1,907.217,148.115Zm90.722-4.766a.789.789,0,0,1-.789-.789v-4.733a.789.789,0,0,1,1.578,0v4.733A.788.788,0,0,1,997.938,143.349Zm-90.722-4.7a.789.789,0,0,1-.789-.789v-.406a3.561,3.561,0,0,1,3.532-3.553h0a.789.789,0,0,1,0,1.578,1.981,1.981,0,0,0-1.964,1.975v.406A.789.789,0,0,1,907.217,138.649Zm87.94-3.17h-4.733a.789.789,0,0,1,0-1.578h4.733a.789.789,0,1,1,0,1.578Zm-9.466,0h-4.732a.789.789,0,1,1,0-1.578h4.732a.789.789,0,1,1,0,1.578Zm-9.466,0h-4.733a.789.789,0,0,1,0-1.578h4.733a.789.789,0,1,1,0,1.578Zm-9.466,0h-4.733a.789.789,0,0,1,0-1.578h4.733a.789.789,0,1,1,0,1.578Zm-9.466,0h-4.733a.789.789,0,0,1,0-1.578h4.733a.789.789,0,0,1,0,1.578Zm-9.465,0h-4.733a.789.789,0,0,1,0-1.578h4.733a.789.789,0,0,1,0,1.578Zm-9.466,0h-4.733a.789.789,0,1,1,0-1.578h4.733a.789.789,0,0,1,0,1.578Zm-9.466,0h-4.733a.789.789,0,1,1,0-1.578H928.9a.789.789,0,0,1,0,1.578Zm-9.466,0H914.7a.789.789,0,0,1,0-1.578h4.733a.789.789,0,1,1,0,1.578Z" transform="translate(-58.144 -34.715)"/><g class="c" transform="translate(728.248 88.837)"><path class="b" d="M743.012,121.793a27.353,27.353,0,0,1,13.781-2.769,20.949,20.949,0,0,1,11.693,4.744,31.326,31.326,0,0,1,8.506,11.494,34.23,34.23,0,0,1,3.043,10.483,23.372,23.372,0,0,1-.869,9.665,21.076,21.076,0,0,1-4.9,8.249,31.136,31.136,0,0,1-19.551,8.917,21.347,21.347,0,0,1-9.49-1.661,23.361,23.361,0,0,1-7.909-5.712,34.3,34.3,0,0,1-5.952-9.072,33.131,33.131,0,0,1-2.978-10.551,23.232,23.232,0,0,1,.964-9.67,21.232,21.232,0,0,1,4.9-8.076A28.2,28.2,0,0,1,743.012,121.793ZM767.4,139.586a24.031,24.031,0,0,0-5.718-8.1,13.571,13.571,0,0,0-7.318-3.5,14.263,14.263,0,0,0-7.916,1.308,14.009,14.009,0,0,0-4.735,3.461,12.627,12.627,0,0,0-2.707,4.992,16.26,16.26,0,0,0-.348,6.445,25.83,25.83,0,0,0,2.258,7.557,26.446,26.446,0,0,0,4.294,6.717,16.173,16.173,0,0,0,5.268,4.023,13.052,13.052,0,0,0,5.642,1.236,14.573,14.573,0,0,0,11.495-6.2,13.769,13.769,0,0,0,2.262-7.805A23.78,23.78,0,0,0,767.4,139.586Z" transform="translate(-728.248 -118.672)"/><path class="b" d="M854.7,135.707a22.546,22.546,0,0,1-.383,7.964,17.375,17.375,0,0,1-3.081,6.6,16.962,16.962,0,0,1-5.5,4.652,21.27,21.27,0,0,1-7.642,2.305,20.645,20.645,0,0,1-7.9-.461,17.2,17.2,0,0,1-10.974-8.908,22.468,22.468,0,0,1-2.234-7.633,22.748,22.748,0,0,1,.375-8.034,17.25,17.25,0,0,1,3.05-6.559,16.793,16.793,0,0,1,5.5-4.618,22.753,22.753,0,0,1,15.545-1.845,16.91,16.91,0,0,1,11.007,8.887A22.651,22.651,0,0,1,854.7,135.707Zm-9.506,1.139q-.694-5.793-3.63-8.715a8.343,8.343,0,0,0-7.239-2.405,8.551,8.551,0,0,0-4.72,2.026,9.193,9.193,0,0,0-2.752,4.641,19.428,19.428,0,0,0,1.546,13.046,9.358,9.358,0,0,0,3.736,3.864,8.438,8.438,0,0,0,5.121.882,8.324,8.324,0,0,0,6.463-4.065Q845.884,142.571,845.2,136.846Z" transform="translate(-757.146 -118.539)"/><path class="b" d="M921.161,143.205a22.562,22.562,0,0,1-2.72,7.495,17.36,17.36,0,0,1-4.893,5.393,16.966,16.966,0,0,1-6.625,2.821,21.262,21.262,0,0,1-7.982-.056,20.674,20.674,0,0,1-7.414-2.776,17.2,17.2,0,0,1-7.851-11.754,22.489,22.489,0,0,1,.121-7.952,22.745,22.745,0,0,1,2.732-7.564,17.256,17.256,0,0,1,4.852-5.365A16.788,16.788,0,0,1,898,120.662a22.752,22.752,0,0,1,15.4,2.831,16.9,16.9,0,0,1,7.889,11.743A22.629,22.629,0,0,1,921.161,143.205Zm-9.417-1.721q1.048-5.741-.894-9.4a8.339,8.339,0,0,0-6.2-4.438,8.551,8.551,0,0,0-5.107.54,9.186,9.186,0,0,0-4,3.62,19.422,19.422,0,0,0-2.379,12.921,9.362,9.362,0,0,0,2.427,4.795,8.427,8.427,0,0,0,4.631,2.356,8.322,8.322,0,0,0,7.375-1.973Q910.707,147.155,911.744,141.484Z" transform="translate(-778.871 -119.117)"/><path class="b" d="M982.111,170.105a22.562,22.562,0,0,1-4.712,6.431,17.378,17.378,0,0,1-6.209,3.8,16.968,16.968,0,0,1-7.15.85,21.241,21.241,0,0,1-7.646-2.293,20.642,20.642,0,0,1-6.337-4.743,17.2,17.2,0,0,1-4.24-13.484,22.49,22.49,0,0,1,2.348-7.6,22.743,22.743,0,0,1,4.744-6.494,17.251,17.251,0,0,1,6.162-3.789,16.8,16.8,0,0,1,7.135-.817,22.738,22.738,0,0,1,13.983,7.036,16.9,16.9,0,0,1,4.278,13.484A22.609,22.609,0,0,1,982.111,170.105Zm-8.558-4.294q2.618-5.215,1.78-9.272a8.341,8.341,0,0,0-4.711-6,8.544,8.544,0,0,0-5.054-.914,9.183,9.183,0,0,0-4.854,2.352,19.412,19.412,0,0,0-5.908,11.735A9.364,9.364,0,0,0,955.79,169a8.441,8.441,0,0,0,3.784,3.56,8.325,8.325,0,0,0,7.634.175Q970.968,170.964,973.553,165.811Z" transform="translate(-799.207 -126.159)"/><path class="b" d="M1037.016,204.817a22.549,22.549,0,0,1-5.3,5.958,17.371,17.371,0,0,1-6.541,3.2,16.969,16.969,0,0,1-7.2.17,21.267,21.267,0,0,1-7.395-3,20.641,20.641,0,0,1-5.862-5.321A17.2,17.2,0,0,1,1001.774,192a22.482,22.482,0,0,1,3.053-7.343,22.785,22.785,0,0,1,5.336-6.018,17.27,17.27,0,0,1,6.492-3.19,16.793,16.793,0,0,1,7.18-.141,22.755,22.755,0,0,1,13.257,8.324,16.913,16.913,0,0,1,2.986,13.828A22.617,22.617,0,0,1,1037.016,204.817Zm-8.114-5.082q3.1-4.944,2.647-9.062a8.345,8.345,0,0,0-4.124-6.417,8.546,8.546,0,0,0-4.944-1.386,9.188,9.188,0,0,0-5.057,1.884,19.425,19.425,0,0,0-6.989,11.125,9.362,9.362,0,0,0,.482,5.352,8.44,8.44,0,0,0,3.431,3.9,8.323,8.323,0,0,0,7.583.894Q1025.842,204.622,1028.9,199.735Z" transform="translate(-817.379 -136.959)"/><path class="b" d="M1095.976,235.373a22.508,22.508,0,0,1-4.54,6.554,17.363,17.363,0,0,1-6.1,3.969,16.954,16.954,0,0,1-7.125,1.038,21.236,21.236,0,0,1-7.7-2.088,20.637,20.637,0,0,1-6.462-4.574,17.194,17.194,0,0,1-4.595-13.366,22.462,22.462,0,0,1,2.144-7.658,22.748,22.748,0,0,1,4.57-6.618,17.257,17.257,0,0,1,6.059-3.95,16.791,16.791,0,0,1,7.111-1.008,22.743,22.743,0,0,1,14.165,6.661,16.914,16.914,0,0,1,4.635,13.366A22.623,22.623,0,0,1,1095.976,235.373Zm-8.668-4.065q2.478-5.283,1.533-9.316a8.346,8.346,0,0,0-4.869-5.872,8.549,8.549,0,0,0-5.076-.779,9.186,9.186,0,0,0-4.791,2.482,19.414,19.414,0,0,0-5.594,11.887,9.357,9.357,0,0,0,1.125,5.255,8.44,8.44,0,0,0,3.878,3.459,8.324,8.324,0,0,0,7.635-.029Q1084.86,236.527,1087.307,231.308Z" transform="translate(-836.303 -147.611)"/><path class="b" d="M1135.009,234.147l-.343,1.1a18.845,18.845,0,0,1,6.787-2.993,13.69,13.69,0,0,1,6.734.467,15.22,15.22,0,0,1,7.066,4.578,15.658,15.658,0,0,1,3.616,8.077,23.2,23.2,0,0,1-1.022,10.514,25.218,25.218,0,0,1-3.588,7.355,18.162,18.162,0,0,1-5.09,4.894,14.871,14.871,0,0,1-6.03,2.148,15.108,15.108,0,0,1-6.455-.6,13.3,13.3,0,0,1-6.068-3.608,19.616,19.616,0,0,1-3.622-6.177l-4.257,13.679q-1.87,6.005-6.239,4.646-2.571-.8-2.921-2.611a10.239,10.239,0,0,1,.573-4.78l12.23-39.3a6,6,0,0,1,2.344-3.533,4.11,4.11,0,0,1,3.5-.319,4.29,4.29,0,0,1,2.742,2.3A5.637,5.637,0,0,1,1135.009,234.147Zm13.728,18.8a16.485,16.485,0,0,0,.824-6.533,9.513,9.513,0,0,0-1.816-4.92,7.657,7.657,0,0,0-3.89-2.729,8.491,8.491,0,0,0-7.281.992q-3.509,2.165-5.306,7.937-1.691,5.438-.062,9.257a8.415,8.415,0,0,0,5.433,5,7.66,7.66,0,0,0,4.614-.01,9.494,9.494,0,0,0,4.332-2.988A16.426,16.426,0,0,0,1148.737,252.947Z" transform="translate(-853.958 -154.076)"/><path class="b" d="M1219.738,277.054a11.063,11.063,0,0,1-9.472,9.465,25.458,25.458,0,0,1-9.25-.23,22.289,22.289,0,0,1-8.374-3.141,12.822,12.822,0,0,1-4.614-4.848,7.914,7.914,0,0,1-.859-4.972,3.666,3.666,0,0,1,1.587-2.444,3.834,3.834,0,0,1,2.986-.586,3.3,3.3,0,0,1,2.135,1.139,8.027,8.027,0,0,1,1.139,2.306,10.45,10.45,0,0,0,2.763,4.382,10.586,10.586,0,0,0,5.253,2.247,8.047,8.047,0,0,0,4.853-.4,3.587,3.587,0,0,0,2.334-2.536,3.972,3.972,0,0,0-1.208-3.954,23.546,23.546,0,0,0-5.769-3.3,51.916,51.916,0,0,1-7.42-3.979,13.185,13.185,0,0,1-4.219-4.384,8.12,8.12,0,0,1-.84-5.662,9.548,9.548,0,0,1,2.666-5.016,11.732,11.732,0,0,1,5.7-3.087,19.317,19.317,0,0,1,8.2-.036,26.514,26.514,0,0,1,6.407,1.962,16.65,16.65,0,0,1,4.471,2.92,10.185,10.185,0,0,1,2.436,3.363,5.6,5.6,0,0,1,.456,3.21,3.553,3.553,0,0,1-1.57,2.447,4.362,4.362,0,0,1-3.266.464,3.832,3.832,0,0,1-2.3-1.277,16.454,16.454,0,0,1-1.864-2.9,8.63,8.63,0,0,0-2.1-2.662,8.03,8.03,0,0,0-3.765-1.547,7.8,7.8,0,0,0-4.426.3,3.21,3.21,0,0,0-2.181,2.388,2.969,2.969,0,0,0,.791,2.65,10.42,10.42,0,0,0,3.045,2.178q1.98,1.005,5.494,2.576a31.389,31.389,0,0,1,6.663,3.857,12.062,12.062,0,0,1,3.549,4.26A7.867,7.867,0,0,1,1219.738,277.054Z" transform="translate(-877.969 -160.652)"/><path class="b" d="M1257.086,261.913l-1.514-16.706q-.431-4.882-.48-7.014a6.36,6.36,0,0,1,1.412-4.559,5.22,5.22,0,0,1,3.961-1.72q3-.071,4.067,1.984a14.068,14.068,0,0,1,1.154,5.967,45.708,45.708,0,0,1-.133,4.686l-1.094,17.257a13.491,13.491,0,0,1-.936,4.741,2.745,2.745,0,0,1-2.616,1.705,2.643,2.643,0,0,1-2.658-1.528A15.834,15.834,0,0,1,1257.086,261.913Zm4.422,22.894a5.5,5.5,0,0,1-3.753-1.292,4.837,4.837,0,0,1-1.68-3.822,5.189,5.189,0,0,1,5.116-5.329,5.178,5.178,0,0,1,3.792,1.43,4.967,4.967,0,0,1,1.642,3.649,4.878,4.878,0,0,1-1.481,3.88A5.352,5.352,0,0,1,1261.508,284.807Z" transform="translate(-900.168 -155.535)"/></g><rect class="b" width="90.722" height="124.644" rx="3.503" transform="translate(885.88 71.703)"/><g transform="translate(865.148 85.681)"><path class="d" d="M1001.063,115.355H935.724a2.764,2.764,0,0,0-2.764,2.764V237.236A2.764,2.764,0,0,0,935.724,240h85.194a2.763,2.763,0,0,0,2.763-2.763V137.628Z" transform="translate(-931.949 -114.344)"/><path class="e" d="M1020.429,240.52H935.234a3.778,3.778,0,0,1-3.774-3.775V117.63a3.778,3.778,0,0,1,3.774-3.775h65.754l23.215,22.861V236.745A3.778,3.778,0,0,1,1020.429,240.52ZM935.234,115.876a1.755,1.755,0,0,0-1.753,1.754V236.745a1.755,1.755,0,0,0,1.753,1.754h85.195a1.755,1.755,0,0,0,1.753-1.754V137.562l-22.022-21.686Z" transform="translate(-931.46 -113.855)"/><g transform="translate(69.113 1.011)"><path class="f" d="M1056.864,157.029l-19.126-8.612H1056.8Z" transform="translate(-1035.254 -126.144)"/><path class="e" d="M1056.67,137.628h-19.854a2.764,2.764,0,0,1-2.764-2.763v-19.51" transform="translate(-1034.051 -115.355)"/></g></g><path class="b" d="M1137.554,196.1a2.6,2.6,0,1,1,2.6-2.6A2.6,2.6,0,0,1,1137.554,196.1Zm0-4.4a1.807,1.807,0,1,0,1.806,1.807A1.809,1.809,0,0,0,1137.554,191.7Z" transform="translate(-132.718 -53.318)"/><g transform="translate(943.859 233.151)"><path class="b" d="M1052.491,338.664a.394.394,0,0,1-.395-.394v-5.117a.394.394,0,1,1,.789,0v5.117A.394.394,0,0,1,1052.491,338.664Z" transform="translate(-1049.537 -332.758)"/><path class="b" d="M1053.811,337.345h-5.118a.394.394,0,1,1,0-.789h5.118a.394.394,0,0,1,0,.789Z" transform="translate(-1048.298 -333.997)"/></g><g transform="translate(988.729 123.067)"><path class="b" d="M1119.1,175.257a.394.394,0,0,1-.395-.395v-5.117a.394.394,0,1,1,.789,0v5.117A.394.394,0,0,1,1119.1,175.257Z" transform="translate(-1116.143 -169.35)"/><path class="b" d="M1120.415,173.937H1115.3a.394.394,0,1,1,0-.789h5.117a.394.394,0,1,1,0,.789Z" transform="translate(-1114.903 -170.589)"/></g><g transform="translate(888.449 60.097)"><path class="b" d="M970.242,81.785a.394.394,0,0,1-.395-.394V76.273a.394.394,0,1,1,.789,0v5.118A.394.394,0,0,1,970.242,81.785Z" transform="translate(-967.289 -75.878)"/><path class="b" d="M971.561,80.466h-5.118a.394.394,0,0,1,0-.789h5.118a.394.394,0,0,1,0,.789Z" transform="translate(-966.049 -77.118)"/></g><g transform="translate(830.501 159.865)"><path class="b" d="M883.055,228.3a.394.394,0,0,1-.395-.394v-3.542a.394.394,0,0,1,.789,0v3.542A.394.394,0,0,1,883.055,228.3Z" transform="translate(-880.889 -223.973)"/><path class="b" d="M883.967,227.39h-3.542a.394.394,0,1,1,0-.789h3.542a.394.394,0,0,1,0,.789Z" transform="translate(-880.031 -224.831)"/></g><path class="b" d="M863.368,247.7a2.75,2.75,0,1,1,2.75-2.749A2.753,2.753,0,0,1,863.368,247.7Zm0-4.632a1.883,1.883,0,1,0,1.883,1.883A1.885,1.885,0,0,0,863.368,243.066Z" transform="translate(-43.195 -70.055)"/><g transform="translate(850.89 70.914)"><path class="e" d="M919.084,105.6l-4.663-3.337q-1.361-.977-1.929-1.434a2.466,2.466,0,0,1-.936-1.306,1.369,1.369,0,0,1,.28-1.235,1.114,1.114,0,0,1,1.27-.446,5.677,5.677,0,0,1,1.778,1.058q.615.494,1.206,1.057l4.327,4.023a5.425,5.425,0,0,1,1.071,1.243.782.782,0,0,1-.034.94.753.753,0,0,1-.891.241A6.347,6.347,0,0,1,919.084,105.6Z" transform="translate(-910.693 -93.845)"/><path class="e" d="M926.222,100.058l-1.555-4.291q-.452-1.255-.619-1.811a1.964,1.964,0,0,1-.026-1.279,1.094,1.094,0,0,1,.74-.684.887.887,0,0,1,1.034.28,4.507,4.507,0,0,1,.69,1.5q.181.6.315,1.237l1.025,4.59a4.306,4.306,0,0,1,.142,1.3.623.623,0,0,1-.447.6.6.6,0,0,1-.693-.244A5.056,5.056,0,0,1,926.222,100.058Z" transform="translate(-914.745 -91.935)"/><path class="e" d="M916.323,114.04l-3.325.449q-.972.129-1.4.163a1.44,1.44,0,0,1-.923-.181.8.8,0,0,1-.377-.639.653.653,0,0,1,.362-.7,3.322,3.322,0,0,1,1.182-.263q.461-.036.938-.033l3.457-.022a3.178,3.178,0,0,1,.955.1.458.458,0,0,1,.362.415.44.44,0,0,1-.283.46A3.719,3.719,0,0,1,916.323,114.04Z" transform="translate(-910.297 -98.749)"/></g><g transform="translate(892.191 122.191)"><circle class="e" cx="2.699" cy="2.699" r="2.699" transform="translate(32.469)"/><circle class="e" cx="2.699" cy="2.699" r="2.699"/><path class="e" d="M1002.871,181.887a1.078,1.078,0,0,0-.659-.506c-6.24-1.674-11.409,2.417-11.627,2.592a1.085,1.085,0,0,0,1.357,1.693c.046-.036,4.585-3.562,9.708-2.189a1.085,1.085,0,0,0,1.221-1.59Z" transform="translate(-977.666 -172.27)"/></g><g transform="translate(873.985 93.771)"><path class="b" d="M946.711,130.048v-.573h-1.547a.636.636,0,0,1-.439-.132.461.461,0,0,1-.147-.361.356.356,0,0,1,.022-.119.662.662,0,0,1,.065-.126c.029-.044.059-.087.09-.128l.114-.151,1.634-2.185a2.5,2.5,0,0,1,.263-.313.349.349,0,0,1,.248-.1q.468,0,.468.536v2.385h.133a.939.939,0,0,1,.381.065.277.277,0,0,1,.143.284.3.3,0,0,1-.117.26.615.615,0,0,1-.352.082h-.188v.573a.51.51,0,0,1-.1.353.361.361,0,0,1-.28.115.355.355,0,0,1-.279-.119A.5.5,0,0,1,946.711,130.048Zm-1.325-1.263h1.325v-1.791Z" transform="translate(-944.578 -125.863)"/><path class="b" d="M953.626,128.236a5.365,5.365,0,0,1-.061.869,2.018,2.018,0,0,1-.228.66,1.519,1.519,0,0,1-.542.561,1.475,1.475,0,0,1-1.579-.068,1.616,1.616,0,0,1-.559-.734,2.731,2.731,0,0,1-.141-.565,4.727,4.727,0,0,1-.045-.67,6.418,6.418,0,0,1,.049-.838,2.765,2.765,0,0,1,.154-.641,1.378,1.378,0,0,1,1.356-.909,1.544,1.544,0,0,1,.576.1,1.325,1.325,0,0,1,.455.3,1.731,1.731,0,0,1,.331.492A3.521,3.521,0,0,1,953.626,128.236Zm-.844-.061a5.07,5.07,0,0,0-.068-.923,1.129,1.129,0,0,0-.228-.542.559.559,0,0,0-.444-.184.569.569,0,0,0-.565.41,3.732,3.732,0,0,0-.159,1.263,5.376,5.376,0,0,0,.068.949,1.187,1.187,0,0,0,.228.559.595.595,0,0,0,.878-.007,1.224,1.224,0,0,0,.225-.564A5.734,5.734,0,0,0,952.781,128.174Z" transform="translate(-946.501 -125.875)"/><path class="b" d="M957.845,130.048v-.573H956.3a.639.639,0,0,1-.439-.132.463.463,0,0,1-.146-.361.34.34,0,0,1,.022-.119.656.656,0,0,1,.065-.126c.029-.044.059-.087.09-.128l.114-.151,1.634-2.185a2.434,2.434,0,0,1,.263-.313.348.348,0,0,1,.248-.1q.468,0,.468.536v2.385h.133a.94.94,0,0,1,.381.065.277.277,0,0,1,.143.284.3.3,0,0,1-.117.26.616.616,0,0,1-.352.082h-.188v.573a.511.511,0,0,1-.1.353.362.362,0,0,1-.281.115.357.357,0,0,1-.279-.119A.508.508,0,0,1,957.845,130.048Zm-1.325-1.263h1.325v-1.791Z" transform="translate(-948.211 -125.863)"/></g><g transform="translate(879.091 171.233)"><path class="g" d="M1034.445,240.848a9.109,9.109,0,0,0,.906.327,29.634,29.634,0,0,1,3.746,1.637c.054.028.106.059.184.1a7.527,7.527,0,0,0-.764.362.58.58,0,0,1-.651-.009,27.69,27.69,0,0,0-4.342-1.851.38.38,0,0,1-.178-.081l1-.486Z" transform="translate(-978.651 -240.848)"/><path class="h" d="M1034.945,249.259l.1.065a43.569,43.569,0,0,1,6.464,5.1c.289.28.569.567.858.846.082.077.084.13,0,.214-.41.418-.814.841-1.217,1.267-.067.069-.105.1-.193.012a53.562,53.562,0,0,0-7.375-6.227c-.188-.135-.19-.136,0-.275q.624-.464,1.252-.924C1034.871,249.308,1034.908,249.284,1034.945,249.259Z" transform="translate(-978.683 -243.593)"/><path class="i" d="M1037.592,247.571l.106.063a36.3,36.3,0,0,1,4.9,3.578q1.094.949,2.109,1.983c.088.088.1.137.007.234-.332.331-.654.672-.972,1.016-.085.092-.13.073-.208-.007a40.918,40.918,0,0,0-6.689-5.487c-.19-.127-.381-.253-.573-.376-.074-.046-.116-.077-.012-.145.423-.27.842-.546,1.262-.82C1037.544,247.594,1037.569,247.583,1037.592,247.571Z" transform="translate(-979.58 -243.042)"/><path class="i" d="M1033.1,246.395l-.372.232a33.71,33.71,0,0,0-5.174,3.952q-.679.634-1.32,1.306c-.082.085-.128.088-.208,0q-.325-.371-.668-.726c-.077-.082-.083-.127,0-.212a32.54,32.54,0,0,1,2.534-2.358,31.388,31.388,0,0,1,3.875-2.765.232.232,0,0,1,.27-.007C1032.38,246.009,1032.728,246.2,1033.1,246.395Z" transform="translate(-976.024 -242.456)"/><path class="h" d="M1031.214,245.31c-.034.061-.09.077-.137.106a30.611,30.611,0,0,0-6.286,5.037c-.1.1-.145.116-.24,0a7,7,0,0,0-.5-.54c-.092-.091-.089-.143,0-.237a30.918,30.918,0,0,1,2.79-2.548,29.941,29.941,0,0,1,3.128-2.2.358.358,0,0,1,.42-.025C1030.658,245.047,1030.939,245.173,1031.214,245.31Z" transform="translate(-975.596 -242.151)"/><path class="h" d="M1042.273,247.088c.437-.26.836-.5,1.24-.734q1.512-.875,3.095-1.615a.213.213,0,0,1,.255.02c.311.235.627.463.944.692.1.071.131.111,0,.188-1.335.754-2.626,1.577-3.895,2.44-.066.044-.119.09-.205.023-.435-.34-.888-.656-1.343-.965A.844.844,0,0,0,1042.273,247.088Z" transform="translate(-981.564 -242.107)"/><path class="i" d="M1045.683,244.047c-.412.193-.785.367-1.155.546q-1.653.8-3.226,1.758a.2.2,0,0,1-.255,0c-.414-.27-.834-.53-1.276-.81.234-.131.45-.253.668-.372a32.306,32.306,0,0,1,3.938-1.819c.056-.022.11-.055.173-.014C1044.917,243.566,1045.284,243.8,1045.683,244.047Z" transform="translate(-980.747 -241.652)"/><path class="i" d="M1037.291,243.859c-.4.218-.79.424-1.176.635-.071.038-.116-.016-.167-.042a31.4,31.4,0,0,0-4.081-1.873l-.5-.188s0-.009-.017-.039c.245-.131.5-.249.737-.4a.742.742,0,0,1,.728-.056,32.1,32.1,0,0,1,4.3,1.866C1037.171,243.79,1037.223,243.821,1037.291,243.859Z" transform="translate(-977.999 -241.167)"/><path class="j" d="M954.46,269.561a5.822,5.822,0,0,1-2.072-.586.71.71,0,0,1-.231-.175v-.116c.276-.54.46-1.116.681-1.675.08-.2.154-.234.36-.164a7.921,7.921,0,0,0,3.669.372,1.9,1.9,0,0,0,.585-.181.93.93,0,0,0,.217-1.611,3.59,3.59,0,0,0-.987-.567c-.628-.27-1.261-.527-1.882-.811a4.667,4.667,0,0,1-1.516-1.087,3.058,3.058,0,0,1,.779-4.691,5.961,5.961,0,0,1,3.267-.618,7.779,7.779,0,0,1,2.8.685c.17.077.187.14.116.3-.219.5-.432,1-.628,1.514-.075.193-.164.21-.35.154a7.45,7.45,0,0,0-2.916-.379,1.54,1.54,0,0,0-.744.24.738.738,0,0,0-.116,1.164,2.381,2.381,0,0,0,.73.484c.6.275,1.213.539,1.817.814a6.524,6.524,0,0,1,1.826,1.152,3.131,3.131,0,0,1-.466,4.971,5.828,5.828,0,0,1-2.575.811A13.216,13.216,0,0,1,954.46,269.561Z" transform="translate(-952.157 -246.327)"/><path class="j" d="M993.923,265.346c-.1-2.406-.021-4.814-.051-7.22,0-.2.06-.246.25-.243.773.01,1.547.011,2.32,0,.2,0,.235.071.235.251q-.007,5.55,0,11.1c0,.2-.05.263-.257.261q-1.409-.017-2.819,0a.406.406,0,0,1-.407-.249q-2.016-3.54-4.045-7.073c-.059-.1-.119-.2-.185-.314-.089.073-.046.166-.043.24.106,2.355.023,4.716.058,7.074,0,.261-.064.328-.323.322-.753-.018-1.506-.011-2.26,0-.177,0-.234-.049-.232-.232q.007-5.578,0-11.157c0-.162.041-.22.211-.219.949.007,1.9.011,2.848,0,.2,0,.249.109.322.235l4.253,7.427.059.1c.03-.018.048.108.072.014A.524.524,0,0,0,993.923,265.346Z" transform="translate(-963.254 -246.406)"/><path class="j" d="M1034.155,269.7c.13-.611.327-1.2.512-1.8.077-.252.057-.362-.226-.437a4.466,4.466,0,0,1-2.08-1.149c-.441-.444-.853-.916-1.286-1.369-.108-.112-.085-.158.038-.235a3.485,3.485,0,0,0,1.686-3.494,3.264,3.264,0,0,0-1.8-2.771,4.843,4.843,0,0,0-2.2-.546c-1.583-.022-3.17-.009-4.755-.02-.187,0-.225.059-.225.234q.007,5.563,0,11.125c0,.222.083.251.273.249.753-.009,1.506-.012,2.26,0,.225,0,.3-.051.293-.287-.013-1.154,0-2.309-.011-3.463,0-.2.05-.273.259-.262a8.141,8.141,0,0,0,.968-.005.46.46,0,0,1,.421.193c.593.69,1.182,1.383,1.8,2.053a5.7,5.7,0,0,0,3.4,1.921A3.827,3.827,0,0,0,1034.155,269.7Zm-5.783-6.234a10.486,10.486,0,0,1-1.58.067c-.172,0-.154-.1-.154-.207V261.8c0-.489.006-.978,0-1.467,0-.179.027-.263.235-.255a11.124,11.124,0,0,1,1.987.1,1.209,1.209,0,0,1,1.062,1.123A1.72,1.72,0,0,1,1028.372,263.467Z" transform="translate(-975.542 -246.407)"/><path class="j" d="M978.146,269.216q-1.877-5.546-3.735-11.1a.285.285,0,0,0-.331-.232c-1.027.009-2.055.011-3.083,0a.336.336,0,0,0-.375.265q-1.8,4.717-3.623,9.429c-.24.626-.477,1.252-.728,1.912.858,0,1.679-.007,2.5,0a.344.344,0,0,0,.4-.27c.342-.965.712-1.922,1.062-2.885a.3.3,0,0,1,.333-.24q1.717.014,3.436,0a.284.284,0,0,1,.323.242c.309.978.631,1.95.938,2.927a.27.27,0,0,0,.309.226c.793-.01,1.585-.013,2.378,0C978.185,269.5,978.223,269.445,978.146,269.216Zm-4.749-5.147c-.713-.006-1.427,0-2.14,0-.113,0-.19,0-.142-.158.432-1.4.86-2.807,1.308-4.274l.786,3c.108.415.21.832.326,1.244.04.143.013.187-.139.186Z" transform="translate(-956.763 -246.408)"/><path class="j" d="M1015.824,269.231q-1.88-5.56-3.745-11.127a.269.269,0,0,0-.309-.22c-1.037.007-2.075.01-3.112,0a.315.315,0,0,0-.354.249c-.414,1.106-.843,2.206-1.267,3.308l-2.973,7.735c-.12.311-.119.311.195.312.734,0,1.467-.007,2.2,0a.33.33,0,0,0,.379-.257c.344-.965.711-1.922,1.06-2.886a.317.317,0,0,1,.355-.253q1.7.019,3.406,0a.3.3,0,0,1,.342.259c.3.968.628,1.931.927,2.9a.28.28,0,0,0,.329.237c.391-.013.783,0,1.174,0s.8-.011,1.2,0C1015.863,269.5,1015.9,269.443,1015.824,269.231Zm-4.729-5.163c-.772,0-1.541,0-2.351,0l1.351-4.438c.383,1.47.744,2.866,1.112,4.26C1011.239,264,1011.252,264.069,1011.1,264.068Z" transform="translate(-969.071 -246.407)"/></g><g transform="translate(933.463 170.864)"><circle class="d" cx="19.722" cy="19.722" r="19.722" transform="translate(7.063 7.034)"/><path class="b" d="M1071.725,269.2H1094.8a23.366,23.366,0,0,0-6.508-16.4c-6.02-6.011-16.277-5.324-16.277-5.324Z" transform="translate(-1045.547 -242.633)"/><g transform="translate(4.961 4.738)"><path class="d" d="M1045.324,284.414h21.448V247.435s-24.845-2.753-26.477,20.412C1039.556,278.349,1045.324,284.414,1045.324,284.414Z" transform="translate(-1040.23 -247.333)"/><path class="k" d="M1047.3,284.414c5.664.063,10.379.726,16.043.776l2.688.017a10.954,10.954,0,0,0,1.523-.049,3.9,3.9,0,0,0,2.916-2.194,3.931,3.931,0,0,0,.3-.9,4.016,4.016,0,0,0,.061-.471c.01-.162.016-.324.014-.418l.007-2.689.028-10.754-.059-20.249-2.248-.149-.059,20.4.027,10.754.008,2.689c0,.13,0,.191-.007.253a1.847,1.847,0,0,1-.023.2,1.655,1.655,0,0,1-.121.371,1.588,1.588,0,0,1-.49.608c-.455.356-.825.346-1.876.337l-2.688.017c-5.847.053-11.213.078-17.06.145" transform="translate(-1042.205 -247.333)"/></g><path class="l" d="M1059.48,240.3a26.614,26.614,0,1,0,26.615,26.614A26.614,26.614,0,0,0,1059.48,240.3Zm0,49.256a22.642,22.642,0,1,1,22.643-22.642A22.642,22.642,0,0,1,1059.48,289.556Z" transform="translate(-1032.866 -240.3)"/><g transform="translate(1.935 1.837)"><path class="m" d="M1126.654,335.164l-24.337-27.5-.78.691-4.127-4.663-4.342,3.843,4.126,4.663-.971.86,24.337,27.5a4.069,4.069,0,0,0,6.094-5.393Z" transform="translate(-1054.446 -262.824)"/><path class="n" d="M0,0H3.846a0,0,0,0,1,0,0V31.657A1.923,1.923,0,0,1,1.923,33.58h0A1.923,1.923,0,0,1,0,31.657V0A0,0,0,0,1,0,0Z" transform="translate(44.869 50.49) rotate(-41.51)"/><path class="o" d="M1060.588,243.027a24.85,24.85,0,1,0,24.85,24.85A24.85,24.85,0,0,0,1060.588,243.027Zm0,44.572a19.722,19.722,0,1,1,19.722-19.722A19.722,19.722,0,0,1,1060.588,287.6Z" transform="translate(-1035.738 -243.027)"/><g class="p" transform="translate(5.128 5.055)"><circle class="q" cx="19.722" cy="19.722" r="19.722"/><path class="r" d="M1069.431,292.66l16.72-32.167a17,17,0,0,0-1.436-1.571l-17.4,33.468S1068.619,292.617,1069.431,292.66Z" transform="translate(-1051.171 -253.269)"/><path class="r" d="M1080.77,292.891l11.614-22.344a19.444,19.444,0,0,0-2.591-6.345l-15.7,30.21A18.844,18.844,0,0,0,1080.77,292.891Z" transform="translate(-1053.381 -254.992)"/></g></g></g></g></svg>