<svg xmlns="http://www.w3.org/2000/svg" width="200" height="200" viewBox="0 0 200 200"><defs><style>.a{opacity:0.4;}.b{fill:none;}.c{fill:#d1d9e8;}.d{fill:#a4adbf;}.e{fill:#5a6275;}.f{fill:#bfc7d9;}</style></defs><g class="a" transform="translate(-378.051 -353.047)"><rect class="b" width="200" height="200" transform="translate(378.051 353.047)"/><g transform="translate(393.113 366.946)"><circle class="c" cx="85.492" cy="85.492" r="85.492"/><rect class="d" width="72.99" height="61.006" rx="5" transform="translate(11.983 17.379)"/><rect class="e" width="45.755" height="6.536" rx="3" transform="translate(25.056 29.363)"/><rect class="e" width="45.755" height="6.536" rx="3" transform="translate(25.056 42.436)"/><rect class="e" width="45.755" height="6.536" rx="3" transform="translate(25.056 55.508)"/><path class="f" d="M485.932,441.572c0-1.042.589-1.889,1.315-1.889h36.469V361.216c0-1.768-1.008-3.216-2.239-3.216H431.934c-1.231,0-2.238,1.448-2.238,3.216v86.168c0,1.768,1.007,3.215,2.238,3.215h54v-9.027Z" transform="translate(-386.507 -322.101)"/><g transform="translate(57.738 51.151)"><g transform="translate(0 0)"><path class="e" d="M451.536,385.983a2.168,2.168,0,0,1-1.54-.638l-4.358-4.358a2.178,2.178,0,0,1,3.081-3.081l2.817,2.816,6.085-6.084a2.179,2.179,0,1,1,3.081,3.081l-7.626,7.626A2.168,2.168,0,0,1,451.536,385.983Z" transform="translate(-445 -374)"/></g><rect class="e" width="45.755" height="6.536" rx="3" transform="translate(20.699 3.268)"/></g><g transform="translate(58.283 72.939)"><path class="e" d="M455.117,400.286l2.817-2.817a2.178,2.178,0,1,0-3.081-3.081l-2.817,2.817-2.817-2.817a2.178,2.178,0,1,0-3.081,3.081l2.817,2.817-2.817,2.817a2.179,2.179,0,1,0,3.081,3.081l2.817-2.817,2.817,2.817a2.178,2.178,0,1,0,3.081-3.081Z" transform="translate(-445.5 -393.75)"/><rect class="e" width="45.755" height="6.536" rx="3" transform="translate(20.154 3.268)"/></g><g transform="translate(58.283 96.906)"><path class="e" d="M455.117,400.286l2.817-2.817a2.178,2.178,0,1,0-3.081-3.081l-2.817,2.817-2.817-2.817a2.178,2.178,0,1,0-3.081,3.081l2.817,2.817-2.817,2.817a2.179,2.179,0,1,0,3.081,3.081l2.817-2.817,2.817,2.817a2.178,2.178,0,1,0,3.081-3.081Z" transform="translate(-445.5 -393.75)"/><rect class="e" width="45.755" height="6.536" rx="3" transform="translate(20.154 3.268)"/></g><g transform="translate(97.448 111.149)"><path class="e" d="M545.907,456.732a2.023,2.023,0,0,1-2.018,2.016h-57.72a2.021,2.021,0,0,1-2.016-2.016V415.093a2.023,2.023,0,0,1,2.016-2.018h57.72a2.024,2.024,0,0,1,2.018,2.018v41.639Z" transform="translate(-484.153 -413.075)"/><path class="c" d="M500.662,424.439c0-2.218,1.572-3.126,3.494-2.016l15.885,9.17c1.92,1.11,1.92,2.924,0,4.034L504.156,444.8c-1.922,1.109-3.494.2-3.494-2.016Z" transform="translate(-479.871 -410.773)"/></g></g></g></svg>