<svg xmlns="http://www.w3.org/2000/svg" width="104" height="28" viewBox="0 0 104 28"><defs><style>.a{fill:#393f4d;}.b,.e{fill:none;}.b{stroke:#0f44b8;stroke-miterlimit:10;}.c{fill:#0f44b8;}.d{stroke:none;}</style></defs><g transform="translate(33.497 6.42)"><path class="a" d="M477.6,100.452c-1.073-1.726-2.8-1.978-4.462-2-1.726,0-4.462.631-4.462,2.988,0,1.873,2.02,2.315,4.5,2.778,2.841.547,5.788,1.052,5.788,4.23-.021,3.325-3.367,4.125-5.83,4.125-2.294,0-4.9-.947-6.04-3.2l1.01-.505c.905,1.789,3.22,2.673,5.03,2.673s4.693-.505,4.693-3.115c.021-2.21-2.42-2.694-4.841-3.157-2.694-.526-5.451-1.073-5.451-3.788-.063-3.115,3.178-4.083,5.6-4.083,2.1,0,3.936.337,5.388,2.5Z" transform="translate(-467.1 -97.4)"/><path class="a" d="M662.138,115.131l-1.621-3.62h-8.8l-1.6,3.62H648.9l6.608-14.731h1.242l6.608,14.731Zm-2.062-4.672-3.957-8.965-3.957,8.965Z" transform="translate(-636.146 -100.19)"/><path class="a" d="M882.784,100.4l9.912,12.185V100.4h1.116v14.731h-.442l-9.933-12.164v12.164H882.3V100.4Z" transform="translate(-853.173 -100.19)"/><path class="a" d="M1084.838,115.131l-1.62-3.62h-8.8l-1.6,3.62h-1.22l6.608-14.731h1.242l6.609,14.731Zm-2.062-4.672-3.956-8.965-3.957,8.965Z" transform="translate(-1029.193 -100.19)"/><path class="a" d="M1316.444,115.131h-1.494l-5.093-5.577h-4.02v5.577H1304.7V100.4h6.482a4.554,4.554,0,0,1,4.841,4.588c.021,2.4-1.557,4.5-4.777,4.5Zm-10.607-6.65h5.219c2.568,0,3.7-1.452,3.725-3.514a3.4,3.4,0,0,0-3.6-3.515h-5.345Z" transform="translate(-1245.941 -100.19)"/></g><g class="b" transform="translate(0 0)"><ellipse class="d" cx="14" cy="14" rx="14" ry="14"/><ellipse class="e" cx="14" cy="14" rx="13.5" ry="13.5"/></g><g transform="translate(8.964 8.646)"><path class="c" d="M131.6,134.564a5.153,5.153,0,0,1,5.131-5.364c2.841,0,5.376,1.788,4.988,5.848h-9.1a4.017,4.017,0,0,0,4.109,3.85,4.686,4.686,0,0,0,3.639-1.578l.715.589a5.484,5.484,0,0,1-4.354,2A5.026,5.026,0,0,1,131.6,134.564Zm9.219-.421a3.754,3.754,0,0,0-4.088-4,4.085,4.085,0,0,0-4.109,4Z" transform="translate(-131.6 -129.2)"/></g></svg>