<svg xmlns="http://www.w3.org/2000/svg" width="76" height="76" viewBox="0 0 76 76"><defs><style>.a{fill:none;}.b{fill:rgba(173,199,255,0.5);}.c{fill:rgba(17,19,23,0.75);}</style></defs><g transform="translate(-1360 -372)"><rect class="a" width="76" height="76" transform="translate(1360 372)"/><g transform="translate(1373.702 377.167)"><path class="b" d="M27.368,15.726a5.436,5.436,0,0,1,3.9-5.153,6.414,6.414,0,0,0,4.415-4.412,5.409,5.409,0,0,1,10.394,0,6.408,6.408,0,0,0,4.412,4.411,5.43,5.43,0,0,1,3.908,5.2v2.7H27.368Z" transform="translate(-17.069 1)"/><g transform="translate(9.012 27.037)"><rect class="c" width="27.037" height="2.253"/></g><g transform="translate(9.012 33.796)"><path class="c" d="M80.1,240v2.253h21.927L104.282,240Z" transform="translate(-80.102 -239.998)"/></g><g transform="translate(9.012 40.555)"><path class="c" d="M80.1,288v2.253H95.27L97.523,288Z" transform="translate(-80.102 -287.998)"/></g><g transform="translate(9.012 47.315)"><rect class="c" width="11.265" height="2.253"/></g><g transform="translate(0)"><path class="c" d="M71.741,24.095l-3.186-3.186a2.254,2.254,0,0,0-3.186,0L40.886,45.39v6.43c5.424,0,4.052,0,6.325-.01l11.7-11.7V56.327a2.253,2.253,0,0,1-2.253,2.253H20.608a2.253,2.253,0,0,1-2.253-2.253V15.771a2.253,2.253,0,0,1,2.253-2.253h4.507v4.506H52.152V13.518h4.506a2.253,2.253,0,0,1,2.253,2.253V24.14l2.253-2.269v-6.1a4.506,4.506,0,0,0-4.506-4.506h-4.9a6.772,6.772,0,0,0-4.5-4.243A3.1,3.1,0,0,1,45.13,4.888a6.762,6.762,0,0,0-12.993,0A3.106,3.106,0,0,1,30,7.023a6.774,6.774,0,0,0-4.5,4.243H20.608A4.506,4.506,0,0,0,16.1,15.771V56.327a4.506,4.506,0,0,0,4.506,4.506H56.658a4.506,4.506,0,0,0,4.506-4.506V37.858L71.741,27.281A2.254,2.254,0,0,0,71.741,24.095ZM27.368,13.482a4.531,4.531,0,0,1,3.255-4.294A5.346,5.346,0,0,0,34.3,5.51a4.508,4.508,0,0,1,8.663,0,5.34,5.34,0,0,0,3.677,3.677A4.526,4.526,0,0,1,49.9,13.518v2.253H27.368Zm18.9,36.081c-.584,0-.824,0-1.632,0l-1.5-1.5V46.324l1.518-1.518,3.186,3.186ZM49.436,46.4,46.25,43.213,60.589,28.874l3.186,3.186ZM65.368,30.467l-3.186-3.186,1.593-1.593,3.186,3.186Zm3.186-3.186-3.186-3.186L66.961,22.5l3.186,3.186Z" transform="translate(-16.102)"/></g><g transform="translate(20.875 5.069)"><ellipse class="c" cx="1.69" cy="1.69" rx="1.69" ry="1.69"/></g></g></g></svg>