<svg xmlns="http://www.w3.org/2000/svg" width="76" height="76" viewBox="0 0 76 76"><defs><style>.a{fill:none;}.b{fill:rgba(173,199,255,0.5);}.c{fill:rgba(17,19,23,0.75);}</style></defs><g transform="translate(-1200 -372)"><rect class="a" width="76" height="76" transform="translate(1200 372)"/><circle class="b" cx="7" cy="7" r="7" transform="translate(1234 409)"/><g transform="translate(1211 383)"><path class="c" d="M53.164,0H1.1A1.1,1.1,0,0,0,0,1.1v52.06a1.1,1.1,0,0,0,1.1,1.1h52.06a1.1,1.1,0,0,0,1.1-1.1V1.1A1.1,1.1,0,0,0,53.164,0ZM2.209,52.06V2.209H52.06V9.57H5.967a1.1,1.1,0,0,0,0,2.209H52.06V52.06Z"/><path class="c" d="M27.034,28.208a1.1,1.1,0,1,0-.78-.322A1.12,1.12,0,0,0,27.034,28.208Z" transform="translate(-21.158 -21.215)"/><path class="c" d="M47.025,28.2a1.106,1.106,0,1,0-.78-.324A1.107,1.107,0,0,0,47.025,28.2Z" transform="translate(-37.469 -21.207)"/><path class="c" d="M67.025,28.208a1.1,1.1,0,1,0-.78-.322A1.121,1.121,0,0,0,67.025,28.208Z" transform="translate(-53.788 -21.215)"/><path class="c" d="M81.905,111.605a1.1,1.1,0,0,0-1.456.564,18.329,18.329,0,0,1-33.352.446,18.322,18.322,0,0,1,30.123-4.51,1.1,1.1,0,0,0,1.633-1.487,20.531,20.531,0,0,0-33.981,5.551,1.1,1.1,0,0,0,0,.892,20.538,20.538,0,0,0,37.6,0A1.1,1.1,0,0,0,81.905,111.605Z" transform="translate(-36.536 -81.516)"/><path class="c" d="M105.553,134.8a7.706,7.706,0,1,0,7.706-7.706A7.715,7.715,0,0,0,105.553,134.8Zm13.2,0a5.5,5.5,0,1,1-5.5-5.5A5.5,5.5,0,0,1,118.757,134.8Z" transform="translate(-86.125 -103.704)"/></g></g></svg>