<svg xmlns="http://www.w3.org/2000/svg" width="464.249" height="213.399" viewBox="0 0 464.249 213.399"><defs><style>.a{fill:rgba(255,255,255,0);}.b,.e,.f{fill:#adc7ff;}.b{opacity:0.2;}.c{fill:#0f44b8;}.d{fill:#fff;}.e{opacity:0.5;}.g{fill:#333;opacity:0.25;}.h,.n{fill:none;stroke-linecap:round;}.h{stroke:#adc7ff;}.h,.m{stroke-miterlimit:10;}.i{fill:#5288b6;}.j{fill:#5287b5;}.k{fill:#93be8c;}.l{fill:#3a3e47;}.m{fill:#e6b43e;stroke-width:2px;}.m,.n{stroke:#ffdf78;}.n{stroke-linejoin:round;stroke-width:3px;}.o{fill:#cc8b23;}</style></defs><g transform="translate(-633 -296)"><rect class="a" width="464.249" height="213.399" transform="translate(633 296)"/><g transform="translate(723.447 316.492)"><path class="b" d="M966.539,517.765c-18.253-1.1-28.227,1.184-54.117-21.406s-42.343-27.867-58.926-25.945c-27.266,3.16-43.791,15.038-54.155,45.431-10.413,30.536-51.263,32.051-56.129,67.361-4.417,32.053,13.234,58.348,51.791,67.576H940.9a87.545,87.545,0,0,1,11.4-2.988c50.123-9.424,64.289-59.232,64.289-59.232C1031.565,527.377,984.792,518.868,966.539,517.765Z" transform="translate(-735.869 -470.05)"/><path class="c" d="M969.543,726.371H822.268a.707.707,0,1,1,0-1.413H969.543a.707.707,0,1,1,0,1.413Z" transform="translate(-759.05 -544.835)"/><path class="c" d="M971.847,741.986H968.53a.707.707,0,1,1,0-1.413h3.318a.707.707,0,0,1,0,1.413Z" transform="translate(-801.96 -549.416)"/><path class="c" d="M939.411,741.986H878.058a.707.707,0,1,1,0-1.413h61.354a.707.707,0,0,1,0,1.413Z" transform="translate(-775.418 -549.416)"/><path class="c" d="M816.473,726.371h-3.727a.707.707,0,1,1,0-1.413h3.727a.707.707,0,1,1,0,1.413Z" transform="translate(-756.257 -544.835)"/><g transform="translate(154.633 70.499)"><rect class="d" width="96.814" height="92.505" rx="11.988" transform="translate(10.604 0.113) rotate(6.512)"/><rect class="e" width="63.469" height="26.919" rx="5.445" transform="translate(31.089 23.108) rotate(6.512)"/><g transform="translate(8.499)"><path class="f" d="M1061.367,592.135l.54-4.725a6.215,6.215,0,0,0-5.47-6.88l-83.84-9.57a6.215,6.215,0,0,0-6.88,5.47l-.539,4.725Z" transform="translate(-964.317 -570.142)"/><path class="c" d="M1061.694,592.673l-97.735-11.155.628-5.5a7,7,0,0,1,7.74-6.154l83.839,9.57a7,7,0,0,1,6.155,7.74Zm-96.013-12.524,94.644,10.8.451-3.953a5.444,5.444,0,0,0-4.785-6.019l-83.84-9.57a5.444,5.444,0,0,0-6.019,4.786Z" transform="translate(-963.959 -569.82)"/></g><rect class="d" width="7.436" height="1.243" rx="0.622" transform="translate(16.501 6.307) rotate(6.512)"/><circle class="d" cx="2.296" cy="2.296" r="2.296" transform="translate(81.057 11.976)"/><circle class="d" cx="2.296" cy="2.296" r="2.296" transform="translate(88.397 12.813)"/><circle class="d" cx="2.296" cy="2.296" r="2.296" transform="translate(95.399 13.613)"/><rect class="e" width="29.699" height="5.604" rx="2.802" transform="translate(60.192 62.343) rotate(6.512)"/><rect class="e" width="75.745" height="5.604" rx="2.802" transform="translate(13.043 71.636) rotate(6.512)"/><path class="c" d="M1041.971,672.888l-83.839-9.57a7,7,0,0,1-6.155-7.741l9.081-79.558a7,7,0,0,1,7.74-6.154l83.839,9.57a7,7,0,0,1,6.155,7.74l-9.081,79.558A7,7,0,0,1,1041.971,672.888ZM968.622,571.41A5.444,5.444,0,0,0,962.6,576.2l-9.081,79.558a5.444,5.444,0,0,0,4.785,6.019l83.84,9.57a5.444,5.444,0,0,0,6.019-4.786L1057.247,587a5.444,5.444,0,0,0-4.785-6.019Z" transform="translate(-951.932 -569.82)"/><path class="g" d="M1013.447,576.118l-42.072-4.8A8.471,8.471,0,0,0,962,578.772l-8.57,75.076a8.472,8.472,0,0,0,7.456,9.377l52.563,6Z" transform="translate(-952.354 -570.242)"/></g><g transform="translate(6.565 70.286)"><rect class="d" width="96.814" height="92.505" rx="11.988" transform="matrix(0.993, -0.119, 0.119, 0.993, 0.082, 11.609)"/><rect class="e" width="63.469" height="26.919" rx="5.445" transform="matrix(0.993, -0.119, 0.119, 0.993, 13.382, 31.163)"/><path class="f" d="M840.223,580.817l-.566-4.722a6.214,6.214,0,0,0-6.911-5.43l-83.784,10.047a6.214,6.214,0,0,0-5.43,6.91l.566,4.723Z" transform="translate(-742.71 -569.842)"/><path class="c" d="M840.766,581.174,743.1,592.885l-.659-5.494a7,7,0,0,1,6.11-7.776l83.784-10.047a7,7,0,0,1,7.776,6.11Zm-96.31,9.982,94.581-11.341-.474-3.951a5.443,5.443,0,0,0-6.046-4.751L748.732,581.16a5.444,5.444,0,0,0-4.751,6.046Z" transform="translate(-742.387 -569.519)"/><rect class="d" width="7.436" height="1.243" rx="0.622" transform="matrix(0.993, -0.119, 0.119, 0.993, 7.25, 16.274)"/><circle class="d" cx="2.296" cy="2.296" r="2.296" transform="translate(71.839 6.292)"/><circle class="d" cx="2.296" cy="2.296" r="2.296" transform="translate(79.174 5.412)"/><circle class="d" cx="2.296" cy="2.296" r="2.296" transform="translate(86.171 4.573)"/><rect class="e" width="31.521" height="5.604" rx="2.802" transform="matrix(0.993, -0.119, 0.119, 0.993, 16.98, 66.19)"/><rect class="e" width="75.745" height="5.604" rx="2.802" transform="matrix(0.993, -0.119, 0.119, 0.993, 18.969, 80.636)"/><path class="c" d="M843.53,662.96l-83.783,10.047a7,7,0,0,1-7.776-6.11l-9.534-79.505a7,7,0,0,1,6.11-7.776l83.784-10.047a7,7,0,0,1,7.776,6.11l9.533,79.506A7,7,0,0,1,843.53,662.96Zm-94.8-81.8a5.444,5.444,0,0,0-4.751,6.046l9.534,79.506a5.444,5.444,0,0,0,6.046,4.751l83.784-10.047a5.444,5.444,0,0,0,4.751-6.046l-9.534-79.506a5.443,5.443,0,0,0-6.046-4.751Z" transform="translate(-742.387 -569.519)"/><path class="g" d="M858.906,578.44a8.471,8.471,0,0,0-9.419-7.4l-41.3,4.953v93.168l52.317-6.274a8.471,8.471,0,0,0,7.4-9.419Z" transform="translate(-761.69 -569.947)"/></g><circle class="h" cx="1.972" cy="1.972" r="1.972" transform="translate(261.54 157.331)"/><circle class="h" cx="1.855" cy="1.855" r="1.855" transform="translate(218.46 60.168)"/><g transform="translate(0 154.511)"><line class="h" y2="4.1" transform="translate(2.05)"/><line class="h" x1="4.1" transform="translate(0 2.05)"/></g><circle class="h" cx="1.855" cy="1.855" r="1.855" transform="translate(46.868 49.245)"/><g transform="translate(39.858 38.343)"><line class="h" y2="5.306" transform="translate(2.653)"/><line class="h" x1="5.306" transform="translate(0 2.653)"/></g><rect class="d" width="131.961" height="126.088" rx="11.988" transform="translate(68.406 54.546)"/><g transform="translate(67.346 53.486)"><path class="f" d="M961.865,562.2v-6.483a8.472,8.472,0,0,0-8.471-8.472H838.375a8.472,8.472,0,0,0-8.471,8.472V562.2Z" transform="translate(-828.844 -546.183)"/><path class="c" d="M962.485,562.817H828.4v-7.543a9.542,9.542,0,0,1,9.532-9.531H952.953a9.542,9.542,0,0,1,9.532,9.531ZM830.524,560.7H960.365v-5.423a7.42,7.42,0,0,0-7.412-7.411H837.936a7.42,7.42,0,0,0-7.412,7.411Z" transform="translate(-828.404 -545.743)"/></g><rect class="d" width="10.136" height="1.694" rx="0.847" transform="translate(77.35 62.023)"/><circle class="d" cx="3.13" cy="3.13" r="3.13" transform="translate(165.986 59.345)"/><circle class="d" cx="3.13" cy="3.13" r="3.13" transform="translate(176.055 59.345)"/><circle class="d" cx="3.13" cy="3.13" r="3.13" transform="translate(185.661 59.345)"/><rect class="e" width="103.244" height="7.638" rx="3.819" transform="translate(82.417 131.155)"/><rect class="e" width="103.244" height="7.638" rx="3.819" transform="translate(82.765 151.029)"/><path class="c" d="M952.953,673.951H837.936a9.542,9.542,0,0,1-9.532-9.532V555.274a9.542,9.542,0,0,1,9.532-9.531H952.953a9.542,9.542,0,0,1,9.532,9.531V664.42A9.542,9.542,0,0,1,952.953,673.951ZM837.936,547.863a7.42,7.42,0,0,0-7.412,7.411V664.42a7.42,7.42,0,0,0,7.412,7.412H952.953a7.42,7.42,0,0,0,7.412-7.412V555.274a7.42,7.42,0,0,0-7.412-7.411Z" transform="translate(-761.058 -492.257)"/><g transform="translate(92.158 83.261)"><path class="i" d="M964.259,587.88a11.611,11.611,0,0,0,1.162.419,37.935,37.935,0,0,1,4.806,2.1c.069.036.137.076.236.13a9.727,9.727,0,0,0-.981.465.744.744,0,0,1-.836-.011,35.541,35.541,0,0,0-5.572-2.376.479.479,0,0,1-.227-.1l1.28-.624Z" transform="translate(-892.659 -587.88)"/><path class="j" d="M964.894,598.17c.049.031.093.056.135.083a55.951,55.951,0,0,1,8.295,6.54c.37.359.73.727,1.1,1.085.1.1.107.166,0,.275-.526.536-1.045,1.08-1.562,1.625-.086.09-.135.13-.248.016a68.715,68.715,0,0,0-9.464-7.991c-.242-.173-.244-.175,0-.353q.8-.595,1.606-1.185C964.8,598.232,964.846,598.2,964.894,598.17Z" transform="translate(-892.694 -590.899)"/><path class="k" d="M968.126,596.1l.136.081a46.629,46.629,0,0,1,6.285,4.592q1.4,1.218,2.706,2.544c.112.114.131.177.008.3-.425.425-.839.861-1.247,1.3-.11.119-.166.095-.266-.008a52.57,52.57,0,0,0-8.583-7.042c-.244-.162-.489-.324-.736-.481-.095-.061-.148-.1-.015-.187.543-.347,1.08-.7,1.62-1.053C968.064,596.134,968.1,596.121,968.126,596.1Z" transform="translate(-893.681 -590.293)"/><path class="k" d="M963.01,594.7l-.476.3a43.2,43.2,0,0,0-6.64,5.071c-.581.542-1.144,1.1-1.694,1.675-.105.109-.165.114-.266,0q-.419-.475-.858-.931c-.1-.1-.107-.163,0-.272a41.79,41.79,0,0,1,3.251-3.026,40.382,40.382,0,0,1,4.973-3.549.3.3,0,0,1,.347-.009C962.09,594.208,962.536,594.447,963.01,594.7Z" transform="translate(-889.769 -589.649)"/><path class="j" d="M960.671,593.366c-.043.079-.115.1-.175.137a39.259,39.259,0,0,0-8.068,6.464c-.123.128-.187.148-.307,0a8.986,8.986,0,0,0-.638-.694c-.117-.117-.115-.184,0-.3a39.8,39.8,0,0,1,3.58-3.27,38.672,38.672,0,0,1,4.014-2.828.459.459,0,0,1,.54-.031C959.958,593.03,960.319,593.191,960.671,593.366Z" transform="translate(-889.299 -589.314)"/><path class="j" d="M973.769,595.657c.562-.334,1.073-.644,1.592-.941q1.94-1.124,3.972-2.073a.272.272,0,0,1,.326.025c.4.3.8.594,1.212.888.128.091.167.143-.006.241-1.714.968-3.37,2.024-5,3.131-.084.057-.152.117-.263.03-.558-.437-1.14-.842-1.724-1.239A1.161,1.161,0,0,0,973.769,595.657Z" transform="translate(-895.863 -589.265)"/><path class="k" d="M978.3,591.837c-.529.248-1.007.471-1.483.7q-2.121,1.029-4.141,2.256a.262.262,0,0,1-.326,0c-.532-.347-1.071-.681-1.638-1.041.3-.167.577-.324.857-.477a41.688,41.688,0,0,1,5.054-2.335c.072-.027.141-.069.222-.018C977.312,591.22,977.783,591.516,978.3,591.837Z" transform="translate(-894.965 -588.765)"/><path class="k" d="M968.029,591.686c-.518.279-1.013.545-1.509.815-.091.049-.148-.019-.214-.054a40.4,40.4,0,0,0-5.238-2.4l-.641-.242s-.006-.011-.021-.049c.314-.169.644-.319.945-.516a.949.949,0,0,1,.934-.071,41.133,41.133,0,0,1,5.522,2.394Z" transform="translate(-891.942 -588.231)"/><path class="l" d="M866.474,623.722a7.472,7.472,0,0,1-2.659-.753.908.908,0,0,1-.3-.224V622.6c.355-.693.591-1.432.875-2.15.1-.259.2-.3.462-.211a10.169,10.169,0,0,0,4.708.478,2.456,2.456,0,0,0,.751-.232,1.194,1.194,0,0,0,.278-2.068,4.6,4.6,0,0,0-1.266-.727c-.8-.347-1.618-.676-2.414-1.041a5.971,5.971,0,0,1-1.945-1.394,3.925,3.925,0,0,1,1-6.02,7.644,7.644,0,0,1,4.193-.793,10.011,10.011,0,0,1,3.594.879c.218.1.239.18.149.384-.282.644-.555,1.288-.808,1.942-.1.248-.211.271-.448.2a9.553,9.553,0,0,0-3.742-.487,1.967,1.967,0,0,0-.955.309.946.946,0,0,0-.148,1.494,3.038,3.038,0,0,0,.936.62c.775.353,1.557.692,2.332,1.044a8.392,8.392,0,0,1,2.344,1.478,4.018,4.018,0,0,1-.6,6.379,7.474,7.474,0,0,1-3.3,1.041A17.1,17.1,0,0,1,866.474,623.722Z" transform="translate(-863.517 -593.906)"/><path class="l" d="M915.08,618.3c-.128-3.088-.027-6.177-.066-9.266,0-.253.078-.315.322-.312.991.013,1.984.016,2.976,0,.263,0,.3.091.3.322q-.008,7.121,0,14.242c0,.261-.064.337-.331.334q-1.808-.021-3.617,0a.521.521,0,0,1-.522-.319q-2.587-4.543-5.192-9.076c-.074-.13-.153-.259-.237-.4-.114.093-.059.213-.054.308.137,3.023.03,6.052.075,9.078.005.335-.083.421-.414.413-.967-.023-1.933-.014-2.9,0-.227,0-.3-.063-.3-.3q.008-7.159,0-14.317c0-.209.052-.283.271-.281,1.219.009,2.436.015,3.655,0,.251,0,.32.14.413.3l5.459,9.532.076.129c.039-.023.062.139.093.018A.677.677,0,0,0,915.08,618.3Z" transform="translate(-875.723 -593.993)"/><path class="l" d="M964.456,623.887c.165-.784.419-1.545.656-2.308.1-.323.074-.465-.29-.56a5.718,5.718,0,0,1-2.668-1.475c-.567-.569-1.1-1.175-1.651-1.756-.138-.144-.108-.2.049-.3A4.473,4.473,0,0,0,962.717,613a4.189,4.189,0,0,0-2.311-3.556,6.213,6.213,0,0,0-2.824-.7c-2.031-.028-4.068-.011-6.1-.025-.24,0-.289.074-.288.3q.008,7.138,0,14.277c0,.285.107.322.35.319.967-.012,1.933-.016,2.9,0,.289.006.38-.066.377-.369-.017-1.481,0-2.963-.013-4.445,0-.26.063-.35.331-.336a10.556,10.556,0,0,0,1.242-.007.593.593,0,0,1,.541.247c.761.886,1.517,1.776,2.306,2.635a7.306,7.306,0,0,0,4.367,2.465A4.881,4.881,0,0,0,964.456,623.887Zm-7.422-8a13.505,13.505,0,0,1-2.027.086c-.22,0-.2-.127-.2-.266V613.75c0-.627.009-1.255,0-1.883,0-.229.035-.337.3-.327a14.29,14.29,0,0,1,2.549.127,1.553,1.553,0,0,1,1.363,1.441A2.207,2.207,0,0,1,957.035,615.887Z" transform="translate(-889.239 -593.995)"/><path class="l" d="M896.024,623.264q-2.408-7.117-4.792-14.243a.366.366,0,0,0-.425-.3c-1.319.011-2.637.015-3.956,0a.431.431,0,0,0-.481.34q-2.315,6.052-4.65,12.1c-.309.8-.612,1.608-.934,2.453,1.1,0,2.155-.009,3.208.006a.442.442,0,0,0,.511-.347c.438-1.239.914-2.467,1.362-3.7a.386.386,0,0,1,.428-.308q2.2.018,4.41,0a.364.364,0,0,1,.414.312c.4,1.254.809,2.5,1.2,3.756a.346.346,0,0,0,.4.289c1.017-.012,2.034-.016,3.051,0C896.074,623.627,896.123,623.557,896.024,623.264Zm-6.095-6.6c-.916-.008-1.831,0-2.747,0-.144,0-.244,0-.182-.2.555-1.8,1.1-3.6,1.679-5.485l1.009,3.852c.139.533.269,1.068.418,1.6.052.184.018.24-.178.239Z" transform="translate(-868.583 -593.995)"/><path class="l" d="M942.119,623.283Q939.7,616.148,937.313,609a.346.346,0,0,0-.4-.282c-1.331.01-2.663.013-3.994,0a.4.4,0,0,0-.455.32c-.532,1.42-1.083,2.831-1.626,4.246l-3.816,9.926c-.153.4-.153.4.25.4.942,0,1.883-.01,2.824.006a.424.424,0,0,0,.487-.33c.442-1.239.913-2.467,1.361-3.7a.407.407,0,0,1,.455-.325q2.186.024,4.37,0c.269,0,.363.095.438.333.39,1.242.806,2.477,1.189,3.721a.36.36,0,0,0,.422.3c.5-.016,1,0,1.507,0s1.03-.014,1.545,0C942.169,623.629,942.212,623.556,942.119,623.283Zm-6.068-6.626c-.991-.006-1.979,0-3.017,0l1.734-5.695c.491,1.887.956,3.678,1.427,5.468C936.234,616.577,936.251,616.659,936.051,616.657Z" transform="translate(-882.122 -593.995)"/></g><g transform="translate(103.347 111.608)"><path class="m" d="M917.873,628H914.81a18.846,18.846,0,0,0-18.847,18.846v41.049H936.72V646.843A18.846,18.846,0,0,0,917.873,628Zm12.368,39.088a12.008,12.008,0,0,1-12.008,12.008H914.45a12.008,12.008,0,0,1-12.008-12.008V646.721a12.008,12.008,0,0,1,12.008-12.008h3.784a12.008,12.008,0,0,1,12.008,12.008Z" transform="translate(-884.225 -627.997)"/><g transform="translate(0 33.092)"><path class="m" d="M5.71,0H58.524a5.71,5.71,0,0,1,5.71,5.71V25.985A21.177,21.177,0,0,1,43.056,47.163H21.177A21.177,21.177,0,0,1,0,25.985V5.71A5.71,5.71,0,0,1,5.71,0Z"/><path class="n" d="M953.5,718.9a11.588,11.588,0,0,1-7.949,8.414" transform="translate(-898.772 -687.76)"/></g><path class="o" d="M927.661,709.923l-2.889-9.219a4.79,4.79,0,1,0-4.3-.043l-2.557,9.266a.11.11,0,0,0,.106.139h9.539A.11.11,0,0,0,927.661,709.923Z" transform="translate(-890.653 -646.661)"/></g></g></g></svg>