<svg xmlns="http://www.w3.org/2000/svg" xmlns:xlink="http://www.w3.org/1999/xlink" width="288" height="161.119" viewBox="0 0 288 161.119"><defs><style>.a{fill:#fff;}.b{fill:url(#a);}.c{fill:url(#e);}.d{fill:#ae2f59;}.e{fill:#b55c4c;}.f{fill:#0253a2;}.g{fill:#e9d6b8;}.h{fill:#163f59;}.i{fill:#964a3d;}.j{fill:#dbe7f3;}.k{fill:url(#i);}.l{fill:url(#j);}.m{fill:#e7f5fe;}.n{fill:url(#k);}.o{fill:#387bff;}.p{fill:url(#l);}.q{fill:#161711;}.r{fill:#8d5334;}.s{fill:#d4edff;}.t{fill:#e9f6ff;}.u{fill:#1c1a18;}.v{fill:#5c3d07;}.w{fill:#cc7656;}.x{fill:#bc6848;}.y{fill:#3d7aa8;}.z{fill:#194866;}.aa{fill:#214075;}.ab{fill:#386685;}.ac{fill:#4983ad;}.ad{fill:#8abf54;}.ae{fill:#3b7a00;}.af{fill:#efc9c7;}.ag{fill:#c75226;}.ah{fill:#1d5376;}.ai{fill:#e2c59c;}</style><linearGradient id="a" x1="0.173" y1="0.239" x2="0.194" y2="1.276" gradientUnits="objectBoundingBox"><stop offset="0" stop-color="#e3e3e3"/><stop offset="1" stop-color="#d6d6d6" stop-opacity="0"/></linearGradient><linearGradient id="e" x1="1.94" y1="1" x2="0.439" y2="-0.559" gradientUnits="objectBoundingBox"><stop offset="0" stop-color="#e5ac3e"/><stop offset="1" stop-color="#f5ddb8"/></linearGradient><linearGradient id="i" x1="-292.461" y1="0.5" x2="-291.461" y2="0.5" gradientUnits="objectBoundingBox"><stop offset="0" stop-color="#d1dbea"/><stop offset="1" stop-color="#dbe7f3"/></linearGradient><linearGradient id="j" x1="-241.736" x2="-240.736" xlink:href="#i"/><linearGradient id="k" x1="-214.44" x2="-213.44" xlink:href="#i"/><linearGradient id="l" x1="-343.696" x2="-342.696" xlink:href="#i"/></defs><g transform="translate(-402 -141)"><g transform="translate(402 141)"><rect class="a" width="288" height="161.119"/><g transform="translate(25.795 12.891)"><g transform="translate(0 68.424)"><path class="b" d="M760.956,314.513c-4.459-1.985-6.926-3.068-7.875-3.549h25.046V300.2H731.7v10.766l18.252,12.39c4.649,2.406,6.736,4.511,6.736,6.8s-1.8,3.368-5.6,3.368a8.077,8.077,0,0,1-6.261-2.767,11.989,11.989,0,0,1-2.466-4.691l-18.88,3.067c4.743,10.826,13.377,15.758,27.607,15.758,18.026,0,26.279-4.691,26.279-14.856C777.369,324.377,772.246,319.505,760.956,314.513Z" transform="translate(-542.898 -299.679)"/><path class="b" d="M-3335.09,467.554h-8.935s17.842,17.881,18.52,19.63,67.965,0,67.965,0,18.045,2.807,23.04,3.81,17.856,0,17.856,0,9,1.6,10.912-3.81,1.292-14.723,0-19.63-14.71-3.732-14.71-3.732Z" transform="translate(3387.305 -463.698)"/><path class="b" d="M-3586.023,536.677c8.44,5.008,3.388,15.921,3.388,15.921s-30.442-1.249-42.286,1.443-12.824-11.15-17.486-13.969,7.284,8.051,0,8.051-8.427-8.463-15.593-6.094,4.092,16.655-14.326,16.761-25.959-5.486-30.266-22.114" transform="translate(3702.592 -523.41)"/><path class="b" d="M-3476.762,647.248l5.5,7.708s21.912,4.621,27.023,3.222,33.364-8.266,42.222-8.092-.825,14.951,17.441,18.8,22.95-14.171,22.95-14.171,20.14,6.41,12.394-1.128,0-6.345,0-6.345,10.532,10.437,26.083,10.93,12.406-9.075,0-12.584c-13.171-3.726-46.8-2.318-46.8-2.318l-21.8-5.679-6.344-4.478Z" transform="translate(3538.649 -602.764)"/></g><g transform="translate(42.015 0)"><path class="c" d="M487.9,446.842l13.317-31.572,1.4-3.308h6.579l-14.678,34.88Z" transform="translate(-406.843 -374.226)"/><path class="c" d="M591.112,303.892v69.662H572V334.442l-5.717,6.661-10.75-13.323,22.1-23.886Z" transform="translate(-455.055 -302.846)"/><path class="c" d="M757.186,348.257c-4.01,3.142-6.229,4.854-7.082,5.615h22.525v17.035H725.446V354.348l21.842-20.08c4.181-3.806,6.058-7.138,6.058-10.755s-1.621-5.329-5.035-5.329c-2.218,0-4.01,1.332-5.631,4.378a25.916,25.916,0,0,0-2.218,7.423l-16.978-4.851C727.75,308,735.515,300.2,748.312,300.2c16.211,0,23.634,7.423,23.634,23.506C771.947,332.651,767.339,340.359,757.186,348.257Z" transform="translate(-578.232 -300.2)"/><path class="c" d="M483.365,412H457.527v14.622h-21.1v9.619H417.677v10H398.925v10.773H379v27.051H483.365Z" transform="translate(-379 -411.008)"/></g><g transform="translate(0.358 40.477)"><path class="d" d="M227.3,219.431c9.619-1.069,14.606,3.859,14.606,14.429s-6,16.091-17.576,16.091-17.576-5.4-17.576-15.795c0-9.5,5.462-15.379,15.141-28.383h15.676Zm1.6,14.726c0-3.206-1.544-4.869-4.511-4.869-2.909,0-4.453,1.662-4.453,4.869,0,3.266,1.544,4.987,4.453,4.987,2.968,0,4.512-1.722,4.512-4.987Z" transform="translate(-206.752 -205.774)"/><path class="d" d="M332.277,290.3l13.209-27.932h5.907L338.213,290.3Z" transform="translate(-297.24 -246.573)"/><path class="d" d="M401.946,283.65v21.728H395.3v-12.2l-1.989,2.078-3.74-4.156,7.687-7.452Z" transform="translate(-338.54 -261.912)"/><path class="d" d="M454.472,297.473c-1.4.98-2.167,1.514-2.464,1.751h7.836v5.313H443.429v-5.166l7.6-6.263c1.455-1.187,2.107-2.226,2.107-3.354s-.564-1.662-1.751-1.662a2.259,2.259,0,0,0-1.958,1.366,7.471,7.471,0,0,0-.772,2.315l-5.907-1.514c1.484-5.343,4.185-7.776,8.638-7.776,5.639,0,8.222,2.315,8.222,7.331C459.605,292.6,458,295.008,454.472,297.473Z" transform="translate(-376.876 -261.071)"/></g><g transform="translate(131.811 8.916)"><g transform="translate(29.357 0)"><path class="e" d="M3581.276,848.617c.317-.2,1.4,1.012,1.861,2.081a18.824,18.824,0,0,1,1.485,5.563c.556,3.666,1.5,9.482,1.8,11.959.282,2.232,1.179,4.874-.163,4.5.02-3.064-1.389-7.684-2.206-10.11C3581.266,854.323,3580.3,849.214,3581.276,848.617Z" transform="translate(-3575.808 -799.144)"/><path class="e" d="M3609.917,845.692q-.178-.882-.363-1.736c-.415-.83-.778-1.266-1.055-1.2-1.048.246-2,4.981,1.295,16.228.165.564,2.373,10.369,2.357,10.128C3611.769,862.817,3611.677,854.407,3609.917,845.692Z" transform="translate(-3598.072 -794.252)"/><path class="f" d="M3633.392,996.46c.568,1.149,1.275,1.958,1.578,1.808s.09-1.2-.479-2.352-1.274-1.959-1.578-1.808S3632.826,995.311,3633.392,996.46Z" transform="translate(-3619.206 -920.876)"/><path class="e" d="M3633.076,989.685c.292.9.909,1.55,1.213,1.4s.192-.921-.265-1.749a4.478,4.478,0,0,1-.846-2.1C3633.132,986.534,3631.981,986.305,3633.076,989.685Z" transform="translate(-3619.063 -914.783)"/><path class="g" d="M3599.235,985.682a6.362,6.362,0,0,1,1.144-.29c.491-.093.864-.09,1.041-.274.292-.3.129-1.042.272-1.007.7.159.936,1.784.53,1.987a12.552,12.552,0,0,1-2.885-.081C3599.148,986,3599.179,985.637,3599.235,985.682Z" transform="translate(-3591.108 -912.525)"/><path class="f" d="M3594.261,992.834c-.13.547,1.549.327,1.983.184a5.116,5.116,0,0,1,.68-.178c.018,0,.034,0,.052,0a.372.372,0,0,1,.006.04c0,.3.132.7-.348.7h-3.01C3591.164,993.576,3594.264,992.82,3594.261,992.834Z" transform="translate(-3585.655 -919.825)"/><path class="h" d="M3561.713,556.609s-.249-.789,0-1.178.859-.083,1-.379-.479-.22-.448-.806c.015-.282.448-.524.448-.524s-.068-.831.125-1.011a1.768,1.768,0,0,1,1.165-.259,1.383,1.383,0,0,1,.256-.77c.247-.276.28-.445.731-.334s.635.738,1.074.779.333-.569.685-.617.719.425.719.425a2.655,2.655,0,0,1,1.225.191c.306.238,0,.759,0,.759a1.658,1.658,0,0,1,.826.13c.238.174.216.822.216.822a22.735,22.735,0,0,1,.6,5.141c-.289,1.993-2.434,3.771-4.164,4.474-.575.234-.509-.747-.935-.531-1.553.79-.986-.7-1.379-.77-.519-.085-.862.461-1.593-.161s-.019-.669-.309-1.417a2.179,2.179,0,0,0-.617-1c-.293-.378.379-1.018.379-1.018a1.861,1.861,0,0,1-.571-1.03C3561.141,557.041,3561.713,556.609,3561.713,556.609Z" transform="translate(-3560.103 -551.315)"/><path class="h" d="M3590.514,572.849c.078.713-.674,1.38-1.679,1.49l-2.293.253c-1.007.11-1.885-.377-1.962-1.091l-.717-6.5c-.081-.713.672-1.38,1.678-1.49l2.294-.252c1.007-.112,1.884.378,1.962,1.09Z" transform="translate(-3578.279 -562.065)"/><path class="i" d="M3580.287,606.471c-1.36.589-2.04.4-1,.843.5.611,6.883-.242,7.231-1.032.057-.133-2.534-.514-2.548-.613a8.212,8.212,0,0,1,.1-3.4.191.191,0,0,0-.17-.178c-.483.014-.971.018-1.457.032-.081,0-1.031.214-.82.669C3581.724,604.039,3581.726,605.848,3580.287,606.471Z" transform="translate(-3574.031 -592.895)"/><path class="e" d="M3582.856,578.158c-.022-.045-.043-.091-.064-.137-.005-.014-.012-.027-.019-.043-.025-.057-.05-.116-.074-.178-.007-.016-.012-.032-.018-.048-.017-.046-.034-.092-.049-.139-.009-.025-.018-.052-.026-.077l-.038-.121c-.009-.027-.016-.056-.024-.083-.015-.053-.029-.107-.043-.161s-.02-.081-.03-.121-.018-.075-.026-.112-.016-.076-.023-.115-.014-.066-.019-.1-.011-.053-.017-.081h0a12.145,12.145,0,0,1,.446-3.683.334.334,0,0,1,.366-.2c1.121.125,4.541-.033,3.657,3.082v0c0,.008-.052.276-.078.4a.193.193,0,0,1-.008.031c-.028.124-.057.246-.09.363,0,.008,0,.016-.007.023-.034.121-.069.238-.107.353a.031.031,0,0,1,0,.012c-.489,1.469-1.346,2.438-2.256,2.377a1.781,1.781,0,0,1-1.343-1.033h0l-.007-.015c-.027-.046-.053-.094-.078-.143A.391.391,0,0,0,3582.856,578.158Z" transform="translate(-3577.032 -568.348)"/><path class="e" d="M3699.8,607.26s.238.114.338-.066a3.69,3.69,0,0,0,.233-1.223c.012-.271-.146-1.557-.146-1.557a1.508,1.508,0,0,0-.2.92A6.543,6.543,0,0,1,3699.8,607.26Z" transform="translate(-3675.285 -594.843)"/><path class="e" d="M3698.25,607.579a1.9,1.9,0,0,0-.186-1.614,1.109,1.109,0,0,1-.076-.958,7.783,7.783,0,0,1,.548,1.32,2.412,2.412,0,0,1,.166.85C3698.67,608.028,3697.693,608.707,3698.25,607.579Z" transform="translate(-3673.709 -595.338)"/><path class="g" d="M3641.015,653.536c1.242.917,2.341,4.143,3.193,6.186a3.751,3.751,0,0,1,.3,2.021s-.421,2.7-3.637-4.659C3640.07,655.244,3640.549,653.193,3641.015,653.536Z" transform="translate(-3625.621 -635.91)"/><path class="e" d="M3681.864,615.133l.208.132.14.832a9.546,9.546,0,0,1-.718,1.979c-.342.5-1.719,4.483-1.946,4.66-.4.314-1.2-.765-1.2-.765s1.753-2.782,2.108-3.675A21.024,21.024,0,0,0,3681,615.6a9.61,9.61,0,0,0,.292-.926s.308.161.025,1.131c-.074.256.252.2.252.2Z" transform="translate(-3657.332 -603.428)"/><path class="f" d="M3580.723,631.934l-8.52-.072-1.042-9.744,10.11.96Z" transform="translate(-3567.654 -609.655)"/><path class="f" d="M3564.3,709.86c4.189.657,4.946.1,9.761-.588.456.008,2.406-4.679,1.034-17.038-.282-2.547-2.209-4.592-1.768-11.507l-8.591-.166C3565.873,686.844,3559.064,687.82,3564.3,709.86Z" transform="translate(-3560.236 -658.552)"/><path class="j" d="M3560.179,634.37l1.208-8.543-.294-3.445a1.266,1.266,0,0,0-.738-.369l-.192-.024a1.431,1.431,0,0,0-1.5,1.4l-.951,11.7Z" transform="translate(-3556.405 -609.542)"/><path class="k" d="M3630.4,640.406l-3.865-7.456-1.178-4.357a1.352,1.352,0,0,1,.635-.492l.181-.068a1.358,1.358,0,0,1,1.748.793l4.12,8.516Z" transform="translate(-3612.996 -614.531)"/><path class="e" d="M3697.3,611a2.554,2.554,0,0,0,.116-1.113c-.084-.259-.674-1.412-.674-1.412a1.517,1.517,0,0,0,.129.934A5.147,5.147,0,0,1,3697.3,611Z" transform="translate(-3672.702 -598.24)"/><path class="e" d="M3696.428,621.237s-.216.05-.288-.018a1.292,1.292,0,0,0,.021.2c.014.128-.057,1-.057,1a7.109,7.109,0,0,1,.262-.789,3.534,3.534,0,0,0,.169-.585c.006-.027,0-.075,0-.125Z" transform="translate(-3672.191 -608.657)"/><path class="e" d="M3694.885,616.189c.19-.652.113-.939.042-1.057-.042.155-.12.4-.241.744a4.627,4.627,0,0,0-.125.7,1.189,1.189,0,0,1,.311.644c.017.095.19-.475.22-.822C3695.006,616.4,3694.828,616.385,3694.885,616.189Z" transform="translate(-3670.9 -603.81)"/><path class="h" d="M6.291,8.3c-.05-.206-.04-.282-.125-.389s.354-.328.357-.615-.01-.886-.01-.886-.568.016-.376-.352a1.512,1.512,0,0,0,.253-1.1c-.1-.381-.747-.069-.664-.427s.446-.358.508-.75-.52-.091-.765-.473c-.09-.14.379-.256.322-.519s-.544-.535-.544-.535.387-.515.146-.632a3.577,3.577,0,0,0-.619-.265,4.448,4.448,0,0,0-.66-.152S4.3.576,4.171.448,3.557.5,3.526.463C3.291.156,3.383.161,2.89.009S1.269,1.7,1.146,2.486L0,9.82c-.081.524,1.237.542,1.237.542s-.6.461-.528.74c.033.127.735.064.948.219.182,0,.548-.03.548-.03s0-.305.089-.387.064-.076.257.059.895.015.895.015c.174-.136.156-.584.408-.7s.644.205.868.031a1.088,1.088,0,0,0,.322-.641s.652.185.832-.054c.133-.177.414-.273.573-.528C6.629,8.8,6.341,8.5,6.291,8.3Z" transform="translate(7.016 1.496) rotate(-13)"/><path class="l" d="M3553.633,622.169l2.613.052s1.423,8.209,1.423,10.617-1.642,8.974-1.531,12.039.109,10.945.109,10.945l-6.566-.876s1.095-10.835,2.846-16.746C3553.922,633.484,3553.633,622.169,3553.633,622.169Z" transform="translate(-3549.682 -609.698)"/><path class="m" d="M3583.152,621.924l-1.313-.11,0,2.006.762.949-.328.985,1.094,4.378v8.646s1.423-7.661.985-9.194S3583.152,621.924,3583.152,621.924Z" transform="translate(-3576.589 -609.401)"/><path class="n" d="M3609.873,625.836l2.674.353s-.375,7.854-.484,10.154,1.2,6.458,1.97,9.194c1.344,4.8,3.612,11.82,3.612,11.82s-5.364,1.2-8.428,1.531c-.344.037-.765-3.612-.657-14.776A128.477,128.477,0,0,1,3609.873,625.836Z" transform="translate(-3598.931 -612.766)"/><path class="m" d="M3607.062,623.825l-1.094,7.443.547,11.82.876-12.587,1.094-2.736-.328-.985.548-.547-.438-2.408Z" transform="translate(-3596.777 -611.083)"/><path class="o" d="M3569.441,638.788l-8.913-.891,3.043,11.6,8.208.875Z" transform="translate(-3558.759 -622.857)"/><g transform="translate(1.194 14.818)"><path class="e" d="M3583.3,642.694a6.854,6.854,0,0,0,.9-3.431,13.819,13.819,0,0,0,.246-1.584c.382.733.075,1.249.107,1.624s-.023.247.374-.282c.226-.3.076-1.178.055-1.755a1.565,1.565,0,0,1,.1-.728,7.566,7.566,0,0,1,.332,1.5,9.4,9.4,0,0,1-.036,2.191,7.923,7.923,0,0,1-1.3,2.151C3583.435,643.155,3582.572,643.814,3583.3,642.694Z" transform="translate(-3578.773 -636.539)"/><path class="e" d="M3562.185,669.415c2.189-2.627,5.093-5.621,5.093-5.621l-3.985,6.826S3561.09,670.729,3562.185,669.415Z" transform="translate(-3561.083 -659.342)"/><path class="j" d="M3557.669,683.709s-1.41,1.9-.14,2.6a1.212,1.212,0,0,0,1.718-.433c.771-1.08,1.587-2.346,1.587-2.346l-1.375-1.8Z" transform="translate(-3556.999 -674.35)"/><path class="e" d="M3597.623,640.536a10.852,10.852,0,0,0,.387-1.692c-.017-.207-.265-1.173-.265-1.173a1.941,1.941,0,0,0-.115.892A16.175,16.175,0,0,1,3597.623,640.536Z" transform="translate(-3590.981 -637.485)"/></g><path class="p" d="M3658.364,654.652s1.751.765,1.531,1.531-2.3,6.786-3.612,7.333-1.97-1.2-2.08-1.642S3658.364,654.652,3658.364,654.652Z" transform="translate(-3637.134 -636.875)"/><path class="m" d="M3556.286,777.165l-3.83-.547-.766,5.035,3.284.328S3556.286,782.528,3556.286,777.165Z" transform="translate(-3551.363 -738.922)"/><path class="m" d="M3619.371,774.488l3.5-.547s1.322,3.585.547,4.6c-.453.59-3.065.875-3.065.875S3619.59,779.083,3619.371,774.488Z" transform="translate(-3607.991 -736.681)"/></g><g transform="translate(0 2.548)"><g transform="translate(0 1.056)"><path class="q" d="M3295.949,1027.547c.146-.175.04-.639.04-.639a17.005,17.005,0,0,0-3.354-.09,4.318,4.318,0,0,0-.908.425c-.057.033-.157.228-.212.261-.1.061-.156-.04-.242.015a2.849,2.849,0,0,0-.388.267,2.43,2.43,0,0,0,.073,1.634s2.088.649,2.566.216C3294.733,1028.543,3295.631,1027.933,3295.949,1027.547Z" transform="translate(-3290.576 -953.623)"/><path class="q" d="M3358.986,1039.563l.363,1.89h1.929s.107-.267.27-.267c.138,0,.315.267.5.267h4.906s.087-.4-.019-.536a1.9,1.9,0,0,0-.594-.252c-1-.28-3.846-1.154-4.341-2.1C3361.4,1037.4,3358.986,1039.563,3358.986,1039.563Z" transform="translate(-3347.625 -963.218)"/><path class="r" d="M3341.6,591.6l.46-2.292s1.628.125,1.946-.751a9,9,0,0,0-.282-5.353c-1.1-2.24-1.561-6.167-6.694-3.044-1.951,1.186,1.063,6.941,1.289,8.187a5.24,5.24,0,0,1-.443,2.68l1.2.9Z" transform="translate(-3328.71 -578.998)"/><path class="r" d="M3296.238,783.666l1,7.2s-3.894-2.981-4.158-6.4S3296.068,783.4,3296.238,783.666Z" transform="translate(-3292.472 -749.377)"/><path class="h" d="M3299.181,871.177s.752.327-1.463,10.832c-1.594,7.564-2.958,13.1-3.595,15.6-.248.974-.526.8-.526.8l-2.108.235-1-.87,3.015-17.142Z" transform="translate(-3290.313 -823.458)"/><path class="r" d="M3393.6,748.832l-4.318,8.282s8.24-5.961,7.723-9.241S3393.6,748.832,3393.6,748.832Z" transform="translate(-3372.977 -719.25)"/><path class="s" d="M3293.139,669.824s-1.75,1.071-3.009,9.765-.46,8.362-.46,8.362l.23,1.982,3.273.351,1.768-7.5Z" transform="translate(-3289.419 -654.99)"/><path class="h" d="M3314.066,780.425s-4.342,20.112-7.916,29.167c-2.095,5.3-2.359-4.772-2.359-4.772l2.748-29.122,10.066-.732S3315.473,775.349,3314.066,780.425Z" transform="translate(-3301.445 -742.961)"/><path class="h" d="M3339.9,771.339s3.649,25.894,4.032,27.065c1.3,3.954,3.3-1.23,3.758-2.548s1.222-11.07,1.068-18.189l-.153-7.118Z" transform="translate(-3331.656 -739.265)"/><path class="h" d="M3355.959,896.049s-.552,3.089-1.01,7.035a112.282,112.282,0,0,0,.187,16.92c.033.351,3.688-.719,3.688-.719s1.335-16.089,1.641-19.692S3358.253,893.476,3355.959,896.049Z" transform="translate(-3344.05 -843.387)"/><path class="t" d="M3307.665,653.587l4.31-1.957,1.188-1.125,4.583-.109.8,1.321,3.552,1.54s.876,1.378.114,6.493c-.844,5.667-.666,30-.666,30a32.215,32.215,0,0,1-9.814.806c-3.685-.368-4.827-1.289-4.827-1.289S3308.925,656.338,3307.665,653.587Z" transform="translate(-3304.053 -638.735)"/><path class="t" d="M3391,667.162s.8-.891,2.748,1.531a34.071,34.071,0,0,1,5.271,10.231,3.7,3.7,0,0,1-.573,4.039c-1.039,1.259-1.375,1.684-1.375,1.684l-2.98-1.857.469-.893.333-.443s-1.6-3.522-3.321-6.713S3391,667.162,3391,667.162Z" transform="translate(-3374.097 -652.629)"/></g><path class="u" d="M3340.048,578.448s-.58-.356-.668.089.223,1.428.49,1.517.357,1.294.357,1.294l-.715,1.339H3335.9s-1.115-.491-1.205-1.295-.982-6.469-.982-6.469l2.544-1.339a16.777,16.777,0,0,1,2.275-.936c1.438-.411,1.739.356,1.7.758s.4.445.981.445,1.3.446.983.715c-.13.11.447.463.218.89-.327.608-1.423.806-1.512,1.786C3340.855,577.69,3340.673,579.162,3340.048,578.448Z" transform="translate(-3326.479 -572.53)"/></g></g><g transform="translate(60.444 43.983)"><g transform="translate(8.764)"><path class="v" d="M3610.049,451.573s-2.441.857-3.464.109,1.343-1.031.487-.078-3.479.317-3.162-1,1.159-2.057,2.27-1.625.443,1.012-.081.443.483-2.538,2.275-.564,1.187,2.319.386.912-.09-2.611,1.085-1.017.3,2.755-.175,2.03,1.418-3,1.99-1.531,1.186,3.251.037,3.572.517-4.353,2.413-1.373-.483,2.538-.756,1.828,4.046-.373,1.246,1.487-1.98.262-2.431-.413,2.9.543,1.768,2.521-2.686,2.062-2.805.333,1.846-1.317,1.643.2a1.814,1.814,0,0,0,1.23,2.161c.366.058-1.825,1.7-2.641.5S3608.211,452.552,3610.049,451.573Z" transform="translate(-3576.601 -448)"/><path class="w" d="M3610.5,478.142l-.943,2.2.193.689-.8,1.986.794.812.5,2.978s.191,1.622,1.513.669l1.322-.952s2.246,2.481,1.152,2.8c-5,1.444-.655,3.57-.2,3.912.419.311,3.418-1.578,3.418-1.578s2.118-.8,2.779-1.111c.443-.213,1.966-2.333,1.555-2.333-1.667,0-3.109.524-3.666-.334-1.073-1.651-2.126-3.479-2.126-3.479a.9.9,0,0,0,.61-.214c.322-.251,1.632-1.927.9-2.51a1.4,1.4,0,0,0-2.054.836c-.217.789-1.128.242-1.339-1.3s2.551-3.193-.979-2.771C3610.766,478.724,3610.5,478.142,3610.5,478.142Z" transform="translate(-3581.106 -474.791)"/><path class="x" d="M3546.018,606.791s-5.7,4.909-6.21,6.018,1.047,3.746,1.92,3.329c1.472-.7,6.979-5.25,6.85-5.506C3547.813,609.1,3546.7,606.449,3546.018,606.791Z" transform="translate(-3519.556 -589.119)"/><g transform="translate(43.86 41.826)"><path class="g" d="M3758.375,831.069c-.893-.773-.412-2.314-.412-2.314l-.081-3.824,1.639-.524,1.683,6.191S3759.268,831.841,3758.375,831.069Z" transform="translate(-3757.306 -824.407)"/><path class="y" d="M3753.8,862.983a2.96,2.96,0,0,0-.443.65,1.25,1.25,0,0,0-.208,1.192c.458,1.076,1.1,1.595,2.41,4.01s2.127,2.791,3.589,2.612,1.7-1.432.94-2.513c-1.1-1.562-1.94-2.244-2.453-3.106a3.166,3.166,0,0,1-.495-1.808c-.093-.664-2.038.255-2.07.98C3755.039,865.638,3753.442,863.8,3753.8,862.983Z" transform="translate(-3753.072 -858.697)"/><path class="z" d="M3753.247,872.23c.456,1.076,1.1,1.6,2.409,4.01s2.127,2.792,3.59,2.613a1.434,1.434,0,0,0,1.258-.814c.061.718-.362,1.329-1.35,1.448-1.462.179-2.278-.2-3.589-2.612s-1.953-2.934-2.41-4.01a1.041,1.041,0,0,1,.031-.838A.985.985,0,0,0,3753.247,872.23Z" transform="translate(-3753.082 -866.736)"/><path class="z" d="M3759.373,863.009a.234.234,0,0,1,.026-.027c-.007.014-.01.031-.016.047C3759.38,863.022,3759.375,863.016,3759.373,863.009Z" transform="translate(-3758.673 -858.696)"/><g transform="translate(2.724 6.97)"><path class="z" d="M3786.137,900.283c.03.087.2.043.4-.081a6.468,6.468,0,0,1,1.272-.64c.227-.084.38-.214.341-.3s-.263-.1-.483-.02a6.538,6.538,0,0,0-1.249.644C3786.228,900.008,3786.109,900.194,3786.137,900.283Z" transform="translate(-3785.184 -897.844)"/><path class="z" d="M3782.371,894.226c.044.084.221.046.4-.071a5.939,5.939,0,0,1,1.207-.593c.213-.078.354-.2.3-.282s-.278-.1-.489-.025a5.929,5.929,0,0,0-1.184.6C3782.429,893.969,3782.331,894.145,3782.371,894.226Z" transform="translate(-3781.832 -892.531)"/><path class="z" d="M3777.6,888.14c.05.081.242.048.435-.068a6.649,6.649,0,0,1,1.275-.574c.224-.075.369-.193.306-.278s-.3-.1-.523-.026a6.453,6.453,0,0,0-1.253.58C3777.653,887.888,3777.551,888.059,3777.6,888.14Z" transform="translate(-3777.589 -887.146)"/></g></g><path class="g" d="M3408.462,840.963l3.662-5.173-2.3-1.522-3.9,6.156Z" transform="translate(-3400.638 -791.346)"/><g transform="translate(0 48.124)"><path class="y" d="M3358.571,884.454a1.921,1.921,0,0,0-.121,1.04,27.775,27.775,0,0,0,5.469.446,6.943,6.943,0,0,0,1.521-.614c.1-.047.277-.356.37-.406.173-.09.25.081.4,0a4.852,4.852,0,0,0,.657-.4,3.967,3.967,0,0,0,.025-2.674s-1.66.853-1.437.4c.479-.97-1.537-1.467-1.86-.936C3362.313,883.427,3359.207,883.583,3358.571,884.454Z" transform="translate(-3358.419 -881.09)"/><path class="z" d="M3358.348,905.23a35.8,35.8,0,0,0,4.437.644,8.608,8.608,0,0,0,4.169-1.862,8.027,8.027,0,0,1-.168.88,4.872,4.872,0,0,1-.658.4c-.148.081-.225-.088-.4,0-.093.05-.274.358-.37.405a6.95,6.95,0,0,1-1.521.614,27.747,27.747,0,0,1-5.469-.446A2.649,2.649,0,0,1,3358.348,905.23Z" transform="translate(-3358.339 -901.466)"/><g transform="translate(2.493 1.103)"><path class="z" d="M3380.8,898.9c-.023.074.143.121.366.125a7.422,7.422,0,0,1,1.372.134c.227.045.42.025.437-.053s-.159-.188-.382-.23a7.367,7.367,0,0,0-1.354-.123C3381.015,898.756,3380.82,898.83,3380.8,898.9Z" transform="translate(-3380.795 -897.896)"/><path class="z" d="M3387.992,894.852c-.019.074.147.141.367.161a7.552,7.552,0,0,1,1.35.242c.221.062.411.056.422-.026s-.158-.208-.376-.266a7.39,7.39,0,0,0-1.334-.229C3388.2,894.719,3388.011,894.779,3387.992,894.852Z" transform="translate(-3387.19 -894.32)"/><path class="z" d="M3394.969,891.12c-.016.077.148.159.367.2a7.585,7.585,0,0,1,1.322.348c.216.077.4.084.409,0s-.155-.226-.369-.3a7.485,7.485,0,0,0-1.31-.331C3395.172,890.995,3394.984,891.042,3394.969,891.12Z" transform="translate(-3393.392 -891.018)"/></g></g><path class="x" d="M3750.084,577.646a29.3,29.3,0,0,1,3.926.875c1.277.491,1.964.192,2.732,1.047s1.366,2.369.512,3.137-7.683-.341-9.134-1.366S3749.145,577.646,3750.084,577.646Z" transform="translate(-3704.416 -563.239)"/><path class="aa" d="M3596.743,571.345a25.577,25.577,0,0,0,3.775-2.341c.342-.512,2.988-.427,5.634.171s3.842.918,4.1,1a4.7,4.7,0,0,0-2.818,3.009c-.769,2.646-.96,3.073-.96,3.073L3604.7,576s-.171,10.244-.6,12.292-9.99,1.963-11.951,1.707-1.707-10.073-1.281-11.865-.938.427-.938.427-1.91-4.35-2.988-4.78c-.427-.171,2.561-3.329,2.561-3.329a29.853,29.853,0,0,1,3.842-.685C3594.287,569.771,3593.451,572.648,3596.743,571.345Z" transform="translate(-3561.508 -555.259)"/><path class="ab" d="M3542.088,636.389s-1.024-.512-5.8-.685-3.585,1.28-6.573.512-7.862-8.223-8.963-10.158c-2.817-4.951-.922-7.357-.256-8.024.294-.294.714-.169,1.213.2a51.976,51.976,0,0,1,3.907,4.235c3.645,3.8,4.012,5.035,9.134,4.866,6.759-.225,10.158-12.2,11.608-14.34s5.634-2.476,5.122,1.536S3547.3,635.536,3542.088,636.389Z" transform="translate(-3501.37 -593.279)"/><path class="ac" d="M3760.9,614.125a27.366,27.366,0,0,0-3.415,12.2c-.427,7.51-.427,14.6-.427,14.6a7.229,7.229,0,0,0,1.537,1.536c1.536,1.11,2.219.085,2.305-.085.593-1.185,2.475-15.535,3.243-17.243s2.287-9.823-1.109-11.012C3761.331,613.527,3760.9,614.125,3760.9,614.125Z" transform="translate(-3712.76 -595.429)"/><path class="w" d="M3726.935,590.86c-1.079-.739-1.878-.685-5.207.512a69.753,69.753,0,0,0-6.573,2.561c-.682.341-.6,1.45-.939,2.732a12.25,12.25,0,0,0-.256,3.158c0,.256,1.622,1.2,1.622,1.2l.685-.939.256-1.536a5.326,5.326,0,0,0-1.195,0c-.342.085.926-.7.854-2.049-.085-1.536.683-1.792,1.878-1.707s6.657.341,7.683.171,2.476-.854,2.135-2.135S3727.384,591.167,3726.935,590.86Z" transform="translate(-3674.437 -574.553)"/><path class="ac" d="M3416.227,668.408c-1.752.161-5.72,7.256-8.536,12.548s-5.548,10.243-5.548,10.243a8.4,8.4,0,0,0,3.414,1.366,3.718,3.718,0,0,0,2.3-.854s8.792-14.6,9.3-15.451.257-3.329.085-4.7S3418.105,668.237,3416.227,668.408Z" transform="translate(-3397.277 -643.906)"/><path class="ab" d="M3439.375,727.11s8-20.939,6.723-14.829c-.427,2.049,2.971-2.569,4.183-4.61a3.908,3.908,0,0,1-.342,3.5c-.512.854-9.3,15.451-9.3,15.451a3.772,3.772,0,0,1-1.622.781A3.285,3.285,0,0,0,3439.375,727.11Z" transform="translate(-3430.049 -678.816)"/><path class="w" d="M3527.161,655.937s7.223,2,8.263,2.491a12.761,12.761,0,0,1,2.721,1.928,5.827,5.827,0,0,1,.172,1.858c-.594.375-.765-1.72-1-1.831s.234.941-.062.773a4.237,4.237,0,0,1-.886-.742c-.414-.4-.593.138-1.719-.121s-1.419-1.021-1.833-1.3-7.357,1.3-8.124.678C3523.855,658.986,3525.263,655.771,3527.161,655.937Z" transform="translate(-3505.989 -632.825)"/></g><g transform="translate(0 41.262)"><path class="z" d="M3488.745,936.415c-.208-.175-3.977-5.185-10.18-3.8s-18.811,7.674-18.944,7.881-.54,4.079,3.977,4.424,22.989.829,24.135-.83S3490.229,937.66,3488.745,936.415Z" transform="translate(-3432.098 -919.672)"/><path class="h" d="M3253.572,1028.831s-4.494-.069-14.863-.208-11.407-.9-13.9-.415a59.254,59.254,0,0,1-13.826.829c-6.082-.346-8.158-.483-8.158-.967s11.407-2.9,14.38-3.457a58.351,58.351,0,0,1,13.066-.276c5.669.346,9.54-2.42,15.624-2.489S3260.417,1025.028,3253.572,1028.831Z" transform="translate(-3198.877 -1000.957)"/><path class="h" d="M3665.172,949.572s-4.494-1.728-6.083-1.728-2.142,2.627-1.59,3.733a2.717,2.717,0,0,1-1.728,3.456c-1.589.622,8.3,2.766,9.748,2.282S3666.625,950.817,3665.172,949.572Z" transform="translate(-3610.202 -933.728)"/><path class="ad" d="M3757.275,924.665s-2.626-4.84-5.461-2.973a38.321,38.321,0,0,0-5.255,4.286,23.285,23.285,0,0,1-5.85-.641,29.226,29.226,0,0,1-4.3-1.831c-.967-.484.75,1.158.82,3.716s.277,6.914-.483,8.5-.689,1.718-1.45,1.718c0,0,1.373,1.51,5.116-.473,2.379-1.261,4.493-3.388,7.121-3.388s9.816-.207,10.854-3.941S3758.934,925.08,3757.275,924.665Z" transform="translate(-3682.601 -909.581)"/><path class="g" d="M4013.7,974.2s8.4-2.074,8.918-2.7.311-1.45-3.734-1.244S4011,968.6,4013.7,974.2Z" transform="translate(-3934.701 -953.964)"/><path class="ae" d="M3982.989,964.436s9.989-2.593,10.059-3.077c.175-1.229-1.729-2.9-2.42-2.973C3986.585,957.983,3981.779,955,3982.989,964.436Z" transform="translate(-3907.451 -942.612)"/><path class="af" d="M4045.412,907.414s-4.372-6.151-5.225-7.446,7.785,6.151,7.465,7.231S4046.905,907.522,4045.412,907.414Z" transform="translate(-3959.532 -890.097)"/><path class="af" d="M3916.685,819.4s-1.037,3.215-1.763,3.215-.1.622-.1,1.037a9.754,9.754,0,0,0,0,1.763c.1.725-.416,3.214,1.867,2.592S3920.522,818.678,3916.685,819.4Z" transform="translate(-3845.468 -817.005)"/><path class="ag" d="M3929.854,808.679c.127-.862-.725-2.7-2.074-2.8s-.311-.519.415-1.867.311-4.044-.623-5.5-.207-4.666,1.556-4.874,7.881,2.074,7.881,2.074,4.251,3.733,1.556,7.362-1.866,3.526-1.037,4.149.207,2.7-.623,3.63-.725,2.7.623,2.9,3.421-.725,3.629,1.348-3.112,4.459-4.563,3.837-1.108-1.962-2.9-1.763c-.743.081-1.244.622-2.281.311s-.83-1.763-.622-2.7-.175-1.305-.933-.622C3928.814,815.109,3929.48,811.214,3929.854,808.679Z" transform="translate(-3856.872 -793.63)"/><path class="ae" d="M3846.529,922c-.638-1.117-4.259-.107-5.462.553-1.018.559-4.493,3.526-3.94,3.595C3842.969,926.878,3847.594,923.861,3846.529,922Z" transform="translate(-3775.059 -909.794)"/><path class="ah" d="M3333.447,1014.81s-6.87,6.915-10.968,10.473c-3.664,3.18,1.651,1.016,3.388.069,3.8-2.074,10.992-5.945,10.992-8.849C3336.859,1012.133,3334.206,1014.326,3333.447,1014.81Z" transform="translate(-3306.43 -993.674)"/><path class="ai" d="M3161.749,1071.651a2.58,2.58,0,0,0,1.867.277c.967-.277,1.244.138,1.313.691.136,1.085-.9.967-1.936.829a24.93,24.93,0,0,1-2.626-.277c-.208-.139-1.175-2.351-.415-2.419S3160.712,1070.752,3161.749,1071.651Z" transform="translate(-3159.665 -1045.366)"/><path class="ai" d="M3256.921,1149.723s.346.76-.207,1.175a15.753,15.753,0,0,1-3.112,1.037,4.06,4.06,0,0,1-3.182-.069c-.76-.346.07-1.106.761-1.244a12.415,12.415,0,0,1,2.143-.207,10.2,10.2,0,0,0,2.351-.622C3256.23,1149.516,3256.714,1149.377,3256.921,1149.723Z" transform="translate(-3241.84 -1116.941)"/></g></g><g transform="translate(139.331 68.945)"><path class="d" d="M973.277,188.46l13.284-28.09H992.5l-13.252,28.09Z" transform="translate(-938.831 -142.079)"/><path class="d" d="M1043.014,181.652V203.5h-6.686V191.235l-2,2.09-3.761-4.179,7.731-7.492Z" transform="translate(-980.039 -157.386)"/><path class="d" d="M1095.537,195.558c-1.4.985-2.179,1.523-2.478,1.761h7.881v5.344h-16.508v-5.194l7.642-6.3c1.463-1.193,2.119-2.239,2.119-3.373s-.567-1.672-1.761-1.672a2.273,2.273,0,0,0-1.97,1.373,7.519,7.519,0,0,0-.777,2.328l-5.94-1.523c1.492-5.373,4.209-7.821,8.687-7.821,5.672,0,8.269,2.328,8.269,7.371C1100.7,190.662,1099.089,193.08,1095.537,195.558Z" transform="translate(-1018.291 -156.546)"/><g transform="translate(0 0)"><path class="d" d="M878.127,118.615c4.582,1.3,6.689,4.645,6.689,10.59,0,8.794-4.954,12.82-15.794,12.82-11.7,0-16.968-3.778-18.455-15.483l10.776-1.363c0,4.026,2.724,5.574,5.7,5.574,3.592,0,4.768-1.239,4.768-3.468,0-2.973-2.476-4.274-7.927-4.211v-8.547c5.451.31,7.927-1.053,7.927-4.335,0-2.417-1.176-3.716-4.768-3.716a5.429,5.429,0,0,0-5.7,5.822l-10.776-1.548c1.3-10.59,6.75-15.546,17.4-15.546,11.582,0,16.846,4.211,16.846,13.439C884.816,114.838,882.709,118,878.127,118.615Z" transform="translate(-850.567 -95.206)"/></g></g></g></g></g></svg>