<svg xmlns="http://www.w3.org/2000/svg" xmlns:xlink="http://www.w3.org/1999/xlink" width="444.194" height="248.5" viewBox="0 0 444.194 248.5"><defs><style>.a,.ay{fill:none;}.b{opacity:0.3;}.c{fill:#0253a2;}.d{fill:#961640;}.e{fill:#73a9ff;}.f{fill:#e9f6ff;}.g{fill:#b7bec0;}.h{fill:#cdd5d7;}.i{fill:#acb3b4;}.j{fill:#e5e8ec;}.k{fill:#acd4f8;}.l{fill:#484f59;}.m{opacity:0.5;}.n{opacity:0.7;}.o{mix-blend-mode:color;isolation:isolate;}.p{fill:#961741;}.q{fill:url(#a);}.r,.t{fill:#fff;}.r{stroke:#ffebea;stroke-width:6px;}.ay,.r{stroke-linecap:round;}.s{fill:#ffca6f;}.u{fill:#ffebea;}.v{fill:#b33429;}.ab,.w,.y{opacity:0.1;}.x{fill:#e8b865;}.y{fill:#bd0000;}.z{fill:#e3663b;}.aa{fill:#e87c65;}.ab{fill:#1a1a1a;}.ac{fill:#e96041;}.ad{fill:#f27357;}.ae{fill:#a63f2b;}.af,.ag{fill:#063d71;}.af,.an,.ao,.ap,.aq{fill-rule:evenodd;}.ah,.aq{fill:#021324;}.ai{fill:#ffc9b6;}.aj{fill:#ad593b;}.ak{fill:#714434;}.al{fill:#a52c41;}.am{fill:#600f30;}.an{fill:#054c90;}.ao{fill:#04356e;}.ap{fill:#001630;}.ar{fill:#42292c;}.as{fill:#ff6e53;}.at{fill:#bec4e8;}.au{fill:url(#e);}.av{fill:#e1e3f2;}.aw{fill:#c9eefa;}.ax{fill:#b42f69;}.ay{stroke:#8abf54;stroke-linejoin:round;stroke-width:16px;}</style><linearGradient id="a" x1="0.095" y1="0.104" x2="1" y2="1" gradientUnits="objectBoundingBox"><stop offset="0" stop-color="#e6a749"/><stop offset="1" stop-color="#fff"/></linearGradient><linearGradient id="e" x1="0.12" y1="-1.061" x2="1" y2="1" gradientUnits="objectBoundingBox"><stop offset="0" stop-color="#e5ac3e"/><stop offset="1" stop-color="#fff"/></linearGradient></defs><g transform="translate(-402 -485)"><rect class="a" width="444.194" height="248.5" transform="translate(402 485)"/><g transform="translate(427.747 494.856)"><g transform="translate(238.744 26.368)"><g class="b" transform="translate(70.328 0)"><path class="c" d="M62.176,79.955a1.732,1.732,0,0,1-1.732,1.732H1.733A1.734,1.734,0,0,1,0,79.955V1.734A1.734,1.734,0,0,1,1.733,0H60.444a1.733,1.733,0,0,1,1.732,1.734Z" transform="translate(0 11.951)"/><path class="d" d="M62.176,79.95a1.734,1.734,0,0,1-1.732,1.734H1.733A1.734,1.734,0,0,1,0,79.95V1.731A1.732,1.732,0,0,1,1.733,0H60.444a1.732,1.732,0,0,1,1.732,1.731Z" transform="translate(0 11.375)"/><path class="e" d="M50.982,72.279H.354L0,0H50.626Z" transform="translate(5.389 14.454)"/><g transform="translate(5.965 14.653)"><rect class="f" width="50.651" height="71.63"/></g><g transform="translate(20.019)"><path class="g" d="M9.971,7.5,8.593,5.108a2.936,2.936,0,1,0-3.886,0L3.323,7.5,0,13.258H13.3ZM6.647,4.319a1.4,1.4,0,1,1,.988-.408,1.4,1.4,0,0,1-.988.408Z" transform="translate(3.074 0.029)"/><path class="h" d="M9.972,7.5,8.59,5.11a2.935,2.935,0,1,0-3.885,0L3.323,7.5,0,13.26H13.3ZM6.648,4.321a1.4,1.4,0,1,1,1.4-1.4,1.4,1.4,0,0,1-1.4,1.4Z" transform="translate(2.953 0.027)"/><rect class="h" width="19.826" height="8.471" transform="translate(0 8.679)"/><rect class="g" width="19.826" height="4.813" transform="translate(0 10.219)"/><rect class="i" width="19.826" height="1.804" transform="translate(0 11.338)"/><rect class="j" width="19.826" height="0.77" transform="translate(0 9.449)"/><path class="i" d="M1.783,0A1.78,1.78,0,1,0,3.564,1.78,1.78,1.78,0,0,0,1.783,0Zm0,3.176a1.4,1.4,0,1,1,1.394-1.4,1.4,1.4,0,0,1-1.394,1.4Z" transform="translate(7.818 1.173)"/></g><g transform="translate(12.779 22.286)"><rect class="k" width="36.863" height="1.01" transform="translate(0.072 4.295)"/><rect class="k" width="38.322" height="1.008" transform="translate(0.072 6.139)"/><rect class="k" width="37.107" height="1.009" transform="translate(0.072 7.982)"/><rect class="k" width="12.392" height="1.009" transform="translate(0.072 9.828)"/><rect class="k" width="23.173" height="1.641" transform="translate(0.072)"/><rect class="k" width="29.847" height="1.006" transform="translate(7.425 15.662)"/><rect class="k" width="21.171" height="1.01" transform="translate(7.425 17.505)"/><rect class="k" width="28.406" height="1.008" transform="translate(7.425 21.785)"/><rect class="k" width="8.578" height="1.009" transform="translate(7.425 23.628)"/><rect class="k" width="25.87" height="1.005" transform="translate(7.425 27.909)"/><rect class="k" width="21.005" height="1.008" transform="translate(7.425 34.031)"/><rect class="k" width="29.847" height="1.007" transform="translate(7.425 35.876)"/><rect class="k" width="23.905" height="1.007" transform="translate(7.425 40.154)"/><rect class="k" width="21.725" height="1.01" transform="translate(7.425 45.737)"/><path class="k" d="M0,0V3.6H3.6V0ZM3.014,3.017H.582V.585H3.011Z" transform="translate(0 15.283)"/><path class="k" d="M0,0V3.6H3.6V0ZM3.014,3.018H.582V.586H3.011Z" transform="translate(0 21.314)"/><path class="k" d="M0,0V3.6H3.6V0ZM3.014,3.018H.582V.585H3.011Z" transform="translate(0 27.348)"/><path class="k" d="M0,0V3.6H3.6V0ZM3.014,3.018H.582V.587H3.011Z" transform="translate(0 33.381)"/><path class="k" d="M0,0V3.6H3.6V0ZM3.014,3.018H.582V.585H3.011Z" transform="translate(0 39.415)"/><path class="k" d="M0,0V3.6H3.6V0ZM3.014,3.017H.582V.587H3.011Z" transform="translate(0 45.447)"/><g transform="translate(0.842 22.024)"><g transform="translate(0 0)"><path class="l" d="M.17,2.282a.169.169,0,0,1-.12-.287L1.989.052a.169.169,0,0,1,.24.239L.29,2.232a.168.168,0,0,1-.12.05Z" transform="translate(-0.003 -0.006)"/></g><g transform="translate(0.005 0.003)"><path class="l" d="M2.111,2.284a.168.168,0,0,1-.12-.05L.053.292A.169.169,0,0,1,.293.054L2.231,2a.169.169,0,0,1-.12.288Z" transform="translate(-0.011 -0.011)"/></g></g><g transform="translate(0.84 39.861)"><g transform="translate(0 0)"><path class="l" d="M.17,2.278a.169.169,0,0,1-.12-.289L1.988.054a.169.169,0,0,1,.239.239L.289,2.229a.169.169,0,0,1-.12.049Z" transform="translate(-0.001 -0.011)"/></g><g transform="translate(0.007 0)"><path class="l" d="M2.111,2.278a.169.169,0,0,1-.12-.049L.054.293A.169.169,0,0,1,.293.054L2.231,1.989a.169.169,0,0,1-.12.289Z" transform="translate(-0.011 -0.011)"/></g></g><g transform="translate(1.024 15.009)"><path class="l" d="M1.071,2.772A.169.169,0,0,1,.946,2.72l-.9-.95a.169.169,0,1,1,.245-.234l.773.81L2.93.067a.169.169,0,0,1,.262.214L1.2,2.71a.169.169,0,0,1-.125.062Z" transform="translate(0.011 -0.013)"/></g><g transform="translate(1.205 27.072)"><path class="l" d="M1.068,2.769a.169.169,0,0,1-.125-.052l-.9-.945a.169.169,0,1,1,.245-.234l.771.81L2.93.066a.169.169,0,0,1,.262.215L1.2,2.709a.169.169,0,0,1-.125.062Z" transform="translate(0.011 -0.009)"/></g><g transform="translate(0.124 33.184)"><path class="l" d="M1.068,2.764a.17.17,0,0,1-.125-.052l-.9-.947a.169.169,0,1,1,.245-.234l.77.81L2.928.059a.169.169,0,1,1,.262.215L1.2,2.7a.168.168,0,0,1-.125.062Z" transform="translate(0.011 0.008)"/></g><g transform="translate(0.857 45.068)"><path class="l" d="M1.075,2.763a.168.168,0,0,1-.125-.053l-.9-.949A.169.169,0,0,1,.3,1.529l.77.81L2.938.057A.169.169,0,1,1,3.2.271L1.207,2.7a.169.169,0,0,1-.125.062Z" transform="translate(-0.01 0.013)"/></g></g></g><g class="m" transform="translate(53.224 10.273)"><g transform="translate(0 0)"><path class="c" d="M62.176,79.955a1.732,1.732,0,0,1-1.732,1.732H1.733A1.734,1.734,0,0,1,0,79.955V1.734A1.734,1.734,0,0,1,1.733,0H60.444a1.733,1.733,0,0,1,1.732,1.734Z" transform="translate(0 11.951)"/><path class="d" d="M62.176,79.95a1.734,1.734,0,0,1-1.732,1.734H1.733A1.734,1.734,0,0,1,0,79.95V1.731A1.732,1.732,0,0,1,1.733,0H60.444a1.732,1.732,0,0,1,1.732,1.731Z" transform="translate(0 11.375)"/><path class="e" d="M50.982,72.279H.354L0,0H50.626Z" transform="translate(5.389 14.454)"/><g transform="translate(5.965 14.653)"><rect class="f" width="50.651" height="71.63"/></g><g transform="translate(20.019)"><path class="g" d="M9.971,7.5,8.593,5.108a2.936,2.936,0,1,0-3.886,0L3.323,7.5,0,13.258H13.3ZM6.647,4.319a1.4,1.4,0,1,1,.988-.408,1.4,1.4,0,0,1-.988.408Z" transform="translate(3.074 0.029)"/><path class="h" d="M9.972,7.5,8.59,5.11a2.935,2.935,0,1,0-3.885,0L3.323,7.5,0,13.26H13.3ZM6.648,4.321a1.4,1.4,0,1,1,1.4-1.4,1.4,1.4,0,0,1-1.4,1.4Z" transform="translate(2.953 0.027)"/><rect class="h" width="19.826" height="8.471" transform="translate(0 8.679)"/><rect class="g" width="19.826" height="4.813" transform="translate(0 10.219)"/><rect class="i" width="19.826" height="1.804" transform="translate(0 11.338)"/><rect class="j" width="19.826" height="0.77" transform="translate(0 9.449)"/><path class="i" d="M1.783,0A1.78,1.78,0,1,0,3.564,1.78,1.78,1.78,0,0,0,1.783,0Zm0,3.176a1.4,1.4,0,1,1,1.394-1.4,1.4,1.4,0,0,1-1.394,1.4Z" transform="translate(7.818 1.173)"/></g></g><g transform="translate(12.779 22.286)"><rect class="k" width="36.863" height="1.01" transform="translate(0.072 4.295)"/><rect class="k" width="38.322" height="1.008" transform="translate(0.072 6.139)"/><rect class="k" width="37.107" height="1.009" transform="translate(0.072 7.982)"/><rect class="k" width="12.392" height="1.009" transform="translate(0.072 9.828)"/><rect class="k" width="23.173" height="1.641" transform="translate(0.072)"/><rect class="k" width="29.847" height="1.006" transform="translate(7.425 15.662)"/><rect class="k" width="21.171" height="1.01" transform="translate(7.425 17.505)"/><rect class="k" width="28.406" height="1.008" transform="translate(7.425 21.785)"/><rect class="k" width="8.578" height="1.009" transform="translate(7.425 23.628)"/><rect class="k" width="25.87" height="1.005" transform="translate(7.425 27.909)"/><rect class="k" width="21.005" height="1.008" transform="translate(7.425 34.031)"/><rect class="k" width="29.847" height="1.007" transform="translate(7.425 35.876)"/><rect class="k" width="23.905" height="1.007" transform="translate(7.425 40.154)"/><rect class="k" width="21.725" height="1.01" transform="translate(7.425 45.737)"/><path class="k" d="M0,0V3.6H3.6V0ZM3.014,3.017H.582V.585H3.011Z" transform="translate(0 15.283)"/><path class="k" d="M0,0V3.6H3.6V0ZM3.014,3.018H.582V.586H3.011Z" transform="translate(0 21.314)"/><path class="k" d="M0,0V3.6H3.6V0ZM3.014,3.018H.582V.585H3.011Z" transform="translate(0 27.348)"/><path class="k" d="M0,0V3.6H3.6V0ZM3.014,3.018H.582V.587H3.011Z" transform="translate(0 33.381)"/><path class="k" d="M0,0V3.6H3.6V0ZM3.014,3.018H.582V.585H3.011Z" transform="translate(0 39.415)"/><path class="k" d="M0,0V3.6H3.6V0ZM3.014,3.017H.582V.587H3.011Z" transform="translate(0 45.447)"/><g transform="translate(0.842 22.024)"><g transform="translate(0 0)"><path class="l" d="M.17,2.282a.169.169,0,0,1-.12-.287L1.989.052a.169.169,0,0,1,.24.239L.29,2.232a.168.168,0,0,1-.12.05Z" transform="translate(-0.003 -0.006)"/></g><g transform="translate(0.005 0.003)"><path class="l" d="M2.111,2.284a.168.168,0,0,1-.12-.05L.053.292A.169.169,0,0,1,.293.054L2.231,2a.169.169,0,0,1-.12.288Z" transform="translate(-0.011 -0.011)"/></g></g><g transform="translate(0.84 39.861)"><g transform="translate(0 0)"><path class="l" d="M.17,2.278a.169.169,0,0,1-.12-.289L1.988.054a.169.169,0,0,1,.239.239L.289,2.229a.169.169,0,0,1-.12.049Z" transform="translate(-0.001 -0.011)"/></g><g transform="translate(0.007 0)"><path class="l" d="M2.111,2.278a.169.169,0,0,1-.12-.049L.054.293A.169.169,0,0,1,.293.054L2.231,1.989a.169.169,0,0,1-.12.289Z" transform="translate(-0.011 -0.011)"/></g></g><g transform="translate(1.024 15.009)"><path class="l" d="M1.071,2.772A.169.169,0,0,1,.946,2.72l-.9-.95a.169.169,0,1,1,.245-.234l.773.81L2.93.067a.169.169,0,0,1,.262.214L1.2,2.71a.169.169,0,0,1-.125.062Z" transform="translate(0.011 -0.013)"/></g><g transform="translate(1.205 27.072)"><path class="l" d="M1.068,2.769a.169.169,0,0,1-.125-.052l-.9-.945a.169.169,0,1,1,.245-.234l.771.81L2.93.066a.169.169,0,0,1,.262.215L1.2,2.709a.169.169,0,0,1-.125.062Z" transform="translate(0.011 -0.009)"/></g><g transform="translate(0.124 33.184)"><path class="l" d="M1.068,2.764a.17.17,0,0,1-.125-.052l-.9-.947a.169.169,0,1,1,.245-.234l.77.81L2.928.059a.169.169,0,1,1,.262.215L1.2,2.7a.168.168,0,0,1-.125.062Z" transform="translate(0.011 0.008)"/></g><g transform="translate(0.857 45.068)"><path class="l" d="M1.075,2.763a.168.168,0,0,1-.125-.053l-.9-.949A.169.169,0,0,1,.3,1.529l.77.81L2.938.057A.169.169,0,1,1,3.2.271L1.207,2.7a.169.169,0,0,1-.125.062Z" transform="translate(-0.01 0.013)"/></g></g></g><g class="n" transform="translate(35.569 20.622)"><g transform="translate(0 0)"><path class="c" d="M62.176,79.955a1.732,1.732,0,0,1-1.732,1.732H1.733A1.734,1.734,0,0,1,0,79.955V1.734A1.734,1.734,0,0,1,1.733,0H60.444a1.733,1.733,0,0,1,1.732,1.734Z" transform="translate(0 11.951)"/><path class="d" d="M62.176,79.95a1.734,1.734,0,0,1-1.732,1.734H1.733A1.734,1.734,0,0,1,0,79.95V1.731A1.732,1.732,0,0,1,1.733,0H60.444a1.732,1.732,0,0,1,1.732,1.731Z" transform="translate(0 11.375)"/><path class="e" d="M50.982,72.279H.354L0,0H50.626Z" transform="translate(5.389 14.454)"/><g transform="translate(5.965 14.653)"><rect class="f" width="50.651" height="71.63"/></g><g transform="translate(20.019)"><path class="g" d="M9.971,7.5,8.593,5.108a2.936,2.936,0,1,0-3.886,0L3.323,7.5,0,13.258H13.3ZM6.647,4.319a1.4,1.4,0,1,1,.988-.408,1.4,1.4,0,0,1-.988.408Z" transform="translate(3.074 0.029)"/><path class="h" d="M9.972,7.5,8.59,5.11a2.935,2.935,0,1,0-3.885,0L3.323,7.5,0,13.26H13.3ZM6.648,4.321a1.4,1.4,0,1,1,1.4-1.4,1.4,1.4,0,0,1-1.4,1.4Z" transform="translate(2.953 0.027)"/><rect class="h" width="19.826" height="8.471" transform="translate(0 8.679)"/><rect class="g" width="19.826" height="4.813" transform="translate(0 10.219)"/><rect class="i" width="19.826" height="1.804" transform="translate(0 11.338)"/><rect class="j" width="19.826" height="0.77" transform="translate(0 9.449)"/><path class="i" d="M1.783,0A1.78,1.78,0,1,0,3.564,1.78,1.78,1.78,0,0,0,1.783,0Zm0,3.176a1.4,1.4,0,1,1,1.394-1.4,1.4,1.4,0,0,1-1.394,1.4Z" transform="translate(7.818 1.173)"/></g></g><g transform="translate(8.37 22.906)"><rect class="k" width="36.863" height="1.01" transform="translate(0.072 4.295)"/><rect class="k" width="38.322" height="1.008" transform="translate(0.072 6.139)"/><rect class="k" width="37.107" height="1.009" transform="translate(0.072 7.982)"/><rect class="k" width="12.392" height="1.009" transform="translate(0.072 9.828)"/><rect class="k" width="23.173" height="1.641" transform="translate(0.072)"/><rect class="k" width="29.847" height="1.006" transform="translate(7.425 15.662)"/><rect class="k" width="21.171" height="1.01" transform="translate(7.425 17.505)"/><rect class="k" width="28.406" height="1.008" transform="translate(7.425 21.785)"/><rect class="k" width="8.578" height="1.009" transform="translate(7.425 23.628)"/><rect class="k" width="25.87" height="1.005" transform="translate(7.425 27.909)"/><rect class="k" width="21.005" height="1.008" transform="translate(7.425 34.031)"/><rect class="k" width="29.847" height="1.007" transform="translate(7.425 35.876)"/><rect class="k" width="23.905" height="1.007" transform="translate(7.425 40.154)"/><rect class="k" width="21.725" height="1.01" transform="translate(7.425 45.737)"/><path class="k" d="M0,0V3.6H3.6V0ZM3.014,3.017H.582V.585H3.011Z" transform="translate(0 15.283)"/><path class="k" d="M0,0V3.6H3.6V0ZM3.014,3.018H.582V.586H3.011Z" transform="translate(0 21.314)"/><path class="k" d="M0,0V3.6H3.6V0ZM3.014,3.018H.582V.585H3.011Z" transform="translate(0 27.348)"/><path class="k" d="M0,0V3.6H3.6V0ZM3.014,3.018H.582V.587H3.011Z" transform="translate(0 33.381)"/><path class="k" d="M0,0V3.6H3.6V0ZM3.014,3.018H.582V.585H3.011Z" transform="translate(0 39.415)"/><path class="k" d="M0,0V3.6H3.6V0ZM3.014,3.017H.582V.587H3.011Z" transform="translate(0 45.447)"/><g transform="translate(0.842 22.024)"><g transform="translate(0 0)"><path class="l" d="M.17,2.282a.169.169,0,0,1-.12-.287L1.989.052a.169.169,0,0,1,.24.239L.29,2.232a.168.168,0,0,1-.12.05Z" transform="translate(-0.003 -0.006)"/></g><g transform="translate(0.005 0.003)"><path class="l" d="M2.111,2.284a.168.168,0,0,1-.12-.05L.053.292A.169.169,0,0,1,.293.054L2.231,2a.169.169,0,0,1-.12.288Z" transform="translate(-0.011 -0.011)"/></g></g><g transform="translate(0.84 39.861)"><g transform="translate(0 0)"><path class="l" d="M.17,2.278a.169.169,0,0,1-.12-.289L1.988.054a.169.169,0,0,1,.239.239L.289,2.229a.169.169,0,0,1-.12.049Z" transform="translate(-0.001 -0.011)"/></g><g transform="translate(0.007 0)"><path class="l" d="M2.111,2.278a.169.169,0,0,1-.12-.049L.054.293A.169.169,0,0,1,.293.054L2.231,1.989a.169.169,0,0,1-.12.289Z" transform="translate(-0.011 -0.011)"/></g></g><g transform="translate(1.024 15.009)"><path class="l" d="M1.071,2.772A.169.169,0,0,1,.946,2.72l-.9-.95a.169.169,0,1,1,.245-.234l.773.81L2.93.067a.169.169,0,0,1,.262.214L1.2,2.71a.169.169,0,0,1-.125.062Z" transform="translate(0.011 -0.013)"/></g><g transform="translate(1.205 27.072)"><path class="l" d="M1.068,2.769a.169.169,0,0,1-.125-.052l-.9-.945a.169.169,0,1,1,.245-.234l.771.81L2.93.066a.169.169,0,0,1,.262.215L1.2,2.709a.169.169,0,0,1-.125.062Z" transform="translate(0.011 -0.009)"/></g><g transform="translate(0.124 33.184)"><path class="l" d="M1.068,2.764a.17.17,0,0,1-.125-.052l-.9-.947a.169.169,0,1,1,.245-.234l.77.81L2.928.059a.169.169,0,1,1,.262.215L1.2,2.7a.168.168,0,0,1-.125.062Z" transform="translate(0.011 0.008)"/></g><g transform="translate(0.857 45.068)"><path class="l" d="M1.075,2.763a.168.168,0,0,1-.125-.053l-.9-.949A.169.169,0,0,1,.3,1.529l.77.81L2.938.057A.169.169,0,1,1,3.2.271L1.207,2.7a.169.169,0,0,1-.125.062Z" transform="translate(-0.01 0.013)"/></g></g></g><g transform="translate(0 28.692)"><path class="c" d="M84.306,108.409a2.349,2.349,0,0,1-2.349,2.349H2.349A2.35,2.35,0,0,1,0,108.409V2.351A2.351,2.351,0,0,1,2.349,0H81.956a2.35,2.35,0,0,1,2.349,2.351Z" transform="translate(0 16.205)"/><path class="d" d="M84.306,108.406a2.35,2.35,0,0,1-2.349,2.351H2.349A2.351,2.351,0,0,1,0,108.405V2.347A2.349,2.349,0,0,1,2.349,0H81.956a2.348,2.348,0,0,1,2.349,2.347Z" transform="translate(0 15.425)"/><path class="e" d="M69.127,98H.48L0,0H68.646Z" transform="translate(7.307 19.599)"/><g transform="translate(8.089 19.869)"><rect class="f" width="68.678" height="97.125"/></g><g transform="translate(27.144)"><path class="g" d="M13.519,10.171,11.651,6.926a3.982,3.982,0,1,0-5.269,0L4.506,10.171,0,17.976H18.028ZM9.012,5.856a1.893,1.893,0,1,1,1.34-.554A1.892,1.892,0,0,1,9.012,5.856Z" transform="translate(4.168 0.041)"/><path class="h" d="M13.521,10.173,11.645,6.928a3.98,3.98,0,1,0-5.267,0L4.506,10.173,0,17.978H18.028ZM9.014,5.858a1.892,1.892,0,1,1,1.893-1.893A1.892,1.892,0,0,1,9.014,5.858Z" transform="translate(4.004 0.039)"/><rect class="h" width="26.881" height="11.486" transform="translate(0 11.769)"/><rect class="g" width="26.881" height="6.527" transform="translate(0 13.857)"/><rect class="i" width="26.881" height="2.446" transform="translate(0 15.374)"/><rect class="j" width="26.881" height="1.044" transform="translate(0 12.813)"/><path class="i" d="M2.417,0A2.414,2.414,0,1,0,4.831,2.413,2.414,2.414,0,0,0,2.417,0Zm0,4.306A1.892,1.892,0,1,1,4.31,2.413,1.892,1.892,0,0,1,2.417,4.306Z" transform="translate(10.601 1.591)"/></g><g transform="translate(17.327 30.219)"><rect class="k" width="49.982" height="1.369" transform="translate(0.098 5.824)"/><rect class="k" width="51.961" height="1.367" transform="translate(0.098 8.323)"/><rect class="k" width="50.314" height="1.368" transform="translate(0.098 10.823)"/><rect class="k" width="16.803" height="1.369" transform="translate(0.098 13.326)"/><rect class="k" width="31.42" height="2.224" transform="translate(0.098)"/><rect class="k" width="40.471" height="1.364" transform="translate(10.068 21.235)"/><rect class="k" width="28.707" height="1.369" transform="translate(10.068 23.736)"/><rect class="k" width="38.517" height="1.367" transform="translate(10.068 29.539)"/><rect class="k" width="11.631" height="1.367" transform="translate(10.068 32.037)"/><rect class="k" width="35.077" height="1.363" transform="translate(10.068 37.843)"/><rect class="k" width="28.481" height="1.366" transform="translate(10.068 46.143)"/><rect class="k" width="40.471" height="1.366" transform="translate(10.068 48.645)"/><rect class="k" width="32.413" height="1.366" transform="translate(10.068 54.445)"/><rect class="k" width="29.458" height="1.369" transform="translate(10.068 62.015)"/><path class="k" d="M0,0V4.882H4.879V0ZM4.087,4.091H.79V.79h3.3Z" transform="translate(0 20.722)"/><path class="k" d="M0,0V4.886H4.879V0ZM4.087,4.092H.79V.795h3.3Z" transform="translate(0 28.9)"/><path class="k" d="M0,0V4.884H4.879V0ZM4.087,4.091H.79V.791h3.3Z" transform="translate(0 37.081)"/><path class="k" d="M0,0V4.887H4.879V0ZM4.087,4.092H.79V.8h3.3Z" transform="translate(0 45.262)"/><path class="k" d="M0,0V4.886H4.879V0ZM4.087,4.092H.79V.792h3.3Z" transform="translate(0 53.443)"/><path class="k" d="M0,0V4.885H4.879V0ZM4.087,4.091H.79V.8h3.3Z" transform="translate(0 61.623)"/><g transform="translate(1.14 29.859)"><g transform="translate(0 0)"><path class="l" d="M.23,3.091A.23.23,0,0,1,.068,2.7L2.7.067A.229.229,0,1,1,3.02.391L.392,3.023A.228.228,0,0,1,.23,3.091Z" transform="translate(-0.001 0)"/></g><g transform="translate(0 0)"><path class="l" d="M2.857,3.09a.228.228,0,0,1-.163-.067L.067.391A.229.229,0,0,1,.392.067L3.02,2.7a.229.229,0,0,1-.163.391Z" transform="translate(0 0)"/></g></g><g transform="translate(1.139 54.039)"><g transform="translate(0 0)"><path class="l" d="M.229,3.084a.23.23,0,0,1-.163-.392L2.695.067a.229.229,0,0,1,.324.324L.392,3.017A.229.229,0,0,1,.229,3.084Z" transform="translate(0 0)"/></g><g transform="translate(0 0)"><path class="l" d="M2.858,3.084A.23.23,0,0,1,2.7,3.016L.067.392A.229.229,0,1,1,.392.067L3.02,2.692a.229.229,0,0,1-.162.392Z" transform="translate(0 0)"/></g></g><g transform="translate(1.396 20.339)"><path class="l" d="M1.456,3.752a.229.229,0,0,1-.166-.071L.062,2.393a.229.229,0,1,1,.332-.317l1.049,1.1L3.976.084a.229.229,0,1,1,.356.29l-2.7,3.294a.229.229,0,0,1-.169.084Z" transform="translate(0.002 0.001)"/></g><g transform="translate(1.642 36.706)"><path class="l" d="M1.452,3.753a.23.23,0,0,1-.166-.071L.061,2.4a.229.229,0,1,1,.331-.317L1.44,3.179,3.976.087a.229.229,0,0,1,.355.29l-2.7,3.292a.23.23,0,0,1-.169.083Z" transform="translate(0.002 -0.009)"/></g><g transform="translate(0.176 44.995)"><path class="l" d="M1.453,3.748a.23.23,0,0,1-.166-.071L.062,2.393a.229.229,0,0,1,.332-.316l1.046,1.1L3.974.08a.229.229,0,1,1,.355.29L1.63,3.664a.228.228,0,0,1-.169.084Z" transform="translate(0.002 0.01)"/></g><g transform="translate(1.154 61.113)"><path class="l" d="M1.452,3.751a.229.229,0,0,1-.166-.072L.062,2.391a.229.229,0,0,1,.333-.316l1.046,1.1L3.978.08a.229.229,0,1,1,.355.29l-2.7,3.3a.229.229,0,0,1-.169.084Z" transform="translate(0.002 0.01)"/></g></g></g></g><g class="o" transform="translate(238.744 26.368)"><g class="b" transform="translate(70.328 0)"><path class="p" d="M62.176,79.955a1.732,1.732,0,0,1-1.732,1.732H1.733A1.734,1.734,0,0,1,0,79.955V1.734A1.734,1.734,0,0,1,1.733,0H60.444a1.733,1.733,0,0,1,1.732,1.734Z" transform="translate(0 11.951)"/><path class="p" d="M62.176,79.95a1.734,1.734,0,0,1-1.732,1.734H1.733A1.734,1.734,0,0,1,0,79.95V1.731A1.732,1.732,0,0,1,1.733,0H60.444a1.732,1.732,0,0,1,1.732,1.731Z" transform="translate(0 11.375)"/><path class="p" d="M50.982,72.279H.354L0,0H50.626Z" transform="translate(5.389 14.454)"/><g transform="translate(5.965 14.653)"><rect class="p" width="50.651" height="71.63"/></g><g transform="translate(20.019)"><path class="p" d="M9.971,7.5,8.593,5.108a2.936,2.936,0,1,0-3.886,0L3.323,7.5,0,13.258H13.3ZM6.647,4.319a1.4,1.4,0,1,1,.988-.408,1.4,1.4,0,0,1-.988.408Z" transform="translate(3.074 0.029)"/><path class="p" d="M9.972,7.5,8.59,5.11a2.935,2.935,0,1,0-3.885,0L3.323,7.5,0,13.26H13.3ZM6.648,4.321a1.4,1.4,0,1,1,1.4-1.4,1.4,1.4,0,0,1-1.4,1.4Z" transform="translate(2.953 0.027)"/><rect class="p" width="19.826" height="8.471" transform="translate(0 8.679)"/><rect class="p" width="19.826" height="4.813" transform="translate(0 10.219)"/><rect class="p" width="19.826" height="1.804" transform="translate(0 11.338)"/><rect class="p" width="19.826" height="0.77" transform="translate(0 9.449)"/><path class="p" d="M1.783,0A1.78,1.78,0,1,0,3.564,1.78,1.78,1.78,0,0,0,1.783,0Zm0,3.176a1.4,1.4,0,1,1,1.394-1.4,1.4,1.4,0,0,1-1.394,1.4Z" transform="translate(7.818 1.173)"/></g><g transform="translate(12.779 22.286)"><rect class="p" width="36.863" height="1.01" transform="translate(0.072 4.295)"/><rect class="p" width="38.322" height="1.008" transform="translate(0.072 6.139)"/><rect class="p" width="37.107" height="1.009" transform="translate(0.072 7.982)"/><rect class="p" width="12.392" height="1.009" transform="translate(0.072 9.828)"/><rect class="p" width="23.173" height="1.641" transform="translate(0.072)"/><rect class="p" width="29.847" height="1.006" transform="translate(7.425 15.662)"/><rect class="p" width="21.171" height="1.01" transform="translate(7.425 17.505)"/><rect class="p" width="28.406" height="1.008" transform="translate(7.425 21.785)"/><rect class="p" width="8.578" height="1.009" transform="translate(7.425 23.628)"/><rect class="p" width="25.87" height="1.005" transform="translate(7.425 27.909)"/><rect class="p" width="21.005" height="1.008" transform="translate(7.425 34.031)"/><rect class="p" width="29.847" height="1.007" transform="translate(7.425 35.876)"/><rect class="p" width="23.905" height="1.007" transform="translate(7.425 40.154)"/><rect class="p" width="21.725" height="1.01" transform="translate(7.425 45.737)"/><path class="p" d="M0,0V3.6H3.6V0ZM3.014,3.017H.582V.585H3.011Z" transform="translate(0 15.283)"/><path class="p" d="M0,0V3.6H3.6V0ZM3.014,3.018H.582V.586H3.011Z" transform="translate(0 21.314)"/><path class="p" d="M0,0V3.6H3.6V0ZM3.014,3.018H.582V.585H3.011Z" transform="translate(0 27.348)"/><path class="p" d="M0,0V3.6H3.6V0ZM3.014,3.018H.582V.587H3.011Z" transform="translate(0 33.381)"/><path class="p" d="M0,0V3.6H3.6V0ZM3.014,3.018H.582V.585H3.011Z" transform="translate(0 39.415)"/><path class="p" d="M0,0V3.6H3.6V0ZM3.014,3.017H.582V.587H3.011Z" transform="translate(0 45.447)"/><g transform="translate(0.842 22.024)"><g transform="translate(0 0)"><path class="p" d="M.17,2.282a.169.169,0,0,1-.12-.287L1.989.052a.169.169,0,0,1,.24.239L.29,2.232a.168.168,0,0,1-.12.05Z" transform="translate(-0.003 -0.006)"/></g><g transform="translate(0.005 0.003)"><path class="p" d="M2.111,2.284a.168.168,0,0,1-.12-.05L.053.292A.169.169,0,0,1,.293.054L2.231,2a.169.169,0,0,1-.12.288Z" transform="translate(-0.011 -0.011)"/></g></g><g transform="translate(0.84 39.861)"><g transform="translate(0 0)"><path class="p" d="M.17,2.278a.169.169,0,0,1-.12-.289L1.988.054a.169.169,0,0,1,.239.239L.289,2.229a.169.169,0,0,1-.12.049Z" transform="translate(-0.001 -0.011)"/></g><g transform="translate(0.007 0)"><path class="p" d="M2.111,2.278a.169.169,0,0,1-.12-.049L.054.293A.169.169,0,0,1,.293.054L2.231,1.989a.169.169,0,0,1-.12.289Z" transform="translate(-0.011 -0.011)"/></g></g><g transform="translate(1.024 15.009)"><path class="p" d="M1.071,2.772A.169.169,0,0,1,.946,2.72l-.9-.95a.169.169,0,1,1,.245-.234l.773.81L2.93.067a.169.169,0,0,1,.262.214L1.2,2.71a.169.169,0,0,1-.125.062Z" transform="translate(0.011 -0.013)"/></g><g transform="translate(1.205 27.072)"><path class="p" d="M1.068,2.769a.169.169,0,0,1-.125-.052l-.9-.945a.169.169,0,1,1,.245-.234l.771.81L2.93.066a.169.169,0,0,1,.262.215L1.2,2.709a.169.169,0,0,1-.125.062Z" transform="translate(0.011 -0.009)"/></g><g transform="translate(0.124 33.184)"><path class="p" d="M1.068,2.764a.17.17,0,0,1-.125-.052l-.9-.947a.169.169,0,1,1,.245-.234l.77.81L2.928.059a.169.169,0,1,1,.262.215L1.2,2.7a.168.168,0,0,1-.125.062Z" transform="translate(0.011 0.008)"/></g><g transform="translate(0.857 45.068)"><path class="p" d="M1.075,2.763a.168.168,0,0,1-.125-.053l-.9-.949A.169.169,0,0,1,.3,1.529l.77.81L2.938.057A.169.169,0,1,1,3.2.271L1.207,2.7a.169.169,0,0,1-.125.062Z" transform="translate(-0.01 0.013)"/></g></g></g><g class="m" transform="translate(53.224 10.273)"><g transform="translate(0 0)"><path class="p" d="M62.176,79.955a1.732,1.732,0,0,1-1.732,1.732H1.733A1.734,1.734,0,0,1,0,79.955V1.734A1.734,1.734,0,0,1,1.733,0H60.444a1.733,1.733,0,0,1,1.732,1.734Z" transform="translate(0 11.951)"/><path class="p" d="M62.176,79.95a1.734,1.734,0,0,1-1.732,1.734H1.733A1.734,1.734,0,0,1,0,79.95V1.731A1.732,1.732,0,0,1,1.733,0H60.444a1.732,1.732,0,0,1,1.732,1.731Z" transform="translate(0 11.375)"/><path class="p" d="M50.982,72.279H.354L0,0H50.626Z" transform="translate(5.389 14.454)"/><g transform="translate(5.965 14.653)"><rect class="p" width="50.651" height="71.63"/></g><g transform="translate(20.019)"><path class="p" d="M9.971,7.5,8.593,5.108a2.936,2.936,0,1,0-3.886,0L3.323,7.5,0,13.258H13.3ZM6.647,4.319a1.4,1.4,0,1,1,.988-.408,1.4,1.4,0,0,1-.988.408Z" transform="translate(3.074 0.029)"/><path class="p" d="M9.972,7.5,8.59,5.11a2.935,2.935,0,1,0-3.885,0L3.323,7.5,0,13.26H13.3ZM6.648,4.321a1.4,1.4,0,1,1,1.4-1.4,1.4,1.4,0,0,1-1.4,1.4Z" transform="translate(2.953 0.027)"/><rect class="p" width="19.826" height="8.471" transform="translate(0 8.679)"/><rect class="p" width="19.826" height="4.813" transform="translate(0 10.219)"/><rect class="p" width="19.826" height="1.804" transform="translate(0 11.338)"/><rect class="p" width="19.826" height="0.77" transform="translate(0 9.449)"/><path class="p" d="M1.783,0A1.78,1.78,0,1,0,3.564,1.78,1.78,1.78,0,0,0,1.783,0Zm0,3.176a1.4,1.4,0,1,1,1.394-1.4,1.4,1.4,0,0,1-1.394,1.4Z" transform="translate(7.818 1.173)"/></g></g><g transform="translate(12.779 22.286)"><rect class="p" width="36.863" height="1.01" transform="translate(0.072 4.295)"/><rect class="p" width="38.322" height="1.008" transform="translate(0.072 6.139)"/><rect class="p" width="37.107" height="1.009" transform="translate(0.072 7.982)"/><rect class="p" width="12.392" height="1.009" transform="translate(0.072 9.828)"/><rect class="p" width="23.173" height="1.641" transform="translate(0.072)"/><rect class="p" width="29.847" height="1.006" transform="translate(7.425 15.662)"/><rect class="p" width="21.171" height="1.01" transform="translate(7.425 17.505)"/><rect class="p" width="28.406" height="1.008" transform="translate(7.425 21.785)"/><rect class="p" width="8.578" height="1.009" transform="translate(7.425 23.628)"/><rect class="p" width="25.87" height="1.005" transform="translate(7.425 27.909)"/><rect class="p" width="21.005" height="1.008" transform="translate(7.425 34.031)"/><rect class="p" width="29.847" height="1.007" transform="translate(7.425 35.876)"/><rect class="p" width="23.905" height="1.007" transform="translate(7.425 40.154)"/><rect class="p" width="21.725" height="1.01" transform="translate(7.425 45.737)"/><path class="p" d="M0,0V3.6H3.6V0ZM3.014,3.017H.582V.585H3.011Z" transform="translate(0 15.283)"/><path class="p" d="M0,0V3.6H3.6V0ZM3.014,3.018H.582V.586H3.011Z" transform="translate(0 21.314)"/><path class="p" d="M0,0V3.6H3.6V0ZM3.014,3.018H.582V.585H3.011Z" transform="translate(0 27.348)"/><path class="p" d="M0,0V3.6H3.6V0ZM3.014,3.018H.582V.587H3.011Z" transform="translate(0 33.381)"/><path class="p" d="M0,0V3.6H3.6V0ZM3.014,3.018H.582V.585H3.011Z" transform="translate(0 39.415)"/><path class="p" d="M0,0V3.6H3.6V0ZM3.014,3.017H.582V.587H3.011Z" transform="translate(0 45.447)"/><g transform="translate(0.842 22.024)"><g transform="translate(0 0)"><path class="p" d="M.17,2.282a.169.169,0,0,1-.12-.287L1.989.052a.169.169,0,0,1,.24.239L.29,2.232a.168.168,0,0,1-.12.05Z" transform="translate(-0.003 -0.006)"/></g><g transform="translate(0.005 0.003)"><path class="p" d="M2.111,2.284a.168.168,0,0,1-.12-.05L.053.292A.169.169,0,0,1,.293.054L2.231,2a.169.169,0,0,1-.12.288Z" transform="translate(-0.011 -0.011)"/></g></g><g transform="translate(0.84 39.861)"><g transform="translate(0 0)"><path class="p" d="M.17,2.278a.169.169,0,0,1-.12-.289L1.988.054a.169.169,0,0,1,.239.239L.289,2.229a.169.169,0,0,1-.12.049Z" transform="translate(-0.001 -0.011)"/></g><g transform="translate(0.007 0)"><path class="p" d="M2.111,2.278a.169.169,0,0,1-.12-.049L.054.293A.169.169,0,0,1,.293.054L2.231,1.989a.169.169,0,0,1-.12.289Z" transform="translate(-0.011 -0.011)"/></g></g><g transform="translate(1.024 15.009)"><path class="p" d="M1.071,2.772A.169.169,0,0,1,.946,2.72l-.9-.95a.169.169,0,1,1,.245-.234l.773.81L2.93.067a.169.169,0,0,1,.262.214L1.2,2.71a.169.169,0,0,1-.125.062Z" transform="translate(0.011 -0.013)"/></g><g transform="translate(1.205 27.072)"><path class="p" d="M1.068,2.769a.169.169,0,0,1-.125-.052l-.9-.945a.169.169,0,1,1,.245-.234l.771.81L2.93.066a.169.169,0,0,1,.262.215L1.2,2.709a.169.169,0,0,1-.125.062Z" transform="translate(0.011 -0.009)"/></g><g transform="translate(0.124 33.184)"><path class="p" d="M1.068,2.764a.17.17,0,0,1-.125-.052l-.9-.947a.169.169,0,1,1,.245-.234l.77.81L2.928.059a.169.169,0,1,1,.262.215L1.2,2.7a.168.168,0,0,1-.125.062Z" transform="translate(0.011 0.008)"/></g><g transform="translate(0.857 45.068)"><path class="p" d="M1.075,2.763a.168.168,0,0,1-.125-.053l-.9-.949A.169.169,0,0,1,.3,1.529l.77.81L2.938.057A.169.169,0,1,1,3.2.271L1.207,2.7a.169.169,0,0,1-.125.062Z" transform="translate(-0.01 0.013)"/></g></g></g><g class="n" transform="translate(35.569 20.622)"><g transform="translate(0 0)"><path class="p" d="M62.176,79.955a1.732,1.732,0,0,1-1.732,1.732H1.733A1.734,1.734,0,0,1,0,79.955V1.734A1.734,1.734,0,0,1,1.733,0H60.444a1.733,1.733,0,0,1,1.732,1.734Z" transform="translate(0 11.951)"/><path class="p" d="M62.176,79.95a1.734,1.734,0,0,1-1.732,1.734H1.733A1.734,1.734,0,0,1,0,79.95V1.731A1.732,1.732,0,0,1,1.733,0H60.444a1.732,1.732,0,0,1,1.732,1.731Z" transform="translate(0 11.375)"/><path class="p" d="M50.982,72.279H.354L0,0H50.626Z" transform="translate(5.389 14.454)"/><g transform="translate(5.965 14.653)"><rect class="p" width="50.651" height="71.63"/></g><g transform="translate(20.019)"><path class="p" d="M9.971,7.5,8.593,5.108a2.936,2.936,0,1,0-3.886,0L3.323,7.5,0,13.258H13.3ZM6.647,4.319a1.4,1.4,0,1,1,.988-.408,1.4,1.4,0,0,1-.988.408Z" transform="translate(3.074 0.029)"/><path class="p" d="M9.972,7.5,8.59,5.11a2.935,2.935,0,1,0-3.885,0L3.323,7.5,0,13.26H13.3ZM6.648,4.321a1.4,1.4,0,1,1,1.4-1.4,1.4,1.4,0,0,1-1.4,1.4Z" transform="translate(2.953 0.027)"/><rect class="p" width="19.826" height="8.471" transform="translate(0 8.679)"/><rect class="p" width="19.826" height="4.813" transform="translate(0 10.219)"/><rect class="p" width="19.826" height="1.804" transform="translate(0 11.338)"/><rect class="p" width="19.826" height="0.77" transform="translate(0 9.449)"/><path class="p" d="M1.783,0A1.78,1.78,0,1,0,3.564,1.78,1.78,1.78,0,0,0,1.783,0Zm0,3.176a1.4,1.4,0,1,1,1.394-1.4,1.4,1.4,0,0,1-1.394,1.4Z" transform="translate(7.818 1.173)"/></g></g><g transform="translate(8.37 22.906)"><rect class="p" width="36.863" height="1.01" transform="translate(0.072 4.295)"/><rect class="p" width="38.322" height="1.008" transform="translate(0.072 6.139)"/><rect class="p" width="37.107" height="1.009" transform="translate(0.072 7.982)"/><rect class="p" width="12.392" height="1.009" transform="translate(0.072 9.828)"/><rect class="p" width="23.173" height="1.641" transform="translate(0.072)"/><rect class="p" width="29.847" height="1.006" transform="translate(7.425 15.662)"/><rect class="p" width="21.171" height="1.01" transform="translate(7.425 17.505)"/><rect class="p" width="28.406" height="1.008" transform="translate(7.425 21.785)"/><rect class="p" width="8.578" height="1.009" transform="translate(7.425 23.628)"/><rect class="p" width="25.87" height="1.005" transform="translate(7.425 27.909)"/><rect class="p" width="21.005" height="1.008" transform="translate(7.425 34.031)"/><rect class="p" width="29.847" height="1.007" transform="translate(7.425 35.876)"/><rect class="p" width="23.905" height="1.007" transform="translate(7.425 40.154)"/><rect class="p" width="21.725" height="1.01" transform="translate(7.425 45.737)"/><path class="p" d="M0,0V3.6H3.6V0ZM3.014,3.017H.582V.585H3.011Z" transform="translate(0 15.283)"/><path class="p" d="M0,0V3.6H3.6V0ZM3.014,3.018H.582V.586H3.011Z" transform="translate(0 21.314)"/><path class="p" d="M0,0V3.6H3.6V0ZM3.014,3.018H.582V.585H3.011Z" transform="translate(0 27.348)"/><path class="p" d="M0,0V3.6H3.6V0ZM3.014,3.018H.582V.587H3.011Z" transform="translate(0 33.381)"/><path class="p" d="M0,0V3.6H3.6V0ZM3.014,3.018H.582V.585H3.011Z" transform="translate(0 39.415)"/><path class="p" d="M0,0V3.6H3.6V0ZM3.014,3.017H.582V.587H3.011Z" transform="translate(0 45.447)"/><g transform="translate(0.842 22.024)"><g transform="translate(0 0)"><path class="p" d="M.17,2.282a.169.169,0,0,1-.12-.287L1.989.052a.169.169,0,0,1,.24.239L.29,2.232a.168.168,0,0,1-.12.05Z" transform="translate(-0.003 -0.006)"/></g><g transform="translate(0.005 0.003)"><path class="p" d="M2.111,2.284a.168.168,0,0,1-.12-.05L.053.292A.169.169,0,0,1,.293.054L2.231,2a.169.169,0,0,1-.12.288Z" transform="translate(-0.011 -0.011)"/></g></g><g transform="translate(0.84 39.861)"><g transform="translate(0 0)"><path class="p" d="M.17,2.278a.169.169,0,0,1-.12-.289L1.988.054a.169.169,0,0,1,.239.239L.289,2.229a.169.169,0,0,1-.12.049Z" transform="translate(-0.001 -0.011)"/></g><g transform="translate(0.007 0)"><path class="p" d="M2.111,2.278a.169.169,0,0,1-.12-.049L.054.293A.169.169,0,0,1,.293.054L2.231,1.989a.169.169,0,0,1-.12.289Z" transform="translate(-0.011 -0.011)"/></g></g><g transform="translate(1.024 15.009)"><path class="p" d="M1.071,2.772A.169.169,0,0,1,.946,2.72l-.9-.95a.169.169,0,1,1,.245-.234l.773.81L2.93.067a.169.169,0,0,1,.262.214L1.2,2.71a.169.169,0,0,1-.125.062Z" transform="translate(0.011 -0.013)"/></g><g transform="translate(1.205 27.072)"><path class="p" d="M1.068,2.769a.169.169,0,0,1-.125-.052l-.9-.945a.169.169,0,1,1,.245-.234l.771.81L2.93.066a.169.169,0,0,1,.262.215L1.2,2.709a.169.169,0,0,1-.125.062Z" transform="translate(0.011 -0.009)"/></g><g transform="translate(0.124 33.184)"><path class="p" d="M1.068,2.764a.17.17,0,0,1-.125-.052l-.9-.947a.169.169,0,1,1,.245-.234l.77.81L2.928.059a.169.169,0,1,1,.262.215L1.2,2.7a.168.168,0,0,1-.125.062Z" transform="translate(0.011 0.008)"/></g><g transform="translate(0.857 45.068)"><path class="p" d="M1.075,2.763a.168.168,0,0,1-.125-.053l-.9-.949A.169.169,0,0,1,.3,1.529l.77.81L2.938.057A.169.169,0,1,1,3.2.271L1.207,2.7a.169.169,0,0,1-.125.062Z" transform="translate(-0.01 0.013)"/></g></g></g><g transform="translate(0 28.692)"><path class="p" d="M84.306,108.409a2.349,2.349,0,0,1-2.349,2.349H2.349A2.35,2.35,0,0,1,0,108.409V2.351A2.351,2.351,0,0,1,2.349,0H81.956a2.35,2.35,0,0,1,2.349,2.351Z" transform="translate(0 16.205)"/><path class="p" d="M84.306,108.406a2.35,2.35,0,0,1-2.349,2.351H2.349A2.351,2.351,0,0,1,0,108.405V2.347A2.349,2.349,0,0,1,2.349,0H81.956a2.348,2.348,0,0,1,2.349,2.347Z" transform="translate(0 15.425)"/><path class="p" d="M69.127,98H.48L0,0H68.646Z" transform="translate(7.307 19.599)"/><g transform="translate(8.089 19.869)"><rect class="p" width="68.678" height="97.125"/></g><g transform="translate(27.144)"><path class="p" d="M13.519,10.171,11.651,6.926a3.982,3.982,0,1,0-5.269,0L4.506,10.171,0,17.976H18.028ZM9.012,5.856a1.893,1.893,0,1,1,1.34-.554A1.892,1.892,0,0,1,9.012,5.856Z" transform="translate(4.168 0.041)"/><path class="p" d="M13.521,10.173,11.645,6.928a3.98,3.98,0,1,0-5.267,0L4.506,10.173,0,17.978H18.028ZM9.014,5.858a1.892,1.892,0,1,1,1.893-1.893A1.892,1.892,0,0,1,9.014,5.858Z" transform="translate(4.004 0.039)"/><rect class="p" width="26.881" height="11.486" transform="translate(0 11.769)"/><rect class="p" width="26.881" height="6.527" transform="translate(0 13.857)"/><rect class="p" width="26.881" height="2.446" transform="translate(0 15.374)"/><rect class="p" width="26.881" height="1.044" transform="translate(0 12.813)"/><path class="p" d="M2.417,0A2.414,2.414,0,1,0,4.831,2.413,2.414,2.414,0,0,0,2.417,0Zm0,4.306A1.892,1.892,0,1,1,4.31,2.413,1.892,1.892,0,0,1,2.417,4.306Z" transform="translate(10.601 1.591)"/></g><g transform="translate(17.327 30.219)"><rect class="p" width="49.982" height="1.369" transform="translate(0.098 5.824)"/><rect class="p" width="51.961" height="1.367" transform="translate(0.098 8.323)"/><rect class="p" width="50.314" height="1.368" transform="translate(0.098 10.823)"/><rect class="p" width="16.803" height="1.369" transform="translate(0.098 13.326)"/><rect class="p" width="31.42" height="2.224" transform="translate(0.098)"/><rect class="p" width="40.471" height="1.364" transform="translate(10.068 21.235)"/><rect class="p" width="28.707" height="1.369" transform="translate(10.068 23.736)"/><rect class="p" width="38.517" height="1.367" transform="translate(10.068 29.539)"/><rect class="p" width="11.631" height="1.367" transform="translate(10.068 32.037)"/><rect class="p" width="35.077" height="1.363" transform="translate(10.068 37.843)"/><rect class="p" width="28.481" height="1.366" transform="translate(10.068 46.143)"/><rect class="p" width="40.471" height="1.366" transform="translate(10.068 48.645)"/><rect class="p" width="32.413" height="1.366" transform="translate(10.068 54.445)"/><rect class="p" width="29.458" height="1.369" transform="translate(10.068 62.015)"/><path class="p" d="M0,0V4.882H4.879V0ZM4.087,4.091H.79V.79h3.3Z" transform="translate(0 20.722)"/><path class="p" d="M0,0V4.886H4.879V0ZM4.087,4.092H.79V.795h3.3Z" transform="translate(0 28.9)"/><path class="p" d="M0,0V4.884H4.879V0ZM4.087,4.091H.79V.791h3.3Z" transform="translate(0 37.081)"/><path class="p" d="M0,0V4.887H4.879V0ZM4.087,4.092H.79V.8h3.3Z" transform="translate(0 45.262)"/><path class="p" d="M0,0V4.886H4.879V0ZM4.087,4.092H.79V.792h3.3Z" transform="translate(0 53.443)"/><path class="p" d="M0,0V4.885H4.879V0ZM4.087,4.091H.79V.8h3.3Z" transform="translate(0 61.623)"/><g transform="translate(1.14 29.859)"><g transform="translate(0 0)"><path class="p" d="M.23,3.091A.23.23,0,0,1,.068,2.7L2.7.067A.229.229,0,1,1,3.02.391L.392,3.023A.228.228,0,0,1,.23,3.091Z" transform="translate(-0.001 0)"/></g><g transform="translate(0 0)"><path class="p" d="M2.857,3.09a.228.228,0,0,1-.163-.067L.067.391A.229.229,0,0,1,.392.067L3.02,2.7a.229.229,0,0,1-.163.391Z" transform="translate(0 0)"/></g></g><g transform="translate(1.139 54.039)"><g transform="translate(0 0)"><path class="p" d="M.229,3.084a.23.23,0,0,1-.163-.392L2.695.067a.229.229,0,0,1,.324.324L.392,3.017A.229.229,0,0,1,.229,3.084Z" transform="translate(0 0)"/></g><g transform="translate(0 0)"><path class="p" d="M2.858,3.084A.23.23,0,0,1,2.7,3.016L.067.392A.229.229,0,1,1,.392.067L3.02,2.692a.229.229,0,0,1-.162.392Z" transform="translate(0 0)"/></g></g><g transform="translate(1.396 20.339)"><path class="p" d="M1.456,3.752a.229.229,0,0,1-.166-.071L.062,2.393a.229.229,0,1,1,.332-.317l1.049,1.1L3.976.084a.229.229,0,1,1,.356.29l-2.7,3.294a.229.229,0,0,1-.169.084Z" transform="translate(0.002 0.001)"/></g><g transform="translate(1.642 36.706)"><path class="p" d="M1.452,3.753a.23.23,0,0,1-.166-.071L.061,2.4a.229.229,0,1,1,.331-.317L1.44,3.179,3.976.087a.229.229,0,0,1,.355.29l-2.7,3.292a.23.23,0,0,1-.169.083Z" transform="translate(0.002 -0.009)"/></g><g transform="translate(0.176 44.995)"><path class="p" d="M1.453,3.748a.23.23,0,0,1-.166-.071L.062,2.393a.229.229,0,0,1,.332-.316l1.046,1.1L3.974.08a.229.229,0,1,1,.355.29L1.63,3.664a.228.228,0,0,1-.169.084Z" transform="translate(0.002 0.01)"/></g><g transform="translate(1.154 61.113)"><path class="p" d="M1.452,3.751a.229.229,0,0,1-.166-.072L.062,2.391a.229.229,0,0,1,.333-.316l1.046,1.1L3.978.08a.229.229,0,1,1,.355.29l-2.7,3.3a.229.229,0,0,1-.169.084Z" transform="translate(0.002 0.01)"/></g></g></g></g><g transform="translate(40.017 149.004)"><g transform="translate(0)"><path class="q" d="M619.539,425.345c-13.887-5.514-23.274-24.461-51.668-29.454-51.177-8.995-46.989,48.029-107.384,25.224-20.86-7.878-50.8-21.6-84.9-20.3-31.3,1.194-50.864-3.191-69.67,15.313s-5.552,58.7-5.552,58.7H641.126V424.194S628.934,429.076,619.539,425.345Z" transform="translate(-295.829 -394.92)"/><path class="q" d="M619.465,450.533c-13.887-2.106-23.274-9.341-51.667-11.249-51.177-3.434-46.989,18.345-107.383,9.634-20.86-3.008-50.8-8.251-84.9-7.753-31.3.454-49.4-16.136-68.205-9.069s-7.015,37.336-7.015,37.336H641.053V450.094S628.86,451.957,619.465,450.533Z" transform="translate(-295.755 -389.519)"/><g transform="translate(4.549 3.344)"><path class="q" d="M435.5,409.655c-13.976-7.878-62.27-10.84-85.115-9.54-20.968,1.194-23.55,2.417-36.147,8.174S300,423.14,300,423.14s12.606-4.549,32.347-6.08c22.141-1.719,51.572,6.767,65.158,12.741,21.4,9.41,68.348-4.95,77.418-14.283C468.1,420.471,449.889,417.763,435.5,409.655Z" transform="translate(-300 -397.564)"/><path class="q" d="M499.581,420.3c-15.47-6.4-19.422-19.425-38.442-24.414-16.684-4.378-24.78,8.049-33.39,18.39,6.627-5.86,14.529-10.212,26.4-8.325,21.2,3.363,28.355,19.9,39.073,24.472,7.344,3.134,29.8-4.259,29.8-4.259V421.5S515.052,426.706,499.581,420.3Z" transform="translate(-182.554 -394.984)"/></g></g></g><g transform="translate(0 61.436) rotate(-17)"><path class="r" d="M.453,81.1C-4.547,37.955,32.595-1.078,74.97.023A74.038,74.038,0,0,1,131.628,29.27L194.8,98.125l7.623,8.092S206.794,127.667,190.6,132c-8.5,2.274-38.9,5.793-66.034,8.639-18.272,1.917-35.041,3.523-42.178,4.2-.809.107-1.619.2-2.439.281q-3.52.344-6.983.338C36.1,145.422,4.566,116.595.453,81.1Z" transform="translate(0 0)"/><path class="s" d="M113.48,73.286a25,25,0,0,0-4.261-6.371,30.181,30.181,0,0,0-15.431-7.972,31.155,31.155,0,0,0-18.614,2.635l-1.065-1.593A34.627,34.627,0,0,1,86.868,53.63a152.543,152.543,0,0,0,15.952-5.821c11.249-4.837,15.57-8.325,17.013-9.537,1.492-1.254,3.284-2.548,4.329-3.637C109.151,13.5,88.6.651,64.207.023,37.7-.664,13.259,14.329,0,36.147A87.273,87.273,0,0,0,18.782,48.8c2.9,1.43,6.722,3.081,14.367,6.379,5.764,2.487,10.549,4.489,13.834,5.845q-.266.53-.532,1.062a25.1,25.1,0,0,0-14.363-2.665c-9.929,1.2-15.576,8.224-17.013,10.071-4.744,6.1-5.382,12.454-5.835,16.975a40.112,40.112,0,0,0,17.583,37.687c4.7,3.428,12.832,9.359,22.877,7.978a22.967,22.967,0,0,0,6.914-2.118l2.656-4.773,7.978-.524a15.67,15.67,0,0,0,6.92,5.311,17.022,17.022,0,0,0,9.042.539c11.138-1.931,18.329-11.1,21.266-14.84a54.224,54.224,0,0,0,6.374-10.608,47.591,47.591,0,0,0,4.243-13.793C115.749,86.639,116.661,80.155,113.48,73.286Z" transform="translate(11.296 1.847)"/><g transform="translate(163.086 91.78)"><path class="t" d="M21,41.969A20.989,20.989,0,0,1,6.134,6.134,21,21,0,0,1,41.969,21,20.927,20.927,0,0,1,21,41.969Z" transform="translate(1.244 1.244)"/><path class="u" d="M22.213,2.489a19.743,19.743,0,0,0-7.652,37.924A19.734,19.734,0,1,0,22.213,2.489m0-2.489A22.229,22.229,0,1,1,0,22.211,22.272,22.272,0,0,1,22.211,0Z" transform="translate(0 0)"/></g><path class="s" d="M.215,7.744Q.107,15.128,0,22.513a76.089,76.089,0,0,0,9.067.16,75.779,75.779,0,0,0,8.628-.857L14.572,5.778,6.058,0Z" transform="translate(67.73 121.09)"/><g transform="translate(159.925 35.061)"><path class="v" d="M.153,33.807c.007.609.014,2.77.023,5.635q1.127.023,2.254.032,0-5.6-.016-11.2Q2.4,21.786,2.369,15.3q.609-3.921,1.218-7.849l5.965-3.21L8.894,0,7.3.53A12.574,12.574,0,0,0,3.052,3.72C.188,7.082-.077,11.574.015,20.422Q.085,27.114.153,33.807Z" transform="translate(40.655 0)"/><path class="w" d="M1.65.146A9.423,9.423,0,0,1,0,0L.048,4.606c.007.609.014,2.77.023,5.635q1.127.023,2.254.032c0-4.3-.01-8.062-.014-10.156C2.087.134,1.865.147,1.65.146Z" transform="translate(40.76 29.199)"/><path class="v" d="M9.755,33.69c-.006.609-.01,2.77-.013,5.636q-1.127.021-2.254.028-.018-5.574,0-11.2.021-7.194.1-14.3L4.621,5.667,0,3.921,1.3,0a12.721,12.721,0,0,1,5.74,3.739C9.76,6.957,9.8,11.406,9.873,20.3,9.9,23.658,9.789,29.851,9.755,33.69Z" transform="translate(0 3.142)"/><path class="w" d="M.257.252H0C0,2.336,0,6.138,0,10.47q1.127-.005,2.254-.028c0-2.863.008-5.026.013-5.636L2.312,0A13.183,13.183,0,0,1,.257.252Z" transform="translate(7.484 32.025)"/><path class="v" d="M0,1.751.572,43.836l2.149-.875L2.686,0Z" transform="translate(23.896 65.768)"/><path class="w" d="M2.705,22.645,2.687,0,0,1.751.285,22.723a8.062,8.062,0,0,0,2.42-.078Z" transform="translate(23.896 65.768)"/><path class="x" d="M18.162,33.881a17.86,17.86,0,0,0,3.156.74c6.29.877,10.628-2.43,14.457-7.135.931-1.148,13.617-17.124,8.346-23.958-1.5-1.952-4.241-2.335-9.711-3.1a50.479,50.479,0,0,0-18.6,1.049C6.858,3.531,2.383,4.557.7,8.049-2.327,14.354,5.256,23.272,7.751,26.37a22.937,22.937,0,0,0,10.411,7.511Z" transform="translate(1.881 33.62)"/><path class="y" d="M16.865,7.178A23.506,23.506,0,0,1,0,.483c.662.83,1.3,1.608,1.872,2.315a22.938,22.938,0,0,0,10.412,7.51,17.865,17.865,0,0,0,3.156.74c6.29.877,10.628-2.43,14.457-7.136C30.743,2.871,31.751,1.527,32.789,0A23.34,23.34,0,0,1,16.865,7.178Z" transform="translate(7.76 57.193)"/></g><path class="z" d="M11.757.038C11.04-.019,3.979-.486,1.12,4.286A8.765,8.765,0,0,0,.061,9.6c.466,5.552,5.61,12.245,11.713,11.712,5.277-.462,8.089-6.047,8.5-6.909.594-1.233,2.692-5.584.524-9.574C18.493.581,13.2.155,11.757.038Z" transform="translate(174.265 103.603)"/><path class="y" d="M0,0C2.067,3.8,5.847,6.921,10.095,6.55c4.789-.419,7.545-5.039,8.325-6.536A16.461,16.461,0,0,1,9.527,2.846,16.553,16.553,0,0,1,0,0Z" transform="translate(175.939 118.369)"/><path class="aa" d="M52.851.022C32.706-.493,13.755,7.974,0,21.566l4.76,3.142,1.6,2.1,6.383,2.109L15.4,33.657l14.891,2.117,7.979,4.74L46.3,103.641q1.338,19.354,2.675,38.71a71.693,71.693,0,0,0,8.827-.3c.076-.008.15-.018.226-.025l-1.622-34.691q-.81-15.255-1.62-30.51.252-17.885.5-35.769L61.665,35.8,70.7,32.649l11.163-3.673L89.3,22.144l6.913.006q1.571-1.556,3.143-3.109A72.333,72.333,0,0,0,52.851.022Z" transform="translate(22.648 1.836)"/><path class="ab" d="M99.369,8.913A74.848,74.848,0,0,0,87.3,0L42.52,18.282,14.481.216A76.7,76.7,0,0,0,0,11.434l4.76,3.139,1.6,2.1,6.383,2.107L15.4,23.514,30.3,25.629l7.98,4.736L46.3,93.434q1.338,19.336,2.676,38.675a71.75,71.75,0,0,0,8.828-.3c.076-.008-.855-23.132-1.4-34.686q-.81-15.24-1.62-30.48.252-17.868.5-35.735l6.377-5.25,9.038-3.146,11.164-3.67,7.44-6.822,6.914.006Q97.8,10.464,99.369,8.913Z" transform="translate(22.64 12.078)"/><path class="ac" d="M33.1,1.775A10.888,10.888,0,0,1,36.82,4.438,9.959,9.959,0,0,1,38.951,8.7l5.888,52.146A9.814,9.814,0,0,1,41.652,65.1c-2.979,2.213-6.482,1.874-9.037,1.589-1.937-.216-5.716-.876-12.233-4.8-4.485-2.7-8.152-4.908-11.706-9.055C1.085,43.975.339,33.666.153,30.48-.125,25.754-.572,18.058,4.391,10.8A24.986,24.986,0,0,1,15.55,1.761C21.966-.814,28.942-.352,33.1,1.775Z" transform="translate(23.006 63.615)"/><path class="ad" d="M26.495.925C19.962-2.726,5.623,4.85,1.34,16.334-3.754,29.99,6.491,46.175,18.381,50.4c1.511.536,9.422,3.673,13.824.011,3.21-2.668,2.206-7.347-.376-26.071C29.163,4.991,29.151,2.408,26.495.925Z" transform="translate(27.662 70.435)"/><path class="ac" d="M1.695,5.865C-.376,8.853-.024,12.39.107,13.844.8,21.532,1.246,37.993,1.74,60.668a8.931,8.931,0,0,0,3.726,5.324c1.687,1.016,3.879,1.372,7.444.539,10.446-2.437,18.6-11.691,18.6-11.691A45.609,45.609,0,0,0,42.654,29.309c.546-5.838,1.192-12.765-3.205-19.158-4.38-6.362-11.147-8.4-13.3-9.055A27.819,27.819,0,0,0,10.73,1.083C7.339,1.934,3.808,2.82,1.695,5.865Z" transform="translate(80.582 62.692)"/><path class="ad" d="M6.722.723C.195,3.709.087,15.564.007,24.486-.025,27.853-.232,50.871,7.473,52.87c8.408,2.185,28.651-20.039,22.521-37.216C26.391,5.567,13.788-2.51,6.722.723Z" transform="translate(85.838 69.602)"/><g transform="translate(12.498 24.049)"><path class="x" d="M44.715,21.271c-1.036-2.824-.817-3.252-1.6-4.248-1.489-1.9-3.953-2.476-5.857-2.66L26.611,11.7c-1.7-.824-3.14-1.552-4.259-2.127-4.892-2.514-5.828-3.246-6.39-3.722-1.719-1.455-1.605-1.927-3.2-3.188A14.9,14.9,0,0,0,7.444,0c-.449.372-.92.783-1.4,1.241A76.34,76.34,0,0,0,.528,8.5C.337,8.867.155,9.22,0,9.554c2.114,1.554,5,3.592,8.52,5.845,2.716,1.741,4.946,3.168,7.987,4.785a106.775,106.775,0,0,0,13.31,5.852c4.819,1.748,5.576,1.839,7.988,3.192.3.168,2.412,1.36,5.325,2.659,3.011,1.343,3.779,1.418,4.258,1.065.954-.7.442-2.884,0-4.779C46.739,25.434,46.065,24.948,44.715,21.271Z" transform="translate(0 2.734)"/><path class="x" d="M43.964,0a11.3,11.3,0,0,1-4.593,2.283c-3.164.986-4.526-.122-7.45,1.056C28.27,4.81,28.778,7.187,25.006,9.705c-3.418,2.282-5.243,1.276-11.174,3.176a39.706,39.706,0,0,0-9.043,4.241,15.637,15.637,0,0,0-4.253,6.9A20.234,20.234,0,0,0,.01,30.392c.033,3.937.051,5.905,1.07,6.372,1.331.61,2.924-2,6.915-4.241,2.542-1.43,3.526-1.288,7.981-2.649,2.971-.908,6.769-2.549,14.365-5.83,5.476-2.366,8.215-3.55,9.576-4.239a63.6,63.6,0,0,0,13.172-8.284A74.138,74.138,0,0,0,43.964,0Z" transform="translate(68.129 0)"/><g transform="translate(3.415 0.226)"><path class="s" d="M40.917,32.738l-2.952-1.279L44.6,20.94l-5.866-8.466L35.96,20.726l-5.021-1.917,1.538-6.734-6.246-1.763-.819,4.719-4.439-.758,1.662-4.843-4.6-2.949-1.989,4.36L11.8,8.049l2.394-4L8.338,0,5.2,4.81,1.476,2.461l-.567.9L4.624,5.7,0,12.8l.893.58,1.984-3.042,4.469,3.07-2.3,3.843L12.263,21.7l2.668-5.842L18.228,19l-1.534,4.47,7.722,3.546.988-5.69L28.8,23.3l.043-.074-1.187,5.2,6,2.528,1.779-5.291,3.8,1.817-2.817,4.466,5.033,2.178,3.409-7.095-.96-.46ZM3.457,9.441,8.634,1.5l4.133,2.86L7.895,12.493Zm8.338,10.718L6.5,16.9l4.752-7.935,4.355,2.86Zm3.613-5.32-.024.025L18.5,8.039l2.86,1.836L18.608,17.9Zm8.2,10.637-5.593-2.57,2.614-7.618,4.607.786ZM25.6,20.212l1.487-8.556,4.135,1.166-2.156,9.409ZM33,29.525l-4.118-1.732L30.7,19.854l4.92,1.878Zm2.763-4.881,3.3-9.821,4.257,6.144-3.532,5.6Z" transform="translate(0 2.958)"/><path class="s" d="M45.128,11.112l-.231-.234L43.858,8.934l5.215-3.695-.82-.9-4.9,3.642L39.085,0,31.309,1.515l1.635,4.6-5.487,4.416L26.075,7.4,18.741,9.075,19.824,13.7,13.61,16.053l.379.994,6.079-2.3,1.741,7.446-6.071,1.4L11.992,11.228,5.307,14.636l4.182,13.5-4,1.8L.99,18.557,0,18.945,6.618,35.7l5.437-2.869-1.748-5.638,5.441.112,1.026,3.388,7.648-1.981L21.663,16.891l6.791-1.4-.021-.1L32.7,25.072l6.908-3.365L38.1,17.451l.292.3,5.877-5.785,2.858,5.35.939-.5-3.008-5.633ZM38.516,1.193,41.339,6.48,34.969,8.641l-2.246-6.32ZM27.967,11.487l5.354-4.308,2.92,8.217L30.5,17.43l-2.727-6.189ZM11.342,12.753l2.476,8.172L8.977,22.888,6.588,15.176ZM7.172,34.2,5.878,30.927,9.8,29.155l.977,3.145ZM10,26.124V26.2l-.71-2.295,4.836-1.959,1.3,4.286ZM17.5,29.407l-1.452-4.792,6-1.385,1.1,4.714ZM21.42,15.858l-1.4-5.983,5.436-1.238,2.581,5.854Zm11.81,7.773-2.3-5.227L36.6,16.4l1.692,4.771Zm4.629-6.857-2.534-7.13L41.848,7.43l1.9,3.55Z" transform="translate(64.485 0)"/><path class="s" d="M0,0,7.742.01V1.072L0,1.063Z" transform="translate(87.659 23.031) rotate(-13.241)"/></g></g><path class="ae" d="M10.593,4.966,0,.925A7.61,7.61,0,0,1,6.267.469,7.609,7.609,0,0,1,10.593,4.966Z" transform="translate(47.615 75.01)"/><path class="ae" d="M14.2,2.55,0,1.479A13.91,13.91,0,0,1,7.828.09,13.852,13.852,0,0,1,14.2,2.55Z" transform="translate(43.842 82.911)"/><path class="ae" d="M13.792,1.33,0,2.8A13.18,13.18,0,0,1,7.338.019,13.119,13.119,0,0,1,13.792,1.33Z" transform="translate(43.718 90.504)"/><path class="ae" d="M11.168.12,0,7.021A10.335,10.335,0,0,1,4.807,1.2,10.223,10.223,0,0,1,11.168.12Z" transform="translate(46.698 97.904)"/><path class="ae" d="M5.62,0,.312,9.573A7.824,7.824,0,0,1,.949,3.651,7.792,7.792,0,0,1,5.62,0Z" transform="translate(54.91 103.506)"/><path class="ae" d="M0,4.438,10.588.412A9.189,9.189,0,0,0,0,4.438Z" transform="translate(87.348 74.374)"/><path class="ae" d="M0,3.178l14.194-1.05A11.109,11.109,0,0,0,7.049.017,11.094,11.094,0,0,0,0,3.178Z" transform="translate(87.53 81.117)"/><path class="ae" d="M0,1.786,13.794,3.28A11.071,11.071,0,0,0,7.382.082,11.088,11.088,0,0,0,0,1.786Z" transform="translate(88.068 88.882)"/><path class="ae" d="M0,.374,11.178,7.3A9.07,9.07,0,0,0,6.872,1.1,8.965,8.965,0,0,0,0,.374Z" transform="translate(87.72 96.484)"/><path class="ae" d="M0,0,5.323,9.582A8.44,8.44,0,0,0,4.41,3.676,8.426,8.426,0,0,0,0,0Z" transform="translate(85.064 102.336)"/></g><g transform="translate(235.109 127.049)"><path class="af" d="M424.881,411.395l-40.4-1.75c-6,0-6.673,5.6-4.341,8.406,7.505,9.022,34.014,7.205,46.25,7.205,7.977,0,11.68-5.634,8.25-12.872C433.07,409.062,430.878,411.395,424.881,411.395Z" transform="translate(-363.842 -335.369)"/><path class="ag" d="M436.578,370.735a5.315,5.315,0,0,1-1.1-.3c-1.6-.711.187-2.568.623-3.507a4.948,4.948,0,0,0-1.483-5.978c-1.762-1.572-3.6-1.737-4.755-3.964-1.718-3.327.772-5.495-1.262-8.738-.894-1.425-2.911-1.417-4.166-2.153-.785-.461-1.257-1.708-1.857-2.389-2.165-2.46-6.178-2.628-9.029-1.4-1.823.783-2.667,3.211-4.839,3.222-1.4.007-3.138.385-3.639,1.9-.385,1.161.27,2.236.225,3.394a4.784,4.784,0,0,1-1.2,3c-1.121,1.253-2.818,1.471-3.652,3.046a6.261,6.261,0,0,0-.659,2.694,9.228,9.228,0,0,0,1.079,4.666,42.182,42.182,0,0,1,2.335,3.935c.885,2.194-.8,4.489-.83,6.715-.1,9.128,6.538,15.64,14.011,18.33,5.036,1.816,13.4.549,18.4-1.454,6.239-2.5,12.859-8.566,9.284-15.811A10.3,10.3,0,0,0,436.578,370.735Z" transform="translate(-361.946 -341.556)"/><path class="ah" d="M436.14,370.735a5.306,5.306,0,0,1-1.1-.3c-1.6-.711.187-2.568.623-3.507a4.948,4.948,0,0,0-1.483-5.978c-1.762-1.572-3.6-1.737-4.755-3.964-1.718-3.327.772-5.495-1.262-8.738-.894-1.425-2.91-1.417-4.166-2.153-.785-.461-1.257-1.708-1.857-2.389-2.165-2.46-6.178-2.628-9.029-1.4-1.823.783-2.667,3.211-4.839,3.222-1.4.007-3.138.385-3.639,1.9-.009.024-.01.049-.017.074a9.371,9.371,0,0,1,3.534-.769c3.572-.054,5.84,1.506,6.925,3.713,3.034-.484,6.094.283,7.352,1.812,2.362,2.873,2.818,7.51-2.124,11.224a11.786,11.786,0,0,1,3.817,2.782c6.671,1.016,9.443,6.746,5.651,11.067-4.209,4.795-8.057,9.458-11.87,14.285a4.823,4.823,0,0,1-2.255,1.475c.1.037.2.082.3.117,5.035,1.816,13.4.549,18.4-1.454,6.239-2.5,12.859-8.566,9.285-15.811A10.3,10.3,0,0,0,436.14,370.735Z" transform="translate(-361.506 -341.556)"/><g transform="translate(0 30.843)"><path class="ai" d="M368.844,381.958a4.625,4.625,0,0,0,.567,2.259c.706.364.691.029,1.272-.155a6.055,6.055,0,0,1-1.2-1.628C369.322,382.108,369.064,381.606,368.844,381.958Z" transform="translate(-364.758 -368.74)"/><path class="ai" d="M367.439,383.334a14.868,14.868,0,0,0-1.516-.071,1,1,0,0,0-.772.676.508.508,0,0,0,.062.553c-.262.374.572.781.491.859-.326.321-.113.855,1.251.934.082.006,3.282.973,4.341,1.179a19.59,19.59,0,0,0,.556-3.259,11.018,11.018,0,0,0-1.815-.544C369.293,383.493,367.56,383.344,367.439,383.334Z" transform="translate(-365.097 -368.619)"/><path class="aj" d="M405.486,369.852c-2.895,2.3-10,11.894-14.282,15.834-5.251,4.835,0,6.77,2.059,5.82,5.431-2.5,19.142-11.956,18.136-14.9C410.962,375.324,406.011,369.438,405.486,369.852Z" transform="translate(-362.929 -369.832)"/><path class="aj" d="M394.505,385.6a2.428,2.428,0,0,0-.721-.24c-3.96-.569-18.978-.125-23.009-1.376-.125,1.37.187,2.561-.125,3.379,6.671,1.921,23.318,4.766,24.8,2.425C396.82,387.642,395.627,386.162,394.505,385.6Z" transform="translate(-364.59 -368.545)"/><path class="ak" d="M408.428,372.313a65.081,65.081,0,0,1-6.96,7.223c-2.283,3.369-5.548,7.13-9.012,8.4a22.08,22.08,0,0,1-3.468.924c-.291,2.291,2.8,3.1,4.273,2.422,5.431-2.5,19.142-11.956,18.136-14.9A21.766,21.766,0,0,0,408.428,372.313Z" transform="translate(-362.927 -369.605)"/><path class="ak" d="M393.935,386.684c-4.244,1.554-10.43,1.795-14.889,1.333-.66-.068-4.841-.095-6.357-.262,7.562,1.844,21.242,3.952,22.584,1.84a2.688,2.688,0,0,0-.062-3.5A9.78,9.78,0,0,1,393.935,386.684Z" transform="translate(-364.406 -368.354)"/><path class="al" d="M404.987,369.852c-2.044,1.623-6.414,6.8-10.56,10.691a44.376,44.376,0,0,0,4,5.044c.527.565,2.07,2.329,2.641,2.844,5.6-3.761,10.5-9.857,9.827-11.826C410.463,375.324,405.512,369.438,404.987,369.852Z" transform="translate(-362.43 -369.832)"/><path class="am" d="M406.444,371.04a5.7,5.7,0,0,1-1.245,4.379,58.365,58.365,0,0,1-8.3,8.571c.451.537.9,1.047,1.308,1.484.527.565,2.071,2.329,2.641,2.844,5.6-3.761,10.5-9.857,9.827-11.826A28.447,28.447,0,0,0,406.444,371.04Z" transform="translate(-362.205 -369.721)"/></g><path class="aj" d="M416.428,358.951c-.728.471-4.939,2.773-6.181,2.585.011.357.882,4.153.045,6.193.356,1.872,5.47,1.9,7-1.183A9.231,9.231,0,0,1,416.428,358.951Z" transform="translate(-360.993 -339.976)"/><path class="aj" d="M412.068,353.132c-2.384-.164-4.688.389-5.216,2.639-.187.806.155,8.08,4.038,9.183,1.641.466,4.795-2.341,4.924-4.252,0,0,.179-2.606.179-2.633A4.351,4.351,0,0,0,412.068,353.132Z" transform="translate(-361.305 -340.507)"/><path class="ak" d="M416.2,358.95a32.32,32.32,0,0,1-3.386,1.763c-.019.042-.039.083-.055.125a13.756,13.756,0,0,1,1.093,5.383,10.1,10.1,0,0,1-.337,2.721,4.7,4.7,0,0,0,3.549-2.392,9.221,9.221,0,0,1-.864-7.6Z" transform="translate(-360.764 -339.976)"/><path class="ak" d="M411.68,353.131c-.2-.014-.4-.014-.595-.017a6.04,6.04,0,0,1,2.413,3.7,5.061,5.061,0,0,1-.177,3.628c-1.677,2.754-.517,3.83.326,3.171a4,4,0,0,0,1.778-2.91s.179-2.606.179-2.633A4.349,4.349,0,0,0,411.68,353.131Z" transform="translate(-360.917 -340.507)"/><path class="al" d="M430.217,376.449c-1.455-4-3.836-8.581-7.868-9.55-1.344-.322-3.989-1.1-3.989-1.1s-2.829,2.455-4.7,2.59a3.332,3.332,0,0,1-2.371-1.287s-4.614,1.4-5.453,1.887c-3.253,1.887-3.308,5.076-3.5,7.721-1.9,26.355-3.081,35.112-3.081,37.617,0,1.361,7.591,1.572,12.838,1.993,10.586.857,23.38,4.67,22.962,1.719C432.98,403.334,430.669,377.685,430.217,376.449Z" transform="translate(-361.992 -339.353)"/><path class="am" d="M421.131,366.972a8.735,8.735,0,0,1,.291,2.328,18.558,18.558,0,0,1-.609,4.943c-.293,1.039-1.495,2.915-1.447,4,.1,2.219,2.021,5.643,2.609,7.977,1.478,5.87,4.076,11.43,3.794,17.622-.284,6.271-2.864,10.7-6.715,13.524,7.776,1.274,14.509,2.725,14.2.569-2.078-14.709-4.392-40.358-4.842-41.593C427.034,372.539,424.812,368.222,421.131,366.972Z" transform="translate(-360.192 -339.247)"/><path class="ak" d="M415.232,356.735a2.169,2.169,0,0,0-1.065.367,31.185,31.185,0,0,0,1.112,2.927,2.293,2.293,0,0,0,1.308-1.8C416.557,357.567,415.892,356.713,415.232,356.735Z" transform="translate(-360.636 -340.178)"/><g transform="translate(32.356 32.122)"><path class="ai" d="M398.377,406.472c-.362-.055-.742-.218-.75.277-.033.318,1.3.747,1.606.679.692-.39.46-.794,1.164-1.065A6.7,6.7,0,0,1,398.377,406.472Z" transform="translate(-394.496 -367.79)"/><path class="aj" d="M401.188,406.163a16.72,16.72,0,0,0-2.112,1.014c-.824.455-2.545,1.673-2.665,1.76a11.567,11.567,0,0,0-1.457,1.108,1.78,1.78,0,0,0-.174,1.053.536.536,0,0,0,.5.331c.057.455,1.153.1,1.142.212-.045.468.582.672,1.905-.315.081-.062,3.815-1.84,4.961-2.508a16.629,16.629,0,0,0-2.1-2.654Z" transform="translate(-394.762 -367.808)"/><path class="aj" d="M423.013,373.79c-1.212-.6-8.874-1.286-8.953-.623-.436,3.674,1.29,15.486,1.034,21.3-.315,7.13,4.771,4.8,5.563,2.678C422.744,391.54,425.805,375.173,423.013,373.79Z" transform="translate(-393.008 -370.831)"/><path class="al" d="M414.093,373.342c-1.174,2.331.243,9.345.048,15.028a19.34,19.34,0,0,0,10.275.908c1.321-6.618,1.163-12.658.415-14.6C422.907,369.69,415.612,370.327,414.093,373.342Z" transform="translate(-393.042 -371.003)"/><path class="am" d="M421.469,371.622c2.137,7.862-1.321,16.261-1.4,17.908a16.98,16.98,0,0,0,3.755-.311c1.321-6.617,1.163-12.656.415-14.6a5.434,5.434,0,0,0-2.775-3Z" transform="translate(-392.455 -370.947)"/><path class="aj" d="M418.569,392.146a2.421,2.421,0,0,0-.685.329c-3.234,2.355-13.686,13.148-17.446,15.066a13.261,13.261,0,0,1,1.864,2.812c6.12-3.277,20.436-13.156,19.869-15.871C421.653,392,419.765,391.768,418.569,392.146Z" transform="translate(-394.239 -369.095)"/></g><g transform="translate(5.804 73.93)"><path class="an" d="M400.9,414.226c-9.481-2.98-15.871-5.56-24.084-4.745-5.274.522-7.277,3.256-6.008,6,1.234,2.669,3.952,3.527,6.53,4.1a332.388,332.388,0,0,0,44.757,6.895c2.39-.924.971-4.25.971-4.25C416.313,421.314,406.427,415.964,400.9,414.226Z" transform="translate(-370.415 -409.328)"/><path class="af" d="M415.909,423.892c-1.427-.291-2.566-.934-4.234-1.035-1.387-.085-2.77.145-4.32-.068-2.989-.413-4.924-1.595-7.525-2.983-1.84-.982-2.918-1.744-5.64-1.659-1.66.05-3.024.677-5,.708-4.973.077-10.638-1.521-13.143-4.234-1.949-2.113-1.872-3.782-.484-4.978-4.534.81-5.916,3.3-4.759,5.807,1.234,2.669,3.952,3.527,6.53,4.1a323.159,323.159,0,0,0,43.1,6.82c1.49-1.291,2.835-2,2.9-3.166a13.985,13.985,0,0,1-7.424.685Z" transform="translate(-370.417 -409.298)"/><path class="ao" d="M423.417,421.306a45.071,45.071,0,0,0-4.888-.2s.226.922-.311.907c-.428-.013-1.357.029-1.357.029a15.96,15.96,0,0,1-.6,3.293s2.553.311,3.91.612c1.557.35,2.661.9,3.851,1.145,1.141.231,1.755.171,2.245-.972.48-1.121.824-2.678.049-3.6C425.517,421.577,424.926,421.525,423.417,421.306Z" transform="translate(-366.249 -408.256)"/><path class="ap" d="M422.812,425.64c-.9-.436.09-1.924-2.859-2.089a9.019,9.019,0,0,1-3.153-.965,16.58,16.58,0,0,1-.538,2.612s2.553.311,3.91.612c1.557.35,2.661.9,3.851,1.145,1.141.231,1.755.171,2.245-.972a6.689,6.689,0,0,0,.436-1.451A2.7,2.7,0,0,1,422.812,425.64Z" transform="translate(-366.25 -408.123)"/><path class="aq" d="M422.883,421.3c-.2-.029-.453-.055-.731-.073a6.938,6.938,0,0,1,2.335.7c1.835,1.251,1.087,5.157-.243,5.26,0,0,1.3.115,1.625-.978.349-1.171.688-2.78-.086-3.7C424.984,421.568,424.392,421.516,422.883,421.3Z" transform="translate(-365.715 -408.247)"/></g><g transform="translate(5.802 73.929)"><path class="an" d="M423.932,409.48c-8.212-.815-14.6,1.765-24.084,4.745-5.531,1.739-15.418,7.088-22.168,8,0,0-1.418,3.326.971,4.25a332.411,332.411,0,0,0,44.761-6.893c2.578-.577,5.293-1.432,6.53-4.1C431.212,412.735,429.207,410,423.932,409.48Z" transform="translate(-369.791 -409.327)"/><path class="af" d="M425.174,409.645c1.387,1.2,1.465,2.864-.486,4.978-2.5,2.712-8.17,4.309-13.139,4.234-1.973-.03-3.337-.658-5-.708-2.722-.082-3.8.678-5.64,1.66-2.6,1.387-4.537,2.569-7.526,2.983-1.549.214-2.932-.016-4.32.069a26.389,26.389,0,0,0-4.234,1.035,13.99,13.99,0,0,1-7.423-.685c.065,1.164,1.412,1.874,2.9,3.166a322.678,322.678,0,0,0,43.1-6.82c2.578-.577,5.293-1.432,6.53-4.1C431.088,412.949,429.71,410.456,425.174,409.645Z" transform="translate(-369.782 -409.299)"/><path class="ao" d="M378.981,422.009c-.537.016-.311-.907-.311-.907a45.063,45.063,0,0,0-4.888.2c-1.508.219-2.1.271-2.9,1.214-.775.915-.431,2.472.05,3.6.488,1.143,1.1,1.2,2.242.972,1.19-.241,2.291-.794,3.851-1.145,1.355-.3,3.91-.612,3.91-.612a15.959,15.959,0,0,1-.6-3.293S379.408,422,378.981,422.009Z" transform="translate(-370.414 -408.255)"/><path class="ap" d="M377.243,423.552c-2.948.165-1.957,1.656-2.858,2.089a2.709,2.709,0,0,1-3.9-1.108,6.624,6.624,0,0,0,.44,1.451c.488,1.143,1.1,1.2,2.242.972,1.19-.241,2.291-.794,3.851-1.145,1.355-.3,3.91-.612,3.91-.612a16.729,16.729,0,0,1-.538-2.612A9.029,9.029,0,0,1,377.243,423.552Z" transform="translate(-370.409 -408.122)"/><path class="aq" d="M372.18,421.925a6.953,6.953,0,0,1,2.336-.7c-.278.019-.527.044-.732.073-1.508.219-2.1.271-2.9,1.214-.776.915-.436,2.524-.085,3.7.326,1.093,1.623.978,1.623.978C371.094,427.081,370.347,423.176,372.18,421.925Z" transform="translate(-370.415 -408.246)"/></g></g><g transform="translate(164.191 200.671)"><rect class="ar" width="2.927" height="22.956" transform="translate(92.035 3.506)"/><rect class="as" width="0.967" height="22.956" transform="translate(94.963 3.506)"/><rect class="ar" width="2.927" height="24.741" transform="translate(17.644 3.506)"/><rect class="as" width="0.966" height="24.741" transform="translate(20.571 3.506)"/><rect class="ar" width="2.927" height="22.956" transform="translate(113.37 3.506)"/><rect class="as" width="0.967" height="22.956" transform="translate(116.298 3.506)"/><rect class="at" width="128.572" height="4.215"/><rect class="t" width="20.613" height="4.215" transform="translate(109.622)"/><rect class="ar" width="101.23" height="2.108" transform="translate(4.306 4.159)"/><rect class="as" width="17.918" height="2.108" transform="translate(105.536 4.159)"/></g><path class="au" d="M493.328,448.621c-9.49,3.452-7.737,11.481-25.587,11.481-11.314,0-24.135-10.493-34.9-10.337-14.983.215-22.881,12.447-33.669,10.337-23.4-4.569-35.667,7.345-35.667,7.345H519.292v-5.629S512.159,441.773,493.328,448.621Z" transform="translate(-133.978 -238.529)"/><g transform="translate(192.417 149.045)"><path class="t" d="M384.132,361.723h-53.61a3.48,3.48,0,0,0-3.466,3.782l2.986,34.209a3.48,3.48,0,0,0,3.467,3.176h53.609a3.48,3.48,0,0,0,3.467-3.782L387.6,364.9a3.48,3.48,0,0,0-3.467-3.177Z" transform="translate(-325.678 -361.72)"/><path class="at" d="M382.881,361.72H329.273a3.487,3.487,0,0,0-3.469,3.785l2.982,34.206a3.479,3.479,0,0,0,3.47,3.176h53.607a3.48,3.48,0,0,0,3.47-3.781s-3.019-34.445-3.042-34.56a3.468,3.468,0,0,0-3.409-2.826Z" transform="translate(-325.791 -361.72)"/><path class="av" d="M370.43,370.229H334.756a1.23,1.23,0,0,0-1.224,1.335l1.986,22.763a1.222,1.222,0,0,0,1.224,1.121h35.675a1.226,1.226,0,0,0,1.223-1.331c-.666-7.618-1.93-21.989-2.018-22.935a1.219,1.219,0,0,0-1.191-.954Z" transform="translate(-325.09 -360.947)"/><path class="at" d="M352.352,388.368c4.5,0,5.766,4.868,5.766,4.868h2.091C357.832,387.168,352.352,388.368,352.352,388.368Z" transform="translate(-323.377 -359.307)"/><path class="at" d="M340.161,408.179a1.041,1.041,0,0,0,1.041,1.041h11.779v-2.081H341.2A1.041,1.041,0,0,0,340.161,408.179Z" transform="translate(-324.485 -357.593)"/><path class="aw" d="M358.8,394.872a5.906,5.906,0,1,0-11.753-1.187l-.974,9.762a2.024,2.024,0,0,0,.582,1.619l3.774,3.782h11.524l-4.048-5.206Z" transform="translate(-323.95 -359.303)"/><g transform="translate(27.022 33.93)"><path class="t" d="M359.064,403.184l1.308-10.361h-2.04l-1.322,10.212a2.016,2.016,0,0,0,.582,1.619l3.783,3.782H351.6a1.041,1.041,0,1,0,0,2.081h9.924a2.018,2.018,0,0,0,1.978-1.609,2.1,2.1,0,0,0-.611-1.9Z" transform="translate(-350.563 -392.823)"/></g><path class="ax" d="M352.542,391.833a2.242,2.242,0,1,0,2.242,2.242A2.242,2.242,0,0,0,352.542,391.833Z" transform="translate(-323.566 -358.984)"/></g><path class="ay" d="M-701.657,760.141l17.692,20.77,34.7-34.7" transform="translate(1020.369 -639.195)"/></g></g></svg>