<svg xmlns="http://www.w3.org/2000/svg" xmlns:xlink="http://www.w3.org/1999/xlink" width="218.415" height="163.37" viewBox="0 0 218.415 163.37"><defs><style>.a{fill:#d6fff4;}.b{fill:#099e76;}.c{fill:#9ef0da;}.d{fill:#4bcca9;}.e,.h,.l{fill:none;stroke-miterlimit:10;}.e{stroke:#4bcca9;stroke-linecap:round;}.f{fill:#fff;}.g{fill:#e6b43e;}.h{stroke:#ffdf78;stroke-width:2px;}.i{fill:url(#a);}.j{fill:url(#b);}.k{fill:#ffdf78;}.l{stroke:#099e76;stroke-width:2.3px;}.m{fill:#0f44b8;}</style><linearGradient id="a" x1="12.724" y1="-49.122" x2="13.424" y2="-49.122" gradientUnits="objectBoundingBox"><stop offset="0" stop-color="#ffdf78"/><stop offset="1" stop-color="#e6b43e"/></linearGradient><linearGradient id="b" x1="96.456" y1="-59.077" x2="97.456" y2="-59.077" xlink:href="#a"/></defs><g transform="translate(-831.5 -405.207)"><g transform="translate(832 405.207)"><path class="a" d="M1100.468,893.347c-15.531-.938-24.018,1.007-46.046-18.215s-36.028-23.711-50.139-22.075c-23.2,2.689-39.685,16.2-43.53,43.254-2.9,20.424-.661,22.957-18.991,59.475-12.35,24.6,2.044,42,12.751,50.74h124.14a74.4,74.4,0,0,1,9.7-2.543c42.648-8.018,54.7-50.4,54.7-50.4C1155.8,901.525,1116,894.285,1100.468,893.347Z" transform="translate(-927.616 -852.748)"/><path class="b" d="M1142.762,1138.811H966.124a.619.619,0,0,1,0-1.237h176.638a.619.619,0,0,1,0,1.237Z" transform="translate(-940.79 -984.41)"/><path class="b" d="M944.975,1138.811h-9.081a.619.619,0,0,1,0-1.237h9.081a.619.619,0,0,1,0,1.237Z" transform="translate(-926.816 -984.41)"/><g transform="translate(114.905 56.259)"><path class="c" d="M1134.373,1055.383h64.8a4.769,4.769,0,0,0,4.769-4.769V994.419a2.3,2.3,0,0,0-.595-1.541l-29.785-32.851a4.859,4.859,0,0,0-7.105-.1l-31.446,32.745a2.294,2.294,0,0,0-.64,1.59Z" transform="translate(-1133.755 -957.86)"/><path class="b" d="M1198.035,1055.509h-58.816a6,6,0,0,1-6-6V993.769a2.9,2.9,0,0,1,.812-2.018l31.328-32.624a5.578,5.578,0,0,1,8.241.119l29.671,32.724a2.909,2.909,0,0,1,.755,1.957v55.586A6,6,0,0,1,1198.035,1055.509Zm-28.605-96.9a4.371,4.371,0,0,0-3.174,1.38l-31.328,32.624a1.669,1.669,0,0,0-.467,1.161v55.744a4.764,4.764,0,0,0,4.759,4.758h58.816a4.764,4.764,0,0,0,4.759-4.758V993.928a1.673,1.673,0,0,0-.434-1.127l-29.671-32.725a4.369,4.369,0,0,0-3.2-1.471Z" transform="translate(-1133.223 -957.368)"/></g><g transform="translate(108.217 56.259)"><path class="d" d="M1121.936,1055.36h69.57V994.4a2.3,2.3,0,0,0-.6-1.544l-29.826-32.9a4.8,4.8,0,0,0-7.021-.1l-31.488,32.79a2.3,2.3,0,0,0-.64,1.592Z" transform="translate(-1121.318 -957.836)"/><path class="b" d="M1185.6,1055.509h-58.815a6,6,0,0,1-6-6V993.77a2.9,2.9,0,0,1,.813-2.02l31.327-32.623a5.579,5.579,0,0,1,8.241.119l29.67,32.724a2.911,2.911,0,0,1,.755,1.959v55.584A6,6,0,0,1,1185.6,1055.509Zm-28.605-96.9a4.37,4.37,0,0,0-3.173,1.38l-31.328,32.623a1.671,1.671,0,0,0-.468,1.163v55.743a4.764,4.764,0,0,0,4.759,4.758H1185.6a4.764,4.764,0,0,0,4.759-4.758V993.929a1.674,1.674,0,0,0-.435-1.128l-29.671-32.724a4.367,4.367,0,0,0-3.2-1.471Z" transform="translate(-1120.786 -957.368)"/></g><path class="b" d="M1136.2,1001.3l27.116-.213,12.3,8.434h12.931l-23.215-18.668-22.157,3.126Z" transform="translate(-1019.693 -916.588)"/><g transform="translate(86.842 72.132)"><rect class="c" width="58.48" height="7.946" rx="3.973" transform="translate(0.618 0.619)"/><path class="b" d="M1136.353,996.069h-50.917a4.4,4.4,0,0,1-4.4-4.4v-.383a4.4,4.4,0,0,1,4.4-4.4h50.917a4.4,4.4,0,0,1,4.4,4.4v.383A4.4,4.4,0,0,1,1136.353,996.069Zm-50.917-7.946a3.166,3.166,0,0,0-3.162,3.162v.383a3.166,3.166,0,0,0,3.162,3.162h50.917a3.166,3.166,0,0,0,3.162-3.162v-.383a3.166,3.166,0,0,0-3.162-3.162Z" transform="translate(-1081.036 -986.886)"/></g><g transform="translate(38.579 56.258)"><path class="c" d="M992.436,1055.269h69.571V993.63a.546.546,0,0,0-.141-.366l-30.444-33.577a4.574,4.574,0,0,0-6.688-.1l-31.657,32.966a2.3,2.3,0,0,0-.641,1.591Z" transform="translate(-991.818 -957.745)"/><path class="b" d="M1056.1,1055.509H997.282a6,6,0,0,1-6-6V993.77a2.9,2.9,0,0,1,.813-2.02l31.328-32.623a5.578,5.578,0,0,1,8.241.119l30.124,33.225a1.16,1.16,0,0,1,.3.781v56.261A6,6,0,0,1,1056.1,1055.509Zm-28.605-96.9a4.37,4.37,0,0,0-3.174,1.38L992.99,992.607a1.672,1.672,0,0,0-.468,1.163v55.743a4.764,4.764,0,0,0,4.759,4.758H1056.1a4.764,4.764,0,0,0,4.759-4.758V993.252l-30.106-33.176a4.368,4.368,0,0,0-3.2-1.471Z" transform="translate(-991.286 -957.366)"/></g><circle class="e" cx="1.501" cy="1.501" r="1.501" transform="translate(144.439 26.928)"/><circle class="e" cx="1.501" cy="1.501" r="1.501" transform="translate(127.861 57.512)"/><circle class="e" cx="2.124" cy="2.124" r="2.124" transform="translate(42.56 52.521)"/><g transform="translate(191.014 139.926)"><line class="e" y2="3.488" transform="translate(1.744)"/><line class="e" x1="3.488" transform="translate(0 1.744)"/></g><g transform="translate(0 121.031)"><line class="e" y2="3.488" transform="translate(1.744)"/><line class="e" x1="3.488" transform="translate(0 1.744)"/></g><path class="f" d="M980.617,1055.132h67.927a.822.822,0,0,0,.822-.822V994.486a3.116,3.116,0,0,0-.808-2.094l-28.488-31.42a6.366,6.366,0,0,0-9.308-.133l-30.1,31.341a3.126,3.126,0,0,0-.87,2.163v59.967A.822.822,0,0,0,980.617,1055.132Z" transform="translate(-947.395 -901.809)"/><path class="c" d="M1057.939,1045.526l-.1-51.229-.4-1.026-29.922-33a4.944,4.944,0,0,0-7.228-.1L998,983.373a.42.42,0,0,0,.012.594l59.178,62.466C1058.446,1046.519,1057.939,1045.65,1057.939,1045.526Z" transform="translate(-955.758 -901.699)"/><path class="b" d="M1043.66,1055.509H984.844a6,6,0,0,1-6-6V993.771a2.906,2.906,0,0,1,.814-2.023l31.327-32.622a5.578,5.578,0,0,1,8.241.119L1048.9,991.97a2.9,2.9,0,0,1,.755,1.957v55.586A6,6,0,0,1,1043.66,1055.509Zm-28.605-96.9a4.37,4.37,0,0,0-3.173,1.38l-31.327,32.622a1.674,1.674,0,0,0-.469,1.166v55.742a4.764,4.764,0,0,0,4.759,4.758h58.816a4.764,4.764,0,0,0,4.759-4.758V993.927a1.673,1.673,0,0,0-.434-1.126l-29.672-32.726a4.369,4.369,0,0,0-3.2-1.471Z" transform="translate(-946.957 -901.108)"/><g transform="translate(101.563 92.315)"><path class="f" d="M.014,0H82.9a.014.014,0,0,1,.014.014V50.341A10.507,10.507,0,0,1,72.406,60.848H0a0,0,0,0,1,0,0V.014A.014.014,0,0,1,.014,0Z" transform="translate(0.618 0.619)"/><path class="c" d="M1186.988,1121.654h-71.974a5.453,5.453,0,0,1-5.453-5.453v6.655a5.453,5.453,0,0,0,5.453,5.453h71.974a5.453,5.453,0,0,0,5.453-5.453V1116.2A5.453,5.453,0,0,1,1186.988,1121.654Z" transform="translate(-1108.943 -1066.846)"/><path class="b" d="M1186.531,1086.5h-72.124a6,6,0,0,1-6-6v-56.082l.626-.008h83.483l.007.626v55.464A6,6,0,0,1,1186.531,1086.5Zm-76.884-60.848v54.852a4.764,4.764,0,0,0,4.759,4.758h72.124a4.764,4.764,0,0,0,4.759-4.758v-54.852Z" transform="translate(-1108.411 -1024.419)"/></g><g transform="translate(68.26 133.089)"><path class="g" d="M1048.869,1105.614l13.939,3.58-1.518,6.86-3.457,1.774-11.354-2.718a13.076,13.076,0,0,0,22.1,7.55,13.2,13.2,0,0,0,1.237-1.4l39.649,8.148a5.054,5.054,0,0,0,5.967-3.933l.113-.552a5.054,5.054,0,0,0-3.933-5.968l-39.339-8.084a13.075,13.075,0,0,0-22-6.894A13.2,13.2,0,0,0,1048.869,1105.614Z" transform="translate(-1046.48 -1100.243)"/><path class="h" d="M1049.131,1105.711l13.706,3.52-1.518,6.86-3.457,1.774-11.12-2.662a.163.163,0,0,0-.2.182,13.077,13.077,0,0,0,22.069,7.313,13.227,13.227,0,0,0,1.237-1.4l39.648,8.148a5.053,5.053,0,0,0,5.967-3.933l.114-.552a5.054,5.054,0,0,0-3.933-5.968l-39.339-8.084a13.026,13.026,0,0,0-4-7.184,13.2,13.2,0,0,0-15.242-1.755,12.7,12.7,0,0,0-4.024,3.489A.162.162,0,0,0,1049.131,1105.711Z" transform="translate(-1046.508 -1100.279)"/><rect class="i" width="32.043" height="4.1" rx="2.05" transform="matrix(0.979, 0.205, -0.205, 0.979, 27.448, 14.511)"/><circle class="j" cx="1.882" cy="1.882" r="1.882" transform="translate(61.102 22.156)"/><line class="h" y1="7.883" x2="1.805" transform="translate(16.329 1.069)"/></g><g transform="translate(62.772 72.202)"><circle class="g" cx="4.522" cy="4.522" r="4.522" transform="translate(0 0)"/><path class="k" d="M1038.04,993.892a4.522,4.522,0,0,1,7.061-3.742,4.522,4.522,0,1,0-6.842,5.13A4.525,4.525,0,0,1,1038.04,993.892Z" transform="translate(-1036.276 -987.015)"/><circle class="l" cx="4.522" cy="4.522" r="4.522" transform="translate(0 0)"/></g><path class="b" d="M1303.842,1138.8h-4.437a.618.618,0,0,1,0-1.237h4.437a.618.618,0,1,1,0,1.237Z" transform="translate(-1094.851 -984.407)"/><path class="b" d="M959.989,1138.8H958a.618.618,0,1,1,0-1.237h1.99a.618.618,0,1,1,0,1.237Z" transform="translate(-937.034 -984.407)"/><g transform="translate(67.781 56.322)"><line class="m" x2="7.159" transform="translate(0 0.575)"/><rect class="b" width="7.159" height="1.151"/></g><g transform="translate(109.823 114.349)"><path class="b" d="M9.46,7.437c.061-.005.117-.01.176-.012s.121,0,.182,0l.748-.01C11.4,7.4,12,7.382,12.823,7.355a.041.041,0,0,0,.039-.049c-.007-.033-.015-.064-.022-.1a.041.041,0,0,0-.038-.03c-.821-.028-1.409-.045-2.236-.061l-.748-.009c-.121,0-.257,0-.388.009A2.877,2.877,0,0,0,6.9,9.309a6.231,6.231,0,0,0-.061,1.528c.009.654.021,1.235.041,1.887a.04.04,0,0,0,.028.038c.045.015.092.025.139.037a.041.041,0,0,0,.05-.038c.02-.666.032-1.253.042-1.923a4,4,0,0,1,.539-2.367A2.5,2.5,0,0,1,9.46,7.437ZM9.18,8.1a4.512,4.512,0,0,1,1.636-.182c.783,0,1.328-.008,2.1-.038a.04.04,0,0,0,.039-.045c0-.035-.008-.07-.013-.1A.041.041,0,0,0,12.9,7.7l-1.961-.029-.374-.006a5.759,5.759,0,0,0-1.151.061,2.44,2.44,0,0,0-1.878,1.9,6.738,6.738,0,0,0-.087,1.668c.017.558.035,1.022.051,1.578a.041.041,0,0,0,.033.039c.039.007.079.012.121.017a.041.041,0,0,0,.047-.039c.01-.638.02-1.178.03-1.82A4,4,0,0,1,8.182,8.9a2.086,2.086,0,0,1,1-.8Zm-4.11.449c-.323.006-.934.016-1.407.026a.04.04,0,0,0-.039.041v.1a.04.04,0,0,0,.039.039c.6.015,1.362.024,1.812.03.228,0,.879.021,1.232,0A2.57,2.57,0,0,1,6.821,8.5c-.331.038-.95.043-1.187.047-.133,0-.428,0-.564,0Zm8.1-2.457H10.989a.161.161,0,0,1-.162-.161v-2.5a.406.406,0,0,0-.257-.377,5.889,5.889,0,0,0-4.334,0,.405.405,0,0,0-.257.377v2.33a.328.328,0,0,1-.329.328H3.444a.406.406,0,0,0-.377.257,5.891,5.891,0,0,0,0,4.334.406.406,0,0,0,.377.258H5.8a.162.162,0,0,1,.162.161v2a.406.406,0,0,0,.257.377,5.9,5.9,0,0,0,4.334,0,.406.406,0,0,0,.257-.377V11.271a.328.328,0,0,1,.328-.328h2.032a.406.406,0,0,0,.377-.258,5.9,5.9,0,0,0,0-4.334.407.407,0,0,0-.377-.257Zm-.111,4.283h-2.12a.694.694,0,0,0-.694.694v1.92a5.327,5.327,0,0,1-3.718,0V10.541a.162.162,0,0,0-.161-.162H3.555a5.327,5.327,0,0,1,0-3.718H5.85a.694.694,0,0,0,.694-.7V3.544a5.327,5.327,0,0,1,3.718,0V6.5a.162.162,0,0,0,.161.162h2.633a5.327,5.327,0,0,1,0,3.718Zm-.284-.606H10.942A1.153,1.153,0,0,0,9.77,10.892v1.869a.041.041,0,0,0,.051.039l.07-.019a.041.041,0,0,0,.029-.039V10.892a1,1,0,0,1,1.024-.978h1.815a.041.041,0,0,0,.039-.028l.016-.061a.04.04,0,0,0-.042-.058Zm.174-1.534c-.6-.015-1.163-.028-1.636-.035L10.644,8.2c-.073,0-.265,0-.343.005a3.677,3.677,0,0,0-.606.088A2.06,2.06,0,0,0,8.173,9.814c-.02.056-.036.2-.05.257a8.163,8.163,0,0,0-.037,1.356c.006.408.013.946.025,1.5a.041.041,0,0,0,.038.039,1.069,1.069,0,0,1,.108,0,.041.041,0,0,0,.042-.039c.008-.432.014-.817.019-1.1,0-.136,0-.431.006-.566a7.566,7.566,0,0,1,.09-1.277,1.841,1.841,0,0,1,.292-.717,1.866,1.866,0,0,1,1.22-.788,2.749,2.749,0,0,1,.275-.032c.035,0,.111-.006.147-.007H10.5l.626-.006c.156,0,.495,0,.651-.007.325-.006.707-.018,1.17-.028a.04.04,0,0,0,.04-.041V8.277A.041.041,0,0,0,12.946,8.239Zm-.007.494c-.506-.009-1-.016-1.292-.02l-.62,0c-.049,0-.27,0-.322,0a4.574,4.574,0,0,0-.569.061,1.72,1.72,0,0,0-1.408,1.406c-.013.037-.024.2-.033.242a10.671,10.671,0,0,0-.025,1.269c0,.264.008.753.017,1.242a.04.04,0,0,0,.042.04l.095-.006a.041.041,0,0,0,.038-.04c.005-.408.01-.781.013-.965,0-.091,0-.424,0-.511A9.105,9.105,0,0,1,8.94,10.3a1.55,1.55,0,0,1,.242-.654c.5-.754,1.385-.715,2.189-.721l.588-.005.974-.015a.041.041,0,0,0,.04-.037.523.523,0,0,1,0-.088.04.04,0,0,0-.038-.044ZM8.305,0a8.268,8.268,0,1,0,8.27,8.269A8.268,8.268,0,0,0,8.305,0ZM13.58,13.542a7.46,7.46,0,1,1,0-10.55,7.46,7.46,0,0,1,0,10.55Zm-.7-4.274c-.424,0-.768,0-.895,0h-.877c-.047,0-.489.014-.532.029a1.421,1.421,0,0,0-1.29,1.275c-.007.018-.012.206-.017.225-.023.1-.014,1.07-.012,1.169,0,.121,0,.5.007.909a.041.041,0,0,0,.047.039L9.4,12.9a.041.041,0,0,0,.033-.04c0-.367,0-.673,0-.757v-.451c0-.1,0-.923.03-1.02a1.242,1.242,0,0,1,.194-.583,1.284,1.284,0,0,1,.992-.588c.021,0,.2-.008.222-.01h1.265l.727-.006a.041.041,0,0,0,.039-.033q.007-.042.013-.084a.041.041,0,0,0-.036-.057Zm-4.139-2.7c.007-.079.006-.271.005-.344l-.005-.666c-.007-.508-.018-1.333-.035-1.955a.041.041,0,0,0-.039-.039H8.583a.041.041,0,0,0-.042.039c-.013.485-.022,1.132-.029,1.491,0,.156-.005.5-.007.651L8.5,6.369v.153c0,.031,0,.112-.007.147,0,.056-.013.164-.025.236.082-.033.166-.064.251-.091.009-.1.017-.191.022-.249Zm.586.107c0-.121,0-.242,0-.368l-.005-.374c-.012-.775-.022-1.5-.034-2.273a.041.041,0,0,0-.034-.04l-.1-.013a.041.041,0,0,0-.046.039c-.032.821-.045,1.59-.041,2.413,0,.222,0,.446-.007.666.087-.02.176-.038.265-.053Zm-5.613,2.5a.039.039,0,0,0-.039.046c0,.038.008.076.015.113a.039.039,0,0,0,.038.032l1.886.056c.266.008.654.016.92.008a2.479,2.479,0,0,1,.042-.307c-.206.013-.533.017-.737.02C5.147,9.147,4.411,9.158,3.715,9.169ZM8.133,6.731a5.121,5.121,0,0,0,.061-.569c0-.053,0-.273,0-.322l0-.62c0-.323-.011-1.1-.021-1.615a.041.041,0,0,0-.042-.039l-.082.006a.039.039,0,0,0-.037.039C8,4.049,8,4.681,7.991,4.909A16.344,16.344,0,0,1,7.955,6.58a1.668,1.668,0,0,1-.279.808,3.191,3.191,0,0,1,.355-.3A1.63,1.63,0,0,0,8.133,6.731Zm1.768-.1a.025.025,0,0,0,.024-.025L9.912,6.3c-.012-.86-.028-1.67-.061-2.528a.041.041,0,0,0-.03-.038l-.1-.024a.041.041,0,0,0-.05.038c-.03.867-.049,1.683-.061,2.552l0,.333C9.7,6.634,9.807,6.638,9.9,6.635ZM3.668,8.178c.52.009,1.25.014,1.548.018a13.561,13.561,0,0,0,1.43-.024c.039-.01.205-.021.242-.034a1.413,1.413,0,0,0,.16-.033,2.977,2.977,0,0,1,.3-.375,1.546,1.546,0,0,1-.582.2,12.139,12.139,0,0,1-1.316.061c-.09,0-.42,0-.511,0L3.671,8.01a.041.041,0,0,0-.039.038c0,.03-.005.061-.007.088a.041.041,0,0,0,.044.042Zm2.4,1.545c-.714.01-1.514.024-2.23.047A.04.04,0,0,0,3.8,9.82c.012.042.02.081.032.124a.041.041,0,0,0,.038.03c.7.021,1.5.038,2.2.048.121,0,.342.005.467.01,0-.121,0-.207,0-.316-.113,0-.348.007-.462.008ZM3.733,7.6c.44,0,1.066.007,1.2.008.1,0,1.07.012,1.168-.012.019,0,.207-.01.225-.017A1.421,1.421,0,0,0,7.6,6.293c.015-.043.025-.485.029-.532V4.884c0-.145-.006-.774-.01-1.216a.04.04,0,0,0-.047-.039L7.5,3.641a.04.04,0,0,0-.033.039c0,.407-.006.945-.008,1.048V6c0,.022-.006.2-.011.222a1.286,1.286,0,0,1-.59.99,1.244,1.244,0,0,1-.582.194c-.1.026-.918.028-1.019.03h-.45c-.1,0-.652,0-1.056.005a.041.041,0,0,0-.039.033L3.7,7.552a.041.041,0,0,0,.037.051Zm.1-.466h2.14A1.155,1.155,0,0,0,7.1,5.966V3.785a.04.04,0,0,0-.051-.039l-.061.018a.041.041,0,0,0-.029.039V5.966a1,1,0,0,1-.98,1.024H3.855a.041.041,0,0,0-.039.029c-.007.023-.013.046-.019.069a.041.041,0,0,0,.04.05ZM55.213,3.86h.022a.351.351,0,0,0,.291-.138l.443-.552c.131-.16.061-.291-.145-.291H55.6a.285.285,0,0,0-.284.174l-.272.531c-.082.16-.009.276.173.276ZM30.158,9.348h.2a.218.218,0,0,0,.242-.242V4.5a.218.218,0,0,0-.242-.242h-.2a.217.217,0,0,0-.242.242V9.108A.218.218,0,0,0,30.158,9.348ZM35.182,3.86h.095a.291.291,0,0,0,.284-.174l.225-.371.225.371a.291.291,0,0,0,.284.174h.094c.167,0,.218-.131.116-.291l-.334-.523a.285.285,0,0,0-.284-.167h-.2a.3.3,0,0,0-.284.167l-.334.523C34.963,3.729,35.014,3.86,35.182,3.86Zm5.074,8.674a.711.711,0,0,0,.121-.418.666.666,0,0,0-.236-.542.978.978,0,0,0-.648-.2h-.827V13.5h.3v-.645h.524a1.176,1.176,0,0,0,.133-.006l.457.651h.33l-.5-.712A.684.684,0,0,0,40.256,12.534Zm-.772.061h-.515V11.64h.515a.691.691,0,0,1,.439.121.427.427,0,0,1,.151.353.432.432,0,0,1-.151.354A.673.673,0,0,1,39.483,12.594ZM56.1,8.744H54.852V7.073h1a.218.218,0,0,0,.242-.242V6.7a.217.217,0,0,0-.242-.242h-1V4.863h1.221a.214.214,0,0,0,.242-.242V4.5a.217.217,0,0,0-.242-.242H54.409a.217.217,0,0,0-.242.242V9.108a.217.217,0,0,0,.242.242H56.1a.217.217,0,0,0,.242-.242V8.987A.215.215,0,0,0,56.1,8.744Zm-2.98-4.483h-.233a.259.259,0,0,0-.269.2l-1.03,2.968L50.565,4.458a.267.267,0,0,0-.276-.2h-.2a.217.217,0,0,0-.242.242V9.112a.217.217,0,0,0,.242.242h.153a.221.221,0,0,0,.247-.242V5.888l.843,2.479a.25.25,0,0,0,.262.2.237.237,0,0,0,.254-.2l.848-2.479v3.22a.218.218,0,0,0,.242.242h.182a.217.217,0,0,0,.242-.242V4.5a.221.221,0,0,0-.245-.24Zm-5.852.218A.247.247,0,0,0,47,4.262h-.407a.247.247,0,0,0-.262.218l-.916,4.607c-.029.167.051.262.211.262h.182a.236.236,0,0,0,.254-.218l.174-.981h1.1l.174.981a.242.242,0,0,0,.262.218h.211a.194.194,0,0,0,.211-.262Zm-.916,3.093.443-2.457.443,2.457ZM44.59,4.257h-.2a.217.217,0,0,0-.242.242V9.108a.217.217,0,0,0,.242.242h.2a.218.218,0,0,0,.242-.242V4.5a.218.218,0,0,0-.244-.24ZM42.126,4.2h-.015c-.771,0-1.236.342-1.236,1.076V8.326c0,.77.465,1.075,1.236,1.075h.015c.771,0,1.236-.313,1.236-1.075V7.538a.217.217,0,0,0-.242-.242h-.2a.218.218,0,0,0-.242.242V8.2c0,.443-.189.6-.56.6s-.56-.16-.56-.6V5.408c0-.443.189-.606.56-.606s.56.16.56.606v.538a.218.218,0,0,0,.242.242h.2a.217.217,0,0,0,.242-.242V5.28c0-.737-.467-1.078-1.238-1.078Zm25.353,4.89-.93-4.608a.247.247,0,0,0-.262-.218H65.88a.247.247,0,0,0-.262.218L64.7,9.087c-.029.167.051.262.211.262h.182a.236.236,0,0,0,.254-.218l.174-.981h1.1l.174.981a.242.242,0,0,0,.262.218h.211A.2.2,0,0,0,67.479,9.087ZM65.632,7.572l.443-2.457.443,2.457ZM58.2,4.26H57.178a.217.217,0,0,0-.242.242V9.11a.217.217,0,0,0,.242.242H58.2c.771,0,1.236-.327,1.236-1.076V5.336C59.432,4.587,58.966,4.26,58.2,4.26Zm.552,3.882c0,.45-.2.6-.582.6h-.545V4.863h.545c.378,0,.582.153.582.606ZM62.994,4.2h-.015c-.771,0-1.236.342-1.236,1.076V8.333c0,.77.465,1.075,1.236,1.075h.015c.771,0,1.236-.313,1.236-1.075V7.538a.217.217,0,0,0-.242-.242h-.2a.218.218,0,0,0-.242.242V8.2c0,.443-.189.6-.56.6s-.56-.16-.56-.6V5.408c0-.443.189-.606.56-.606s.56.16.56.606v.538a.218.218,0,0,0,.242.242h.2a.217.217,0,0,0,.242-.242V5.28c0-.737-.463-1.078-1.235-1.078Zm-2.3.061h-.2a.217.217,0,0,0-.242.242V9.115a.217.217,0,0,0,.242.242h.2a.218.218,0,0,0,.242-.242V4.5a.218.218,0,0,0-.245-.24Zm-30.12,7.088a.774.774,0,0,0-.7.324v-.3h-.291V13.5h.3V12.3a.69.69,0,0,1,.167-.5.612.612,0,0,1,.457-.17.552.552,0,0,1,.421.159.655.655,0,0,1,.151.468V13.5h.3V12.24a.927.927,0,0,0-.215-.657A.78.78,0,0,0,30.572,11.352ZM26.291,9.108V8.987a.214.214,0,0,0-.242-.242H24.808V7.073h1a.217.217,0,0,0,.242-.242V6.7a.217.217,0,0,0-.242-.242h-1V4.863h1.221a.214.214,0,0,0,.242-.242V4.5a.217.217,0,0,0-.242-.242H24.365a.217.217,0,0,0-.242.242V9.108a.217.217,0,0,0,.242.242h1.687A.218.218,0,0,0,26.291,9.108Zm2.188-2.449L27.818,6.3c-.291-.167-.4-.276-.4-.582V5.365c0-.407.2-.567.545-.567s.545.16.545.567v.451a.217.217,0,0,0,.242.242h.189a.217.217,0,0,0,.242-.242V5.248c0-.734-.509-1.047-1.207-1.047h-.015c-.7,0-1.207.313-1.207,1.047v.64c0,.485.247.705.712.974l.654.363c.3.167.407.3.407.606v.4c0,.4-.2.582-.552.582s-.552-.182-.552-.582V7.723a.217.217,0,0,0-.242-.242h-.191a.217.217,0,0,0-.242.242v.625c0,.771.443,1.061,1.212,1.061h.015c.771,0,1.212-.3,1.212-1.061V7.64c.007-.487-.269-.734-.705-.981Zm-2.547,4.694a.894.894,0,0,0-.663.247.96.96,0,0,0-.245.708V13.5h.3v-.585h1.224V13.5h.3v-1.19A.962.962,0,0,0,26.6,11.6.9.9,0,0,0,25.932,11.352Zm.612,1.3H25.32v-.37a.676.676,0,0,1,.162-.491.691.691,0,0,1,.9,0,.678.678,0,0,1,.162.491ZM22.758,7.16a.947.947,0,0,0,.6-.974V5.338c0-.749-.465-1.076-1.236-1.076h-1.03a.217.217,0,0,0-.242.242V9.113a.217.217,0,0,0,.242.242h.2a.218.218,0,0,0,.242-.242V7.262h.6l.64,1.889a.252.252,0,0,0,.269.2h.2a.194.194,0,0,0,.2-.276Zm-.087-1.1c0,.451-.2.606-.582.606h-.56V4.863h.559c.378,0,.582.153.582.606Zm12.342,5.29a.9.9,0,0,0-.666.247.935.935,0,0,0-.242.708V13.5h.3v-.585h1.224V13.5h.3v-1.19a.962.962,0,0,0-.245-.708A.9.9,0,0,0,35.013,11.352Zm.612,1.3H34.4v-.37a.676.676,0,0,1,.162-.491.691.691,0,0,1,.9,0,.678.678,0,0,1,.162.491Zm-13.5-.224a2.848,2.848,0,0,0-.385-.115,2.794,2.794,0,0,1-.292-.081.5.5,0,0,1-.182-.106.231.231,0,0,1-.073-.177.287.287,0,0,1,.129-.242.668.668,0,0,1,.386-.094,1.067,1.067,0,0,1,.3.044,1.09,1.09,0,0,1,.285.129l.1-.242a.977.977,0,0,0-.312-.139,1.41,1.41,0,0,0-.37-.048,1.1,1.1,0,0,0-.451.082.612.612,0,0,0-.271.218.545.545,0,0,0-.09.306.472.472,0,0,0,.1.322.64.64,0,0,0,.251.177,3.129,3.129,0,0,0,.386.115q.191.045.3.082a.479.479,0,0,1,.176.1.236.236,0,0,1,.071.177.274.274,0,0,1-.13.237.691.691,0,0,1-.394.09,1.138,1.138,0,0,1-.389-.068.929.929,0,0,1-.311-.177l-.112.236a.944.944,0,0,0,.35.192,1.445,1.445,0,0,0,.462.075,1.132,1.132,0,0,0,.454-.081.606.606,0,0,0,.276-.218.54.54,0,0,0,.091-.3.463.463,0,0,0-.1-.318A.646.646,0,0,0,22.124,12.425ZM39.638,9.348h.211a.217.217,0,0,0,.242-.242V4.5a.217.217,0,0,0-.242-.242H39.7a.218.218,0,0,0-.242.242V7.764L38.247,4.456a.267.267,0,0,0-.276-.2h-.242a.217.217,0,0,0-.242.242V9.11a.217.217,0,0,0,.242.242h.153a.218.218,0,0,0,.242-.242V5.728l1.243,3.423A.259.259,0,0,0,39.638,9.348ZM36.65,8.742H35.407V7.073h1a.218.218,0,0,0,.242-.242V6.7a.217.217,0,0,0-.242-.242h-1V4.863h1.22a.214.214,0,0,0,.242-.242V4.5a.217.217,0,0,0-.242-.242H34.963a.217.217,0,0,0-.242.242V9.108a.217.217,0,0,0,.242.242H36.65a.217.217,0,0,0,.242-.242V8.987a.215.215,0,0,0-.242-.242ZM32.7,4.259H31.685a.217.217,0,0,0-.242.242V9.11a.217.217,0,0,0,.242.242H32.7c.771,0,1.236-.327,1.236-1.076V5.336c0-.749-.465-1.076-1.236-1.076Zm.552,3.882c0,.45-.2.6-.582.6h-.545V4.863h.545c.378,0,.582.153.582.606Z" transform="translate(-0.04 0)"/></g><g transform="translate(144.363 56.28)"><line class="m" x2="7.159" transform="translate(0 0.575)"/><rect class="b" width="7.159" height="1.151" transform="translate(0)"/></g></g></g></svg>