<svg xmlns="http://www.w3.org/2000/svg" xmlns:xlink="http://www.w3.org/1999/xlink" width="129.099" height="97.054" viewBox="0 0 129.099 97.054"><defs><style>.a{fill:#f1f1f1;}.b{fill:#b5b5b5;}.c{fill:#f7f7f7;}.d{fill:#ddd;}.e,.g,.j{fill:none;stroke-miterlimit:10;}.e{stroke:#cecece;stroke-linecap:round;stroke-width:0.5px;}.f{fill:#fff;}.g{stroke:#ddd;stroke-width:2px;}.h{fill:url(#a);}.i{fill:#cecece;}.j{stroke:#b5b5b5;}.k{fill:#0f44b8;}</style><linearGradient id="a" x1="96.456" y1="-59.077" x2="97.456" y2="-59.077" gradientUnits="objectBoundingBox"><stop offset="0" stop-color="#ddd"/><stop offset="1" stop-color="#e6b43e"/></linearGradient></defs><g transform="translate(0.25)"><path class="a" d="M1033.658,876.753c-9.183-.555-14.2.6-27.226-10.77s-21.3-14.02-29.646-13.053c-13.717,1.59-23.465,9.581-25.738,25.575-1.716,12.076-.391,13.574-11.229,35.166-7.3,14.548,1.209,24.836,7.539,30h73.4a43.958,43.958,0,0,1,5.736-1.5c25.217-4.741,32.344-29.8,32.344-29.8C1066.373,881.589,1042.841,877.308,1033.658,876.753Z" transform="translate(-931.455 -852.748)"/><path class="b" d="M1070.314,1138.3H965.872a.366.366,0,1,1,0-.731h104.442a.366.366,0,0,1,0,.731Z" transform="translate(-950.892 -1047.011)"/><path class="b" d="M941.011,1138.3h-5.369a.366.366,0,0,1,0-.731h5.369a.366.366,0,1,1,0,.731Z" transform="translate(-930.274 -1047.011)"/><g transform="translate(67.941 33.265)"><path class="c" d="M1134.373,1015.757h38.316a2.82,2.82,0,0,0,2.82-2.82V979.71a1.358,1.358,0,0,0-.352-.911l-17.611-19.424a2.873,2.873,0,0,0-4.2-.06l-18.593,19.362a1.356,1.356,0,0,0-.378.94Z" transform="translate(-1134.007 -958.094)"/><path class="b" d="M1171.545,1015.4h-34.776a3.549,3.549,0,0,1-3.545-3.545v-32.96a1.714,1.714,0,0,1,.48-1.193l18.524-19.29a3.3,3.3,0,0,1,4.873.07l17.544,19.349a1.72,1.72,0,0,1,.446,1.157v32.867A3.549,3.549,0,0,1,1171.545,1015.4Zm-16.914-57.3a2.584,2.584,0,0,0-1.877.816l-18.524,19.29a.986.986,0,0,0-.276.686v32.96a2.817,2.817,0,0,0,2.814,2.814h34.776a2.817,2.817,0,0,0,2.814-2.814V978.985a.989.989,0,0,0-.257-.666l-17.544-19.35a2.583,2.583,0,0,0-1.89-.87Z" transform="translate(-1133.223 -957.368)"/></g><g transform="translate(63.986 33.265)"><path class="d" d="M1121.936,1015.723h41.135V979.677a1.36,1.36,0,0,0-.352-.913l-17.635-19.45a2.839,2.839,0,0,0-4.151-.06l-18.618,19.388a1.358,1.358,0,0,0-.379.941Z" transform="translate(-1121.57 -958.059)"/><path class="b" d="M1159.107,1015.4h-34.776a3.549,3.549,0,0,1-3.545-3.545v-32.96a1.716,1.716,0,0,1,.48-1.195l18.523-19.289a3.3,3.3,0,0,1,4.873.07l17.543,19.349a1.721,1.721,0,0,1,.447,1.158v32.866A3.549,3.549,0,0,1,1159.107,1015.4Zm-16.914-57.3a2.584,2.584,0,0,0-1.876.816L1121.794,978.2a.987.987,0,0,0-.277.688v32.96a2.817,2.817,0,0,0,2.814,2.814h34.776a2.817,2.817,0,0,0,2.814-2.814V978.986a.99.99,0,0,0-.257-.667l-17.544-19.349a2.582,2.582,0,0,0-1.889-.87Z" transform="translate(-1120.786 -957.368)"/></g><path class="b" d="M1136.2,997.032l16.033-.126,7.273,4.987h7.646l-13.727-11.038-13.1,1.848Z" transform="translate(-1067.311 -946.943)"/><g transform="translate(51.348 42.65)"><rect class="c" width="34.578" height="4.698" rx="2.349" transform="translate(0.366 0.366)"/><path class="b" d="M1113.744,992.316h-30.106a2.6,2.6,0,0,1-2.6-2.6v-.227a2.6,2.6,0,0,1,2.6-2.6h30.106a2.6,2.6,0,0,1,2.6,2.6v.227A2.6,2.6,0,0,1,1113.744,992.316Zm-30.106-4.7a1.872,1.872,0,0,0-1.87,1.87v.227a1.872,1.872,0,0,0,1.87,1.87h30.106a1.872,1.872,0,0,0,1.87-1.87v-.227a1.872,1.872,0,0,0-1.87-1.87Z" transform="translate(-1081.036 -986.886)"/></g><g transform="translate(22.811 33.264)"><path class="c" d="M992.436,1015.589h41.136V979.143a.323.323,0,0,0-.083-.216l-18-19.854a2.7,2.7,0,0,0-3.954-.057l-18.718,19.492a1.359,1.359,0,0,0-.379.941Z" transform="translate(-992.07 -957.925)"/><path class="b" d="M1029.608,1015.4H994.831a3.549,3.549,0,0,1-3.545-3.545v-32.96a1.716,1.716,0,0,1,.48-1.195l18.523-19.289a3.3,3.3,0,0,1,4.873.07l17.812,19.645a.686.686,0,0,1,.178.462v33.266A3.549,3.549,0,0,1,1029.608,1015.4Zm-16.914-57.3a2.584,2.584,0,0,0-1.877.816L992.294,978.2a.988.988,0,0,0-.277.688v32.96a2.817,2.817,0,0,0,2.814,2.814h34.777a2.817,2.817,0,0,0,2.814-2.814V978.585l-17.8-19.616a2.583,2.583,0,0,0-1.889-.87Z" transform="translate(-991.286 -957.366)"/></g><circle class="e" cx="0.887" cy="0.887" r="0.887" transform="translate(85.404 15.922)"/><circle class="e" cx="0.887" cy="0.887" r="0.887" transform="translate(75.601 34.006)"/><circle class="e" cx="1.256" cy="1.256" r="1.256" transform="translate(25.165 31.054)"/><g transform="translate(112.942 82.736)"><line class="e" y2="2.063" transform="translate(1.031)"/><line class="e" x1="2.063" transform="translate(0 1.031)"/></g><g transform="translate(0 71.563)"><line class="e" y2="2.063" transform="translate(1.031)"/><line class="e" x1="2.063" transform="translate(0 1.031)"/></g><path class="f" d="M980.281,1015.793h40.164a.486.486,0,0,0,.486-.486V979.934a1.842,1.842,0,0,0-.478-1.238l-16.844-18.578a3.764,3.764,0,0,0-5.5-.079l-17.8,18.531a1.848,1.848,0,0,0-.515,1.279v35.457A.486.486,0,0,0,980.281,1015.793Z" transform="translate(-960.637 -925.136)"/><path class="c" d="M1033.394,1010.016l-.06-30.291-.235-.607L1015.407,959.6a2.923,2.923,0,0,0-4.274-.061l-13.178,13.722a.248.248,0,0,0,.007.351l34.991,36.935C1033.694,1010.6,1033.394,1010.089,1033.394,1010.016Z" transform="translate(-972.976 -924.974)"/><path class="b" d="M1017.17,1015.4H982.393a3.549,3.549,0,0,1-3.545-3.545V978.892a1.718,1.718,0,0,1,.481-1.2l18.523-19.289a3.3,3.3,0,0,1,4.873.07l17.544,19.349a1.718,1.718,0,0,1,.446,1.157v32.867A3.549,3.549,0,0,1,1017.17,1015.4Zm-16.914-57.3a2.583,2.583,0,0,0-1.876.816L979.857,978.2a.99.99,0,0,0-.278.689v32.959a2.817,2.817,0,0,0,2.814,2.814h34.777a2.817,2.817,0,0,0,2.814-2.814V978.984a.99.99,0,0,0-.257-.666l-17.544-19.35a2.584,2.584,0,0,0-1.89-.87Z" transform="translate(-959.992 -924.102)"/><g transform="translate(60.052 54.584)"><path class="f" d="M.014,0h49a.014.014,0,0,1,.014.014V25.471A10.507,10.507,0,0,1,38.518,35.978H0a0,0,0,0,1,0,0V.014A.014.014,0,0,1,.014,0Z" transform="translate(0.366 0.366)"/><path class="c" d="M1155.342,1119.426h-42.557a3.224,3.224,0,0,1-3.224-3.224v3.935a3.224,3.224,0,0,0,3.224,3.224h42.557a3.224,3.224,0,0,0,3.224-3.224V1116.2A3.224,3.224,0,0,1,1155.342,1119.426Z" transform="translate(-1109.195 -1087.018)"/><path class="b" d="M1154.6,1061.129h-42.646a3.549,3.549,0,0,1-3.545-3.545v-33.16l.37,0h49.362l0,.37v32.794A3.549,3.549,0,0,1,1154.6,1061.129Zm-45.46-35.978v32.433a2.817,2.817,0,0,0,2.814,2.813H1154.6a2.817,2.817,0,0,0,2.814-2.813v-32.433Z" transform="translate(-1108.411 -1024.419)"/></g><g transform="translate(40.36 78.693)"><path class="b" d="M1047.893,1103.419l8.242,2.117-.9,4.056-2.044,1.049-6.713-1.607a7.732,7.732,0,0,0,13.07,4.464,7.818,7.818,0,0,0,.732-.828l23.443,4.818a2.988,2.988,0,0,0,3.528-2.325l.067-.326a2.988,2.988,0,0,0-2.325-3.529l-23.26-4.78a7.731,7.731,0,0,0-13.006-4.076A7.8,7.8,0,0,0,1047.893,1103.419Z" transform="translate(-1046.48 -1100.243)"/><path class="g" d="M1048.073,1103.508l8.1,2.081-.9,4.056-2.044,1.049-6.575-1.574a.1.1,0,0,0-.118.107,7.732,7.732,0,0,0,13.049,4.324,7.833,7.833,0,0,0,.732-.828l23.443,4.818a2.988,2.988,0,0,0,3.528-2.325l.067-.326a2.988,2.988,0,0,0-2.326-3.529l-23.26-4.78a7.7,7.7,0,0,0-2.365-4.248,7.8,7.8,0,0,0-9.012-1.038,7.511,7.511,0,0,0-2.379,2.063A.1.1,0,0,0,1048.073,1103.508Z" transform="translate(-1046.522 -1100.296)"/><rect class="d" width="18.946" height="2.424" rx="1.212" transform="matrix(0.979, 0.205, -0.205, 0.979, 16.23, 8.58)"/><circle class="h" cx="1.113" cy="1.113" r="1.113" transform="translate(36.129 13.1)"/><line class="g" y1="4.661" x2="1.067" transform="translate(9.655 0.632)"/></g><g transform="translate(37.116 42.691)"><circle class="i" cx="2.674" cy="2.674" r="2.674" transform="translate(0 0)"/><path class="d" d="M1037.319,991.081a2.674,2.674,0,0,1,4.175-2.213,2.674,2.674,0,1,0-4.045,3.033A2.675,2.675,0,0,1,1037.319,991.081Z" transform="translate(-1036.276 -987.015)"/><circle class="j" cx="2.674" cy="2.674" r="2.674" transform="translate(0 0)"/></g><path class="b" d="M1301.776,1138.3h-2.623a.366.366,0,0,1,0-.731h2.623a.366.366,0,0,1,0,.731Z" transform="translate(-1178.204 -1047.007)"/><path class="b" d="M958.923,1138.3h-1.176a.366.366,0,1,1,0-.731h1.176a.366.366,0,1,1,0,.731Z" transform="translate(-945.35 -1047.007)"/><g transform="translate(40.078 33.302)"><line class="k" x2="4.233" transform="translate(0 0.34)"/><rect class="b" width="4.233" height="0.681"/></g><g transform="translate(64.936 67.612)"><path class="b" d="M5.61,4.4c.036,0,.069-.006.1-.007h.107l.442-.006c.494-.007.847-.02,1.335-.036a.024.024,0,0,0,.023-.029l-.013-.058a.024.024,0,0,0-.023-.018c-.486-.016-.833-.027-1.322-.036L5.821,4.2c-.072,0-.152,0-.23.005A1.7,1.7,0,0,0,4.1,5.5a3.684,3.684,0,0,0-.036.9c.005.387.013.73.024,1.116a.024.024,0,0,0,.016.022c.027.009.054.015.082.022a.024.024,0,0,0,.03-.023c.012-.394.019-.741.025-1.137a2.362,2.362,0,0,1,.319-1.4A1.476,1.476,0,0,1,5.61,4.4Zm-.165.394a2.668,2.668,0,0,1,.967-.107c.463,0,.786-.005,1.243-.022a.024.024,0,0,0,.023-.027c0-.02-.005-.041-.008-.061a.024.024,0,0,0-.024-.02L6.486,4.536l-.221,0a3.405,3.405,0,0,0-.681.036,1.443,1.443,0,0,0-1.11,1.122,3.984,3.984,0,0,0-.052.986c.01.33.02.6.03.933a.024.024,0,0,0,.019.023l.072.01a.024.024,0,0,0,.028-.023c.006-.377.012-.7.018-1.076a2.364,2.364,0,0,1,.265-1.282,1.233,1.233,0,0,1,.59-.472Zm-2.43.266-.832.015a.024.024,0,0,0-.023.024v.057a.024.024,0,0,0,.023.023c.353.009.805.014,1.071.018.135,0,.52.013.728,0a1.52,1.52,0,0,1,.068-.168c-.2.022-.562.025-.7.028-.078,0-.253,0-.333,0ZM7.8,3.6H6.514a.1.1,0,0,1-.1-.1V2.031a.24.24,0,0,0-.152-.223,3.482,3.482,0,0,0-2.562,0,.24.24,0,0,0-.152.223V3.408a.194.194,0,0,1-.194.194h-1.3a.24.24,0,0,0-.223.152,3.483,3.483,0,0,0,0,2.562.24.24,0,0,0,.223.153H3.443a.1.1,0,0,1,.1.1V7.747a.24.24,0,0,0,.152.223,3.487,3.487,0,0,0,2.562,0,.24.24,0,0,0,.152-.223V6.664A.194.194,0,0,1,6.6,6.47H7.8a.24.24,0,0,0,.223-.153,3.487,3.487,0,0,0,0-2.562A.241.241,0,0,0,7.8,3.6ZM7.736,6.137H6.482a.41.41,0,0,0-.41.41V7.682a3.15,3.15,0,0,1-2.2,0V6.232a.1.1,0,0,0-.1-.1H2.118a3.15,3.15,0,0,1,0-2.2H3.475a.41.41,0,0,0,.41-.412V2.1a3.15,3.15,0,0,1,2.2,0V3.842a.1.1,0,0,0,.1.1H7.736a3.15,3.15,0,0,1,0,2.2Zm-.168-.358H6.486a.682.682,0,0,0-.693.662V7.545a.024.024,0,0,0,.03.023l.042-.011a.024.024,0,0,0,.017-.023V6.44a.592.592,0,0,1,.605-.578H7.561a.024.024,0,0,0,.023-.017l.009-.036a.024.024,0,0,0-.025-.034Zm.1-.907c-.354-.009-.688-.016-.967-.02l-.394,0c-.043,0-.157,0-.2,0a2.174,2.174,0,0,0-.358.052,1.218,1.218,0,0,0-.9.9c-.012.033-.021.117-.03.152a4.827,4.827,0,0,0-.022.8c0,.241.008.559.015.889a.024.024,0,0,0,.023.023.632.632,0,0,1,.064,0,.024.024,0,0,0,.025-.023c.005-.255.008-.483.011-.652,0-.08,0-.255,0-.335a4.474,4.474,0,0,1,.053-.755,1.089,1.089,0,0,1,.173-.424,1.1,1.1,0,0,1,.721-.466A1.625,1.625,0,0,1,6.049,5l.087,0h.09l.37,0c.092,0,.293,0,.385,0,.192,0,.418-.01.692-.017A.024.024,0,0,0,7.7,4.945V4.894A.024.024,0,0,0,7.671,4.871Zm0,.292L6.9,5.151l-.366,0c-.029,0-.159,0-.19,0a2.7,2.7,0,0,0-.337.036,1.017,1.017,0,0,0-.832.831c-.008.022-.014.12-.02.143a6.309,6.309,0,0,0-.015.75c0,.156.005.445.01.735a.024.024,0,0,0,.025.024l.056,0a.024.024,0,0,0,.022-.024c0-.241.006-.462.008-.571,0-.054,0-.251,0-.3A5.384,5.384,0,0,1,5.3,6.088.917.917,0,0,1,5.446,5.7c.3-.446.819-.423,1.294-.426l.347,0,.576-.009a.024.024,0,0,0,.024-.022.309.309,0,0,1,0-.052.024.024,0,0,0-.022-.026ZM4.927,0a4.889,4.889,0,1,0,4.89,4.889A4.889,4.889,0,0,0,4.927,0ZM8.046,8.007a4.411,4.411,0,1,1,0-6.238,4.411,4.411,0,0,1,0,6.238ZM7.632,5.48c-.251,0-.454,0-.529,0H6.584c-.028,0-.289.008-.315.017a.84.84,0,0,0-.763.754c0,.011-.007.122-.01.133-.014.058-.008.633-.007.691s0,.294,0,.537a.024.024,0,0,0,.028.023l.05-.009A.024.024,0,0,0,5.591,7.6c0-.217,0-.4,0-.447V6.888c0-.06,0-.546.018-.6a.735.735,0,0,1,.115-.345.759.759,0,0,1,.586-.347c.013,0,.118-.005.131-.006h.748l.43,0a.024.024,0,0,0,.023-.019q0-.025.008-.049a.024.024,0,0,0-.021-.034Zm-2.447-1.6c0-.047,0-.16,0-.2l0-.394c0-.3-.01-.788-.02-1.156a.024.024,0,0,0-.023-.023H5.091a.024.024,0,0,0-.025.023c-.008.287-.013.669-.017.882,0,.092,0,.293,0,.385l0,.37v.09c0,.019,0,.066,0,.087s-.008.1-.015.14c.049-.02.1-.038.149-.054.005-.058.01-.113.013-.147Zm.346.063c0-.072,0-.143,0-.218l0-.221c-.007-.458-.013-.886-.02-1.344a.024.024,0,0,0-.02-.024L5.43,2.132a.024.024,0,0,0-.027.023c-.019.485-.027.94-.024,1.427,0,.131,0,.264,0,.394.051-.012.1-.023.157-.031ZM2.213,5.422a.023.023,0,0,0-.023.027c0,.022.005.045.009.067a.023.023,0,0,0,.023.019l1.115.033c.157,0,.387.009.544.005a1.466,1.466,0,0,1,.025-.182c-.122.008-.315.01-.436.012ZM4.825,3.98a3.028,3.028,0,0,0,.036-.336c0-.031,0-.162,0-.19l0-.367c0-.191-.006-.65-.013-.955a.024.024,0,0,0-.025-.023l-.048,0a.023.023,0,0,0-.022.023c0,.259-.009.633-.012.768a9.664,9.664,0,0,1-.021.988.986.986,0,0,1-.165.478,1.887,1.887,0,0,1,.21-.177A.964.964,0,0,0,4.825,3.98Zm1.046-.057a.015.015,0,0,0,.014-.015l-.008-.183c-.007-.508-.016-.987-.036-1.495a.024.024,0,0,0-.018-.023l-.057-.014a.024.024,0,0,0-.03.023c-.018.513-.029,1-.036,1.509l0,.2C5.754,3.922,5.815,3.925,5.871,3.923Zm-3.685.913c.307.005.739.008.915.011a8.018,8.018,0,0,0,.846-.014c.023-.006.121-.012.143-.02a.835.835,0,0,0,.095-.02,1.76,1.76,0,0,1,.179-.222.914.914,0,0,1-.344.117,7.178,7.178,0,0,1-.778.036c-.053,0-.249,0-.3,0l-.752.01a.024.024,0,0,0-.023.022c0,.018,0,.036,0,.052a.024.024,0,0,0,.026.025ZM3.6,5.749c-.422.006-.9.014-1.318.028a.024.024,0,0,0-.022.03c.007.025.012.048.019.073A.024.024,0,0,0,2.3,5.9c.414.013.888.023,1.3.028.072,0,.2,0,.276.006,0-.072,0-.122,0-.187-.067,0-.206,0-.273.005ZM2.224,4.5l.712.005c.059,0,.633.007.691-.007.011,0,.122-.006.133-.01a.84.84,0,0,0,.752-.763c.009-.025.015-.287.017-.315V2.888c0-.086,0-.458-.006-.719a.024.024,0,0,0-.028-.023l-.044.008a.024.024,0,0,0-.02.023c0,.241,0,.559-.005.62v.75c0,.013,0,.119-.006.131a.76.76,0,0,1-.349.586.735.735,0,0,1-.344.115c-.057.015-.543.017-.6.018H2.858c-.059,0-.385,0-.624,0a.024.024,0,0,0-.023.02L2.2,4.465a.024.024,0,0,0,.022.03Zm.06-.276H3.549a.683.683,0,0,0,.663-.693V2.238a.024.024,0,0,0-.03-.023l-.036.01a.024.024,0,0,0-.017.023V3.527a.593.593,0,0,1-.58.605H2.3a.024.024,0,0,0-.023.017l-.011.041a.024.024,0,0,0,.024.029ZM32.663,2.282h.013a.208.208,0,0,0,.172-.082l.262-.327c.077-.095.036-.172-.086-.172H32.89a.168.168,0,0,0-.168.1l-.161.314c-.048.095-.005.163.1.163ZM17.848,5.527h.12a.129.129,0,0,0,.143-.143V2.661a.129.129,0,0,0-.143-.143h-.12a.129.129,0,0,0-.143.143V5.385A.129.129,0,0,0,17.848,5.527Zm2.97-3.245h.056a.172.172,0,0,0,.168-.1l.133-.219.133.219a.172.172,0,0,0,.168.1h.056c.1,0,.129-.077.069-.172L21.4,1.8a.168.168,0,0,0-.168-.1h-.12a.179.179,0,0,0-.168.1l-.2.309C20.69,2.2,20.72,2.282,20.818,2.282Zm3,5.129a.42.42,0,0,0,.072-.247.394.394,0,0,0-.14-.321.578.578,0,0,0-.383-.116h-.489V7.98h.179V7.6h.31a.7.7,0,0,0,.079,0l.27.385h.2l-.3-.421A.4.4,0,0,0,23.819,7.411Zm-.457.036h-.3V6.883h.3a.409.409,0,0,1,.26.072.253.253,0,0,1,.09.209.255.255,0,0,1-.09.21A.4.4,0,0,1,23.362,7.447ZM33.184,5.17h-.735V4.182h.589a.129.129,0,0,0,.143-.143V3.962a.129.129,0,0,0-.143-.143h-.589V2.876h.722a.127.127,0,0,0,.143-.143V2.661a.129.129,0,0,0-.143-.143h-.984a.129.129,0,0,0-.143.143V5.385a.128.128,0,0,0,.143.143h1a.128.128,0,0,0,.143-.143V5.314A.127.127,0,0,0,33.184,5.17ZM31.422,2.52h-.138a.153.153,0,0,0-.159.116l-.609,1.755-.6-1.755a.158.158,0,0,0-.163-.116h-.12a.129.129,0,0,0-.143.143V5.388a.128.128,0,0,0,.143.143h.09a.131.131,0,0,0,.146-.143V3.482l.5,1.466a.148.148,0,0,0,.155.116.14.14,0,0,0,.15-.116l.5-1.466v1.9a.129.129,0,0,0,.143.143h.107a.128.128,0,0,0,.143-.143V2.661a.131.131,0,0,0-.145-.142Zm-3.46.129a.146.146,0,0,0-.155-.129h-.241a.146.146,0,0,0-.155.129L26.87,5.373c-.017.1.03.155.125.155H27.1a.14.14,0,0,0,.15-.129l.1-.58H28l.1.58a.143.143,0,0,0,.155.129h.125a.115.115,0,0,0,.125-.155ZM27.42,4.477l.262-1.453.262,1.453Zm-1.039-1.96h-.12a.129.129,0,0,0-.143.143V5.385a.128.128,0,0,0,.143.143h.12a.129.129,0,0,0,.143-.143V2.661a.129.129,0,0,0-.144-.142Zm-1.457-.036h-.009c-.456,0-.731.2-.731.636V4.923c0,.455.275.636.731.636h.009c.456,0,.731-.185.731-.636V4.457a.129.129,0,0,0-.143-.143h-.12a.129.129,0,0,0-.143.143v.391c0,.262-.112.356-.331.356s-.331-.095-.331-.356V3.2c0-.262.112-.358.331-.358s.331.095.331.358v.318a.129.129,0,0,0,.143.143h.12a.129.129,0,0,0,.143-.143V3.122c0-.436-.276-.638-.732-.638ZM39.915,5.373l-.55-2.725a.146.146,0,0,0-.155-.129H38.97a.146.146,0,0,0-.155.129l-.542,2.725c-.017.1.03.155.125.155h.107a.14.14,0,0,0,.15-.129l.1-.58h.649l.1.58a.143.143,0,0,0,.155.129h.125A.115.115,0,0,0,39.915,5.373Zm-1.092-.9.262-1.453.262,1.453Zm-4.4-1.959h-.6a.129.129,0,0,0-.143.143V5.387a.128.128,0,0,0,.143.143h.6c.456,0,.731-.193.731-.636V3.155C35.157,2.712,34.882,2.519,34.426,2.519Zm.327,2.3c0,.266-.12.356-.344.356h-.322V2.876h.322c.224,0,.344.09.344.358Zm2.51-2.328h-.009c-.456,0-.731.2-.731.636V4.927c0,.455.275.636.731.636h.009c.456,0,.731-.185.731-.636v-.47a.129.129,0,0,0-.143-.143h-.12a.129.129,0,0,0-.143.143v.391c0,.262-.112.356-.331.356s-.331-.095-.331-.356V3.2c0-.262.112-.358.331-.358s.331.095.331.358v.318a.129.129,0,0,0,.143.143h.12a.129.129,0,0,0,.143-.143V3.122c0-.436-.274-.638-.73-.638ZM35.9,2.522h-.12a.129.129,0,0,0-.143.143V5.39a.128.128,0,0,0,.143.143h.12a.129.129,0,0,0,.143-.143V2.661a.129.129,0,0,0-.145-.142ZM18.093,6.712a.458.458,0,0,0-.412.192V6.727h-.172V7.98h.179V7.271a.408.408,0,0,1,.1-.3.362.362,0,0,1,.27-.1.327.327,0,0,1,.249.094.387.387,0,0,1,.09.277v.738h.179V7.237a.548.548,0,0,0-.127-.389A.461.461,0,0,0,18.093,6.712ZM15.562,5.385V5.314a.127.127,0,0,0-.143-.143h-.734V4.182h.589a.129.129,0,0,0,.143-.143V3.962a.129.129,0,0,0-.143-.143h-.589V2.876h.722a.127.127,0,0,0,.143-.143V2.661a.129.129,0,0,0-.143-.143h-.984a.129.129,0,0,0-.143.143V5.385a.128.128,0,0,0,.143.143h1A.129.129,0,0,0,15.562,5.385Zm1.294-1.448-.391-.215c-.172-.1-.236-.163-.236-.344V3.172c0-.241.116-.335.322-.335s.322.095.322.335v.266a.129.129,0,0,0,.143.143h.112a.129.129,0,0,0,.143-.143V3.1c0-.434-.3-.619-.714-.619h-.009c-.413,0-.714.185-.714.619v.378c0,.287.146.417.421.576l.387.215c.176.1.241.176.241.358v.236c0,.236-.116.344-.327.344s-.327-.107-.327-.344v-.3a.129.129,0,0,0-.143-.143h-.113a.129.129,0,0,0-.143.143v.369c0,.456.262.628.716.628h.009c.456,0,.716-.176.716-.628V4.517c0-.288-.159-.434-.417-.58ZM15.349,6.712a.529.529,0,0,0-.392.146.568.568,0,0,0-.145.418v.7h.176V7.635h.724V7.98h.179v-.7a.569.569,0,0,0-.145-.418A.531.531,0,0,0,15.349,6.712Zm.362.767h-.724V7.26a.4.4,0,0,1,.1-.29.408.408,0,0,1,.532,0,.4.4,0,0,1,.1.29ZM13.473,4.234a.56.56,0,0,0,.352-.576v-.5c0-.443-.275-.636-.731-.636h-.609a.129.129,0,0,0-.143.143V5.388a.128.128,0,0,0,.143.143h.12a.129.129,0,0,0,.143-.143V4.294H13.1l.378,1.117a.149.149,0,0,0,.159.116h.118a.115.115,0,0,0,.12-.163Zm-.052-.649c0,.266-.12.358-.344.358h-.331V2.876h.33c.224,0,.344.09.344.358Zm7.3,3.128a.535.535,0,0,0-.394.146.553.553,0,0,0-.143.418v.7h.176V7.635h.724V7.98h.179v-.7a.569.569,0,0,0-.145-.418A.531.531,0,0,0,20.719,6.712Zm.362.767h-.724V7.26a.4.4,0,0,1,.1-.29.408.408,0,0,1,.532,0,.4.4,0,0,1,.1.29ZM13.1,7.346a1.684,1.684,0,0,0-.227-.068,1.652,1.652,0,0,1-.173-.048.3.3,0,0,1-.107-.063.137.137,0,0,1-.043-.1.169.169,0,0,1,.076-.143.4.4,0,0,1,.228-.056.631.631,0,0,1,.176.026.645.645,0,0,1,.168.076l.059-.143a.577.577,0,0,0-.184-.082.834.834,0,0,0-.218-.029.651.651,0,0,0-.267.048.362.362,0,0,0-.16.129.322.322,0,0,0-.053.181.279.279,0,0,0,.062.191.378.378,0,0,0,.149.1,1.85,1.85,0,0,0,.228.068q.113.027.175.048a.283.283,0,0,1,.1.062.139.139,0,0,1,.042.1.162.162,0,0,1-.077.14.408.408,0,0,1-.233.053.673.673,0,0,1-.23-.041.549.549,0,0,1-.184-.1l-.066.14a.558.558,0,0,0,.207.114.854.854,0,0,0,.273.044.669.669,0,0,0,.269-.048.358.358,0,0,0,.163-.129.319.319,0,0,0,.054-.179.274.274,0,0,0-.062-.188A.382.382,0,0,0,13.1,7.346ZM23.453,5.527h.125a.128.128,0,0,0,.143-.143V2.661a.129.129,0,0,0-.143-.143h-.09a.129.129,0,0,0-.143.143v1.93l-.714-1.956a.158.158,0,0,0-.163-.116h-.143a.129.129,0,0,0-.143.143V5.387a.128.128,0,0,0,.143.143h.09a.129.129,0,0,0,.143-.143v-2l.735,2.024A.153.153,0,0,0,23.453,5.527Zm-1.767-.358h-.735V4.182h.589a.129.129,0,0,0,.143-.143V3.962a.129.129,0,0,0-.143-.143h-.589V2.876h.721a.127.127,0,0,0,.143-.143V2.661a.129.129,0,0,0-.143-.143H20.69a.129.129,0,0,0-.143.143V5.385a.128.128,0,0,0,.143.143h1a.128.128,0,0,0,.143-.143V5.314a.127.127,0,0,0-.143-.143ZM19.353,2.518h-.6a.129.129,0,0,0-.143.143V5.386a.128.128,0,0,0,.143.143h.6c.456,0,.731-.193.731-.636V3.155c0-.443-.275-.636-.731-.636Zm.327,2.3c0,.266-.12.356-.344.356h-.322V2.876h.322c.224,0,.344.09.344.358Z" transform="translate(-0.04 0)"/></g><g transform="translate(85.359 33.277)"><line class="k" x2="4.233" transform="translate(0 0.34)"/><rect class="b" width="4.233" height="0.681" transform="translate(0)"/></g></g></svg>