<svg xmlns="http://www.w3.org/2000/svg" width="19.613" height="24" viewBox="0 0 19.613 24"><defs><style>.a{fill:rgba(17,19,23,0.85);}</style></defs><path class="a" d="M154.159,0a5.48,5.48,0,0,0-3.618,1.856,5.134,5.134,0,0,0-1.3,3.807.2.2,0,0,0,.18.17c.084.007.169.01.254.01a4.635,4.635,0,0,0,3.415-1.751A5.413,5.413,0,0,0,154.362.175.2.2,0,0,0,154.159,0Z" transform="translate(-139.662 0)"/><path class="a" d="M28.887,75.452c-2.029,3.521-.739,8.864,1.5,12.1,1.12,1.62,2.254,3.074,3.807,3.074l.089,0a4.7,4.7,0,0,0,1.767-.471,4.838,4.838,0,0,1,2.093-.5,4.55,4.55,0,0,1,1.992.48,4.221,4.221,0,0,0,1.908.458c1.749-.033,2.824-1.6,3.771-2.986a13.234,13.234,0,0,0,1.652-3.384l.007-.021a.2.2,0,0,0-.1-.241l-.014-.006a5.014,5.014,0,0,1-3.039-4.592,5.162,5.162,0,0,1,2.439-4.315l.019-.012a.2.2,0,0,0,.056-.276,5.677,5.677,0,0,0-4.465-2.425c-.127-.013-.258-.019-.39-.019a7.783,7.783,0,0,0-2.8.7,4.5,4.5,0,0,1-1.342.4,4.391,4.391,0,0,1-1.388-.406A6.728,6.728,0,0,0,34,72.393h-.062A6,6,0,0,0,28.887,75.452Z" transform="translate(-27.875 -66.629)"/></svg>