<svg xmlns="http://www.w3.org/2000/svg" width="21.976" height="24" viewBox="0 0 21.976 24"><defs><style>.a{fill:rgba(17,19,23,0.85);}</style></defs><path class="a" d="M12.3,13.7a2.366,2.366,0,0,0-.1.663V34.77a2.6,2.6,0,0,0,.091.654L23.745,24.574C23.753,24.574,12.3,13.7,12.3,13.7Z" transform="translate(-12.2 -12.565)"/><path class="a" d="M40.966,7.776,27.6.339a1.944,1.944,0,0,0-1.5-.29L37.6,10.973Z" transform="translate(-24.949 0.001)"/><path class="a" d="M185.122,104.988,181.552,103l-3.652,3.462L181.627,110l3.47-1.9A1.682,1.682,0,0,0,185.122,104.988Z" transform="translate(-164.177 -94.469)"/><path class="a" d="M25.6,168.307a1.949,1.949,0,0,0,1.532-.282l13.409-7.363L37.112,157.4C37.12,157.4,25.6,168.307,25.6,168.307Z" transform="translate(-24.49 -144.364)"/></svg>