<svg xmlns="http://www.w3.org/2000/svg" width="220" height="52" viewBox="0 0 220 52"><defs><style>.a,.b{fill:none;}.a{stroke:rgba(17,19,23,0.15);stroke-linecap:round;stroke-width:4px;stroke-dasharray:0 7;}.c{fill:rgba(173,199,255,0.5);}.d{fill:rgba(17,19,23,0.75);}.e{opacity:0.3;}</style></defs><g transform="translate(-678 -424)"><path class="a" d="M0,0H16" transform="translate(738 450)"/><line class="a" x2="16" transform="translate(822 450)"/><g transform="translate(310 80)"><rect class="b" width="52" height="52" transform="translate(452 344)"/><g transform="translate(456.333 347.467)"><circle class="c" cx="21.125" cy="21.125" r="21.125" transform="translate(1.408 2.817)"/><g transform="translate(0 0)"><path class="d" d="M31.667,53.333A21.667,21.667,0,1,0,10,31.667,21.691,21.691,0,0,0,31.667,53.333Zm0-41.889A20.222,20.222,0,1,1,11.444,31.667,20.245,20.245,0,0,1,31.667,11.444Z" transform="translate(-10 -10)"/><path class="d" d="M28.169,34.337A3.169,3.169,0,1,0,25,31.169,3.173,3.173,0,0,0,28.169,34.337Zm0-4.929a1.76,1.76,0,1,1-1.76,1.76A1.763,1.763,0,0,1,28.169,29.408Z" transform="translate(-14.438 -15.325)"/><path class="d" d="M49.169,34.337A3.169,3.169,0,1,0,46,31.169,3.173,3.173,0,0,0,49.169,34.337Zm0-4.929a1.76,1.76,0,1,1-1.76,1.76A1.763,1.763,0,0,1,49.169,29.408Z" transform="translate(-20.65 -15.325)"/><path class="d" d="M34.768,55.606a15.2,15.2,0,0,0,12.454-6.368l-1.141-.825a13.954,13.954,0,0,1-22.625,0l-1.141.825A15.2,15.2,0,0,0,34.768,55.606Z" transform="translate(-13.643 -21.364)"/></g></g></g><g class="e" transform="translate(294 80)"><rect class="b" width="52" height="52" transform="translate(384 344)"/><g transform="translate(388.333 347.467)"><circle class="c" cx="21.125" cy="21.125" r="21.125" transform="translate(1.408 2.817)"/><g transform="translate(0 0)"><path class="d" d="M30.667,53.333A21.667,21.667,0,1,0,9,31.667,21.691,21.691,0,0,0,30.667,53.333Zm0-41.889A20.222,20.222,0,1,1,10.444,31.667,20.245,20.245,0,0,1,30.667,11.444Z" transform="translate(-9 -10)"/><path class="d" d="M30.338,31.169a3.169,3.169,0,1,0-3.169,3.169A3.173,3.173,0,0,0,30.338,31.169Zm-4.929,0a1.76,1.76,0,1,1,1.76,1.76A1.762,1.762,0,0,1,25.408,31.169Z" transform="translate(-13.119 -14.943)"/><path class="d" d="M48.169,33a3.169,3.169,0,1,0,3.169,3.169A3.173,3.173,0,0,0,48.169,33Zm0,4.929a1.76,1.76,0,1,1,1.76-1.76A1.762,1.762,0,0,1,48.169,37.929Z" transform="translate(-18.885 -16.316)"/><rect class="d" width="8.907" height="1.408" transform="matrix(0.949, 0.316, -0.316, 0.949, 26.39, 12.348)"/><rect class="d" width="1.408" height="8.907" transform="translate(17.671 8.726) rotate(71.549)"/><path class="d" d="M30,54.876c-.213-.2-.453-.421-.75-.658l-.88,1.1c.265.212.48.412.67.589a2.852,2.852,0,0,0,2.1,1.017,3.681,3.681,0,0,0,.6-.054l-.231-1.389C30.787,55.6,30.621,55.45,30,54.876Z" transform="translate(-14.352 -22.228)"/></g></g></g><g class="e" transform="translate(326 80)"><rect class="b" width="52" height="52" transform="translate(520 344)"/><g transform="translate(524.333 347.467)"><circle class="c" cx="21.125" cy="21.125" r="21.125" transform="translate(1.408 2.817)"/><g transform="translate(0 0)"><path class="d" d="M31.667,10A21.667,21.667,0,1,0,53.333,31.667,21.691,21.691,0,0,0,31.667,10Zm0,41.889A20.222,20.222,0,1,1,51.889,31.667,20.245,20.245,0,0,1,31.667,51.889Z" transform="translate(-10 -10)"/><path class="d" d="M26.314,35.259,30.8,30.776l-4.483-4.483-1.021,1.021,3.462,3.462-3.462,3.462Z" transform="translate(-14.248 -14.526)"/><path class="d" d="M52.09,34.237l-3.462-3.462,3.462-3.462-1.021-1.021-4.483,4.483,4.483,4.483Z" transform="translate(-20.163 -14.526)"/><path class="d" d="M18,42.722A16.1,16.1,0,0,0,33.889,58.611,16.1,16.1,0,0,0,49.778,42.722V42H18Zm30.315.722A14.653,14.653,0,0,1,33.889,57.167,14.653,14.653,0,0,1,19.463,43.444Z" transform="translate(-12.222 -18.889)"/></g></g></g></g></svg>