
<svg xmlns="http://www.w3.org/2000/svg" width="118" height="118" viewBox="0 0 118 118"><defs><style>.a{opacity:0.4;}.b{fill:none;}.c{fill:#d1d9e8;}.d{fill:#5a6275;}.e{fill:#a4adbf;}</style></defs><g class="a"><rect class="b" width="118" height="118"/><g transform="translate(8.919 8.919)"><circle class="c" cx="50.083" cy="50.083" r="50.083"/><path class="d" d="M193.74,368.031a27.343,27.343,0,0,0-20.1,45.2,8.271,8.271,0,0,1,1.5,8.189l-1.8,5.036a1.756,1.756,0,0,0,2.705,2l6.38-4.771a8.365,8.365,0,0,1,6.635-1.489,27.343,27.343,0,1,0,4.677-54.165Z" transform="translate(-166.996 -368.005)"/><path class="e" d="M272.54,448.251a10.242,10.242,0,0,0-1.83,9.98l.865,2.422q-1.637,1.9-3.459,3.626l-5.372-4.013a10.132,10.132,0,0,0-7.913-1.843,31.856,31.856,0,0,1-5.258.632,29.813,29.813,0,1,1,22.967-10.8Z" transform="translate(-183.562 -377.865)"/><g transform="translate(16.998 8.736)"><path class="d" d="M265.5,450.305a4.3,4.3,0,0,1-4.181,4.236,4.237,4.237,0,1,1,4.181-4.236Zm-1.046-10.453c0,1.706-1.871,2.421-3.191,2.421-1.761,0-3.246-.716-3.246-2.421,0-6.548-.77-15.955-.77-22.5,0-2.146,1.76-3.356,4.016-3.356,2.146,0,3.961,1.21,3.961,3.356C265.224,423.9,264.453,433.3,264.453,439.852Z" transform="translate(-212.277 -391.173)"/><path class="c" d="M206.81,398.291c-2.775,2.169-2.826,3.683-2.826,6.307,0,.959-.5,2.068-2.977,2.068-2.068,0-2.775-.757-2.775-3.381a9.238,9.238,0,0,1,3.381-7.67c1.665-1.413,4.491-2.977,4.491-5.7,0-2.321-2.018-3.432-4.542-3.432-5.147,0-4.037,3.886-6.762,3.886a2.894,2.894,0,0,1-3.028-2.877c0-2.724,3.129-6.762,9.941-6.762,6.459,0,10.748,3.583,10.748,8.326S208.173,397.231,206.81,398.291Zm-1.867,15.743a3.92,3.92,0,0,1-3.886,3.886,3.886,3.886,0,0,1,0-7.771A3.92,3.92,0,0,1,204.944,414.034Z" transform="translate(-191.773 -380.73)"/></g></g></g></svg>