<svg xmlns="http://www.w3.org/2000/svg" width="76" height="76" viewBox="0 0 76 76"><defs><style>.a{fill:none;}.b{fill:rgba(173,199,255,0.5);}.c{fill:rgba(17,19,23,0.75);}</style></defs><g transform="translate(-1524 -372)"><rect class="a" width="76" height="76" transform="translate(1524 372)"/><path class="b" d="M6107.982-1065.733A19.505,19.505,0,0,1,6091.5-1085a19.5,19.5,0,0,1,19.5-19.5,19.5,19.5,0,0,1,19.5,19.5,19.505,19.505,0,0,1-15.92,19.172c.549,2.056,1.2,5.5-.457,5.822a1.317,1.317,0,0,1-.252.024C6111.781-1059.983,6108.726-1064.566,6107.982-1065.733Z" transform="translate(-4560 1492.5)"/><g transform="translate(1528 312.323)"><g transform="translate(0 72.677)"><path class="c" d="M63.528,87.438H39.95A20.37,20.37,0,1,0,16.06,112.961l5.026,5.026a2.2,2.2,0,0,0,3.756-1.556v-3.519a20.425,20.425,0,0,0,2.413-.7v.139a4.477,4.477,0,0,0,4.472,4.472h7.509l4,4a1.865,1.865,0,0,0,3.184-1.319v-2.681H63.528A4.477,4.477,0,0,0,68,112.353V91.91A4.477,4.477,0,0,0,63.528,87.438ZM23.591,110.992a1.065,1.065,0,0,0-.878,1.048v4.391a.071.071,0,0,1-.121.05l-5.251-5.251a1.064,1.064,0,0,0-.545-.291,18.248,18.248,0,0,1,1.491-36.014,19.172,19.172,0,0,1,2.11-.117,18.034,18.034,0,0,1,12.14,4.649,18.231,18.231,0,0,1-8.945,31.535Zm42.28,1.361a2.345,2.345,0,0,1-2.342,2.342H45.356a1.065,1.065,0,0,0-1.065,1.065v3.108l-3.861-3.861a1.064,1.064,0,0,0-.753-.312h-7.95a2.345,2.345,0,0,1-2.342-2.342v-1.038A20.342,20.342,0,0,0,40.44,89.568H63.528A2.345,2.345,0,0,1,65.87,91.91v20.443Z" transform="translate(0 -72.677)"/></g><g transform="translate(40.887 95.388)"><g transform="translate(0 0)"><path class="c" d="M326.707,243.991a1.065,1.065,0,0,0-1.506,0l-10.6,10.6-4.923-4.923a1.065,1.065,0,0,0-1.506,1.506l5.676,5.676a1.065,1.065,0,0,0,1.506,0L326.706,245.5A1.065,1.065,0,0,0,326.707,243.991Z" transform="translate(-307.856 -243.679)"/></g></g><g transform="translate(19.305 101.071)"><g transform="translate(0 0)"><path class="c" d="M146.419,286.464h0a1.066,1.066,0,0,0-1.065,1.065h0a1.066,1.066,0,0,0,1.065,1.065h0a1.066,1.066,0,0,0,1.065-1.065h0A1.066,1.066,0,0,0,146.419,286.464Z" transform="translate(-145.352 -286.464)"/></g></g><g transform="translate(13.627 82.901)"><g transform="translate(0 0)"><path class="c" d="M114.093,151.654a6.683,6.683,0,0,0-4.744-2,6.751,6.751,0,0,0-6.743,6.743,1.065,1.065,0,0,0,2.13,0,4.619,4.619,0,0,1,4.613-4.614,4.7,4.7,0,0,1,4.614,4.614,4.643,4.643,0,0,1-3.286,4.42,3.319,3.319,0,0,0-2.392,3.191v.339a1.065,1.065,0,1,0,2.13,0v-.339a1.2,1.2,0,0,1,.875-1.151,6.786,6.786,0,0,0,4.8-6.459A6.684,6.684,0,0,0,114.093,151.654Z" transform="translate(-102.606 -149.654)"/></g></g></g></g></svg>