<svg xmlns="http://www.w3.org/2000/svg" width="168" height="168" viewBox="0 0 168 168"><defs><style>.a{fill:none;}.b{fill:rgba(173,199,255,0.15);}.c{fill:rgba(173,199,255,0.5);}.d{fill:#37404f;}</style></defs><rect class="a" width="168" height="168"/><circle class="b" cx="58" cy="58" r="58" transform="translate(8 8)"/><path class="c" d="M-2978,10342l16-8-16-8Z" transform="translate(3052.6 -10284)"/><rect class="c" width="18" height="20" rx="3" transform="translate(64.6 102)"/><path class="d" d="M103.929,117.6h0ZM25,117.6a3.386,3.386,0,0,1-3.378-3.379V66.043A3.386,3.386,0,0,1,25,62.665h78.93a3.386,3.386,0,0,1,3.378,3.379V72.9l9.7,4.846a1.217,1.217,0,0,1,.471.5,1.2,1.2,0,0,1-.536,1.61l-9.631,4.816v29.55a3.386,3.386,0,0,1-3.378,3.378Zm-.98-3.378a.982.982,0,0,0,.98.98H103.93a.982.982,0,0,0,.98-.977V102.407H24.019Zm0-48.179v33.969h80.89V83.932a1.194,1.194,0,0,1,.554-1.013l8.264-4.128-8.153-4.073a1.2,1.2,0,0,1-.663-1.075v-7.6a.982.982,0,0,0-.98-.98H25A.982.982,0,0,0,24.019,66.043Zm6.4,43.963a1.2,1.2,0,0,1,0-2.4h68.1a1.2,1.2,0,1,1,0,2.4ZM37.3,93.6A4.305,4.305,0,0,1,33,89.3v-14A4.3,4.3,0,0,1,37.3,71h12a4.3,4.3,0,0,1,4.3,4.3v14a4.305,4.305,0,0,1-4.3,4.3ZM35.6,75.3v14A1.7,1.7,0,0,0,37.3,91h12A1.7,1.7,0,0,0,51,89.3v-14a1.7,1.7,0,0,0-1.7-1.7h-12A1.7,1.7,0,0,0,35.6,75.3ZM62.68,92.6a1.3,1.3,0,1,1,0-2.6h17a1.3,1.3,0,0,1,0,2.6Zm0-9a1.3,1.3,0,1,1,0-2.6H92.3a1.3,1.3,0,0,1,0,2.6Zm0-9a1.3,1.3,0,1,1,0-2.6H92.3a1.3,1.3,0,0,1,0,2.6ZM13.672,54.935a3.388,3.388,0,0,1-3.378-3.38V22.009L.664,17.2a1.215,1.215,0,0,1-.538-.54,1.2,1.2,0,0,1,.538-1.608l9.629-4.814V3.378A3.387,3.387,0,0,1,13.672,0H92.6a3.387,3.387,0,0,1,3.38,3.379V51.557a3.387,3.387,0,0,1-3.38,3.379Zm-.981-3.379a.982.982,0,0,0,.98.98H92.6a.981.981,0,0,0,.979-.98V39.743H12.691ZM12.7,3.371v7.6a1.193,1.193,0,0,1-.664,1.074L3.88,16.119l8.149,4.073a1.2,1.2,0,0,1,.662,1.075V37.346h80.89V3.371a.982.982,0,0,0-.98-.98H13.676A.982.982,0,0,0,12.7,3.371Zm6.392,43.97a1.2,1.2,0,0,1,0-2.4h68.1a1.2,1.2,0,1,1,0,2.4Zm25.1-17.9a1.194,1.194,0,0,1-.574-1.024V11.326a1.2,1.2,0,0,1,1.2-1.2,1.178,1.178,0,0,1,.544.132L62.012,18.8a1.2,1.2,0,0,1,0,2.133L45.358,29.483a1.213,1.213,0,0,1-.549.131A1.191,1.191,0,0,1,44.185,29.44Zm1.823-2.984,12.834-6.582L46.008,13.291Z" transform="translate(25.699 25.7)"/></svg>