<svg xmlns="http://www.w3.org/2000/svg" width="169" height="169" viewBox="0 0 169 169"><defs><style>.a{fill:none;}.a,.d{stroke:rgba(0,0,0,0);stroke-miterlimit:10;}.b{fill:rgba(173,199,255,0.15);}.c{fill:rgba(173,199,255,0.5);}.d{fill:#37404f;}</style></defs><g transform="translate(0.5 0.5)"><rect class="a" width="168" height="168"/><circle class="b" cx="58" cy="58" r="58" transform="translate(8 8)"/><path class="c" d="M934.533,857H921.2a16,16,0,0,1,0-32h16a16,16,0,0,1,8,29.859V865Z" transform="translate(-819.2 -785)"/><path class="d" d="M1.279,102.029A1.281,1.281,0,0,1,0,100.751V83.368a10.2,10.2,0,0,1,5.122-8.833l3.7-2.11-.478-.464A12.687,12.687,0,0,1,4.533,63.9a.828.828,0,0,1,0-.125c-.022-.349-.052-.769-.052-.94V61.063c-.012-.333-.012-.648,0-.961A12.8,12.8,0,0,1,17.308,47.73c.159,0,.32,0,.48.009A12.844,12.844,0,0,1,30.153,61.044v1.788c0,.23,0,.463-.022.7a4.472,4.472,0,0,1-.026.448,12.727,12.727,0,0,1-3.678,7.846l-.43.428,2.939,1.98.289-.346a10.882,10.882,0,0,1,3.053-2.54l4.352-2.486-.5-.463A14.138,14.138,0,0,1,31.67,59.2a1,1,0,0,1,0-.173c-.027-.4-.061-.831-.061-1.013V56.026A14.019,14.019,0,0,1,33.654,48.7a14.283,14.283,0,0,1,26.573,7.321v2c0,.263,0,.53-.024.816a3.113,3.113,0,0,1-.026.468,14.122,14.122,0,0,1-4.747,9.359l-.582.512.706.319c.928.419,1.838.789,2.705,1.1a1.285,1.285,0,0,1,.282.14l.816.543a11.6,11.6,0,0,1,2.82,2.768l.263.364,3.474-1.973-.477-.464A12.644,12.644,0,0,1,61.643,63.9l-.025-.382c-.016-.26-.036-.553-.036-.68V61.057c-.011-.324-.011-.628,0-.933A12.8,12.8,0,0,1,74.409,47.736c.155,0,.31,0,.467.009A12.845,12.845,0,0,1,87.254,61.039v1.789a7.425,7.425,0,0,1-.028.751,2.567,2.567,0,0,1-.027.453,12.686,12.686,0,0,1-3.67,7.8l-.431.428L86.416,74.5a9.6,9.6,0,0,1,2.88,2.95,9.983,9.983,0,0,1,1.588,5.452v17.845a1.281,1.281,0,0,1-1.279,1.279Zm9.433-27.7a37.314,37.314,0,0,0-4.33,2.419,7.97,7.97,0,0,0-3.547,4.768,19.015,19.015,0,0,0-.31,4.28l.046,13.674,24.02,0-.078-14.291c-.016-2.972-.017-6.026,1.059-8.795l-3.756-2.53a12.9,12.9,0,0,1-12.182.462,1.078,1.078,0,0,0-.405-.141H11.2A1.1,1.1,0,0,0,10.712,74.33Zm25.177-2.144q-1.288.755-2.544,1.56-.292.186-.581.375a7.774,7.774,0,0,0-3.341,4.973,21.928,21.928,0,0,0-.329,4.724l.046,15.65h32.6l.024-16.833a13.4,13.4,0,0,0-.886-5.9,8.944,8.944,0,0,0-3.561-3.644,26.635,26.635,0,0,0-4.733-2.054,1.385,1.385,0,0,0-.355-.092,1.427,1.427,0,0,0-.661.175,14.389,14.389,0,0,1-12.61-.634.125.125,0,0,0-.061-.013A16.457,16.457,0,0,0,35.888,72.186ZM66.772,74.9a.889.889,0,0,1-.109.055l-3.038,1.727.12.383a1.685,1.685,0,0,0,.05.207,10.913,10.913,0,0,1,.319,1.3c.028.148.053.28.072.414a11.472,11.472,0,0,1,.13,1.639V99.468h24.01l-.014-16.561a7.436,7.436,0,0,0-1.179-4.069A7.113,7.113,0,0,0,85,76.643l-4.091-2.764-.266.14a12.6,12.6,0,0,1-9.321,1.212A13.471,13.471,0,0,1,68.493,74.2l-.247-.14ZM12.027,51.854a10.855,10.855,0,0,0-5.089,8.912A12.964,12.964,0,0,0,8.413,67.8a10.424,10.424,0,0,0,3.938,4.037,9.017,9.017,0,0,0,1.428.654,10.446,10.446,0,0,0,4.9.447,10.564,10.564,0,0,0,4.369-1.587,10.022,10.022,0,0,0,3.584-4.273,13.274,13.274,0,0,0,1.067-5.57,12.552,12.552,0,0,0-1.444-5.968,10.03,10.03,0,0,0-8.817-5.137A10.844,10.844,0,0,0,12.027,51.854Zm56.2.63a11.076,11.076,0,0,0-4.18,8.982,13.445,13.445,0,0,0,1.1,5.742,8.871,8.871,0,0,0,5.355,5,13.166,13.166,0,0,0,1.292.376,11.485,11.485,0,0,0,5.474.105,9.854,9.854,0,0,0,5.986-4.707,12.909,12.909,0,0,0,1.509-7.554,11.884,11.884,0,0,0-2.1-5.919,10.03,10.03,0,0,0-8.1-4.09A10.776,10.776,0,0,0,68.224,52.484ZM43.888,44.452a11.384,11.384,0,0,0-7.533,4.817,14.9,14.9,0,0,0-2.232,9.522,12.753,12.753,0,0,0,5.915,9.346q.159.1.324.187a11.591,11.591,0,0,0,15.764-4.6A14.705,14.705,0,0,0,56.209,50.4a11.681,11.681,0,0,0-10.3-6.129A11.579,11.579,0,0,0,43.888,44.452Zm37.492-.426L69.4,35.312H59.664a17.578,17.578,0,0,1-10.986-3.859l-.313-.252-.313.252A17.563,17.563,0,0,1,37.09,35.312H27.33L15.35,44.026a1.266,1.266,0,0,1-.752.245,1.28,1.28,0,0,1-1.279-1.279V32.064l-.206-.15A17.647,17.647,0,0,1,23.5,0H37.064a17.7,17.7,0,0,1,11,3.834l.311.247.311-.247A17.694,17.694,0,0,1,59.664,0H73.22A17.648,17.648,0,0,1,83.608,31.914l-.206.149V43a1.274,1.274,0,0,1-.7,1.141,1.29,1.29,0,0,1-.573.134A1.257,1.257,0,0,1,81.38,44.026ZM68.263,32.713a6.7,6.7,0,0,1,1.7.185,7.323,7.323,0,0,1,2.27,1.275l8.627,6.316-.009-8.176a3.328,3.328,0,0,1,.176-1.324A3.788,3.788,0,0,1,82.387,29.6,15.316,15.316,0,0,0,88.1,14.941,15.315,15.315,0,0,0,77.566,3.262c-3.453-1.011-7.13-.745-10.729-.735-.734,0-1.468-.007-2.2-.015-1.663-.02-3.327-.04-4.98.068a25.177,25.177,0,0,0-2.622.3A15.12,15.12,0,0,0,45.116,21.682a15.32,15.32,0,0,0,10.328,10.41,30.064,30.064,0,0,0,9.244.673c.971-.029,1.942-.057,2.909-.057Q67.93,32.708,68.263,32.713ZM23.491,2.588a24.718,24.718,0,0,0-2.623.282A15.1,15.1,0,0,0,8.479,18.953,15.271,15.271,0,0,0,14.585,29.8,3.248,3.248,0,0,1,15.7,30.9a2.94,2.94,0,0,1,.19,1.28l-.016,8.305,8.939-6.513a7.228,7.228,0,0,1,1.58-.957,6.832,6.832,0,0,1,2.575-.332,88.025,88.025,0,0,0,9.144,0,14.466,14.466,0,0,0,8.381-3.264,17.733,17.733,0,0,1,0-23.544,13.82,13.82,0,0,0-7.7-3.152,69.025,69.025,0,0,0-8.447-.158c-.727,0-1.455-.01-2.183-.021-.7-.01-1.4-.02-2.1-.02C25.2,2.522,24.344,2.538,23.491,2.588ZM64.069,24.31a1.647,1.647,0,0,1-1.2-.518L57.4,17.978a1.626,1.626,0,1,1,2.37-2.226L64.035,20.3l9.076-9.93a1.641,1.641,0,0,1,1.265-.6,1.557,1.557,0,0,1,.31.031,1.625,1.625,0,0,1,.845,2.738L65.255,23.773a1.63,1.63,0,0,1-1.184.536ZM18.147,19.564a1.279,1.279,0,1,1,0-2.558H35.875a1.279,1.279,0,0,1,0,2.558Z" transform="translate(38.5 32.5)"/></g></svg>