<svg xmlns="http://www.w3.org/2000/svg" width="169" height="169" viewBox="0 0 169 169"><defs><style>.a{fill:none;}.a,.d{stroke:rgba(0,0,0,0);stroke-miterlimit:10;}.b{fill:rgba(173,199,255,0.15);}.c{fill:rgba(173,199,255,0.5);}.d{fill:#37404f;}</style></defs><g transform="translate(0.5 0.5)"><rect class="a" width="168" height="168"/><circle class="b" cx="58" cy="58" r="58" transform="translate(8 8)"/><path class="c" d="M1031,872l40,40,12,4-4-12-40-40s-6.324-9.164-12-4S1031,872,1031,872Z" transform="translate(-993 -785)"/><path class="d" d="M98.079,103.666h0Zm-63.616,0a5.471,5.471,0,0,1-5.456-5.458V92.585H21.331a5.471,5.471,0,0,1-5.456-5.458v-28.6L1.95,44.595A7.1,7.1,0,0,1,12,34.568l3.877,3.878V5.457A5.471,5.471,0,0,1,21.333,0H84.946A5.473,5.473,0,0,1,90.4,5.458v5.624H98.08a5.468,5.468,0,0,1,5.455,5.457V98.21a5.47,5.47,0,0,1-5.456,5.456Zm-2.75-5.456a2.757,2.757,0,0,0,2.75,2.751H98.08a2.759,2.759,0,0,0,2.752-2.75V16.537a2.762,2.762,0,0,0-2.751-2.753H90.4V87.128a5.473,5.473,0,0,1-5.458,5.457H31.714ZM19.386,3.509a2.726,2.726,0,0,0-.8,1.948V41.152L53.719,76.288a1.339,1.339,0,0,1,.292.435L59.526,89.88h25.42A2.758,2.758,0,0,0,87.7,87.129V5.452A2.761,2.761,0,0,0,84.948,2.7H21.332A2.733,2.733,0,0,0,19.386,3.509Zm-.8,83.619a2.76,2.76,0,0,0,2.75,2.749H48.414l.272-1.346L44.11,86.613a1.363,1.363,0,0,1-.434-.292L18.581,61.227ZM47.018,84.9,56.1,88.707l-3.81-9.082ZM7.612,46.433,44.637,83.459l6.214-6.215L13.825,40.219ZM3.862,36.47a4.406,4.406,0,0,0,0,6.212L5.7,44.521l6.214-6.214L9.871,36.265H9.856a4.394,4.394,0,0,0-5.994.205ZM59.707,64.151a1.34,1.34,0,0,1-1.261-1.29,1.356,1.356,0,0,1,1.292-1.411H74.074a1.353,1.353,0,0,1-.015,2.7ZM40.4,54.007a1.352,1.352,0,0,1,.058-2.7h6.26a1.352,1.352,0,0,1-.058,2.7Zm19.3,0a1.34,1.34,0,0,1-1.261-1.291,1.355,1.355,0,0,1,1.292-1.41H74.074a1.352,1.352,0,0,1-.015,2.7ZM32.051,43.956a1.352,1.352,0,0,1,.068-2.7l41.953,0a1.339,1.339,0,0,1,1.26,1.292,1.354,1.354,0,0,1-1.291,1.409l-41.922,0ZM74.071,33.9a1.352,1.352,0,1,1,1.354-1.354A1.354,1.354,0,0,1,74.073,33.9Zm-41.952,0h-.057a1.352,1.352,0,0,1,.056-2.7h33.9a1.352,1.352,0,0,1-.058,2.7Zm-.057-10.057a1.352,1.352,0,0,1,.056-2.7l14.458,0a1.338,1.338,0,0,1,1.26,1.291,1.354,1.354,0,0,1-1.291,1.41H32.119Zm27.644-.005a1.34,1.34,0,0,1-1.261-1.291,1.355,1.355,0,0,1,1.292-1.41H74.074a1.338,1.338,0,0,1,1.26,1.292,1.352,1.352,0,0,1-1.277,1.409ZM32.062,13.782a1.352,1.352,0,0,1,.056-2.7l41.953,0a1.338,1.338,0,0,1,1.26,1.29,1.354,1.354,0,0,1-1.291,1.41H32.119Z" transform="translate(27.825 31.7)"/></g></svg>