<svg xmlns="http://www.w3.org/2000/svg" width="168" height="168" viewBox="0 0 168 168"><defs><style>.a{fill:none;}.b,.c{fill:#099e76;}.b{opacity:0.15;}.c{opacity:0.5;}.d{fill:#37404f;}</style></defs><rect class="a" width="168" height="168"/><circle class="b" cx="58" cy="58" r="58" transform="translate(8 8)"/><rect class="a" width="127.56" height="127.56" transform="translate(20.08 20.22)"/><path class="c" d="M60,43.65s4.76,0,4.2,7.58c-.17,2.27-.1,2.47,1.08,3.49.61,1,14.36,0,14.36,0h36.49s8.63.19,9.73-.69.6-4.08.6-4.08a6.26,6.26,0,0,0-3.39-6.3c-3.89-1.55-19.63-.6-19.63-.6Z"/><rect class="c" width="12.27" height="12.27" rx="2.45" transform="translate(65.46 88.02)"/><rect class="c" width="12.27" height="12.27" rx="2.45" transform="translate(65.46 65.95)"/><rect class="c" width="12.27" height="12.27" rx="2.45" transform="translate(65.46 107.65)"/><path class="d" d="M114.28,97.76V54.56h5.89a2.94,2.94,0,0,0,2.94-2.94h0V47.2a7.37,7.37,0,0,0-7.36-7.36H53.93a4.41,4.41,0,0,0-4.41,4.42h0v79.48a4.41,4.41,0,0,0,4.41,4.42H85.82m14.8,0h9.24a4.42,4.42,0,0,0,4.42-4.42v-8.83m1.47-72.12a4.42,4.42,0,0,1,4.42,4.41v4.42H61.29V47.2a7.2,7.2,0,0,0-1.51-4.41ZM86.87,125.21H53.93a1.47,1.47,0,0,1-1.47-1.47V44.26a1.47,1.47,0,0,1,1.47-1.47h0a4.42,4.42,0,0,1,4.42,4.41h0v4.42a2.94,2.94,0,0,0,2.94,2.94h50v46.19m0,15.89v7.1a1.47,1.47,0,0,1-1.47,1.47h-6.38"/><path class="d" d="M63.75,76.64h8.83a2.94,2.94,0,0,0,2.94-2.94V72.23a1.47,1.47,0,0,0-2.94,0h0V73.7H63.75V64.87h4.41a1.5,1.5,0,0,0,0-3H63.75a3,3,0,0,0-3,3V73.7a3,3,0,0,0,3,2.94Z"/><path class="d" d="M63.75,97.25h8.83a3,3,0,0,0,2.94-3V85.47a2.94,2.94,0,0,0-2.94-2.94H63.75a3,3,0,0,0-3,2.941V94.3A3,3,0,0,0,63.75,97.25Zm0-11.78h8.83V94.3H63.75Z"/><path class="d" d="M63.75,117.85h8.83a2.94,2.94,0,0,0,2.94-2.94h0v-8.84a2.94,2.94,0,0,0-2.94-2.94H63.75a3,3,0,0,0-3,2.941h0v8.84A3,3,0,0,0,63.75,117.85Zm0-11.77h8.83v8.83H63.75Z"/><path class="d" d="M102,88.91H87.29a1.47,1.47,0,0,0,0,2.94H102a1.47,1.47,0,1,0,0-2.94Z"/><path class="d" d="M102,69.28H87.29a1.5,1.5,0,0,0,0,3H102a1.5,1.5,0,0,0,0-3Z"/><path class="d" d="M102,108.53H87.29a1.47,1.47,0,1,0,0,2.94H102a1.47,1.47,0,1,0,0-2.94Z"/><path class="d" d="M67.73,66.77a1.471,1.471,0,0,0-2.08,2.08l2.94,2.94a1.51,1.51,0,0,0,1,.44h.12a1.49,1.49,0,0,0,1.08-.62l7.36-10.3a1.48,1.48,0,1,0-2.4-1.72h0l-6.34,8.89Z"/><path class="c" d="M83.51,132.41,124.9,91.07s4.47-4.32,8.58.13c3.59,3.88-.52,7.6-.52,7.6L91.44,140.55l-13,5.26Z"/><path class="a" d="M123.79,86.48v-.01l1.95-1.95Z"/><path class="a" d="M129.79,84.29h0a4.394,4.394,0,1,1,6,6.42L134,92.55l-6.21-6.21Z"/><path class="a" d="M92.64,132.93l-9.08,3.81,3.81-9.08Z"/><rect class="a" width="52.36" height="8.79" transform="translate(88.813 125.255) rotate(-45)"/><path class="d" d="M85.65,124.75l-5.49,13.1L78.37,142l4.23-1.59L91,136.6h0l1.29-.54L96,134.35l25.09-25.09h0l3.82-3.82,12.81-12.82a7.1,7.1,0,0,0-10.05-10l-1.9,1.9h0l-1.95,2h0L113.53,96.73h0L85.94,124.32a1.42,1.42,0,0,0-.29.43ZM134,92.55l-6.21-6.21,2-2h0a4.394,4.394,0,1,1,6,6.42ZM95,131.49l-6.22-6.22,37-37,6.21,6.21Zm-11.47,5.25,3.81-9.09,5.28,5.28Z"/></svg>