<svg xmlns="http://www.w3.org/2000/svg" width="168" height="168" viewBox="0 0 168 168"><defs><style>.a{fill:none;}.b{fill:rgba(9,158,118,0.15);}.c{fill:rgba(9,158,118,0.5);}.d{fill:#37404f;}</style></defs><rect class="a" width="168" height="168"/><circle class="b" cx="58" cy="58" r="58" transform="translate(8 8)"/><circle class="c" cx="6" cy="6" r="6" transform="translate(39.209 120)"/><circle class="c" cx="6" cy="6" r="6" transform="translate(79.209 60)"/><circle class="c" cx="6.5" cy="6.5" r="6.5" transform="translate(78.209 136)"/><circle class="c" cx="6.5" cy="6.5" r="6.5" transform="translate(136.209 79)"/><circle class="c" cx="7" cy="7" r="7" transform="translate(79.209 97)"/><circle class="c" cx="6" cy="6" r="6" transform="translate(40.209 42)"/><circle class="c" cx="7" cy="7" r="7" transform="translate(119.209 119)"/><path class="d" d="M374.737,932.3a7.653,7.653,0,0,1-7.548-6.358l-.065-.376L339.587,913.9l-.317.223a7.673,7.673,0,0,1-10.64-10.758l.213-.3-9.666-27.5-.4-.074a7.7,7.7,0,0,1-6.167-6.267,7.673,7.673,0,0,1,6.289-8.842l.364-.062,11.8-25.584-.327-.345a7.677,7.677,0,0,1,10.992-10.718l.345.344,25.052-11.558.062-.363a7.693,7.693,0,0,1,6.2-6.271,7.786,7.786,0,0,1,1.369-.122,7.659,7.659,0,0,1,7.54,6.312l.07.388,25.8,9.92,1.206.378a7.67,7.67,0,0,1,10.7,10.445l.3,1.277,11.953,25.9.365.062a7.669,7.669,0,0,1,.05,15.117l-.381.066-11.292,27.538.22.314a7.674,7.674,0,0,1-6.285,12.086h0a7.629,7.629,0,0,1-4.4-1.393l-.316-.222L382.37,925.563l-.065.377a7.692,7.692,0,0,1-6.243,6.243A7.776,7.776,0,0,1,374.737,932.3Zm.012-12.592a4.9,4.9,0,1,0,4.9,4.9A4.905,4.905,0,0,0,374.749,919.706Zm4.537-26.689a7.6,7.6,0,0,1-2.612,1.238l-.526.135v22.664l.523.136a7.7,7.7,0,0,1,5.263,4.745l.254.68,26.155-10.943-.3-.657a7.7,7.7,0,0,1-.026-6.348l.3-.671L379.6,892.789Zm-36.835,13.63.049.482.034.268a3.34,3.34,0,0,1,.039.425,7.683,7.683,0,0,1-.725,3.208l-.309.659L367.312,922.6l.257-.682a7.7,7.7,0,0,1,5.268-4.729l.525-.135V894.386l-.529-.133a7.572,7.572,0,0,1-2.5-1.137l-.341-.238Zm72.56-3.731a4.9,4.9,0,0,0-3.463,8.367,5,5,0,0,0,6.912.012,4.9,4.9,0,0,0-3.449-8.379Zm-80.13,0a4.9,4.9,0,0,0-3.462,8.367,5,5,0,0,0,6.912.012l.042-.04.04-.051a4.776,4.776,0,0,0,1.369-3.392,4.9,4.9,0,0,0-4.9-4.9Zm-.006-2.7a7.868,7.868,0,0,1,5.456,2.184,7.523,7.523,0,0,1,.878,1.069l.344.508L368.1,890.7l-.3-.621a7.5,7.5,0,0,1-.165-6.141l.29-.7-40.27-13.419-.227.653a7.647,7.647,0,0,1-4.685,4.709l-.658.233,9.039,25.707.686-.29A7.859,7.859,0,0,1,334.875,900.21Zm46.713-16.942.288.7a7.625,7.625,0,0,1-.063,5.9l-.29.667,28.756,11.224.3-.2a7.994,7.994,0,0,1,7.61-.674l.656.284L429.422,875.4l-.677-.253a7.665,7.665,0,0,1-4.583-4.7l-.223-.646Zm-7.813-1.231a4.866,4.866,0,1,0,.972-.1h-1.011Zm5.6-26.86a7.571,7.571,0,0,1-2.692,1.306l-.524.137v22.226l.155.467.371.106a7.558,7.558,0,0,1,2.69,1.307l.29.219,40.828-12.994-40.828-12.994ZM330.9,867.949l38.949,12.981.294-.222a7.571,7.571,0,0,1,2.676-1.293l.525-.136V856.618l-.525-.136a7.577,7.577,0,0,1-2.676-1.292l-.294-.221Zm-10.709-4.9a4.9,4.9,0,1,0,4.9,4.9A4.905,4.905,0,0,0,320.194,863.051Zm110.691,9.793.522.005a4.952,4.952,0,1,0-.531-.034Zm-48.516-22.9-.052.346a7.662,7.662,0,0,1-.445,1.656l-.272.7,42.345,13.471.222-.648a7.681,7.681,0,0,1,4.486-4.675l.693-.27-11.529-24.973-.66.37a7.485,7.485,0,0,1-7.637-.192l-.346-.217Zm-60.117,10.582.694.27a7.683,7.683,0,0,1,4.481,4.646l.226.653,40.258-13.412-.272-.688a7.675,7.675,0,0,1-.464-1.761l-.045-.327-25.152-15.486-.391.377a7.426,7.426,0,0,1-7.539,1.684l-.6-.2Zm47.606-11.239a4.78,4.78,0,1,0-.011-.225v.208Zm12.03-33.108a7.683,7.683,0,0,1-5.217,4.637l-.523.136v20.57l.526.134a7.732,7.732,0,0,1,5.193,4.514l.3.717,24.962-13.464-.349-.621a7.353,7.353,0,0,1-.04-7.184l.385-.7-25.408-9.771Zm-38.347,10.263.171.58a7.622,7.622,0,0,1-.055,4.515l-.168.524,23.88,14.7.323-.736a7.668,7.668,0,0,1,5.134-4.373l.525-.135V820.947l-.524-.136a7.713,7.713,0,0,1-5.238-4.661l-.269-.694Zm-10.69-.7a4.832,4.832,0,0,0-1.408,3.469,4.888,4.888,0,0,0,1.465,3.444,5,5,0,0,0,6.911.009,4.9,4.9,0,0,0-6.68-7.145h-.047Zm80.789-1.571a5.018,5.018,0,0,0-3.581,8.481,5,5,0,0,0,6.912.012c.089-.082.18-.173.268-.268a4.9,4.9,0,0,0-3.6-8.225ZM374.75,808.5a4.9,4.9,0,1,0,4.9,4.9A4.905,4.905,0,0,0,374.75,808.5Z" transform="translate(-291.791 -784.709)"/><path class="d" d="M336.364,837.573" transform="translate(-291.791 -785)"/></svg>