<svg xmlns="http://www.w3.org/2000/svg" width="168" height="168" viewBox="0 0 168 168"><defs><style>.a{fill:none;}.b{fill:rgba(9,158,118,0.15);}.c{fill:rgba(9,158,118,0.5);}.d{fill:#37404f;}</style></defs><rect class="a" width="168" height="168"/><circle class="b" cx="58" cy="58" r="58" transform="translate(8 8)"/><rect class="c" width="49" height="49" rx="7" transform="translate(53 62)"/><path class="d" d="M72.363,104.782h0Zm-62.133,0A10.258,10.258,0,0,1,0,94.552V19.108A10.259,10.259,0,0,1,10.235,8.877H11.1V8.014A8.022,8.022,0,0,1,19.108,0c.142,0,.285,0,.427.011a8.16,8.16,0,0,1,7.575,8.02l.017.846h6.155V5.8A5.8,5.8,0,0,1,39.078,0H98.991a5.8,5.8,0,0,1,5.8,5.793V87.9A5.8,5.8,0,0,1,99,93.69H82.6v.863a10.26,10.26,0,0,1-10.232,10.229ZM2.714,19.108v75.44a7.529,7.529,0,0,0,7.521,7.521h62.13a7.53,7.53,0,0,0,7.519-7.516V26.629H82.6V42.162h3.087A7.53,7.53,0,0,0,93.2,34.641V19.109a7.529,7.529,0,0,0-7.521-7.521H27.121V32.422a7.967,7.967,0,0,1-7.894,7.88l-.122,0A8.043,8.043,0,0,1,11.1,32.41V17.751h2.711V32.422a5.3,5.3,0,1,0,10.6,0V11.589H10.235A7.53,7.53,0,0,0,2.714,19.108ZM82.6,90.98H99a3.087,3.087,0,0,0,3.083-3.084V5.8a3.1,3.1,0,0,0-3.085-3.083H39.077A3.086,3.086,0,0,0,35.994,5.8V8.877H85.682a10.259,10.259,0,0,1,10.23,10.232V34.641a10.259,10.259,0,0,1-10.23,10.231H82.6V57.694H93.69V60.4H82.6V68.79H93.69V71.5H82.6v8.384H93.69v2.71H82.6ZM15.462,4.162a5.273,5.273,0,0,0-1.653,3.857l0,.858H24.431l-.047-.907a5.532,5.532,0,0,0-4.94-5.254c-.142-.008-.237-.01-.332-.01A5.3,5.3,0,0,0,15.462,4.162ZM35.507,95.907V93.2h2.71v2.71Zm-26.628,0V93.2H29.341v2.71Zm0-8.875v-2.71H20.465v2.71ZM21.329,73.717a5.8,5.8,0,0,1-5.794-5.793V46.6h2.711V67.924a3.086,3.086,0,0,0,3.083,3.083H61.27a3.086,3.086,0,0,0,3.083-3.083V30.2A3.086,3.086,0,0,0,61.27,27.12H33.287v-2.71H61.27A5.8,5.8,0,0,1,67.063,30.2V67.924a5.8,5.8,0,0,1-5.794,5.793ZM53.215,62.624a9.768,9.768,0,0,0-9.7-8.876H39.077a9.77,9.77,0,0,0-9.7,8.876H26.656a12.371,12.371,0,0,1,9.472-11.217l1.756-.427-1.437-1.1a8.013,8.013,0,1,1,9.7,0l-1.435,1.1,1.754.43a12.372,12.372,0,0,1,9.464,11.215ZM36,43.517a5.3,5.3,0,1,0,5.3-5.3A5.308,5.308,0,0,0,36,43.517Z" transform="translate(31.212 32)"/></svg>