<svg xmlns="http://www.w3.org/2000/svg" width="168" height="168" viewBox="0 0 168 168"><defs><style>.a{fill:none;}.b{fill:rgba(9,158,118,0.15);}.c{fill:rgba(9,158,118,0.5);}.d{fill:#37404f;}</style></defs><rect class="a" width="168" height="168"/><circle class="b" cx="58" cy="58" r="58" transform="translate(8 8)"/><rect class="c" width="32" height="16" rx="2" transform="translate(46 106.239)"/><path class="c" d="M579.6,851.24c-.954,5.327-10.026,12-10.026,12V841s9.2,4.118,10.026,8.9c.824-4.783,10.026-8.9,10.026-8.9v22.239S580.556,856.567,579.6,851.24Z" transform="translate(-467.6 -785)"/><path class="d" d="M54.883,95.371a8.138,8.138,0,0,0-6.8-3.65H1.375A1.377,1.377,0,0,1,0,90.345V1.375A1.377,1.377,0,0,1,1.375,0h46.7a10.862,10.862,0,0,1,7.471,2.956l.48.452.48-.452A10.852,10.852,0,0,1,63.967,0h46.712a1.377,1.377,0,0,1,1.375,1.375v88.97a1.377,1.377,0,0,1-1.375,1.375h-46.7a8.141,8.141,0,0,0-6.8,3.651,1.346,1.346,0,0,1-.383.382,1.371,1.371,0,0,1-1.907-.383ZM2.75,88.975H48.085a10.859,10.859,0,0,1,7.459,2.954l.479.451.48-.451a10.857,10.857,0,0,1,7.459-2.954H109.3V2.753H63.979a8.137,8.137,0,0,0-6.806,3.654,1.326,1.326,0,0,1-.383.383,1.356,1.356,0,0,1-.759.231,1.375,1.375,0,0,1-1.148-.615,8.135,8.135,0,0,0-6.8-3.654H2.75Zm51.9-5.067V30.547a1.375,1.375,0,0,1,2.75,0v53.36a1.375,1.375,0,0,1-2.75,0Zm-42.2-3.257a1.377,1.377,0,0,1-1.375-1.375V62.249a1.376,1.376,0,0,1,1.375-1.373H44.955A1.376,1.376,0,0,1,46.33,62.25V79.276a1.377,1.377,0,0,1-1.375,1.375ZM13.819,77.9H43.581V63.626H13.819Zm50.505-5.293a1.378,1.378,0,0,1-1.371-1.372,1.375,1.375,0,0,1,1.372-1.377H80.581a1.375,1.375,0,0,1,1.378,1.377,1.377,1.377,0,0,1-1.374,1.372Zm0-8.56a1.376,1.376,0,0,1,0-2.751H96.836a1.376,1.376,0,0,1,0,2.751Zm0-8.3a1.375,1.375,0,0,1,0-2.75H96.836a1.375,1.375,0,0,1,0,2.75ZM12.968,48.76a1.375,1.375,0,1,1,0-2.75H29.224a1.375,1.375,0,1,1,0,2.75Zm51.356-1.312a1.376,1.376,0,0,1-1.371-1.372A1.377,1.377,0,0,1,64.326,44.7H96.836a1.374,1.374,0,0,1,0,2.749Zm-51.88-7.687a1.375,1.375,0,1,1,0-2.75H44.955a1.375,1.375,0,1,1,0,2.75Zm51.888-.612a1.376,1.376,0,1,1-.007-2.751h.124a11.944,11.944,0,0,0,4.828-1.013l.418-.185V15.018l-.418-.185a11.944,11.944,0,0,0-4.833-1.013h-.124a1.375,1.375,0,0,1,.007-2.75h.159a14.439,14.439,0,0,1,7.126,1.884,1.858,1.858,0,0,1,.254.145c3.5,2.1,6.076,5.521,8.134,8.6l.582.869.581-.869c2.059-3.075,4.63-6.5,8.091-8.57a1.645,1.645,0,0,1,.255-.15,14.511,14.511,0,0,1,7.169-1.907h.153a1.375,1.375,0,1,1,.007,2.75h-.116a11.939,11.939,0,0,0-4.834,1.013l-.419.185V35.2l.419.183a11.927,11.927,0,0,0,4.833,1.015h.125a1.375,1.375,0,0,1-.008,2.75h-.166a14.454,14.454,0,0,1-7.113-1.876,1.809,1.809,0,0,1-.261-.15c-3.513-2.108-6.08-5.527-8.137-8.6l-.581-.868L80,28.522c-2.059,3.075-4.631,6.5-8.093,8.57a1.831,1.831,0,0,1-.252.15,14.506,14.506,0,0,1-7.169,1.908Zm8.113-5.594,1.216-1.331a43.033,43.033,0,0,0,5.052-6.752l.219-.362-.219-.363A43.118,43.118,0,0,0,73.66,18l-1.216-1.329ZM87.5,18a43.185,43.185,0,0,0-5.051,6.748l-.219.364.219.362A43.233,43.233,0,0,0,87.5,32.223l1.218,1.331V16.667ZM12.443,30.76a1.375,1.375,0,1,1,0-2.75H44.955a1.375,1.375,0,1,1,0,2.75Zm42.2-8.514v-8.3a1.375,1.375,0,1,1,2.75,0v8.3a1.375,1.375,0,0,1-2.75,0Zm-42.2.515a1.375,1.375,0,0,1,0-2.75H44.955a1.375,1.375,0,0,1,0,2.75Zm0-9a1.375,1.375,0,0,1,0-2.75H44.955a1.375,1.375,0,0,1,0,2.75Z" transform="translate(27.7 38.698)"/></svg>