<svg xmlns="http://www.w3.org/2000/svg" width="40" height="29.896" viewBox="0 0 40 29.896"><defs><style>.a{fill:#fff;}</style></defs><path class="a" d="M543.287,413.537a1.2,1.2,0,0,1-1.037-.6l-.195-.336-.178.319a1.2,1.2,0,0,1-1.046.612h-7.865a1.2,1.2,0,0,0-1.384,0h-5.433a1.2,1.2,0,0,1-1.2-1.19v-3.531a1.2,1.2,0,0,1-.847.35h-1.222v3.182a1.2,1.2,0,0,1-1.2,1.19h-2.574a1.2,1.2,0,0,1-1.2-1.19v-11.52a1.2,1.2,0,0,1,1.2-1.19h5.433a1.2,1.2,0,0,0,1.6,0h2.574a1.2,1.2,0,0,1,1.2,1.19V408.6h1.662a1.213,1.213,0,0,1,.187.014v-7.567a1.2,1.2,0,0,1,1.2-1.19h7.865a1.2,1.2,0,0,1,1.046.612l.178.319.195-.336a1.2,1.2,0,0,1,1.037-.6h3.863a1.2,1.2,0,0,1,1.032.586,1.188,1.188,0,0,1,.015,1.181L545.36,406.7l2.836,5.073a1.188,1.188,0,0,1-.015,1.181,1.2,1.2,0,0,1-1.032.586Zm-.178-1.3a.31.31,0,0,0,.269.155h3.229a.311.311,0,0,0,.271-.462l-2.921-5.256,2.921-5.256a.311.311,0,0,0-.271-.462h-3.229a.311.311,0,0,0-.269.155l-1.142,1.98-1.1-1.976a.311.311,0,0,0-.271-.16h-7.423a.311.311,0,0,0-.311.311v10.814a.311.311,0,0,0,.311.311H540.6a.311.311,0,0,0,.271-.16l1.1-1.976Zm-17.063-11.189v11.034a.311.311,0,0,0,.311.311h4.876a.311.311,0,0,0,.311-.311v-2.018a.311.311,0,0,0-.311-.311h-2.548v-8.706a.311.311,0,0,0-.311-.311h-2.018A.311.311,0,0,0,526.046,401.052Zm-7.037,0v11.034a.311.311,0,0,0,.311.311h2.018a.311.311,0,0,0,.311-.311V408h2.108a.311.311,0,0,0,.311-.311V405.67a.311.311,0,0,0-.311-.311h-2.108V403.38H524.2a.311.311,0,0,0,.311-.311v-2.018a.311.311,0,0,0-.311-.311H519.32A.311.311,0,0,0,519.009,401.052Zm17.531,10.469a.383.383,0,0,1-.388-.385v-8.863a.384.384,0,0,1,.669-.258l3.47,3.836a.862.862,0,0,1,.037,1.114l-3.491,4.409a.375.375,0,0,1-.3.147ZM513.308,396.7a.311.311,0,0,1-.138-.434l.881-1.563a.311.311,0,0,1,.392-.133,5.327,5.327,0,0,0,2.03.443,2,2,0,0,0,1.774-.758,1.438,1.438,0,0,0-.123-1.753,6.436,6.436,0,0,0-1.576-.984c-1.812-.925-3.471-2.175-3.159-4.44a4.163,4.163,0,0,1,1.809-2.927,6.57,6.57,0,0,1,4.859-.075.311.311,0,0,1,.207.4c-.149.43-.417,1.211-.568,1.652a.31.31,0,0,1-.392.193,4.709,4.709,0,0,0-2.112-.2c-.682.153-1.361.477-1.475,1.165a1.375,1.375,0,0,0,.476,1.2,6.116,6.116,0,0,0,1.525.926,8.377,8.377,0,0,1,2.215,1.451,3.463,3.463,0,0,1,1.027,2.721l2.539-9.489a.311.311,0,0,1,.3-.23h1.775a.311.311,0,0,1,.3.231l3.045,11.453V383.952a.311.311,0,0,1,.311-.311h.228a.311.311,0,0,1,.252.129l5.137,7.144-.014-6.729a.31.31,0,0,1,.311-.311H537a.311.311,0,0,1,.311.31l.012,11.228,3.025-11.307a.309.309,0,0,1,.084-.143l-.023-.087h2.013a.31.31,0,0,1,.3.231l3.037,11.423V384.185a.311.311,0,0,1,.311-.311h2.919a3.8,3.8,0,0,1,3.289,1.573,5.567,5.567,0,0,1-.07,6.018,3.47,3.47,0,0,1-.516.548l1.308,4.9a.311.311,0,0,1-.3.391h-1.918a.311.311,0,0,1-.3-.232l-1.071-4.094q-.151.021-.3.034c-.166.014-.337.021-.509.021s-.34-.007-.509-.02V397a.311.311,0,0,1-.311.311h-3.637a.311.311,0,0,1-.3-.232l-.676-2.506h-3.286l-.654,2.506a.311.311,0,0,1-.3.232h-2.661a.311.311,0,0,1-.252-.129l-4.773-6.627L531.25,397a.311.311,0,0,1-.311.311H527.3a.311.311,0,0,1-.3-.232l-.676-2.506h-3.286l-.654,2.506a.311.311,0,0,1-.3.232h-1.707a.311.311,0,0,1-.3-.391l.439-1.64a3.984,3.984,0,0,1-1.047,1.266,4.691,4.691,0,0,1-2.909,1h-.027A7.706,7.706,0,0,1,513.308,396.7Zm27.18-4.453h2.056l-1.045-3.874Zm-16.851,0h2.056l-1.045-3.874Zm24.454-5.607v3.466s1.341.242,1.926-.329a2,2,0,0,0,0-2.856,2.156,2.156,0,0,0-1.311-.316A5.413,5.413,0,0,0,548.092,386.646Z" transform="translate(-513.13 -383.642)"/></svg>