<svg xmlns="http://www.w3.org/2000/svg" xmlns:xlink="http://www.w3.org/1999/xlink" width="103.996" height="19.818" viewBox="0 0 103.996 19.818"><defs><style>.a{fill:#5a6275;}.b{clip-path:url(#a);}.c{clip-path:url(#b);}</style><clipPath id="a"><path class="a" d="M103.781-18.4l-4.066-7.233,4.066-7.232a1.686,1.686,0,0,0-.021-1.684,1.726,1.726,0,0,0-1.479-.836H96.744a1.724,1.724,0,0,0-1.486.849l-.279.478-.256-.455a1.72,1.72,0,0,0-1.5-.873H81.95a1.708,1.708,0,0,0-1.716,1.7V-22.9a1.739,1.739,0,0,0-.268-.021H77.584V-34a1.708,1.708,0,0,0-1.716-1.7h-3.69a1.719,1.719,0,0,0-1.149.438A1.72,1.72,0,0,0,69.88-35.7H62.093A1.708,1.708,0,0,0,60.377-34v16.424a1.708,1.708,0,0,0,1.716,1.7h3.69a1.708,1.708,0,0,0,1.716-1.7v-4.536h1.751a1.72,1.72,0,0,0,1.213-.5v5.034a1.708,1.708,0,0,0,1.716,1.7h7.787a1.72,1.72,0,0,0,.992-.313,1.72,1.72,0,0,0,.992.313H93.223a1.72,1.72,0,0,0,1.5-.872l.256-.455.279.478a1.724,1.724,0,0,0,1.486.849h5.536a1.726,1.726,0,0,0,1.479-.836A1.686,1.686,0,0,0,103.781-18.4ZM69.826-30.8a.444.444,0,0,1-.445.443H65.728v2.822H68.75a.444.444,0,0,1,.445.443v2.877a.444.444,0,0,1-.445.443H65.728v5.828a.444.444,0,0,1-.445.443H62.391a.444.444,0,0,1-.445-.443V-33.681a.444.444,0,0,1,.445-.443h6.99a.444.444,0,0,1,.445.443ZM79.912-17.949a.444.444,0,0,1-.445.443h-6.99a.444.444,0,0,1-.445-.443V-33.681a.444.444,0,0,1,.445-.443h2.892a.444.444,0,0,1,.445.443v12.412h3.652a.444.444,0,0,1,.445.443Zm21.591.443H96.875a.446.446,0,0,1-.386-.221l-1.637-2.823-1.574,2.817a.446.446,0,0,1-.39.228H82.248a.444.444,0,0,1-.445-.443V-33.367a.444.444,0,0,1,.445-.443h10.64a.446.446,0,0,1,.39.228l1.574,2.817,1.637-2.823a.446.446,0,0,1,.386-.221H101.5a.443.443,0,0,1,.39.658L97.7-25.658l4.187,7.494A.443.443,0,0,1,101.5-17.506Zm-14.026-14.8a.551.551,0,0,0-.96.368V-19.3a.551.551,0,0,0,.983.34l5-6.287a1.225,1.225,0,0,0-.053-1.588Zm-31.46,7.767a7.9,7.9,0,0,0,.1-8.58A5.452,5.452,0,0,0,51.4-35.364H47.217a.444.444,0,0,0-.445.443v16.172L42.419-35.035a.445.445,0,0,0-.43-.329H39.1l.032.124a.441.441,0,0,0-.121.2L34.679-18.914l-.018-16.007a.444.444,0,0,0-.445-.443H31.554a.446.446,0,0,0-.315.13.442.442,0,0,0-.13.314l.02,9.594L23.766-35.512A.446.446,0,0,0,23.4-35.7h-.327a.444.444,0,0,0-.445.443v16.548L18.267-35.035a.445.445,0,0,0-.43-.329H15.293a.445.445,0,0,0-.43.328L11.224-21.507a4.923,4.923,0,0,0-1.472-3.88,12.032,12.032,0,0,0-3.175-2.069,8.769,8.769,0,0,1-2.186-1.32,1.955,1.955,0,0,1-.682-1.717c.164-.981,1.137-1.443,2.115-1.661a6.782,6.782,0,0,1,3.027.286.446.446,0,0,0,.563-.274c.217-.629.6-1.742.814-2.355a.441.441,0,0,0-.026-.349.445.445,0,0,0-.272-.222c-2.256-.654-4.8-1.01-6.965.106A5.933,5.933,0,0,0,.373-30.788C-.075-27.559,2.3-25.776,4.9-24.458a9.237,9.237,0,0,1,2.259,1.4,2.041,2.041,0,0,1,.176,2.5,2.875,2.875,0,0,1-2.544,1.081,7.671,7.671,0,0,1-2.91-.632.446.446,0,0,0-.562.19L.058-17.689a.441.441,0,0,0-.036.352.444.444,0,0,0,.234.266,11.093,11.093,0,0,0,4.614,1.193h.039A6.747,6.747,0,0,0,9.077-17.3a5.7,5.7,0,0,0,1.5-1.8L9.95-16.768a.441.441,0,0,0,.077.384.446.446,0,0,0,.353.173h2.447a.445.445,0,0,0,.431-.331l.937-3.573H18.9l.969,3.573a.445.445,0,0,0,.431.331h5.223a.444.444,0,0,0,.445-.443l-.009-9.189L32.8-16.394a.446.446,0,0,0,.361.184h3.814a.445.445,0,0,0,.431-.331l.937-3.573h4.71l.969,3.573a.445.445,0,0,0,.431.331h5.212a.444.444,0,0,0,.445-.443v-5.675c.243.019.487.029.73.029s.492-.01.729-.03q.217-.018.433-.048l1.535,5.837a.445.445,0,0,0,.431.331h2.75a.446.446,0,0,0,.353-.173.441.441,0,0,0,.077-.384L55.277-23.76a4.95,4.95,0,0,0,.739-.781ZM15.061-23.419l1.448-5.523,1.5,5.523Zm24.152,0,1.448-5.523,1.5,5.523Zm13.658-3.52c-.838.814-2.76.468-2.76.468v-4.942s2.016-.255,2.76.4A2.835,2.835,0,0,1,52.871-26.939Z" transform="translate(0 35.696)"/></clipPath><clipPath id="b"><path class="a" d="M-126,1267.03H1072.071V-60H-126Z" transform="translate(126 60)"/></clipPath></defs><g transform="translate(0 35.696)"><g class="b" transform="translate(0 -35.696)"><g class="c" transform="translate(-104.831 -20.221)"><path class="a" d="M-5-40.7H107.316v28.138H-5Z" transform="translate(105.671 56.757)"/></g></g></g></svg>