<svg xmlns="http://www.w3.org/2000/svg" width="46.116" height="74.696" viewBox="0 0 46.116 74.696"><defs><style>.a{fill:#fafcfd;}</style></defs><g transform="translate(0.564 1.61)"><path class="a" d="M10.674,52.981h-.319a.367.367,0,0,0-.409.409v1.054c0,1.3.748,1.789,2.043,1.789h.025c1.3,0,2.043-.5,2.043-1.789V53.251c0-.817-.466-1.238-1.2-1.654l-1.115-.613c-.49-.282-.674-.466-.674-.98v-.588c0-.686.331-.956.919-.956s.919.27.919.956v.76a.367.367,0,0,0,.409.409h.319a.367.367,0,0,0,.409-.409v-.956c0-1.238-.858-1.765-2.034-1.765h-.025c-1.176,0-2.034.527-2.034,1.765V50.3c0,.817.417,1.189,1.2,1.642l1.1.613c.5.282.686.5.686,1.021v.674c0,.674-.331.98-.931.98s-.931-.306-.931-.98V53.39A.359.359,0,0,0,10.674,52.981ZM15.7,47.552a.367.367,0,0,0-.409.409v7.77a.367.367,0,0,0,.409.409h.343a.368.368,0,0,0,.409-.409V47.957a.368.368,0,0,0-.409-.409Zm-2,20.017a.367.367,0,0,0,.409-.409V59.395a.367.367,0,0,0-.409-.409h-.392a.437.437,0,0,0-.453.331l-1.736,5-1.716-5a.45.45,0,0,0-.466-.331H8.591a.367.367,0,0,0-.409.409v7.77a.367.367,0,0,0,.409.409h.257a.373.373,0,0,0,.417-.409V61.736l1.422,4.179a.421.421,0,0,0,.441.331.4.4,0,0,0,.429-.331l1.43-4.179v5.429a.368.368,0,0,0,.409.409Zm3.542-9.255h.037a.592.592,0,0,0,.49-.233l.748-.931c.221-.27.1-.49-.245-.49h-.38a.48.48,0,0,0-.478.294l-.462.9C16.814,58.12,16.937,58.314,17.243,58.314ZM3.223,52.442a1.6,1.6,0,0,0,1-1.642V49.37c0-1.262-.784-1.814-2.083-1.814H.409A.367.367,0,0,0,0,47.965v7.77a.367.367,0,0,0,.409.409H.748a.368.368,0,0,0,.409-.409V52.614h1L3.239,55.8a.425.425,0,0,0,.453.331h.343a.327.327,0,0,0,.343-.466Zm-.147-1.851c0,.76-.343,1.021-.98,1.021H1.152V48.569H2.1c.637,0,.98.257.98,1.021Zm6.1,5.135v-.2a.361.361,0,0,0-.409-.409H6.679V52.295H8.358a.367.367,0,0,0,.409-.409v-.221a.367.367,0,0,0-.409-.409H6.679v-2.7H8.738a.361.361,0,0,0,.409-.409v-.2a.367.367,0,0,0-.409-.409H5.932a.367.367,0,0,0-.409.409v7.77a.367.367,0,0,0,.409.409H8.775a.358.358,0,0,0,.4-.4Zm16.176-10.5h-.343a.511.511,0,0,0-.478.282l-.563.882c-.172.27-.086.49.2.49h.159a.491.491,0,0,0,.478-.294l.38-.627.379.625a.491.491,0,0,0,.479.294H26.2c.282,0,.368-.221.2-.49l-.56-.88A.479.479,0,0,0,25.355,45.224ZM46.1,55.69l-1.569-7.77a.417.417,0,0,0-.441-.368H43.4a.417.417,0,0,0-.441.368l-1.541,7.77c-.049.282.086.441.355.441h.306a.4.4,0,0,0,.429-.368l.294-1.654h1.851l.294,1.654a.409.409,0,0,0,.441.368h.361A.327.327,0,0,0,46.1,55.69ZM42.99,53.136l.748-4.142.748,4.142ZM30.355,58.892h-.023c-1.3,0-2.083.576-2.083,1.814v5.147c0,1.3.784,1.814,2.083,1.814h.025c1.3,0,2.083-.527,2.083-1.814V64.517a.367.367,0,0,0-.409-.409h-.343a.368.368,0,0,0-.409.409v1.115c0,.748-.319,1.021-.944,1.021s-.944-.27-.944-1.021V60.927c0-.748.319-1.021.944-1.021s.944.27.944,1.021v.907a.368.368,0,0,0,.409.409h.343a.367.367,0,0,0,.409-.409V60.71C32.438,59.468,31.659,58.892,30.355,58.892ZM37.206,50.8h.343a.367.367,0,0,0,.409-.409V49.268c0-1.238-.784-1.814-2.083-1.814h-.028c-1.3,0-2.083.576-2.083,1.814v5.147c0,1.3.784,1.814,2.083,1.814h.025c1.3,0,2.083-.527,2.083-1.814V53.079a.367.367,0,0,0-.409-.409H37.2a.368.368,0,0,0-.409.409v1.115c0,.748-.319,1.021-.944,1.021s-.944-.27-.944-1.021V49.489c0-.748.319-1.021.944-1.021s.944.27.944,1.021V50.4a.368.368,0,0,0,.412.4Zm2.819-3.248h-.343a.367.367,0,0,0-.409.409v7.77a.367.367,0,0,0,.409.409h.343a.368.368,0,0,0,.409-.409V47.957a.368.368,0,0,0-.409-.4ZM22.072,54.317V49.366c0-1.262-.784-1.814-2.083-1.814H18.272a.367.367,0,0,0-.409.409v7.77a.367.367,0,0,0,.409.409h1.716C21.287,56.131,22.072,55.579,22.072,54.317ZM20.92,54.1c0,.76-.343,1.021-.98,1.021H19.02V48.569h.919c.637,0,.98.257.98,1.021Zm5.719,1.021H24.546V52.3h1.679a.367.367,0,0,0,.409-.409V51.67a.367.367,0,0,0-.409-.409H24.546v-2.7H26.6a.361.361,0,0,0,.409-.409v-.2a.367.367,0,0,0-.409-.409H23.8a.367.367,0,0,0-.409.409v7.77a.367.367,0,0,0,.409.409h2.842a.367.367,0,0,0,.409-.409v-.2a.357.357,0,0,0-.4-.4ZM26.467,59h-.343a.367.367,0,0,0-.409.409v7.77a.366.366,0,0,0,.409.409h.343a.368.368,0,0,0,.409-.409V59.395a.368.368,0,0,0-.405-.4ZM32.031,47.56h-.257a.368.368,0,0,0-.409.409v5.5L29.331,47.9a.449.449,0,0,0-.465-.331h-.409a.367.367,0,0,0-.409.409v7.77a.367.367,0,0,0,.409.409h.256a.368.368,0,0,0,.409-.409v-5.7l2.1,5.772a.437.437,0,0,0,.453.331h.355a.367.367,0,0,0,.409-.409V47.957a.359.359,0,0,0-.4-.4ZM22.264,58.99H20.548a.367.367,0,0,0-.409.409v7.77a.367.367,0,0,0,.409.409h1.716c1.3,0,2.083-.551,2.083-1.814V60.8C24.351,59.54,23.567,58.99,22.264,58.99Zm.931,6.544c0,.76-.343,1.021-.98,1.021H21.3V60.008h.919c.637,0,.98.257.98,1.021Zm-4.473,1.021H16.63V63.737h1.679a.367.367,0,0,0,.409-.409v-.221a.367.367,0,0,0-.409-.408H16.63V60h2.059a.361.361,0,0,0,.409-.409v-.2a.367.367,0,0,0-.409-.409H15.883a.367.367,0,0,0-.409.409v7.77a.367.367,0,0,0,.409.409h2.843a.367.367,0,0,0,.409-.409v-.2a.361.361,0,0,0-.409-.4Zm18.044.643a.408.408,0,0,0,.441.368h.355a.328.328,0,0,0,.355-.441l-1.569-7.77a.417.417,0,0,0-.441-.368h-.686a.417.417,0,0,0-.441.368l-1.545,7.772c-.049.282.086.441.355.441H33.9a.4.4,0,0,0,.429-.368l.294-1.654H36.47ZM34.8,64.577l.748-4.142.748,4.142Zm-6.311-45.2a14.3,14.3,0,0,0-2.9.154,6.176,6.176,0,0,0-4.748,4.8,17.049,17.049,0,0,0-.221,4.22c.043,1.411.087,2.585.13,3.99a.1.1,0,0,0,.084.1c.1.017.2.03.3.043a.1.1,0,0,0,.117-.1c.026-1.613.05-2.977.076-4.6.03-1.892.092-3.9,1.132-5.481a5.274,5.274,0,0,1,2.534-2.011,11.457,11.457,0,0,1,4.129-.464c1.979.01,3.358-.022,5.311-.1a.1.1,0,0,0,.1-.112c-.01-.087-.021-.176-.034-.262a.1.1,0,0,0-.1-.088c-1.838-.029-3.1-.045-4.96-.074Zm-1.68-2.6a.063.063,0,0,0,.061-.064l-.04-.777c-.032-2.173-.07-4.222-.146-6.393a.1.1,0,0,0-.075-.095c-.082-.022-.163-.042-.245-.062a.1.1,0,0,0-.127.1c-.078,2.192-.125,4.257-.157,6.453l-.01.842c.236,0,.5.009.736,0ZM23.879,16.6c.018-.2.016-.685.014-.869l-.014-1.677c-.018-1.285-.044-3.379-.088-4.946a.1.1,0,0,0-.1-.1L23.478,9a.1.1,0,0,0-.1.1c-.032,1.226-.057,2.865-.074,3.779-.007.394-.013,1.253-.018,1.646l-.014,1.581c0,.095,0,.306-.005.388s-.01.283-.017.372c-.012.14-.034.415-.062.6.2-.084.42-.161.635-.231.023-.251.044-.482.057-.632Zm1.482.272c0-.306,0-.621-.007-.93s-.01-.63-.014-.945c-.031-1.962-.055-3.791-.085-5.749a.1.1,0,0,0-.086-.1l-.242-.034a.1.1,0,0,0-.115.1c-.081,2.076-.115,4.021-.1,6.1,0,.562.008,1.13-.019,1.693q.331-.082.669-.139Zm-3.019.153a12.527,12.527,0,0,0,.15-1.439c.011-.134.01-.692.008-.817l-.008-1.57c-.011-.817-.028-2.779-.054-4.085a.1.1,0,0,0-.107-.1l-.2.014a.1.1,0,0,0-.095.1c-.019,1.107-.038,2.706-.05,3.282a41.036,41.036,0,0,1-.09,4.225,4.18,4.18,0,0,1-.7,2.043,8.873,8.873,0,0,1,.9-.755,4.246,4.246,0,0,0,.254-.9Zm8.038,3.724L28.7,20.732c-.184,0-.671,0-.869.014a9.2,9.2,0,0,0-1.532.224,5.2,5.2,0,0,0-3.858,3.852c-.05.142-.092.5-.128.65a20.856,20.856,0,0,0-.092,3.427c.014,1.032.033,2.394.063,3.8a.1.1,0,0,0,.1.1c.091.005.183.007.274.009a.1.1,0,0,0,.1-.1c.021-1.092.036-2.066.049-2.786.006-.342.011-1.09.016-1.43a19.032,19.032,0,0,1,.228-3.23,4.63,4.63,0,0,1,.749-1.813,4.719,4.719,0,0,1,3.084-1.989,6.824,6.824,0,0,1,.7-.082c.089-.007.282-.014.372-.017s.292,0,.387,0l1.578-.02c.394,0,1.252-.011,1.646-.018.823-.015,1.789-.044,2.962-.071a.1.1,0,0,0,.1-.1c0-.074,0-.145-.006-.22a.1.1,0,0,0-.1-.1c-1.518-.035-2.944-.067-4.136-.084ZM19.084,27.4c.022,1.654.054,3.123.1,4.771a.1.1,0,0,0,.07.095c.116.037.234.063.351.094a.1.1,0,0,0,.128-.1c.05-1.683.081-3.166.1-4.863.036-2.086.1-4.231,1.363-5.986A6.312,6.312,0,0,1,25.7,18.806c.148-.013.3-.027.444-.029l.464-.008,1.891-.023c2.112-.031,3.62-.085,5.71-.157a.1.1,0,0,0,.1-.125c-.018-.083-.037-.162-.057-.246a.1.1,0,0,0-.1-.078c-2.076-.07-3.563-.113-5.654-.144l-1.89-.021c-.306,0-.652-.005-.982.025a7.275,7.275,0,0,0-6.384,5.542A15.745,15.745,0,0,0,19.084,27.4Zm15.41-5.321c-1.279-.022-2.526-.039-3.268-.05l-1.569-.008c-.123,0-.681,0-.817.008a12.166,12.166,0,0,0-1.439.15,4.35,4.35,0,0,0-3.56,3.555c-.034.094-.061.511-.085.613a27.082,27.082,0,0,0-.062,3.208c.01.667.021,1.9.042,3.141a.1.1,0,0,0,.108.1c.08,0,.159-.01.239-.016a.1.1,0,0,0,.095-.1c.013-1.029.023-1.973.033-2.44,0-.229.008-1.064.01-1.292a23.44,23.44,0,0,1,.152-2.92,3.9,3.9,0,0,1,.613-1.651c1.281-1.9,3.514-1.81,5.55-1.823.263,0,1.226-.008,1.486-.012.511-.01,1.4-.022,2.463-.039a.1.1,0,0,0,.1-.093c.006-.075.009-.149.013-.224a.1.1,0,0,0-.106-.107Zm-.151,1.352c-1.064-.008-1.94-.006-2.262-.011H29.863c-.118.011-1.238.036-1.347.075a3.594,3.594,0,0,0-3.261,3.223c-.017.047-.031.521-.043.57-.059.247-.035,2.706-.031,2.957,0,.3.01,1.256.017,2.29a.1.1,0,0,0,.119.1c.071-.011.143-.023.213-.037a.1.1,0,0,0,.084-.1c.006-.928.007-1.7.011-1.914V29.445c.005-.255.011-2.335.077-2.579a3.142,3.142,0,0,1,.491-1.475A3.252,3.252,0,0,1,28.7,23.906c.054-.012.506-.021.562-.027.03,0,.27,0,.3-.006h.306l1.278-.006c.132,0,1.192,0,1.328-.006.223,0,.88-.009,1.838-.016a.1.1,0,0,0,.1-.083c.012-.069.021-.141.033-.211a.1.1,0,0,0-.106-.116ZM17.119,24.591c-1.808.026-3.824.06-5.639.116a.1.1,0,0,0-.095.13c.03.1.051.2.082.314a.1.1,0,0,0,.095.075c1.769.053,3.8.1,5.558.122.306.006.864.014,1.181.025,0-.3,0-.522-.012-.8C18,24.58,17.406,24.585,17.119,24.591Zm-5.952-1.408a.1.1,0,0,0-.1.115c.013.1.021.192.038.287a.1.1,0,0,0,.1.082c1.548.047,3.226.094,4.77.142.672.02,1.654.041,2.327.022a6.127,6.127,0,0,1,.1-.777c-.52.033-1.348.043-1.862.051C14.789,23.135,12.928,23.159,11.168,23.183Zm22.9,1.514H29.447a2.916,2.916,0,0,0-2.962,2.829v4.725a.1.1,0,0,0,.129.1l.178-.05a.1.1,0,0,0,.074-.1l-.006-4.671a2.532,2.532,0,0,1,2.588-2.471h4.584a.1.1,0,0,0,.1-.073c.015-.052.028-.1.041-.158a.1.1,0,0,0-.1-.127ZM11.041,22.133c1.51.036,3.443.06,4.581.076.576.01,2.222.054,3.114,0a6.876,6.876,0,0,1,.293-.721c-.837.1-2.4.109-3,.119-.342,0-1.09.01-1.43.016-.817.015-2.36.04-3.558.065a.1.1,0,0,0-.1.1v.244A.1.1,0,0,0,11.041,22.133Zm-.559,5.537H16.43a.409.409,0,0,1,.409.409V33.13a1.021,1.021,0,0,0,.652.953,14.91,14.91,0,0,0,10.959,0,1.021,1.021,0,0,0,.651-.953V28.5a.83.83,0,0,1,.83-.83h5.139a1.021,1.021,0,0,0,.953-.652,14.9,14.9,0,0,0,0-10.959,1.027,1.027,0,0,0-.953-.652H29.562A.409.409,0,0,1,29.153,15V8.681a1.021,1.021,0,0,0-.651-.953,14.91,14.91,0,0,0-10.959,0,1.021,1.021,0,0,0-.652.953v5.894a.83.83,0,0,1-.83.83H10.482a1.028,1.028,0,0,0-.953.652,14.9,14.9,0,0,0,0,10.959,1.026,1.026,0,0,0,.953.655Zm.28-10.833h5.8a1.756,1.756,0,0,0,1.756-1.755V8.964a13.475,13.475,0,0,1,9.4,0v7.465a.409.409,0,0,0,.409.409h6.658a13.481,13.481,0,0,1,0,9.4H29.426a1.756,1.756,0,0,0-1.756,1.755v4.856a13.489,13.489,0,0,1-9.4,0v-6.2a.409.409,0,0,0-.409-.409h-7.1a13.481,13.481,0,0,1,0-9.4Zm.715,1.212H16.89a2.92,2.92,0,0,0,2.837-2.962V9.573a.1.1,0,0,0-.129-.1l-.156.045a.1.1,0,0,0-.074.1v5.476a2.535,2.535,0,0,1-2.479,2.588H11.528a.1.1,0,0,0-.1.075c-.016.057-.033.115-.048.174a.1.1,0,0,0,.1.119Zm11.3,23.764A20.907,20.907,0,1,0,1.869,20.907,20.906,20.906,0,0,0,22.774,41.814ZM9.436,7.568a18.865,18.865,0,1,1,0,26.679,18.864,18.864,0,0,1,0-26.679ZM11.05,20.684c1.313.023,3.16.036,3.913.046a34.13,34.13,0,0,0,3.616-.062c.1-.023.52-.051.613-.084A4.116,4.116,0,0,0,19.6,20.5a7.621,7.621,0,0,1,.77-.95,3.9,3.9,0,0,1-1.47.5,30.211,30.211,0,0,1-3.328.152c-.228,0-1.064.006-1.292.01-.541.01-2.1.028-3.21.045a.1.1,0,0,0-.1.1c-.005.075-.013.148-.018.224a.1.1,0,0,0,.1.106Zm.169-1.456c1.114.011,2.7.017,3.046.023.25,0,2.706.028,2.954-.031.048-.012.522-.027.568-.044a3.591,3.591,0,0,0,3.22-3.261c.039-.109.063-1.226.074-1.347.006-.066.006-.7.005-.758l-.005-1.46c0-.367-.014-1.959-.026-3.077a.1.1,0,0,0-.117-.1l-.189.033a.1.1,0,0,0-.085.1c-.008,1.029-.015,2.39-.02,2.655,0,.131,0,1.192-.006,1.328V15.17c-.006.056-.014.511-.027.562a3.251,3.251,0,0,1-1.485,2.508,3.124,3.124,0,0,1-1.473.491c-.244.066-2.32.073-2.577.077H13.938c-.252.005-1.648.008-2.67.015a.1.1,0,0,0-.1.084c-.012.067-.027.136-.039.2a.1.1,0,0,0,.091.116ZM22.672,71.04a1.3,1.3,0,0,0-1.174.547v-.511h-.49v3.574h.511V72.629a1.162,1.162,0,0,1,.281-.849,1.033,1.033,0,0,1,.771-.286.935.935,0,0,1,.71.269,1.107,1.107,0,0,1,.255.789v2.1h.511V72.537a1.559,1.559,0,0,0-.363-1.108A1.329,1.329,0,0,0,22.672,71.04Zm7.486,0a1.5,1.5,0,0,0-1.118.417,1.62,1.62,0,0,0-.414,1.192v2.006h.5v-.987h2.063v.987H31.7V72.649a1.62,1.62,0,0,0-.414-1.192,1.523,1.523,0,0,0-1.132-.417Zm1.028,2.184H29.123V72.6a1.146,1.146,0,0,1,.273-.828,1.164,1.164,0,0,1,1.517,0,1.146,1.146,0,0,1,.274.828ZM8.427,72.848a5.029,5.029,0,0,0-.649-.193,4.672,4.672,0,0,1-.493-.136.856.856,0,0,1-.306-.179.391.391,0,0,1-.123-.3.485.485,0,0,1,.217-.409,1.129,1.129,0,0,1,.652-.159,1.806,1.806,0,0,1,.5.075,1.833,1.833,0,0,1,.48.218l.169-.409a1.656,1.656,0,0,0-.526-.235,2.383,2.383,0,0,0-.623-.083,1.838,1.838,0,0,0-.758.142,1.021,1.021,0,0,0-.458.367.919.919,0,0,0-.15.516.8.8,0,0,0,.177.541,1.066,1.066,0,0,0,.424.3,5.105,5.105,0,0,0,.652.2q.322.077.5.137a.817.817,0,0,1,.3.177.392.392,0,0,1,.121.3.465.465,0,0,1-.22.4,1.169,1.169,0,0,1-.664.151,1.925,1.925,0,0,1-.658-.119,1.563,1.563,0,0,1-.523-.3l-.189.4a1.616,1.616,0,0,0,.589.324,2.438,2.438,0,0,0,.779.126,1.932,1.932,0,0,0,.766-.136,1.021,1.021,0,0,0,.465-.368.913.913,0,0,0,.153-.511.78.78,0,0,0-.177-.536,1.1,1.1,0,0,0-.421-.3Zm6.419-1.808a1.522,1.522,0,0,0-1.123.417,1.577,1.577,0,0,0-.409,1.192v2.006h.5v-.987h2.063v.987h.511V72.649a1.62,1.62,0,0,0-.414-1.192A1.519,1.519,0,0,0,14.846,71.04Zm1.031,2.184H13.815V72.6a1.146,1.146,0,0,1,.273-.828,1.164,1.164,0,0,1,1.517,0,1.146,1.146,0,0,1,.274.828Zm23.116-.2a1.193,1.193,0,0,0,.2-.7,1.123,1.123,0,0,0-.4-.919,1.68,1.68,0,0,0-1.094-.327H36.313v3.574h.511V73.568h.882a2.22,2.22,0,0,0,.226-.009l.774,1.1h.558l-.848-1.2a1.157,1.157,0,0,0,.578-.423Zm-1.3.1h-.868V71.525h.868a1.165,1.165,0,0,1,.74.2.823.823,0,0,1,0,1.192,1.126,1.126,0,0,1-.74.212Z" transform="translate(-0.564 -1.61)"/></g></svg>