<svg xmlns="http://www.w3.org/2000/svg" width="155.627" height="38.154" viewBox="0 0 155.627 38.154"><defs><style>.a{fill:#fff;}</style></defs><g transform="translate(-0.04)"><g transform="translate(0.04 0)"><path class="a" d="M21.776,17.159c.14-.013.27-.024.405-.027s.28,0,.419,0l1.726-.022c1.928-.027,3.3-.077,5.21-.14a.1.1,0,0,0,.089-.113c-.017-.075-.034-.148-.052-.225a.094.094,0,0,0-.088-.07c-1.9-.064-3.251-.1-5.159-.14L22.6,16.4c-.28,0-.594,0-.9.021A6.638,6.638,0,0,0,15.88,21.48a14.378,14.378,0,0,0-.14,3.527c.021,1.51.049,2.85.094,4.354a.092.092,0,0,0,.064.087c.1.034.212.057.32.085a.094.094,0,0,0,.116-.088c.046-1.538.074-2.892.1-4.438.034-1.9.088-3.861,1.244-5.461a5.759,5.759,0,0,1,4.1-2.386ZM21.13,18.7a10.411,10.411,0,0,1,3.774-.419c1.807.01,3.065-.02,4.849-.087a.092.092,0,0,0,.089-.1c-.008-.08-.02-.161-.029-.239a.094.094,0,0,0-.092-.08c-1.677-.027-2.826-.042-4.525-.067l-.862-.014a13.289,13.289,0,0,0-2.656.14,5.63,5.63,0,0,0-4.333,4.379,15.548,15.548,0,0,0-.2,3.849c.039,1.287.08,2.358.119,3.641a.1.1,0,0,0,.075.091c.091.015.182.027.28.039a.1.1,0,0,0,.108-.091c.022-1.472.046-2.717.068-4.2a9.226,9.226,0,0,1,1.033-5,4.813,4.813,0,0,1,2.3-1.844Zm-9.484,1.037c-.745.014-2.154.036-3.247.06a.092.092,0,0,0-.091.1v.222A.092.092,0,0,0,8.4,20.2c1.378.034,3.142.055,4.181.07.526.008,2.028.049,2.842,0a5.931,5.931,0,0,1,.267-.657c-.763.087-2.192.1-2.74.109-.306,0-.988,0-1.3.006Zm18.683-5.669H25.3a.372.372,0,0,1-.373-.372V7.924a.938.938,0,0,0-.594-.869,13.588,13.588,0,0,0-10,0,.935.935,0,0,0-.594.869V13.3a.758.758,0,0,1-.759.758H7.894a.938.938,0,0,0-.871.594,13.593,13.593,0,0,0,0,10,.937.937,0,0,0,.869.6H13.32a.373.373,0,0,1,.373.372v4.613a.937.937,0,0,0,.594.869,13.607,13.607,0,0,0,10,0,.937.937,0,0,0,.594-.869V26.006a.758.758,0,0,1,.758-.758h4.69a.938.938,0,0,0,.869-.6,13.607,13.607,0,0,0,0-10,.939.939,0,0,0-.869-.594Zm-.256,9.884H25.181a1.6,1.6,0,0,0-1.6,1.6v4.43a12.291,12.291,0,0,1-8.58,0V24.321a.373.373,0,0,0-.372-.373H8.15a12.292,12.292,0,0,1,0-8.578h5.295a1.6,1.6,0,0,0,1.6-1.607V8.178a12.291,12.291,0,0,1,8.58,0v6.813a.373.373,0,0,0,.372.373h6.075a12.292,12.292,0,0,1,0,8.578Zm-.654-1.4H25.194a2.661,2.661,0,0,0-2.7,2.582v4.312a.094.094,0,0,0,.117.089l.162-.045a.094.094,0,0,0,.067-.091V25.132A2.312,2.312,0,0,1,25.2,22.876h4.188a.094.094,0,0,0,.091-.066l.036-.14a.092.092,0,0,0-.1-.133Zm.4-3.541c-1.382-.035-2.684-.064-3.774-.08l-1.538-.013c-.168,0-.612,0-.793.013a8.485,8.485,0,0,0-1.4.2,4.752,4.752,0,0,0-3.511,3.51c-.046.129-.084.458-.116.593a18.836,18.836,0,0,0-.085,3.128c.014.941.031,2.183.059,3.471a.094.094,0,0,0,.088.091,2.466,2.466,0,0,1,.249.008.094.094,0,0,0,.1-.091c.02-1,.032-1.886.045-2.543,0-.313.011-.994.014-1.307a17.458,17.458,0,0,1,.208-2.947,4.248,4.248,0,0,1,.674-1.654,4.305,4.305,0,0,1,2.815-1.817,6.34,6.34,0,0,1,.635-.074c.081-.007.257-.014.34-.015s.267,0,.352,0l1.444-.014c.359,0,1.142-.01,1.5-.017.751-.014,1.631-.041,2.7-.066a.092.092,0,0,0,.092-.094v-.2A.1.1,0,0,0,29.82,19.01ZM29.8,20.149c-1.167-.021-2.306-.036-2.98-.046l-1.43-.008c-.113,0-.622,0-.742.008a10.555,10.555,0,0,0-1.314.14,3.968,3.968,0,0,0-3.248,3.244c-.031.085-.056.47-.077.559a24.622,24.622,0,0,0-.057,2.927c.008.609.02,1.737.039,2.867a.092.092,0,0,0,.1.092l.218-.014a.1.1,0,0,0,.087-.092c.013-.941.022-1.8.029-2.227,0-.21.008-.978.01-1.18a21.01,21.01,0,0,1,.14-2.663,3.577,3.577,0,0,1,.559-1.508c1.159-1.739,3.2-1.651,5.052-1.663.24,0,1.118-.008,1.356-.013l2.248-.035a.094.094,0,0,0,.092-.085,1.207,1.207,0,0,1,.011-.2.092.092,0,0,0-.087-.1ZM19.111,0A19.077,19.077,0,1,0,38.194,19.079,19.077,19.077,0,0,0,19.111,0Zm12.17,31.247a17.213,17.213,0,1,1,0-24.342A17.213,17.213,0,0,1,31.282,31.247Zm-1.614-9.861c-.978-.007-1.771,0-2.065-.01H25.579c-.108.01-1.129.032-1.229.067a3.28,3.28,0,0,0-2.976,2.942c-.015.042-.028.475-.039.52-.053.225-.032,2.468-.028,2.7,0,.28.008,1.146.015,2.1a.094.094,0,0,0,.109.091l.2-.034a.1.1,0,0,0,.075-.092c0-.847.007-1.553.011-1.746v-1.04c0-.233.01-2.13.07-2.354a2.867,2.867,0,0,1,.449-1.346,2.963,2.963,0,0,1,2.288-1.356c.049-.011.461-.02.513-.024h2.92c.2,0,.8-.008,1.677-.014a.094.094,0,0,0,.091-.075q.017-.1.029-.193a.094.094,0,0,0-.084-.131Zm-9.55-6.235c.017-.182.014-.626.013-.794l-.013-1.538c-.017-1.171-.041-3.075-.08-4.512a.094.094,0,0,0-.089-.091h-.2a.094.094,0,0,0-.1.091c-.029,1.118-.052,2.612-.067,3.441,0,.361-.013,1.143-.017,1.5l-.014,1.444v.352c0,.073-.008.259-.015.34-.011.129-.031.379-.057.545.19-.077.383-.148.58-.211.021-.228.039-.44.052-.574Zm1.352.247c0-.28,0-.559-.007-.85l-.013-.862c-.028-1.789-.05-3.458-.078-5.244a.094.094,0,0,0-.078-.092c-.073-.011-.147-.02-.219-.029a.094.094,0,0,0-.106.089c-.074,1.894-.1,3.669-.1,5.569,0,.512.007,1.03-.017,1.538.2-.046.405-.088.612-.122ZM8.519,21.157a.091.091,0,0,0-.089.106c.011.087.02.175.035.261a.091.091,0,0,0,.088.074l4.353.13c.614.018,1.51.036,2.123.02a5.72,5.72,0,0,1,.1-.709c-.475.029-1.23.039-1.7.046C11.823,21.106,10.126,21.132,8.519,21.157Zm10.194-5.625a11.817,11.817,0,0,0,.14-1.313c.011-.122.01-.63.008-.742l-.008-1.431c-.01-.745-.025-2.537-.049-3.726a.094.094,0,0,0-.1-.091l-.189.014a.091.091,0,0,0-.085.089c-.018,1.011-.036,2.47-.046,3a37.712,37.712,0,0,1-.082,3.855,3.849,3.849,0,0,1-.643,1.865,7.363,7.363,0,0,1,.819-.689,3.76,3.76,0,0,0,.233-.826Zm4.08-.224a.059.059,0,0,0,.056-.059l-.031-.713c-.028-1.983-.064-3.852-.14-5.833a.1.1,0,0,0-.068-.088l-.224-.056a.1.1,0,0,0-.116.088c-.07,2-.113,3.884-.14,5.889l-.01.767C22.337,15.307,22.576,15.317,22.793,15.308ZM8.411,18.87c1.2.021,2.884.032,3.571.042a31.289,31.289,0,0,0,3.3-.056c.089-.022.474-.048.559-.078a3.26,3.26,0,0,0,.369-.077,6.869,6.869,0,0,1,.7-.865,3.567,3.567,0,0,1-1.342.457,28.009,28.009,0,0,1-3.036.14c-.208,0-.97,0-1.178.01-.495.008-1.915.025-2.935.041a.094.094,0,0,0-.091.087c0,.068-.013.14-.017.2a.094.094,0,0,0,.1.1Zm5.538,3.564c-1.648.024-3.494.056-5.145.108a.092.092,0,0,0-.087.117c.027.1.046.187.074.287a.094.094,0,0,0,.087.068c1.614.049,3.464.088,5.071.11.28,0,.788.013,1.078.022,0-.28,0-.477-.011-.73-.261.01-.8.015-1.067.02ZM8.561,17.545c1.016.01,2.46.015,2.779.02.229,0,2.47.027,2.695-.028.045-.01.477-.024.519-.039a3.278,3.278,0,0,0,2.935-2.976c.035-.1.057-1.118.067-1.229V11.269c0-.335-.014-1.786-.024-2.807a.092.092,0,0,0-.108-.091l-.172.029a.092.092,0,0,0-.077.091c-.008.939-.014,2.181-.02,2.418v2.927c0,.05-.014.463-.025.512a2.967,2.967,0,0,1-1.361,2.285,2.87,2.87,0,0,1-1.343.447c-.222.06-2.118.066-2.351.07H11.036c-.229,0-1.5,0-2.436.013a.094.094,0,0,0-.089.077c-.011.062-.024.124-.035.186a.094.094,0,0,0,.085.119ZM8.8,16.469h4.937a2.664,2.664,0,0,0,2.589-2.7V8.733a.092.092,0,0,0-.117-.091l-.14.041A.1.1,0,0,0,16,8.772v4.993a2.314,2.314,0,0,1-2.262,2.362H8.843a.094.094,0,0,0-.089.067c-.015.053-.031.106-.045.159a.094.094,0,0,0,.092.115Zm118.55-7.562h.05a.811.811,0,0,0,.671-.319l1.023-1.275c.3-.369.14-.671-.335-.671h-.52a.657.657,0,0,0-.654.4l-.628,1.224c-.189.369-.021.637.4.637ZM69.535,21.569H70a.5.5,0,0,0,.559-.559V10.383A.5.5,0,0,0,70,9.824h-.47a.5.5,0,0,0-.559.559V21.016A.5.5,0,0,0,69.535,21.569ZM81.125,8.907h.218A.671.671,0,0,0,82,8.5l.52-.855.52.855a.671.671,0,0,0,.654.4h.218c.386,0,.5-.3.268-.671l-.772-1.208a.657.657,0,0,0-.654-.386h-.47a.7.7,0,0,0-.654.386l-.772,1.208C80.622,8.6,80.739,8.907,81.125,8.907ZM92.833,28.92a1.64,1.64,0,0,0,.28-.964,1.538,1.538,0,0,0-.545-1.251,2.256,2.256,0,0,0-1.5-.454H89.164v4.892h.7V29.654h1.209a2.714,2.714,0,0,0,.308-.014l1.055,1.5H93.2L92.036,29.5a1.578,1.578,0,0,0,.8-.58Zm-1.782.14H89.863v-2.2h1.188a1.594,1.594,0,0,1,1.013.28.985.985,0,0,1,.349.815,1,1,0,0,1-.349.818A1.553,1.553,0,0,1,91.051,29.06Zm38.33-8.883h-2.868V16.32h2.3a.5.5,0,0,0,.559-.559v-.3a.5.5,0,0,0-.559-.559h-2.3V11.221h2.817a.494.494,0,0,0,.559-.559v-.28a.5.5,0,0,0-.559-.559h-3.84a.5.5,0,0,0-.559.559V21.016a.5.5,0,0,0,.559.559h3.891a.5.5,0,0,0,.559-.559v-.28a.5.5,0,0,0-.559-.559ZM122.5,9.833h-.537a.6.6,0,0,0-.621.453l-2.376,6.849-2.348-6.849a.616.616,0,0,0-.637-.453h-.47a.5.5,0,0,0-.559.559V21.025a.5.5,0,0,0,.559.559h.352a.509.509,0,0,0,.57-.559V13.586l1.946,5.72a.577.577,0,0,0,.6.453.548.548,0,0,0,.587-.453l1.957-5.72v7.429a.5.5,0,0,0,.559.559h.419a.5.5,0,0,0,.559-.559V10.383a.509.509,0,0,0-.565-.554Zm-13.5.5a.57.57,0,0,0-.6-.5h-.939a.57.57,0,0,0-.6.5l-2.113,10.63c-.067.386.119.6.486.6h.419a.545.545,0,0,0,.587-.5l.4-2.263h2.533l.4,2.263a.559.559,0,0,0,.6.5h.486a.448.448,0,0,0,.486-.6Zm-2.113,7.136,1.023-5.669,1.023,5.669Zm-4.054-7.649h-.47a.5.5,0,0,0-.559.559V21.016a.5.5,0,0,0,.559.559h.47a.5.5,0,0,0,.559-.559V10.383a.5.5,0,0,0-.563-.554Zm-5.686-.14h-.034c-1.778,0-2.851.788-2.851,2.482v7.045c0,1.777,1.073,2.481,2.851,2.481h.034c1.778,0,2.851-.721,2.851-2.481V17.394a.5.5,0,0,0-.559-.559h-.47a.5.5,0,0,0-.559.559V18.92c0,1.022-.436,1.391-1.292,1.391s-1.292-.369-1.292-1.391V12.479c0-1.023.436-1.4,1.292-1.4s1.292.369,1.292,1.4v1.241a.5.5,0,0,0,.559.559h.47a.5.5,0,0,0,.559-.559V12.183c0-1.7-1.078-2.488-2.856-2.488Zm58.5,11.283L153.5,10.334a.57.57,0,0,0-.6-.5h-.939a.57.57,0,0,0-.6.5L149.24,20.967c-.067.386.117.6.486.6h.419a.545.545,0,0,0,.587-.5l.4-2.263h2.533l.4,2.263a.559.559,0,0,0,.6.5h.486A.449.449,0,0,0,155.648,20.967Zm-4.26-3.494,1.023-5.669,1.023,5.669ZM134.228,9.829H131.88a.5.5,0,0,0-.559.559V21.021a.5.5,0,0,0,.559.559h2.348c1.778,0,2.851-.753,2.851-2.482V12.312C137.08,10.584,136.006,9.829,134.228,9.829Zm1.275,8.957c0,1.039-.47,1.391-1.342,1.391H132.9V11.221h1.258c.872,0,1.342.352,1.342,1.4ZM145.3,9.7h-.035c-1.778,0-2.851.788-2.851,2.482v7.045c0,1.777,1.074,2.481,2.851,2.481h.034c1.778,0,2.851-.721,2.851-2.481V17.394a.5.5,0,0,0-.559-.559h-.47a.5.5,0,0,0-.559.559V18.92c0,1.022-.436,1.391-1.292,1.391s-1.292-.369-1.292-1.391V12.479c0-1.023.436-1.4,1.292-1.4s1.292.369,1.292,1.4v1.241a.5.5,0,0,0,.559.559h.47a.5.5,0,0,0,.559-.559V12.183c0-1.7-1.068-2.488-2.85-2.488Zm-5.312.14h-.47a.5.5,0,0,0-.559.559V21.032a.5.5,0,0,0,.559.559h.47a.5.5,0,0,0,.559-.559V10.383a.5.5,0,0,0-.565-.554ZM70.49,26.194a1.787,1.787,0,0,0-1.607.748V26.25h-.671v4.892h.7V28.375a1.591,1.591,0,0,1,.384-1.16,1.412,1.412,0,0,1,1.055-.391,1.275,1.275,0,0,1,.971.366,1.512,1.512,0,0,1,.349,1.08v2.879h.7V28.242a2.139,2.139,0,0,0-.5-1.517A1.8,1.8,0,0,0,70.49,26.194Zm-9.878-5.179v-.28a.494.494,0,0,0-.559-.559H57.19V16.32h2.3a.5.5,0,0,0,.559-.559v-.3a.5.5,0,0,0-.559-.559h-2.3V11.221h2.818a.494.494,0,0,0,.559-.559v-.28a.5.5,0,0,0-.559-.559H56.166a.5.5,0,0,0-.559.559V21.016a.5.5,0,0,0,.559.559h3.891a.5.5,0,0,0,.554-.559Zm5.049-5.651-1.526-.839c-.671-.386-.923-.637-.923-1.342v-.805c0-.939.453-1.308,1.258-1.308s1.258.369,1.258,1.308v1.04a.5.5,0,0,0,.559.559h.436a.5.5,0,0,0,.559-.559V12.11c0-1.694-1.174-2.415-2.784-2.415h-.034c-1.61,0-2.784.721-2.784,2.415v1.476c0,1.118.57,1.627,1.644,2.248l1.51.839c.688.386.939.688.939,1.4v.921c0,.923-.453,1.342-1.275,1.342s-1.275-.419-1.275-1.342V17.819a.5.5,0,0,0-.559-.559h-.442a.5.5,0,0,0-.559.559V19.26c0,1.778,1.023,2.449,2.8,2.449h.034c1.778,0,2.8-.688,2.8-2.449V17.629c.017-1.124-.621-1.694-1.627-2.264Zm-5.878,10.83a2.062,2.062,0,0,0-1.531.569,2.216,2.216,0,0,0-.566,1.633v2.747h.685V29.794h2.824v1.349h.7V28.4a2.219,2.219,0,0,0-.566-1.633A2.074,2.074,0,0,0,59.783,26.194Zm1.412,2.991H58.371v-.853a1.56,1.56,0,0,1,.375-1.132,1.593,1.593,0,0,1,2.076,0,1.563,1.563,0,0,1,.373,1.132ZM52.46,16.522a2.185,2.185,0,0,0,1.375-2.248V12.317c0-1.728-1.073-2.482-2.851-2.482H48.607a.5.5,0,0,0-.559.559V21.027a.5.5,0,0,0,.559.559h.47a.5.5,0,0,0,.559-.559v-4.27h1.375l1.476,4.36a.581.581,0,0,0,.621.453h.461a.447.447,0,0,0,.47-.637Zm-.2-2.533c0,1.04-.47,1.4-1.342,1.4H49.625V11.221h1.289c.872,0,1.342.352,1.342,1.4ZM80.735,26.194a2.086,2.086,0,0,0-1.538.569,2.158,2.158,0,0,0-.559,1.633v2.747h.685V29.794h2.824v1.349h.7V28.4a2.219,2.219,0,0,0-.566-1.633A2.074,2.074,0,0,0,80.735,26.194Zm1.412,2.991H79.323v-.853A1.56,1.56,0,0,1,79.7,27.2a1.593,1.593,0,0,1,2.076,0,1.563,1.563,0,0,1,.373,1.132ZM51,28.668a6.57,6.57,0,0,0-.888-.266,6.449,6.449,0,0,1-.674-.186,1.157,1.157,0,0,1-.419-.245.534.534,0,0,1-.168-.408.661.661,0,0,1,.3-.559,1.541,1.541,0,0,1,.89-.217,2.463,2.463,0,0,1,.685.1,2.516,2.516,0,0,1,.657.3l.231-.559a2.253,2.253,0,0,0-.72-.321,3.253,3.253,0,0,0-.853-.112A2.54,2.54,0,0,0,49,26.383a1.412,1.412,0,0,0-.625.5,1.258,1.258,0,0,0-.207.706,1.089,1.089,0,0,0,.242.744,1.476,1.476,0,0,0,.58.41,7.218,7.218,0,0,0,.89.266q.44.1.682.189a1.1,1.1,0,0,1,.405.24.544.544,0,0,1,.164.41.632.632,0,0,1-.3.548,1.594,1.594,0,0,1-.909.207,2.627,2.627,0,0,1-.9-.158,2.144,2.144,0,0,1-.717-.408l-.259.545a2.178,2.178,0,0,0,.808.443,3.334,3.334,0,0,0,1.065.172,2.611,2.611,0,0,0,1.048-.186,1.4,1.4,0,0,0,.636-.5,1.245,1.245,0,0,0,.21-.7,1.068,1.068,0,0,0-.24-.734A1.492,1.492,0,0,0,51,28.668Zm40.41-7.1h.486a.5.5,0,0,0,.559-.559V10.383a.5.5,0,0,0-.559-.559h-.352a.5.5,0,0,0-.559.559v7.531L88.2,10.282a.616.616,0,0,0-.637-.453H87a.5.5,0,0,0-.559.559V21.021A.5.5,0,0,0,87,21.58h.352a.5.5,0,0,0,.559-.559v-7.8l2.868,7.9a.6.6,0,0,0,.626.453Zm-6.894-1.4H81.645V16.32h2.3a.5.5,0,0,0,.559-.559v-.3a.5.5,0,0,0-.559-.559h-2.3V11.221H84.46a.494.494,0,0,0,.559-.559v-.28a.5.5,0,0,0-.559-.559H80.622a.5.5,0,0,0-.559.559V21.016a.5.5,0,0,0,.559.559h3.891a.5.5,0,0,0,.559-.559v-.28a.5.5,0,0,0-.559-.559ZM75.406,9.828H73.057a.5.5,0,0,0-.559.559V21.02a.5.5,0,0,0,.559.559h2.348c1.778,0,2.851-.753,2.851-2.482V12.312c0-1.728-1.073-2.482-2.851-2.482Zm1.275,8.957c0,1.039-.47,1.391-1.342,1.391H74.08V11.221h1.258c.872,0,1.342.352,1.342,1.4Z" transform="translate(-0.04 0)"/></g></g></svg>