<svg xmlns="http://www.w3.org/2000/svg" width="129.867" height="74.488" viewBox="0 0 129.867 74.488"><defs><style>.a{fill:#cecece;}.b{fill:rgba(232,232,232,0.6);}.c{fill:#e8e8e8;}.d{fill:#f7f7f7;}</style></defs><g transform="translate(-492.829 -1840.752)"><g transform="translate(570.833 1840.752)"><path class="a" d="M577.717,1844.673a.262.262,0,0,1-.262-.262v-3.4a.262.262,0,1,1,.524,0v3.4A.262.262,0,0,1,577.717,1844.673Z" transform="translate(-575.756 -1840.752)"/><path class="a" d="M579.31,1843.079h-3.4a.261.261,0,1,1,0-.523h3.4a.261.261,0,1,1,0,.523Z" transform="translate(-575.651 -1840.857)"/></g><path class="a" d="M570.1,1851.117a1.825,1.825,0,1,1,1.825-1.825A1.828,1.828,0,0,1,570.1,1851.117Zm0-3.075a1.25,1.25,0,1,0,1.25,1.25A1.251,1.251,0,0,0,570.1,1848.041Z" transform="translate(-4.389 -0.391)"/><g transform="translate(506.44 1885.137)"><path class="a" d="M508.675,1890.525a.176.176,0,0,1-.176-.176v-2.293a.177.177,0,1,1,.353,0v2.293A.177.177,0,0,1,508.675,1890.525Z" transform="translate(-507.352 -1887.878)"/><path class="a" d="M509.751,1889.449h-2.293a.177.177,0,1,1,0-.354h2.293a.177.177,0,1,1,0,.354Z" transform="translate(-507.281 -1887.949)"/></g><path class="b" d="M492.838,1902.325c-.721,8,47.211,20.438,91.974,14.179,15.445-2.16,38.009-7.593,37.884-12.9-.161-6.781-37.216-10.3-41.664-10.7C542.138,1889.348,493.551,1894.4,492.838,1902.325Z" transform="translate(0 -2.966)"/><g transform="translate(512.54 1857.489)"><path class="c" d="M530.343,1858.523v36.356h58.794v-36.356ZM567.3,1866.7H551.3a2.745,2.745,0,0,1,0-5.491H567.3a2.745,2.745,0,1,1,0,5.491Z" transform="translate(-514.722 -1858.523)"/><path class="a" d="M592.739,1858.523l15.337,12.5v29.633l-15.8-7.983Z" transform="translate(-518.325 -1858.523)"/><path class="a" d="M529.379,1858.523v28.97l-15.621,13.159V1871.02Z" transform="translate(-513.757 -1858.523)"/><path class="d" d="M513.757,1871.792h89.751v29.633a3.314,3.314,0,0,1-3.314,3.314H517.071a3.314,3.314,0,0,1-3.314-3.314Z" transform="translate(-513.757 -1859.295)"/><rect class="c" width="26.319" height="5.491" rx="2.719" transform="translate(31.716 19.693)"/><path class="a" d="M571.191,1880.072a1.621,1.621,0,0,1,1.618,1.619v.37a1.62,1.62,0,0,1-1.618,1.619h-21.2a1.621,1.621,0,0,1-1.619-1.619v-.37a1.621,1.621,0,0,1,1.619-1.619h21.2m0-.942h-21.2a2.561,2.561,0,0,0-2.561,2.561v.37a2.56,2.56,0,0,0,2.561,2.561h21.2a2.56,2.56,0,0,0,2.56-2.561v-.37a2.561,2.561,0,0,0-2.56-2.561Z" transform="translate(-515.716 -1859.722)"/></g><path class="a" d="M602.567,1872.734v28.691a2.375,2.375,0,0,1-2.372,2.373H517.071a2.375,2.375,0,0,1-2.372-2.373v-28.691h87.868m.942-.942H513.757v29.633a3.314,3.314,0,0,0,3.314,3.314h83.123a3.314,3.314,0,0,0,3.314-3.314v-29.633Z" transform="translate(-1.217 -1.806)"/></g></svg>