<svg xmlns="http://www.w3.org/2000/svg" width="32" height="31.844" viewBox="0 0 32 31.844"><defs><style>.a{fill:#fff;}</style></defs><g transform="translate(-453.108 4.473)"><path class="a" d="M456.169,9.571c1.247.013,3.019.019,3.411.026.28,0,3.03.031,3.307-.034.054-.014.584-.03.636-.049a4.02,4.02,0,0,0,3.605-3.651c.042-.122.071-1.372.082-1.508.007-.074,0-.78,0-.848V1.871c-.006-.41-.016-2.193-.029-3.445a.114.114,0,0,0-.113-.116h-.018l-.212.037a.114.114,0,0,0-.095.114c-.009,1.153-.017,2.676-.023,2.973,0,.146,0,1.334-.007,1.486V4.693c0,.033,0,.3-.006.335-.007.063-.016.572-.03.629a3.639,3.639,0,0,1-1.663,2.808,3.5,3.5,0,0,1-1.649.55c-.273.074-2.6.081-2.885.086h-1.275c-.281.006-1.844.009-2.988.017a.114.114,0,0,0-.114.094c-.014.075-.03.152-.043.229a.114.114,0,0,0,.1.129ZM455.98,11.2c1.47.026,3.537.04,4.382.051a38.212,38.212,0,0,0,4.049-.07c.114-.026.582-.057.686-.094a4.61,4.61,0,0,0,.457-.095,8.443,8.443,0,0,1,.862-1.063,4.369,4.369,0,0,1-1.645.561,33.825,33.825,0,0,1-3.726.17c-.255,0-1.191.007-1.446.011-.606.011-2.349.031-3.594.05a.114.114,0,0,0-.114.107c0,.083-.015.166-.021.25a.114.114,0,0,0,.11.119Zm6.8,4.375c-2.024.029-4.281.067-6.314.13a.114.114,0,0,0-.111.118.116.116,0,0,0,0,.027c.033.114.057.229.091.351a.114.114,0,0,0,.106.083c1.98.059,4.249.109,6.223.136.343.006.967.016,1.322.027,0-.336,0-.584-.014-.9C463.767,15.564,463.1,15.569,462.776,15.576Zm-6.317-7.318h6.06a3.269,3.269,0,0,0,3.176-3.316V-1.232a.114.114,0,0,0-.11-.118.116.116,0,0,0-.034,0l-.175.05a.115.115,0,0,0-.082.114V4.949a2.838,2.838,0,0,1-2.775,2.9h-6a.114.114,0,0,0-.114.083c-.018.064-.037.129-.054.194a.114.114,0,0,0,.1.127h.011Zm13.883-1.631c.021-.222.018-.767.016-.973l-.016-1.878c-.021-1.438-.049-3.784-.1-5.538a.114.114,0,0,0-.109-.114l-.242-.008a.114.114,0,0,0-.114.114c-.035,1.372-.064,3.207-.082,4.231-.008.441-.015,1.4-.021,1.843l-.017,1.77v.433c0,.09-.011.318-.019.417-.014.157-.038.464-.07.668.229-.094.47-.181.711-.258C470.3,7.054,470.327,6.8,470.342,6.628Zm3.285.2a.071.071,0,0,0,.069-.072l-.045-.87c-.035-2.433-.079-4.727-.163-7.158a.114.114,0,0,0-.084-.106c-.091-.025-.183-.047-.276-.07a.114.114,0,0,0-.138.085.119.119,0,0,0,0,.024c-.087,2.454-.139,4.766-.176,7.225l-.011.942C473.066,6.826,473.36,6.838,473.627,6.828Zm-5.006.276a14.017,14.017,0,0,0,.168-1.611c.013-.15.011-.775.009-.915l-.009-1.757c-.013-.915-.031-3.111-.061-4.574a.114.114,0,0,0-.114-.114l-.229.016a.114.114,0,0,0-.106.114c-.022,1.239-.043,3.03-.056,3.675a45.94,45.94,0,0,1-.1,4.73,4.691,4.691,0,0,1-.789,2.287,9.933,9.933,0,0,1,1.006-.845A4.749,4.749,0,0,0,468.621,7.1ZM456.112,14a.114.114,0,0,0-.115.113.11.11,0,0,0,0,.016c.015.107.024.215.042.321a.114.114,0,0,0,.114.091c1.732.053,3.612.105,5.341.159.752.023,1.852.046,2.606.025a6.885,6.885,0,0,1,.114-.87c-.582.037-1.509.048-2.084.057C460.166,13.946,458.083,13.973,456.112,14Zm15.894-7.072c0-.343,0-.7-.008-1.042s-.011-.705-.016-1.058c-.034-2.2-.062-4.244-.095-6.436a.114.114,0,0,0-.1-.114q-.136-.021-.271-.038a.114.114,0,0,0-.128.1.124.124,0,0,0,0,.016c-.09,2.325-.129,4.5-.114,6.833,0,.629.009,1.265-.022,1.9.241-.058.492-.109.746-.151Zm11.939-.908a1.15,1.15,0,0,0-1.067-.73h-6.171a.457.457,0,0,1-.457-.457v-7.07a1.144,1.144,0,0,0-.729-1.067,16.687,16.687,0,0,0-12.269,0,1.143,1.143,0,0,0-.73,1.067v6.6a.93.93,0,0,1-.93.93h-6.247a1.151,1.151,0,0,0-1.068.733,16.685,16.685,0,0,0,0,12.27,1.149,1.149,0,0,0,1.067.73H462a.457.457,0,0,1,.457.457v5.655a1.143,1.143,0,0,0,.73,1.067,16.694,16.694,0,0,0,12.27,0,1.143,1.143,0,0,0,.728-1.067V19.953a.93.93,0,0,1,.93-.93h5.754a1.143,1.143,0,0,0,1.067-.73,16.685,16.685,0,0,0,0-12.27Zm-1.38,11.4h-6.01a1.966,1.966,0,0,0-1.966,1.964V24.82a15.1,15.1,0,0,1-10.526,0V17.88a.457.457,0,0,0-.457-.457h-7.947a15.093,15.093,0,0,1,0-10.528h6.5a1.966,1.966,0,0,0,1.966-1.964V-1.92a15.086,15.086,0,0,1,10.526,0V6.438a.457.457,0,0,0,.457.457h7.454a15.094,15.094,0,0,1,0,10.528Zm-.33-4.656c-1.432-.025-2.828-.043-3.659-.056l-1.756-.009c-.137,0-.763,0-.915.009a13.621,13.621,0,0,0-1.611.168,4.872,4.872,0,0,0-3.987,3.98c-.037.105-.068.572-.094.686a30.328,30.328,0,0,0-.07,3.592c.011.747.024,2.13.047,3.517a.114.114,0,0,0,.114.115h.007c.089,0,.178-.011.268-.018a.114.114,0,0,0,.106-.114c.015-1.153.026-2.209.037-2.732,0-.256.009-1.191.011-1.446a26.025,26.025,0,0,1,.17-3.269,4.368,4.368,0,0,1,.686-1.849c1.424-2.134,3.924-2.026,6.2-2.042.295,0,1.372-.009,1.664-.014.572-.011,1.565-.025,2.758-.043a.114.114,0,0,0,.114-.1c.007-.083.01-.167.015-.25a.114.114,0,0,0-.109-.114Zm.021-1.4c-1.7-.042-3.294-.079-4.629-.1l-1.882-.013c-.206,0-.751,0-.973.016a10.3,10.3,0,0,0-1.715.25,5.823,5.823,0,0,0-4.32,4.313c-.056.159-.1.561-.143.727a23.347,23.347,0,0,0-.1,3.837c.016,1.156.037,2.68.071,4.259a.114.114,0,0,0,.108.114c.1.006.2.008.306.01a.114.114,0,0,0,.114-.114c.024-1.222.04-2.313.055-3.119.007-.383.013-1.22.018-1.6a21.3,21.3,0,0,1,.255-3.617,5.184,5.184,0,0,1,.827-2.028,5.284,5.284,0,0,1,3.453-2.227,7.664,7.664,0,0,1,.78-.091c.1-.008.316-.016.416-.019s.327,0,.433,0l1.773-.024c.441,0,1.4-.013,1.843-.021.922-.017,2-.049,3.316-.08a.114.114,0,0,0,.114-.114c0-.082,0-.162-.007-.246a.114.114,0,0,0-.117-.111Zm-.5,4.334h-5.183a3.264,3.264,0,0,0-3.316,3.167v5.291a.114.114,0,0,0,.145.114l.2-.056a.114.114,0,0,0,.082-.114l-.007-5.236a2.834,2.834,0,0,1,2.9-2.767h5.133a.114.114,0,0,0,.114-.081c.017-.058.031-.114.046-.177a.114.114,0,0,0-.085-.138.12.12,0,0,0-.027,0Zm.3-1.418c-1.191-.009-2.173-.007-2.533-.013h-2.484c-.133.013-1.386.04-1.508.083a4.023,4.023,0,0,0-3.651,3.609c-.019.053-.034.583-.048.638-.066.277-.039,3.03-.034,3.31,0,.336.011,1.406.019,2.564a.114.114,0,0,0,.113.116l.021,0c.08-.013.16-.026.239-.041a.114.114,0,0,0,.094-.114c0-1.039.008-1.906.013-2.143,0-.126,0-1.149.006-1.277,0-.286.013-2.614.086-2.887a3.519,3.519,0,0,1,.55-1.651,3.641,3.641,0,0,1,2.808-1.664c.06-.014.566-.024.629-.03.033,0,.3,0,.336-.007h.343l1.424-.006c.148,0,1.334,0,1.487-.007.249,0,.986-.01,2.058-.018a.114.114,0,0,0,.114-.093c.014-.078.024-.158.037-.237a.114.114,0,0,0-.1-.13h-.022Zm-10.474-3.3a12.828,12.828,0,0,1,4.623-.519c2.216.011,3.76-.025,5.946-.107a.114.114,0,0,0,.115-.114.113.113,0,0,0,0-.012c-.011-.1-.024-.2-.038-.294a.114.114,0,0,0-.114-.1c-2.058-.032-3.469-.05-5.554-.082l-1.058-.016a16.011,16.011,0,0,0-3.252.173,6.918,6.918,0,0,0-5.317,5.374,19.089,19.089,0,0,0-.246,4.725c.048,1.58.1,2.894.145,4.467a.114.114,0,0,0,.094.114c.114.019.222.033.334.048a.114.114,0,0,0,.13-.1.108.108,0,0,0,0-.019c.029-1.805.056-3.333.083-5.153.034-2.119.1-4.366,1.268-6.137a5.905,5.905,0,0,1,2.838-2.254Zm.792-1.88c.166-.015.33-.03.5-.032l.519-.009,2.118-.026c2.365-.034,4.054-.095,6.393-.176a.114.114,0,0,0,.111-.117.11.11,0,0,0,0-.022c-.021-.093-.041-.182-.064-.276a.114.114,0,0,0-.107-.087c-2.325-.079-3.989-.127-6.33-.161l-2.119-.024c-.343,0-.73-.006-1.1.027a8.146,8.146,0,0,0-7.148,6.205,17.665,17.665,0,0,0-.172,4.327c.025,1.852.061,3.5.114,5.342a.114.114,0,0,0,.079.106c.13.041.262.071.393.105a.114.114,0,0,0,.139-.082.108.108,0,0,0,0-.027c.056-1.884.09-3.545.114-5.445.04-2.336.107-4.737,1.526-6.7A7.069,7.069,0,0,1,472.378,9.1Zm-12.431,3.152c-.915.017-2.642.045-3.984.073a.114.114,0,0,0-.114.114v.273a.114.114,0,0,0,.114.114c1.691.04,3.854.067,5.129.085.645.011,2.488.061,3.486,0a7.732,7.732,0,0,1,.328-.807c-.938.107-2.688.122-3.362.134C461.169,12.239,460.337,12.244,459.948,12.251Z" transform="translate(0 0)"/></g></svg>