<svg xmlns="http://www.w3.org/2000/svg" width="97.894" height="24" viewBox="0 0 97.894 24"><defs><style>.a{fill:#fff;}</style></defs><path class="a" d="M13.712,10.794c.088-.008.17-.015.255-.017s.176,0,.264,0l1.086-.014c1.212-.017,2.079-.048,3.277-.088a.06.06,0,0,0,.056-.071c-.011-.047-.021-.093-.033-.142a.059.059,0,0,0-.055-.044c-1.192-.04-2.045-.066-3.245-.088l-1.086-.013c-.176,0-.374,0-.564.013A4.176,4.176,0,0,0,10,13.511a9.044,9.044,0,0,0-.088,2.218c.013.95.031,1.793.059,2.739a.058.058,0,0,0,.04.055c.066.021.134.036.2.054a.059.059,0,0,0,.073-.055c.029-.967.047-1.819.061-2.792a5.8,5.8,0,0,1,.783-3.435A3.623,3.623,0,0,1,13.712,10.794Zm-.406.967A6.549,6.549,0,0,1,15.68,11.5c1.137.006,1.928-.012,3.05-.055a.058.058,0,0,0,.056-.065c-.005-.05-.012-.1-.018-.15a.059.059,0,0,0-.058-.05c-1.055-.017-1.778-.026-2.846-.042l-.542-.009a8.359,8.359,0,0,0-1.671.088,3.542,3.542,0,0,0-2.726,2.755A9.78,9.78,0,0,0,10.8,16.39c.025.81.05,1.483.075,2.29a.06.06,0,0,0,.047.057c.057.01.114.017.176.025a.06.06,0,0,0,.068-.057c.014-.926.029-1.709.043-2.642a5.8,5.8,0,0,1,.65-3.146,3.027,3.027,0,0,1,1.449-1.16Zm-5.966.652c-.469.009-1.355.023-2.042.038a.058.058,0,0,0-.057.06v.14a.058.058,0,0,0,.056.056c.867.021,1.977.034,2.63.044.331.005,1.276.031,1.788,0a3.73,3.73,0,0,1,.168-.413c-.48.055-1.379.062-1.723.069-.193,0-.622,0-.819,0ZM19.093,8.847H15.932a.234.234,0,0,1-.235-.234V4.984a.59.59,0,0,0-.374-.547,8.547,8.547,0,0,0-6.29,0,.588.588,0,0,0-.374.547V8.367a.477.477,0,0,1-.477.477h-3.2a.59.59,0,0,0-.548.374,8.551,8.551,0,0,0,0,6.29.589.589,0,0,0,.547.375H8.394a.235.235,0,0,1,.235.234v2.9A.589.589,0,0,0,9,19.564a8.56,8.56,0,0,0,6.29,0,.589.589,0,0,0,.374-.547V16.358a.477.477,0,0,1,.477-.477h2.95a.59.59,0,0,0,.547-.375,8.559,8.559,0,0,0,0-6.29.591.591,0,0,0-.547-.374Zm-.161,6.217H15.854a1.008,1.008,0,0,0-1.007,1.008v2.786a7.731,7.731,0,0,1-5.4,0V15.3a.235.235,0,0,0-.234-.235H5.141a7.732,7.732,0,0,1,0-5.4H8.472A1.008,1.008,0,0,0,9.48,8.657V5.144a7.731,7.731,0,0,1,5.4,0V9.43a.235.235,0,0,0,.234.235h3.821a7.732,7.732,0,0,1,0,5.4Zm-.411-.879H15.863a1.674,1.674,0,0,0-1.7,1.624v2.712a.059.059,0,0,0,.074.056l.1-.028a.059.059,0,0,0,.042-.057V15.809a1.454,1.454,0,0,1,1.486-1.419H18.5a.059.059,0,0,0,.057-.041l.023-.088a.058.058,0,0,0-.061-.084Zm.252-2.227c-.87-.022-1.688-.04-2.374-.05l-.967-.008c-.106,0-.385,0-.5.008a5.337,5.337,0,0,0-.879.128,2.989,2.989,0,0,0-2.209,2.208c-.029.081-.053.288-.073.373a11.848,11.848,0,0,0-.054,1.968c.009.592.019,1.373.037,2.183a.059.059,0,0,0,.055.057,1.551,1.551,0,0,1,.157.005.059.059,0,0,0,.061-.057c.012-.627.02-1.186.028-1.6,0-.2.007-.625.009-.822A10.981,10.981,0,0,1,12.2,14.5a2.672,2.672,0,0,1,.424-1.04,2.708,2.708,0,0,1,1.771-1.143,3.988,3.988,0,0,1,.4-.047c.051,0,.162-.009.214-.01h.222l.908-.009c.226,0,.718-.006.945-.011.472-.009,1.026-.025,1.7-.041a.058.058,0,0,0,.058-.059v-.126A.06.06,0,0,0,18.772,11.958Zm-.01.717c-.734-.013-1.451-.023-1.875-.029l-.9-.005c-.071,0-.391,0-.467.005a6.639,6.639,0,0,0-.826.088,2.5,2.5,0,0,0-2.043,2.041c-.019.054-.035.3-.048.352a15.487,15.487,0,0,0-.036,1.841c.005.383.012,1.093.025,1.8a.058.058,0,0,0,.062.058l.137-.009a.06.06,0,0,0,.055-.058c.008-.592.014-1.133.018-1.4,0-.132.005-.615.006-.742a13.216,13.216,0,0,1,.088-1.675,2.25,2.25,0,0,1,.352-.949c.729-1.094,2.011-1.038,3.178-1.046.151,0,.7-.005.853-.008l1.414-.022a.059.059,0,0,0,.058-.054.759.759,0,0,1,.007-.127.058.058,0,0,0-.055-.063ZM12.037,0a12,12,0,1,0,12,12,12,12,0,0,0-12-12Zm7.656,19.656a10.827,10.827,0,1,1,0-15.312,10.827,10.827,0,0,1,0,15.312Zm-1.016-6.2c-.615,0-1.114,0-1.3-.006H16.1c-.068.006-.71.02-.773.042a2.063,2.063,0,0,0-1.872,1.851c-.01.026-.018.3-.025.327-.033.142-.02,1.553-.018,1.7,0,.176.005.721.01,1.319a.059.059,0,0,0,.069.057l.123-.021a.06.06,0,0,0,.047-.058c0-.533,0-.977.007-1.1v-.654c0-.147.006-1.34.044-1.481A1.8,1.8,0,0,1,14,14.581a1.864,1.864,0,0,1,1.439-.853c.031-.007.29-.012.323-.015H17.6c.128,0,.506-.005,1.055-.009a.059.059,0,0,0,.057-.047q.011-.061.018-.121a.059.059,0,0,0-.053-.083ZM12.67,9.53c.011-.114.009-.394.008-.5l-.008-.967c-.011-.737-.025-1.934-.05-2.838a.059.059,0,0,0-.056-.057h-.124a.059.059,0,0,0-.061.057c-.018.7-.033,1.643-.042,2.165,0,.227-.008.719-.011.945l-.009.908v.222c0,.046-.005.163-.01.214-.007.081-.019.238-.036.343.12-.048.241-.093.365-.133.013-.143.025-.277.033-.361Zm.85.156c0-.176,0-.352,0-.535l-.008-.542c-.018-1.125-.032-2.175-.049-3.3a.059.059,0,0,0-.049-.058l-.138-.018a.059.059,0,0,0-.067.056c-.047,1.191-.066,2.308-.06,3.5,0,.322,0,.648-.011.967.126-.029.255-.055.385-.076ZM5.374,13.308a.057.057,0,0,0-.056.067c.007.055.012.11.022.164a.057.057,0,0,0,.055.047l2.738.082c.386.011.95.023,1.336.012a3.6,3.6,0,0,1,.061-.446c-.3.018-.774.025-1.069.029C7.452,13.277,6.385,13.292,5.374,13.308ZM11.786,9.77a7.433,7.433,0,0,0,.088-.826c.007-.076.006-.4.005-.467l-.005-.9c-.006-.469-.016-1.6-.031-2.344a.059.059,0,0,0-.062-.057l-.119.009a.057.057,0,0,0-.054.056c-.011.636-.023,1.554-.029,1.884a23.723,23.723,0,0,1-.052,2.425,2.421,2.421,0,0,1-.4,1.173,4.632,4.632,0,0,1,.515-.433A2.365,2.365,0,0,0,11.786,9.77Zm2.567-.141a.037.037,0,0,0,.035-.037l-.019-.448c-.018-1.248-.04-2.423-.088-3.669a.06.06,0,0,0-.043-.055L14.1,5.385a.06.06,0,0,0-.073.055c-.044,1.258-.071,2.443-.088,3.7l-.006.483C14.066,9.629,14.216,9.635,14.352,9.63ZM5.306,11.87c.754.013,1.814.02,2.246.026a19.682,19.682,0,0,0,2.076-.035c.056-.014.3-.03.352-.049a2.05,2.05,0,0,0,.232-.048,4.321,4.321,0,0,1,.44-.544,2.244,2.244,0,0,1-.844.288,17.619,17.619,0,0,1-1.91.088c-.131,0-.61,0-.741.006l-1.846.025a.059.059,0,0,0-.057.055c0,.043-.008.088-.011.128a.059.059,0,0,0,.063.061Zm3.484,2.242c-1.037.015-2.2.035-3.237.068a.058.058,0,0,0-.055.074c.017.061.029.118.047.18a.059.059,0,0,0,.055.043c1.016.031,2.179.055,3.19.069.176,0,.5.008.678.014,0-.176,0-.3-.007-.459-.164.006-.506.01-.671.012ZM5.4,11.036c.639.006,1.547.01,1.748.012.144,0,1.554.017,1.7-.018.028-.006.3-.015.326-.025a2.062,2.062,0,0,0,1.846-1.872c.022-.062.036-.7.042-.773V7.088c0-.211-.009-1.124-.015-1.766a.058.058,0,0,0-.068-.057l-.108.018a.058.058,0,0,0-.048.057c-.005.591-.009,1.372-.012,1.521V8.7c0,.032-.009.291-.016.322a1.867,1.867,0,0,1-.856,1.438,1.805,1.805,0,0,1-.845.281c-.14.038-1.332.041-1.479.044H6.957c-.144,0-.946,0-1.533.008a.059.059,0,0,0-.056.048c-.007.039-.015.078-.022.117a.059.059,0,0,0,.054.075Zm.148-.677H8.653a1.676,1.676,0,0,0,1.628-1.7V5.494a.058.058,0,0,0-.074-.057l-.088.025a.06.06,0,0,0-.042.056V8.659a1.455,1.455,0,0,1-1.423,1.486H5.578a.059.059,0,0,0-.056.042c-.01.033-.019.067-.028.1a.059.059,0,0,0,.058.072ZM80.119,5.6h.032a.51.51,0,0,0,.422-.2l.644-.8c.19-.232.088-.422-.211-.422h-.327a.413.413,0,0,0-.412.253l-.395.77c-.119.232-.013.4.251.4ZM43.755,13.568h.3a.317.317,0,0,0,.352-.352V6.531a.317.317,0,0,0-.352-.352h-.3a.316.316,0,0,0-.352.352v6.688A.316.316,0,0,0,43.755,13.568ZM51.045,5.6h.137a.422.422,0,0,0,.411-.253l.327-.538.327.538a.422.422,0,0,0,.411.253H52.8c.243,0,.317-.19.169-.422l-.485-.76a.413.413,0,0,0-.411-.243h-.3a.44.44,0,0,0-.411.243l-.485.76C50.729,5.413,50.8,5.6,51.045,5.6ZM58.41,18.192a1.031,1.031,0,0,0,.176-.607.967.967,0,0,0-.343-.787,1.419,1.419,0,0,0-.941-.286H56.1V19.59h.44v-.936H57.3a1.708,1.708,0,0,0,.193-.009l.664.945h.479l-.73-1.033a.993.993,0,0,0,.5-.365Zm-1.121.088h-.747V16.895h.747a1,1,0,0,1,.637.176.62.62,0,0,1,.22.513.627.627,0,0,1-.22.514A.977.977,0,0,1,57.289,18.28ZM81.4,12.692H79.6V10.266h1.446a.316.316,0,0,0,.352-.352v-.19a.316.316,0,0,0-.352-.352H79.6V7.059h1.772a.311.311,0,0,0,.352-.352V6.531a.316.316,0,0,0-.352-.352H78.952a.316.316,0,0,0-.352.352v6.688a.315.315,0,0,0,.352.352H81.4a.315.315,0,0,0,.352-.352v-.176A.313.313,0,0,0,81.4,12.692ZM77.074,6.186h-.338a.376.376,0,0,0-.39.285l-1.495,4.308L73.374,6.47a.388.388,0,0,0-.4-.285h-.3a.316.316,0,0,0-.352.352v6.688a.315.315,0,0,0,.352.352H72.9a.32.32,0,0,0,.359-.352V8.546l1.224,3.6a.363.363,0,0,0,.38.285.345.345,0,0,0,.369-.285l1.231-3.6v4.673a.317.317,0,0,0,.352.352h.264a.315.315,0,0,0,.352-.352V6.531a.32.32,0,0,0-.355-.348ZM68.58,6.5a.359.359,0,0,0-.38-.317H67.61a.359.359,0,0,0-.38.317L65.9,13.189c-.042.243.075.38.306.38h.264a.343.343,0,0,0,.369-.317l.253-1.424h1.593l.253,1.424a.352.352,0,0,0,.38.317h.306a.282.282,0,0,0,.306-.38Zm-1.329,4.489.644-3.566.644,3.566ZM64.7,6.179h-.3a.316.316,0,0,0-.352.352v6.688a.315.315,0,0,0,.352.352h.3a.317.317,0,0,0,.352-.352V6.531a.317.317,0,0,0-.354-.348Zm-3.577-.088H61.1c-1.118,0-1.794.5-1.794,1.562v4.431c0,1.118.675,1.561,1.794,1.561h.021c1.118,0,1.794-.454,1.794-1.561V10.941a.316.316,0,0,0-.352-.352h-.3a.317.317,0,0,0-.352.352v.96c0,.643-.274.875-.812.875s-.812-.232-.812-.875V7.85c0-.644.274-.879.812-.879s.812.232.812.879v.781a.317.317,0,0,0,.352.352h.3a.316.316,0,0,0,.352-.352V7.664c0-1.069-.678-1.565-1.8-1.565Zm36.8,7.1L96.572,6.5a.359.359,0,0,0-.38-.317H95.6a.359.359,0,0,0-.38.317l-1.329,6.688c-.042.243.074.38.306.38h.264a.343.343,0,0,0,.369-.317l.253-1.424h1.593l.253,1.424a.352.352,0,0,0,.38.317h.306A.283.283,0,0,0,97.923,13.189Zm-2.68-2.2.644-3.566.644,3.566ZM84.449,6.183H82.972a.316.316,0,0,0-.352.352v6.688a.315.315,0,0,0,.352.352h1.477c1.118,0,1.794-.474,1.794-1.562V7.744C86.243,6.658,85.567,6.183,84.449,6.183Zm.8,5.634c0,.653-.3.875-.844.875h-.791V7.059h.791c.549,0,.844.222.844.879ZM91.413,6.1h-.022c-1.118,0-1.794.5-1.794,1.562v4.431c0,1.118.675,1.561,1.794,1.561h.021c1.118,0,1.794-.454,1.794-1.561V10.941a.316.316,0,0,0-.352-.352h-.3a.317.317,0,0,0-.352.352v.96c0,.643-.274.875-.812.875s-.812-.232-.812-.875V7.85c0-.644.274-.879.812-.879s.812.232.812.879v.781a.317.317,0,0,0,.352.352h.3a.316.316,0,0,0,.352-.352V7.664c0-1.069-.672-1.565-1.793-1.565Zm-3.341.088h-.3a.316.316,0,0,0-.352.352V13.23a.315.315,0,0,0,.352.352h.3a.317.317,0,0,0,.352-.352v-6.7a.317.317,0,0,0-.355-.348ZM44.355,16.477a1.124,1.124,0,0,0-1.011.47v-.435h-.422V19.59h.44V17.849a1,1,0,0,1,.242-.73.888.888,0,0,1,.664-.246.8.8,0,0,1,.611.23.951.951,0,0,1,.22.68v1.811h.44V17.765a1.346,1.346,0,0,0-.312-.954A1.133,1.133,0,0,0,44.355,16.477Zm-6.214-3.258v-.176a.311.311,0,0,0-.352-.352h-1.8V10.266h1.445a.316.316,0,0,0,.352-.352v-.19a.316.316,0,0,0-.352-.352H35.989V7.059h1.773a.311.311,0,0,0,.352-.352V6.531a.316.316,0,0,0-.352-.352H35.345a.316.316,0,0,0-.352.352v6.688a.315.315,0,0,0,.352.352h2.448A.316.316,0,0,0,38.141,13.219Zm3.176-3.555-.96-.528c-.422-.243-.58-.4-.58-.844V7.787c0-.591.285-.823.791-.823s.791.232.791.823v.654a.316.316,0,0,0,.352.352h.274a.316.316,0,0,0,.352-.352V7.618c0-1.066-.739-1.519-1.751-1.519h-.021c-1.013,0-1.751.454-1.751,1.519v.928c0,.7.359,1.023,1.034,1.414l.95.528c.433.243.591.433.591.879v.579c0,.58-.285.844-.8.844s-.8-.264-.8-.844v-.738a.316.316,0,0,0-.352-.352h-.278a.316.316,0,0,0-.352.352v.907c0,1.118.644,1.54,1.758,1.54h.021c1.118,0,1.758-.433,1.758-1.54V11.089c.011-.707-.39-1.066-1.023-1.424Zm-3.7,6.812a1.3,1.3,0,0,0-.963.358,1.394,1.394,0,0,0-.356,1.027V19.59h.431v-.848h1.776v.848h.44V17.862a1.4,1.4,0,0,0-.356-1.027A1.3,1.3,0,0,0,37.62,16.477Zm.888,1.882H36.732v-.536a.981.981,0,0,1,.236-.712,1,1,0,0,1,1.306,0,.983.983,0,0,1,.235.712Zm-5.494-7.966a1.375,1.375,0,0,0,.865-1.414V7.748c0-1.087-.675-1.562-1.794-1.562H30.59a.316.316,0,0,0-.352.352v6.688a.315.315,0,0,0,.352.352h.3a.317.317,0,0,0,.352-.352V10.54H32.1l.928,2.742a.366.366,0,0,0,.39.285h.29a.281.281,0,0,0,.3-.4ZM32.887,8.8c0,.654-.3.879-.844.879h-.812V7.059h.811c.549,0,.844.222.844.879ZM50.8,16.477a1.312,1.312,0,0,0-.967.358,1.357,1.357,0,0,0-.352,1.027V19.59h.431v-.848h1.776v.848h.44V17.862a1.4,1.4,0,0,0-.356-1.027A1.3,1.3,0,0,0,50.8,16.477Zm.888,1.882H49.912v-.536a.981.981,0,0,1,.236-.712,1,1,0,0,1,1.306,0,.983.983,0,0,1,.235.712Zm-19.594-.325a4.132,4.132,0,0,0-.558-.167,4.057,4.057,0,0,1-.424-.117.728.728,0,0,1-.264-.154.336.336,0,0,1-.106-.257.416.416,0,0,1,.187-.352.969.969,0,0,1,.56-.136,1.549,1.549,0,0,1,.431.063,1.583,1.583,0,0,1,.413.187l.145-.352a1.417,1.417,0,0,0-.453-.2,2.046,2.046,0,0,0-.536-.07,1.6,1.6,0,0,0-.655.119.888.888,0,0,0-.393.317.791.791,0,0,0-.13.444.685.685,0,0,0,.152.468.929.929,0,0,0,.365.258,4.541,4.541,0,0,0,.56.167q.277.066.429.119a.7.7,0,0,1,.255.151.342.342,0,0,1,.1.258.4.4,0,0,1-.189.345,1,1,0,0,1-.572.13,1.652,1.652,0,0,1-.565-.1A1.349,1.349,0,0,1,30.4,18.9l-.163.343a1.37,1.37,0,0,0,.508.279,2.1,2.1,0,0,0,.67.108,1.643,1.643,0,0,0,.659-.117.879.879,0,0,0,.4-.317.783.783,0,0,0,.132-.44.672.672,0,0,0-.151-.462A.938.938,0,0,0,32.094,18.033Zm25.419-4.466h.306a.315.315,0,0,0,.352-.352V6.531a.316.316,0,0,0-.352-.352H57.6a.317.317,0,0,0-.352.352v4.737l-1.751-4.8a.388.388,0,0,0-.4-.285h-.352a.316.316,0,0,0-.352.352v6.688a.315.315,0,0,0,.352.352h.222a.317.317,0,0,0,.352-.352V8.314l1.8,4.969A.376.376,0,0,0,57.513,13.568Zm-4.336-.879h-1.8V10.266h1.445a.316.316,0,0,0,.352-.352v-.19a.316.316,0,0,0-.352-.352H51.372V7.059h1.771a.311.311,0,0,0,.352-.352V6.531a.316.316,0,0,0-.352-.352H50.729a.316.316,0,0,0-.352.352v6.688a.315.315,0,0,0,.352.352h2.448a.315.315,0,0,0,.352-.352v-.176a.313.313,0,0,0-.352-.352ZM47.447,6.182H45.97a.316.316,0,0,0-.352.352v6.688a.315.315,0,0,0,.352.352h1.477c1.118,0,1.794-.474,1.794-1.562V7.744c0-1.087-.675-1.562-1.794-1.562Zm.8,5.634c0,.653-.3.875-.844.875h-.791V7.059h.791c.549,0,.844.222.844.879Z" transform="translate(-0.04 0)"/></svg>