<svg xmlns="http://www.w3.org/2000/svg" width="104" height="25.497" viewBox="0 0 104 25.497"><defs><style>.a{fill:#5a6275;}</style></defs><g transform="translate(21.96 -11)"><g transform="translate(-21.96 11)"><path class="a" d="M14.565,11.467c.093-.008.18-.016.271-.018s.187,0,.28,0l1.154-.015c1.288-.018,2.208-.051,3.481-.093a.064.064,0,0,0,.06-.076c-.011-.05-.022-.1-.035-.15a.063.063,0,0,0-.059-.047c-1.267-.043-2.173-.07-3.448-.093l-1.154-.014c-.187,0-.4,0-.6.014a4.436,4.436,0,0,0-3.892,3.38,9.608,9.608,0,0,0-.093,2.357c.014,1.009.033,1.9.063,2.91a.062.062,0,0,0,.043.058c.07.022.142.038.214.057a.063.063,0,0,0,.078-.059c.031-1.027.05-1.933.064-2.966a6.161,6.161,0,0,1,.831-3.649A3.848,3.848,0,0,1,14.565,11.467Zm-.432,1.027a6.957,6.957,0,0,1,2.522-.28c1.208.007,2.048-.013,3.24-.058a.062.062,0,0,0,.06-.069c-.006-.053-.013-.107-.02-.16a.063.063,0,0,0-.062-.053c-1.121-.018-1.889-.028-3.024-.045l-.576-.009a8.88,8.88,0,0,0-1.775.093,3.763,3.763,0,0,0-2.9,2.927,10.39,10.39,0,0,0-.135,2.572c.026.86.053,1.576.079,2.433a.064.064,0,0,0,.05.061c.061.01.121.018.187.026a.064.064,0,0,0,.072-.061c.015-.984.031-1.816.046-2.807a6.165,6.165,0,0,1,.69-3.342,3.216,3.216,0,0,1,1.539-1.232ZM7.8,13.187c-.5.009-1.439.024-2.17.04a.062.062,0,0,0-.061.064v.149a.062.062,0,0,0,.06.06c.921.022,2.1.036,2.794.047.351.006,1.355.033,1.9,0a3.963,3.963,0,0,1,.178-.439c-.51.058-1.465.066-1.831.073-.2,0-.66,0-.87,0ZM20.281,9.4H16.923a.248.248,0,0,1-.249-.248V5.3a.627.627,0,0,0-.4-.581,9.08,9.08,0,0,0-6.682,0,.625.625,0,0,0-.4.581V8.889A.506.506,0,0,1,8.69,9.4h-3.4a.627.627,0,0,0-.582.4,9.084,9.084,0,0,0,0,6.682.626.626,0,0,0,.581.4H8.915a.249.249,0,0,1,.249.248V20.2a.626.626,0,0,0,.4.581,9.093,9.093,0,0,0,6.682,0,.626.626,0,0,0,.4-.581V17.379a.506.506,0,0,1,.506-.506h3.134a.627.627,0,0,0,.581-.4,9.093,9.093,0,0,0,0-6.682.628.628,0,0,0-.581-.4ZM20.11,16H16.841a1.07,1.07,0,0,0-1.07,1.07v2.96a8.213,8.213,0,0,1-5.733,0V16.253A.249.249,0,0,0,9.789,16H5.46a8.214,8.214,0,0,1,0-5.733H9A1.07,1.07,0,0,0,10.068,9.2V5.465a8.213,8.213,0,0,1,5.733,0v4.553a.249.249,0,0,0,.248.249h4.06a8.214,8.214,0,0,1,0,5.732Zm-.437-.934H16.85a1.779,1.779,0,0,0-1.807,1.725v2.882a.063.063,0,0,0,.078.06l.108-.03a.063.063,0,0,0,.045-.061V16.795a1.545,1.545,0,0,1,1.579-1.508h2.8a.063.063,0,0,0,.061-.044l.024-.093a.062.062,0,0,0-.064-.089Zm.268-2.366c-.924-.023-1.793-.043-2.522-.053l-1.027-.008c-.112,0-.409,0-.53.008a5.67,5.67,0,0,0-.934.136,3.176,3.176,0,0,0-2.346,2.345c-.031.086-.056.306-.078.4a12.587,12.587,0,0,0-.057,2.09c.009.629.021,1.459.039,2.319a.063.063,0,0,0,.059.061,1.648,1.648,0,0,1,.166.006.063.063,0,0,0,.064-.061c.013-.666.021-1.26.03-1.7,0-.209.007-.664.009-.873a11.666,11.666,0,0,1,.139-1.969A2.839,2.839,0,0,1,13.4,14.3a2.877,2.877,0,0,1,1.881-1.214,4.237,4.237,0,0,1,.424-.05c.054,0,.172-.009.227-.01h.235l.965-.009c.24,0,.763-.007,1-.011.5-.009,1.09-.027,1.8-.044a.062.062,0,0,0,.062-.063v-.134A.064.064,0,0,0,19.941,12.7Zm-.01.761c-.78-.014-1.541-.024-1.991-.031l-.956-.006c-.076,0-.416,0-.5.006a7.053,7.053,0,0,0-.878.093A2.652,2.652,0,0,0,13.439,15.7c-.021.057-.037.314-.051.374a16.454,16.454,0,0,0-.038,1.956c.006.407.013,1.161.026,1.916A.062.062,0,0,0,13.44,20l.146-.009a.064.064,0,0,0,.058-.062c.008-.629.015-1.2.02-1.488,0-.14.006-.654.007-.788a14.04,14.04,0,0,1,.093-1.779,2.39,2.39,0,0,1,.374-1.008c.774-1.162,2.136-1.1,3.376-1.112.161,0,.747-.006.906-.008l1.5-.023a.063.063,0,0,0,.062-.057.807.807,0,0,1,.007-.135.062.062,0,0,0-.058-.067ZM12.785,0A12.748,12.748,0,1,0,25.537,12.75,12.748,12.748,0,0,0,12.785,0Zm8.133,20.882a11.5,11.5,0,1,1,0-16.267,11.5,11.5,0,0,1,0,16.267Zm-1.079-6.59c-.654,0-1.183,0-1.38-.007H17.107c-.072.007-.755.021-.821.045A2.192,2.192,0,0,0,14.3,16.3c-.01.028-.019.318-.026.347-.035.15-.021,1.65-.019,1.8,0,.187.006.766.01,1.4a.063.063,0,0,0,.073.061l.131-.022a.064.064,0,0,0,.05-.062c0-.566,0-1.038.007-1.167v-.695c0-.156.007-1.424.047-1.573a1.916,1.916,0,0,1,.3-.9,1.98,1.98,0,0,1,1.529-.906c.033-.007.308-.013.343-.016h1.951c.136,0,.537-.006,1.121-.009a.063.063,0,0,0,.061-.05q.011-.064.02-.129a.063.063,0,0,0-.056-.088Zm-6.382-4.167c.011-.121.009-.418.008-.531l-.008-1.027c-.011-.783-.027-2.055-.053-3.015a.063.063,0,0,0-.06-.061h-.132a.063.063,0,0,0-.064.061c-.02.747-.035,1.746-.045,2.3,0,.241-.008.764-.011,1l-.009.965v.235c0,.049-.006.173-.01.227-.007.086-.021.253-.038.364.127-.051.256-.1.388-.141.014-.152.026-.294.035-.384Zm.9.165c0-.187,0-.374,0-.568l-.008-.576c-.019-1.2-.034-2.311-.052-3.5a.063.063,0,0,0-.052-.062L14.1,5.56a.063.063,0,0,0-.071.06c-.05,1.266-.07,2.452-.064,3.721,0,.342,0,.688-.011,1.027.134-.031.271-.059.409-.081ZM5.706,14.138a.061.061,0,0,0-.06.071c.007.058.013.117.023.175a.061.061,0,0,0,.059.05l2.909.087c.41.012,1.009.024,1.419.013a3.823,3.823,0,0,1,.064-.474c-.318.02-.822.026-1.136.031C7.914,14.1,6.78,14.122,5.706,14.138Zm6.812-3.759a7.9,7.9,0,0,0,.093-.877c.007-.081.007-.421.006-.5l-.006-.957c-.007-.5-.017-1.7-.033-2.49a.063.063,0,0,0-.065-.061l-.126.009a.061.061,0,0,0-.057.06c-.012.675-.024,1.651-.031,2a25.2,25.2,0,0,1-.055,2.576,2.572,2.572,0,0,1-.43,1.246,4.921,4.921,0,0,1,.547-.461A2.513,2.513,0,0,0,12.519,10.38Zm2.727-.149a.039.039,0,0,0,.037-.039l-.021-.476c-.019-1.325-.043-2.574-.093-3.9a.064.064,0,0,0-.046-.059l-.149-.037a.064.064,0,0,0-.078.059c-.047,1.337-.076,2.6-.093,3.935l-.007.513C14.941,10.229,15.1,10.236,15.245,10.23ZM5.634,12.61c.8.014,1.927.021,2.387.028a20.91,20.91,0,0,0,2.205-.037c.06-.015.317-.032.374-.052a2.178,2.178,0,0,0,.247-.051,4.59,4.59,0,0,1,.467-.578,2.384,2.384,0,0,1-.9.305,18.718,18.718,0,0,1-2.029.093c-.139,0-.648,0-.787.007-.331.006-1.28.017-1.962.027a.063.063,0,0,0-.061.058c0,.046-.008.093-.011.136a.063.063,0,0,0,.067.064Zm3.7,2.382c-1.1.016-2.335.037-3.438.072a.062.062,0,0,0-.058.078c.018.064.031.125.05.191a.063.063,0,0,0,.058.046c1.079.033,2.315.059,3.389.074.187,0,.527.008.72.015,0-.187,0-.319-.007-.488-.175.007-.537.01-.713.013Zm-3.6-3.267c.679.007,1.644.01,1.857.013.153,0,1.651.018,1.8-.019.03-.007.319-.016.347-.026A2.19,2.19,0,0,0,11.7,9.7c.023-.066.038-.747.045-.821V7.531c0-.224-.009-1.194-.016-1.876a.062.062,0,0,0-.072-.061l-.115.02a.062.062,0,0,0-.051.061c-.006.628-.009,1.457-.013,1.616V9.247c0,.034-.009.309-.017.342a1.983,1.983,0,0,1-.91,1.527,1.918,1.918,0,0,1-.9.3c-.149.04-1.415.044-1.571.047H7.389c-.153,0-1.005,0-1.628.008a.063.063,0,0,0-.06.051c-.007.041-.016.083-.023.124a.063.063,0,0,0,.057.079Zm.157-.719h3.3A1.781,1.781,0,0,0,10.92,9.2V5.836a.062.062,0,0,0-.078-.061l-.093.027a.064.064,0,0,0-.045.06V9.2a1.546,1.546,0,0,1-1.511,1.579H5.923a.063.063,0,0,0-.06.045c-.01.035-.021.071-.03.106a.063.063,0,0,0,.062.077ZM85.114,5.952h.034a.542.542,0,0,0,.448-.213l.684-.852c.2-.247.093-.448-.224-.448h-.347a.439.439,0,0,0-.437.269l-.419.818c-.126.247-.014.426.266.426ZM46.481,14.414h.314a.336.336,0,0,0,.374-.374v-7.1a.336.336,0,0,0-.374-.374h-.314a.335.335,0,0,0-.374.374v7.106A.335.335,0,0,0,46.481,14.414Zm7.745-8.462h.146a.448.448,0,0,0,.437-.269l.347-.572.347.572a.448.448,0,0,0,.437.269h.146c.258,0,.336-.2.179-.448L55.751,4.7a.439.439,0,0,0-.437-.258H55a.467.467,0,0,0-.437.258l-.516.807C53.89,5.75,53.969,5.952,54.227,5.952ZM62.05,19.326a1.1,1.1,0,0,0,.187-.645,1.028,1.028,0,0,0-.364-.836,1.508,1.508,0,0,0-1-.3H59.6v3.269h.467v-.995h.808a1.814,1.814,0,0,0,.205-.009l.705,1h.509l-.775-1.1a1.055,1.055,0,0,0,.532-.388Zm-1.191.093h-.794V17.948h.794a1.065,1.065,0,0,1,.677.187.659.659,0,0,1,.234.545.666.666,0,0,1-.234.546A1.038,1.038,0,0,1,60.859,19.42Zm25.615-5.936H84.557V10.906h1.536a.335.335,0,0,0,.374-.374v-.2a.335.335,0,0,0-.374-.374H84.557V7.5h1.882a.33.33,0,0,0,.374-.374V6.938a.335.335,0,0,0-.374-.374H83.874a.335.335,0,0,0-.374.374v7.106a.335.335,0,0,0,.374.374h2.6a.335.335,0,0,0,.374-.374v-.187A.332.332,0,0,0,86.474,13.484Zm-4.6-6.912H81.52a.4.4,0,0,0-.415.3l-1.588,4.577L77.948,6.874a.412.412,0,0,0-.426-.3h-.314a.335.335,0,0,0-.374.374v7.106a.335.335,0,0,0,.374.374h.235a.34.34,0,0,0,.381-.374V9.079l1.3,3.822a.386.386,0,0,0,.4.3.366.366,0,0,0,.392-.3l1.308-3.822v4.965a.336.336,0,0,0,.374.374h.28a.335.335,0,0,0,.374-.374V6.938a.34.34,0,0,0-.377-.37Zm-9.023.336a.381.381,0,0,0-.4-.336h-.628a.381.381,0,0,0-.4.336l-1.412,7.1c-.045.258.079.4.325.4h.28a.364.364,0,0,0,.392-.336l.269-1.512h1.693l.269,1.512a.374.374,0,0,0,.4.336h.325a.3.3,0,0,0,.325-.4Zm-1.412,4.769.684-3.789.684,3.789ZM68.734,6.565H68.42a.335.335,0,0,0-.374.374v7.106a.335.335,0,0,0,.374.374h.314a.336.336,0,0,0,.374-.374V6.938a.336.336,0,0,0-.376-.37Zm-3.8-.093h-.022c-1.188,0-1.906.527-1.906,1.659v4.708c0,1.187.717,1.658,1.906,1.658h.022c1.188,0,1.906-.482,1.906-1.658V11.624a.335.335,0,0,0-.374-.374h-.314a.336.336,0,0,0-.374.374v1.02c0,.683-.291.929-.863.929s-.863-.247-.863-.929V8.34c0-.684.291-.934.863-.934s.863.247.863.934v.829a.336.336,0,0,0,.374.374h.314a.335.335,0,0,0,.374-.374V8.141c0-1.136-.72-1.663-1.908-1.663Zm39.093,7.54-1.435-7.106a.381.381,0,0,0-.4-.336h-.628a.381.381,0,0,0-.4.336l-1.412,7.106c-.045.258.078.4.325.4h.28a.364.364,0,0,0,.392-.336l.269-1.512H102.7l.269,1.512a.374.374,0,0,0,.4.336h.325A.3.3,0,0,0,104.027,14.011Zm-2.847-2.335.684-3.789.684,3.789ZM89.713,6.568H88.144a.335.335,0,0,0-.374.374v7.106a.335.335,0,0,0,.374.374h1.569c1.188,0,1.906-.5,1.906-1.659V8.227C91.619,7.073,90.9,6.568,89.713,6.568Zm.852,5.986c0,.694-.314.929-.9.929h-.841V7.5h.841c.583,0,.9.235.9.934Zm6.546-6.072h-.023c-1.188,0-1.906.527-1.906,1.659v4.708c0,1.187.717,1.658,1.906,1.658h.022c1.188,0,1.906-.482,1.906-1.658V11.624a.335.335,0,0,0-.374-.374h-.314a.336.336,0,0,0-.374.374v1.02c0,.683-.291.929-.863.929s-.863-.247-.863-.929V8.34c0-.684.291-.934.863-.934s.863.247.863.934v.829a.336.336,0,0,0,.374.374h.314a.335.335,0,0,0,.374-.374V8.141c0-1.136-.714-1.663-1.9-1.663Zm-3.55.093h-.314a.335.335,0,0,0-.374.374v7.106a.335.335,0,0,0,.374.374h.314a.336.336,0,0,0,.374-.374V6.938a.336.336,0,0,0-.377-.37ZM47.119,17.5a1.194,1.194,0,0,0-1.074.5v-.462H45.6v3.269h.467V18.962a1.064,1.064,0,0,1,.257-.775.943.943,0,0,1,.705-.262.852.852,0,0,1,.649.245,1.01,1.01,0,0,1,.234.722v1.924h.467V18.873a1.43,1.43,0,0,0-.332-1.013A1.2,1.2,0,0,0,47.119,17.5Zm-6.6-3.461v-.187a.33.33,0,0,0-.374-.374H38.231V10.906h1.536a.335.335,0,0,0,.374-.374v-.2a.335.335,0,0,0-.374-.374H38.231V7.5h1.883a.33.33,0,0,0,.374-.374V6.938a.335.335,0,0,0-.374-.374H37.547a.335.335,0,0,0-.374.374v7.106a.335.335,0,0,0,.374.374h2.6A.335.335,0,0,0,40.518,14.044Zm3.374-3.777-1.02-.56c-.448-.258-.616-.426-.616-.9V8.272c0-.628.3-.874.841-.874s.841.247.841.874v.695a.335.335,0,0,0,.374.374H44.6a.335.335,0,0,0,.374-.374V8.093c0-1.132-.785-1.614-1.861-1.614h-.022c-1.076,0-1.861.482-1.861,1.614v.986c0,.747.381,1.087,1.1,1.5l1.009.56c.46.258.628.46.628.934v.616c0,.616-.3.9-.852.9s-.852-.28-.852-.9v-.784a.335.335,0,0,0-.374-.374h-.3a.335.335,0,0,0-.374.374v.963c0,1.188.684,1.637,1.868,1.637h.022c1.188,0,1.868-.46,1.868-1.637v-1.09c.011-.751-.415-1.132-1.087-1.513ZM39.964,17.5a1.378,1.378,0,0,0-1.023.38,1.481,1.481,0,0,0-.378,1.091v1.835h.458v-.9h1.887v.9h.467V18.976A1.483,1.483,0,0,0,41,17.885,1.386,1.386,0,0,0,39.964,17.5Zm.943,2H39.02v-.57a1.042,1.042,0,0,1,.25-.757,1.065,1.065,0,0,1,1.387,0,1.045,1.045,0,0,1,.249.757ZM35.07,11.041a1.46,1.46,0,0,0,.919-1.5V8.231c0-1.155-.717-1.659-1.906-1.659H32.5a.335.335,0,0,0-.374.374v7.106a.335.335,0,0,0,.374.374h.314a.336.336,0,0,0,.374-.374V11.2H34.1l.986,2.913a.389.389,0,0,0,.415.3h.308a.3.3,0,0,0,.314-.426Zm-.135-1.693c0,.695-.314.934-.9.934h-.863V7.5h.861c.583,0,.9.235.9.934ZM53.966,17.5a1.394,1.394,0,0,0-1.027.38,1.442,1.442,0,0,0-.374,1.091v1.835h.458v-.9h1.887v.9h.467V18.976A1.483,1.483,0,0,0,55,17.885,1.386,1.386,0,0,0,53.966,17.5Zm.943,2H53.022v-.57a1.042,1.042,0,0,1,.25-.757,1.065,1.065,0,0,1,1.387,0,1.045,1.045,0,0,1,.249.757Zm-20.816-.346a4.39,4.39,0,0,0-.593-.177,4.31,4.31,0,0,1-.45-.124.773.773,0,0,1-.28-.163.357.357,0,0,1-.112-.273.442.442,0,0,1,.2-.374,1.03,1.03,0,0,1,.6-.145,1.646,1.646,0,0,1,.458.067,1.681,1.681,0,0,1,.439.2l.154-.374a1.506,1.506,0,0,0-.481-.215,2.174,2.174,0,0,0-.57-.075,1.7,1.7,0,0,0-.7.126.943.943,0,0,0-.418.336.841.841,0,0,0-.138.472.728.728,0,0,0,.162.5.986.986,0,0,0,.388.274,4.824,4.824,0,0,0,.6.177q.294.07.456.126a.738.738,0,0,1,.271.161.363.363,0,0,1,.109.274.422.422,0,0,1-.2.366,1.065,1.065,0,0,1-.607.138,1.755,1.755,0,0,1-.6-.106,1.433,1.433,0,0,1-.479-.273l-.173.364a1.455,1.455,0,0,0,.54.3,2.228,2.228,0,0,0,.712.115,1.745,1.745,0,0,0,.7-.124.934.934,0,0,0,.425-.336.832.832,0,0,0,.14-.467.714.714,0,0,0-.161-.49A1,1,0,0,0,34.093,19.158Zm27-4.744h.325a.335.335,0,0,0,.374-.374v-7.1a.335.335,0,0,0-.374-.374h-.235a.336.336,0,0,0-.374.374v5.033l-1.861-5.1a.412.412,0,0,0-.426-.3h-.374a.335.335,0,0,0-.374.374v7.106a.335.335,0,0,0,.374.374h.235a.336.336,0,0,0,.374-.374V8.833l1.917,5.279A.4.4,0,0,0,61.1,14.414Zm-4.607-.934H54.574V10.906H56.11a.335.335,0,0,0,.374-.374v-.2a.335.335,0,0,0-.374-.374H54.574V7.5h1.881a.33.33,0,0,0,.374-.374V6.938a.335.335,0,0,0-.374-.374H53.89a.335.335,0,0,0-.374.374v7.106a.335.335,0,0,0,.374.374h2.6a.335.335,0,0,0,.374-.374v-.187a.332.332,0,0,0-.374-.374ZM50.4,6.568H48.835a.335.335,0,0,0-.374.374v7.106a.335.335,0,0,0,.374.374H50.4c1.188,0,1.906-.5,1.906-1.659V8.227c0-1.155-.717-1.659-1.906-1.659Zm.852,5.986c0,.694-.314.929-.9.929h-.841V7.5h.841c.583,0,.9.235.9.934Z" transform="translate(-0.04 0)"/></g></g></svg>