<svg xmlns="http://www.w3.org/2000/svg" width="163.157" height="40" viewBox="0 0 163.157 40"><defs><style>.a{fill:#099e76;}</style></defs><g transform="translate(-0.04 0)"><g transform="translate(0.04 0)"><path class="a" d="M22.827,17.989c.147-.013.283-.025.425-.028s.293,0,.44,0l1.81-.023c2.021-.028,3.464-.081,5.462-.147a.1.1,0,0,0,.094-.119c-.018-.079-.035-.155-.054-.236a.1.1,0,0,0-.092-.073c-1.987-.067-3.409-.11-5.409-.147l-1.81-.022c-.293,0-.623,0-.939.022a6.959,6.959,0,0,0-6.106,5.3,15.073,15.073,0,0,0-.147,3.7c.022,1.583.051,2.988.1,4.565a.1.1,0,0,0,.067.091c.11.035.223.06.336.089a.1.1,0,0,0,.122-.092c.048-1.612.078-3.032.1-4.653.035-2,.092-4.047,1.3-5.725a6.038,6.038,0,0,1,4.3-2.5ZM22.15,19.6a10.914,10.914,0,0,1,3.957-.44c1.895.01,3.214-.021,5.084-.091a.1.1,0,0,0,.094-.108c-.009-.084-.021-.169-.031-.251a.1.1,0,0,0-.1-.084c-1.758-.028-2.963-.044-4.744-.07l-.9-.015a13.932,13.932,0,0,0-2.784.147,5.9,5.9,0,0,0-4.543,4.591,16.3,16.3,0,0,0-.211,4.036c.041,1.35.084,2.472.125,3.817a.1.1,0,0,0,.079.1c.1.016.191.028.293.041a.1.1,0,0,0,.113-.1c.023-1.543.048-2.849.072-4.4.028-1.81.088-3.731,1.083-5.243A5.045,5.045,0,0,1,22.15,19.6Zm-9.943,1.087c-.781.015-2.258.038-3.4.063a.1.1,0,0,0-.1.1v.233a.1.1,0,0,0,.094.094c1.445.035,3.294.057,4.383.073.551.009,2.126.051,2.979,0a6.218,6.218,0,0,1,.28-.689c-.8.091-2.3.1-2.872.114-.321,0-1.036,0-1.364.006Zm19.587-5.944H26.526a.39.39,0,0,1-.391-.39V8.307a.983.983,0,0,0-.623-.911,14.245,14.245,0,0,0-10.484,0,.98.98,0,0,0-.623.911v5.637a.794.794,0,0,1-.8.794H8.274a.983.983,0,0,0-.913.623,14.251,14.251,0,0,0,0,10.484.982.982,0,0,0,.911.624h5.69a.391.391,0,0,1,.391.39V31.7a.982.982,0,0,0,.623.911,14.266,14.266,0,0,0,10.484,0,.982.982,0,0,0,.623-.911V27.264a.794.794,0,0,1,.794-.794h4.916a.983.983,0,0,0,.911-.624,14.266,14.266,0,0,0,0-10.484.985.985,0,0,0-.911-.623Zm-.268,10.362H26.4a1.679,1.679,0,0,0-1.678,1.679V31.43a12.885,12.885,0,0,1-8.995,0V25.5a.391.391,0,0,0-.39-.391H8.542a12.887,12.887,0,0,1,0-8.993h5.551a1.679,1.679,0,0,0,1.679-1.685V8.574a12.885,12.885,0,0,1,8.995,0v7.142a.391.391,0,0,0,.39.391h6.369a12.887,12.887,0,0,1,0,8.993Zm-.686-1.465H26.412a2.79,2.79,0,0,0-2.834,2.707v4.521a.1.1,0,0,0,.123.094l.17-.047a.1.1,0,0,0,.07-.1V26.348a2.423,2.423,0,0,1,2.477-2.365h4.39a.1.1,0,0,0,.1-.069l.038-.147a.1.1,0,0,0-.1-.139Zm.421-3.712c-1.449-.037-2.814-.067-3.957-.084l-1.612-.013c-.176,0-.642,0-.831.013a8.9,8.9,0,0,0-1.465.214,4.982,4.982,0,0,0-3.681,3.68c-.048.135-.088.481-.122.621a19.748,19.748,0,0,0-.089,3.28c.015.986.032,2.289.062,3.639a.1.1,0,0,0,.092.1,2.583,2.583,0,0,1,.261.009.1.1,0,0,0,.1-.1c.021-1.045.034-1.977.047-2.666,0-.328.012-1.042.015-1.37a18.3,18.3,0,0,1,.218-3.089,4.453,4.453,0,0,1,.706-1.734,4.513,4.513,0,0,1,2.951-1.905,6.647,6.647,0,0,1,.665-.078c.085-.007.27-.015.356-.016s.28,0,.369,0l1.514-.015c.377,0,1.2-.01,1.575-.018.787-.015,1.71-.042,2.83-.069a.1.1,0,0,0,.1-.1v-.21A.1.1,0,0,0,31.261,19.93Zm-.016,1.194c-1.224-.022-2.418-.038-3.124-.048l-1.5-.009c-.119,0-.652,0-.778.009a11.065,11.065,0,0,0-1.377.147,4.16,4.16,0,0,0-3.406,3.4c-.032.089-.059.492-.081.586a25.813,25.813,0,0,0-.06,3.069c.009.639.021,1.822.041,3.006a.1.1,0,0,0,.1.1l.229-.015a.1.1,0,0,0,.091-.1c.013-.986.023-1.889.031-2.334,0-.22.009-1.026.01-1.237a22.026,22.026,0,0,1,.147-2.792,3.75,3.75,0,0,1,.586-1.581c1.215-1.823,3.351-1.731,5.3-1.744.252,0,1.172-.009,1.421-.013l2.356-.037a.1.1,0,0,0,.1-.089,1.266,1.266,0,0,1,.012-.212.1.1,0,0,0-.091-.106ZM20.034,0A20,20,0,1,0,40.04,20,20,20,0,0,0,20.034,0ZM32.794,32.759a18.046,18.046,0,1,1,0-25.52,18.046,18.046,0,0,1,0,25.52ZM31.1,22.421c-1.026-.007-1.857,0-2.164-.01H26.815c-.113.01-1.184.034-1.288.07a3.438,3.438,0,0,0-3.12,3.085c-.016.044-.029.5-.041.545-.056.236-.034,2.588-.029,2.828,0,.293.009,1.2.016,2.2a.1.1,0,0,0,.114.1l.205-.035a.1.1,0,0,0,.079-.1c0-.888.007-1.628.012-1.83V28.18c0-.245.01-2.233.073-2.468a3.006,3.006,0,0,1,.47-1.411,3.107,3.107,0,0,1,2.4-1.421c.051-.012.484-.021.538-.025H29.3c.214,0,.843-.009,1.758-.015a.1.1,0,0,0,.1-.079q.018-.1.031-.2a.1.1,0,0,0-.088-.138ZM21.089,15.884c.018-.191.015-.657.013-.832l-.013-1.612c-.018-1.228-.042-3.224-.084-4.73a.1.1,0,0,0-.094-.1h-.207a.1.1,0,0,0-.1.1c-.031,1.172-.054,2.739-.07,3.608,0,.378-.013,1.2-.018,1.575L20.5,15.406v.369c0,.076-.009.271-.016.356-.012.135-.032.4-.06.572.2-.081.4-.155.608-.221.022-.239.041-.462.054-.6Zm1.417.259c0-.293,0-.586-.007-.891l-.013-.9c-.029-1.876-.053-3.625-.082-5.5a.1.1,0,0,0-.082-.1c-.076-.012-.154-.021-.23-.031a.1.1,0,0,0-.111.094c-.078,1.986-.11,3.847-.1,5.838,0,.536.007,1.08-.018,1.612.21-.048.425-.092.642-.127ZM8.929,22.181a.1.1,0,0,0-.094.111c.012.091.021.183.037.274a.1.1,0,0,0,.092.078l4.563.136c.643.019,1.583.038,2.226.021a6,6,0,0,1,.1-.743c-.5.031-1.29.041-1.782.048C12.393,22.128,10.614,22.154,8.929,22.181Zm10.687-5.9a12.388,12.388,0,0,0,.147-1.376c.012-.127.01-.661.009-.778l-.009-1.5c-.01-.781-.026-2.66-.051-3.907a.1.1,0,0,0-.1-.1l-.2.015a.1.1,0,0,0-.089.094c-.019,1.059-.038,2.589-.048,3.14a39.537,39.537,0,0,1-.086,4.042,4.036,4.036,0,0,1-.674,1.955,7.72,7.72,0,0,1,.859-.722A3.942,3.942,0,0,0,19.617,16.284Zm4.278-.234a.062.062,0,0,0,.059-.062l-.032-.747c-.029-2.079-.067-4.039-.147-6.115a.1.1,0,0,0-.072-.092l-.234-.059a.1.1,0,0,0-.122.092c-.073,2.1-.119,4.072-.147,6.174l-.01.8C23.416,16.048,23.667,16.058,23.894,16.049ZM8.816,19.783c1.257.022,3.023.034,3.744.044a32.8,32.8,0,0,0,3.46-.059c.094-.023.5-.05.586-.082a3.417,3.417,0,0,0,.387-.081,7.2,7.2,0,0,1,.733-.907,3.74,3.74,0,0,1-1.407.479,29.364,29.364,0,0,1-3.183.147c-.218,0-1.017,0-1.235.01-.519.009-2.008.026-3.077.042a.1.1,0,0,0-.1.091c0,.072-.013.147-.018.214a.1.1,0,0,0,.106.1Zm5.806,3.737c-1.728.025-3.664.059-5.394.113a.1.1,0,0,0-.091.123c.028.1.048.2.078.3a.1.1,0,0,0,.091.072c1.693.051,3.631.092,5.317.116.293,0,.826.013,1.13.023,0-.293,0-.5-.012-.765-.274.01-.843.016-1.118.021ZM8.973,18.394c1.065.01,2.579.016,2.913.021.24,0,2.589.028,2.825-.029.047-.01.5-.025.544-.041a3.436,3.436,0,0,0,3.077-3.12c.037-.1.06-1.172.07-1.288V11.814c0-.352-.015-1.873-.025-2.943a.1.1,0,0,0-.113-.1l-.18.031A.1.1,0,0,0,18,8.9c-.009.985-.015,2.286-.021,2.535v3.069c0,.053-.015.485-.026.536a3.111,3.111,0,0,1-1.427,2.4,3.009,3.009,0,0,1-1.408.469c-.233.063-2.22.069-2.465.073H11.568c-.24,0-1.577,0-2.554.013a.1.1,0,0,0-.094.081c-.012.064-.025.13-.037.195a.1.1,0,0,0,.089.125Zm.246-1.128H14.4a2.793,2.793,0,0,0,2.714-2.834V9.156a.1.1,0,0,0-.123-.1L16.84,9.1a.1.1,0,0,0-.07.094v5.234A2.425,2.425,0,0,1,14.4,16.908H9.269a.1.1,0,0,0-.094.07c-.016.056-.032.111-.047.167a.1.1,0,0,0,.1.12ZM133.506,9.338h.053a.85.85,0,0,0,.7-.334l1.073-1.336c.317-.387.147-.7-.352-.7h-.545a.689.689,0,0,0-.686.422l-.658,1.284c-.2.387-.022.668.418.668ZM72.9,22.613h.492a.528.528,0,0,0,.586-.586V10.885a.528.528,0,0,0-.586-.586H72.9a.526.526,0,0,0-.586.586V22.033A.526.526,0,0,0,72.9,22.613ZM85.049,9.338h.229a.7.7,0,0,0,.686-.422l.545-.9.545.9a.7.7,0,0,0,.686.422h.229c.4,0,.528-.317.281-.7L87.44,7.368a.689.689,0,0,0-.686-.4h-.492a.733.733,0,0,0-.686.4l-.809,1.266C84.521,9.021,84.644,9.338,85.049,9.338ZM97.323,30.319a1.719,1.719,0,0,0,.293-1.011A1.612,1.612,0,0,0,97.045,28a2.365,2.365,0,0,0-1.568-.476h-2v5.129h.733V31.089h1.268a2.845,2.845,0,0,0,.322-.015l1.106,1.575h.8l-1.216-1.722a1.654,1.654,0,0,0,.835-.608Zm-1.868.147H94.209V28.158h1.246a1.671,1.671,0,0,1,1.062.293,1.033,1.033,0,0,1,.366.854,1.045,1.045,0,0,1-.366.857A1.628,1.628,0,0,1,95.455,30.466Zm40.185-9.313h-3.007V17.11h2.409a.526.526,0,0,0,.586-.586v-.317a.526.526,0,0,0-.586-.586h-2.409V11.764h2.953a.518.518,0,0,0,.586-.586v-.293a.526.526,0,0,0-.586-.586H131.56a.526.526,0,0,0-.586.586V22.033a.525.525,0,0,0,.586.586h4.08a.525.525,0,0,0,.586-.586v-.293a.521.521,0,0,0-.586-.586Zm-7.21-10.844h-.563a.627.627,0,0,0-.651.475l-2.491,7.181-2.462-7.181a.646.646,0,0,0-.668-.475H121.1a.526.526,0,0,0-.586.586V22.043a.525.525,0,0,0,.586.586h.369a.534.534,0,0,0,.6-.586v-7.8l2.04,6a.605.605,0,0,0,.633.475.574.574,0,0,0,.615-.475l2.052-6v7.789a.528.528,0,0,0,.586.586h.44a.526.526,0,0,0,.586-.586V10.885a.534.534,0,0,0-.592-.58Zm-14.156.528a.6.6,0,0,0-.633-.528h-.985a.6.6,0,0,0-.633.528l-2.216,11.144c-.07.4.125.633.51.633h.44a.572.572,0,0,0,.615-.528l.422-2.373h2.655l.422,2.373a.586.586,0,0,0,.633.528h.51a.47.47,0,0,0,.51-.633Zm-2.216,7.481,1.073-5.944,1.073,5.944Zm-4.25-8.019h-.492a.526.526,0,0,0-.586.586V22.033a.525.525,0,0,0,.586.586h.492a.528.528,0,0,0,.586-.586V10.885a.528.528,0,0,0-.591-.58Zm-5.961-.147h-.035c-1.864,0-2.989.826-2.989,2.6v7.386c0,1.863,1.125,2.6,2.989,2.6h.035c1.864,0,2.989-.756,2.989-2.6V18.236a.526.526,0,0,0-.586-.586h-.492a.528.528,0,0,0-.586.586v1.6c0,1.071-.457,1.458-1.354,1.458s-1.354-.387-1.354-1.458V13.083c0-1.073.457-1.465,1.354-1.465s1.354.387,1.354,1.465v1.3a.528.528,0,0,0,.586.586h.492a.526.526,0,0,0,.586-.586V12.773c0-1.782-1.13-2.608-2.994-2.608Zm61.331,11.829-2.251-11.147a.6.6,0,0,0-.633-.528h-.985a.6.6,0,0,0-.633.528L156.46,21.981c-.07.4.123.633.51.633h.44a.572.572,0,0,0,.615-.528l.422-2.373H161.1l.422,2.373a.586.586,0,0,0,.633.528h.51A.471.471,0,0,0,163.177,21.981Zm-4.467-3.664,1.073-5.944,1.073,5.944ZM140.721,10.3H138.26a.526.526,0,0,0-.586.586V22.038a.525.525,0,0,0,.586.586h2.462c1.864,0,2.989-.79,2.989-2.6V12.907C143.711,11.1,142.585,10.3,140.721,10.3Zm1.336,9.39c0,1.089-.492,1.458-1.407,1.458h-1.319V11.764h1.319c.914,0,1.407.369,1.407,1.465Zm10.27-9.525h-.037c-1.864,0-2.989.826-2.989,2.6v7.386c0,1.863,1.125,2.6,2.989,2.6h.035c1.864,0,2.989-.756,2.989-2.6V18.236a.526.526,0,0,0-.586-.586h-.492a.528.528,0,0,0-.586.586v1.6c0,1.071-.457,1.458-1.354,1.458s-1.354-.387-1.354-1.458V13.083c0-1.073.457-1.465,1.354-1.465s1.354.387,1.354,1.465v1.3a.528.528,0,0,0,.586.586h.492a.526.526,0,0,0,.586-.586V12.773c0-1.782-1.12-2.608-2.988-2.608Zm-5.569.147h-.492a.526.526,0,0,0-.586.586V22.05a.525.525,0,0,0,.586.586h.492a.528.528,0,0,0,.586-.586V10.885a.528.528,0,0,0-.592-.58ZM73.9,27.462a1.873,1.873,0,0,0-1.685.784V27.52h-.7v5.129h.733v-2.9a1.668,1.668,0,0,1,.4-1.216,1.48,1.48,0,0,1,1.106-.41,1.336,1.336,0,0,1,1.018.384,1.585,1.585,0,0,1,.366,1.133v3.019h.733V29.609a2.243,2.243,0,0,0-.52-1.59A1.888,1.888,0,0,0,73.9,27.462ZM63.542,22.033v-.293a.518.518,0,0,0-.586-.586h-3V17.11h2.409a.526.526,0,0,0,.586-.586v-.317a.526.526,0,0,0-.586-.586H59.955V11.764h2.954a.518.518,0,0,0,.586-.586v-.293a.526.526,0,0,0-.586-.586H58.882a.526.526,0,0,0-.586.586V22.033a.525.525,0,0,0,.586.586h4.08A.526.526,0,0,0,63.542,22.033Zm5.293-5.925-1.6-.879c-.7-.4-.967-.668-.967-1.407v-.844c0-.985.475-1.372,1.319-1.372s1.319.387,1.319,1.372v1.09a.526.526,0,0,0,.586.586h.457a.526.526,0,0,0,.586-.586V12.7c0-1.776-1.231-2.532-2.919-2.532h-.035c-1.688,0-2.919.756-2.919,2.532v1.547c0,1.172.6,1.706,1.723,2.356l1.583.879c.721.4.985.721.985,1.465v.966c0,.967-.475,1.407-1.336,1.407s-1.336-.44-1.336-1.407V18.681a.526.526,0,0,0-.586-.586h-.463a.526.526,0,0,0-.586.586v1.511c0,1.864,1.073,2.567,2.931,2.567h.035c1.864,0,2.931-.721,2.931-2.567v-1.71c.018-1.178-.651-1.776-1.706-2.374ZM62.673,27.462a2.162,2.162,0,0,0-1.6.6,2.323,2.323,0,0,0-.593,1.712v2.88h.718V31.235h2.96v1.414h.733V29.77a2.326,2.326,0,0,0-.593-1.712A2.174,2.174,0,0,0,62.673,27.462Zm1.48,3.136h-2.96V29.7a1.635,1.635,0,0,1,.393-1.187,1.671,1.671,0,0,1,2.176,0,1.639,1.639,0,0,1,.391,1.187ZM55,17.321a2.291,2.291,0,0,0,1.442-2.356V12.913c0-1.811-1.125-2.6-2.989-2.6H50.957a.526.526,0,0,0-.586.586V22.044a.525.525,0,0,0,.586.586h.492a.528.528,0,0,0,.586-.586V17.567h1.442l1.547,4.571a.61.61,0,0,0,.651.475h.484a.469.469,0,0,0,.492-.668Zm-.211-2.655c0,1.09-.492,1.465-1.407,1.465H52.024V11.764h1.351c.914,0,1.407.369,1.407,1.465Zm29.855,12.8a2.187,2.187,0,0,0-1.612.6,2.262,2.262,0,0,0-.586,1.712v2.88h.718V31.235h2.96v1.414h.733V29.77a2.326,2.326,0,0,0-.593-1.712A2.174,2.174,0,0,0,84.64,27.462ZM86.12,30.6H83.16V29.7a1.635,1.635,0,0,1,.393-1.187,1.671,1.671,0,0,1,2.176,0A1.639,1.639,0,0,1,86.12,29.7Zm-32.657-.542a6.887,6.887,0,0,0-.931-.278,6.762,6.762,0,0,1-.706-.195,1.213,1.213,0,0,1-.44-.256.56.56,0,0,1-.176-.428.693.693,0,0,1,.312-.586,1.616,1.616,0,0,1,.933-.227,2.582,2.582,0,0,1,.718.106,2.638,2.638,0,0,1,.689.312l.242-.586a2.362,2.362,0,0,0-.755-.337,3.41,3.41,0,0,0-.894-.117,2.663,2.663,0,0,0-1.092.2,1.48,1.48,0,0,0-.655.528,1.319,1.319,0,0,0-.217.74,1.142,1.142,0,0,0,.254.78,1.547,1.547,0,0,0,.608.429,7.569,7.569,0,0,0,.933.278q.462.11.715.2a1.158,1.158,0,0,1,.425.252.57.57,0,0,1,.171.429.662.662,0,0,1-.315.574,1.671,1.671,0,0,1-.953.217,2.754,2.754,0,0,1-.941-.166,2.248,2.248,0,0,1-.751-.428l-.271.572a2.283,2.283,0,0,0,.847.465,3.5,3.5,0,0,0,1.117.18,2.738,2.738,0,0,0,1.1-.195,1.465,1.465,0,0,0,.667-.528,1.306,1.306,0,0,0,.22-.733,1.12,1.12,0,0,0-.252-.769,1.564,1.564,0,0,0-.6-.428Zm42.365-7.443h.51a.526.526,0,0,0,.586-.586V10.885a.526.526,0,0,0-.586-.586h-.369a.528.528,0,0,0-.586.586v7.9l-2.919-8A.646.646,0,0,0,91.8,10.3h-.586a.526.526,0,0,0-.586.586V22.038a.525.525,0,0,0,.586.586h.369a.528.528,0,0,0,.586-.586V13.857l3.007,8.281a.627.627,0,0,0,.657.475ZM88.6,21.147H85.594V17.11H88a.526.526,0,0,0,.586-.586v-.317A.526.526,0,0,0,88,15.621H85.594V11.764h2.951a.518.518,0,0,0,.586-.586v-.293a.526.526,0,0,0-.586-.586H84.521a.526.526,0,0,0-.586.586V22.033a.525.525,0,0,0,.586.586H88.6a.526.526,0,0,0,.586-.586v-.293a.521.521,0,0,0-.586-.586ZM79.052,10.3H76.59a.526.526,0,0,0-.586.586V22.037a.525.525,0,0,0,.586.586h2.462c1.864,0,2.989-.79,2.989-2.6V12.907c0-1.811-1.125-2.6-2.989-2.6Zm1.336,9.39c0,1.089-.492,1.458-1.407,1.458H77.663V11.764h1.319c.914,0,1.407.369,1.407,1.465Z" transform="translate(-0.04 0)"/></g></g></svg>